<?xml version="1.0" encoding="utf-8"?>
<!-- Generator: Adobe Illustrator 25.2.1, SVG Export Plug-In . SVG Version: 6.00 Build 0)  -->
<svg version="1.1" id="Capa_1" xmlns="http://www.w3.org/2000/svg" xmlns:xlink="http://www.w3.org/1999/xlink" x="0px" y="0px"
	 viewBox="0 0 32 32" style="enable-background:new 0 0 32 32;" xml:space="preserve">
<style type="text/css">
	.st0{fill:#D5923C;}
	.st1{fill:#B56D1D;}
	.st2{fill:#E7A74E;}
	.st3{fill:#503D29;}
	.st4{fill:#B16C22;}
	.st5{fill:#2F2419;}
	.st6{fill:#45321E;}
	.st7{fill:#F5F3F3;}
</style>
<g>
	<path class="st0" d="M13.72,25.66c-0.11,0.04-0.13,0.15-0.18,0.23c-0.35,0.61-0.69,1.22-1.12,1.77c-0.16,0.2-0.25,0.16-0.39,0
		c-0.27-0.32-0.5-0.68-0.68-1.06c-0.04-0.08-0.07-0.2-0.17-0.18c-0.1,0.01-0.09,0.14-0.11,0.22C11,26.97,11,27.3,11.01,27.63
		c0,0.18-0.07,0.22-0.21,0.11c-0.05-0.04-0.09-0.07-0.14-0.11c-0.2-0.31-0.49-0.55-0.73-0.82l-0.18-0.23
		c-0.01-0.02-0.03-0.04-0.04-0.06c0,0,0,0-0.01,0l-0.27-0.33c-0.31-0.42-0.57-0.86-0.88-1.3c0.03,0.22,0.06,0.43,0.08,0.65
		c0.01,0.11,0.02,0.22,0.03,0.33c0,0.08,0.02,0.17-0.08,0.21c-0.09,0.03-0.15-0.05-0.2-0.11c-0.36-0.44-0.59-0.96-0.79-1.48
		c-0.22-0.58-0.4-1.17-0.56-1.77c0.14-0.29,0.2-0.65,0.59-0.73c0.23,0.92,0.84,1.42,1.79,1.46c0.12,0.01,0.12,0.08,0.15,0.15
		c0.1,0.26,0.25,0.48,0.47,0.65c1.05,0.81,2.3,0.67,3.31,0.03c0.17,0.02,0.15,0.17,0.18,0.28C13.6,24.91,13.66,25.29,13.72,25.66z"
		/>
	<path class="st0" d="M9.92,26.81c-0.06-0.07-0.13-0.15-0.18-0.23L9.92,26.81z"/>
	<path class="st1" d="M24.96,29.44c-1.26-1.04-2.22-2.31-2.94-3.76c-0.03-0.06-0.06-0.13-0.15-0.13c-0.01-0.15-0.04-0.3-0.08-0.44
		c-0.25-0.86-0.34-1.72-0.13-2.61c0.04-0.16,0.16-0.34,0.02-0.52c0.07-0.1,0.11-0.21,0.14-0.33c0.15-0.66,0.38-1.3,0.62-1.94
		c0.33-0.86,0.69-1.7,0.95-2.59c0.11-0.39,0.15-0.81,0.34-1.18c0-1.11-0.3-2.12-0.98-3.02c-0.21-0.28-0.44-0.54-0.54-0.89l0.01-0.01
		c0.33,0.17,0.55,0.46,0.78,0.74c0.23,0.28,0.45,0.57,0.67,0.86c-0.09-0.78-0.12-1.55-0.34-2.31c0.68,0.13,1.31,0.33,1.88,0.69
		c0.56,0.36,1,0.87,1.48,1.33c0.05-1.41,0-2.79-0.76-4.09c0.23,0.04,0.36,0.13,0.5,0.21c0.25,0.14,0.45,0.37,0.73,0.48
		c0.13,0.26,0.33,0.45,0.53,0.65c0.94,0.99,1.91,1.95,2.68,3.09c1.17,1.75,1.73,3.68,1.61,5.78c-0.05,0.87-0.32,1.69-0.59,2.51
		c-0.08,0.24-0.16,0.48-0.25,0.71c-0.03,0.07-0.04,0.19-0.14,0.16c-0.09-0.03-0.08-0.15-0.09-0.24c-0.03-0.7-0.16-1.37-0.36-2.04
		c-0.01-0.05-0.01-0.1-0.09-0.13c-0.1,0.15-0.1,0.33-0.13,0.5c-0.25,1.37-0.86,2.59-1.63,3.73c-0.33,0.48-0.68,0.95-1.03,1.41
		c-0.08,0.1-0.16,0.28-0.32,0.21c-0.13-0.06-0.07-0.24-0.06-0.36c0.04-0.41,0.1-0.81,0.15-1.25c-0.14,0.03-0.23,0.14-0.31,0.22
		c-0.82,0.88-1.32,1.91-1.36,3.13c-0.02,0.51-0.05,1.02,0.05,1.53c0.05,0.25-0.03,0.3-0.26,0.19
		C25.37,29.65,25.17,29.55,24.96,29.44z"/>
	<path class="st2" d="M27.17,9.92c-0.28-0.11-0.47-0.33-0.73-0.48c-0.14-0.08-0.27-0.17-0.5-0.21c0.76,1.3,0.81,2.67,0.76,4.09
		c-0.49-0.46-0.92-0.97-1.48-1.33c-0.57-0.36-1.19-0.56-1.88-0.69c0.22,0.77,0.24,1.54,0.34,2.31c-0.22-0.29-0.43-0.58-0.67-0.86
		c-0.23-0.27-0.45-0.56-0.78-0.74c-0.01,0-0.02-0.01-0.03-0.01c0.01,0.01,0.01,0.01,0.02,0.02c0.09,0.35,0.33,0.62,0.54,0.89
		c0.67,0.9,0.98,1.91,0.98,3.02c-0.22-0.1-0.19-0.34-0.28-0.51c-0.55-1.1-1.5-1.75-2.56-2.27c-0.73-0.36-1.5-0.63-2.29-0.83
		c-0.06-0.02-0.12-0.03-0.15-0.09c-0.03-0.08,0.03-0.13,0.09-0.17c0.18-0.12,0.37-0.24,0.56-0.35c0.35-0.21,0.74-0.32,1.14-0.46
		c-0.97-0.44-1.92-0.94-3.04-0.63c-0.05,0.01-0.14,0.01-0.17-0.02c-0.07-0.07,0.01-0.13,0.05-0.18c0.06-0.08,0.12-0.16,0.19-0.23
		c0.3-0.36,0.71-0.59,1.07-0.87c0.07-0.05,0.19-0.09,0.16-0.19c-0.03-0.11-0.16-0.07-0.24-0.06c-0.81,0.07-1.6,0.25-2.34,0.6
		c-0.05,0.03-0.1,0.07-0.16,0.01c0.25-0.7,0.59-1.37,0.84-2.16c-1.1,0.52-2.04,1.13-2.88,2c0-0.82,0.38-1.48,0.49-2.31
		c-0.45,0.38-0.85,0.68-1.2,1.03c-1.2,1.2-2.15,2.61-3.26,3.89c-0.22-0.51-0.11-1.04-0.09-1.56c0.01-0.59,0.17-1.16,0.22-1.75
		c0.01-0.01,0.01-0.01,0.02-0.02c0,0-0.01-0.01-0.01-0.01C9.87,8.82,9.87,8.82,9.86,8.83C9.8,8.86,9.74,8.89,9.68,8.93
		C8.99,9.44,8.29,9.95,7.6,10.47c-0.08,0.06-0.16,0.16-0.26,0.1c-0.12-0.07-0.07-0.2-0.04-0.3c0.15-0.6,0.38-1.16,0.7-1.69
		c0.66-1.1,1.61-1.94,2.53-2.81c0.05-0.05,0.15-0.06,0.13-0.19c-0.58,0-1.16,0-1.74,0C9.2,5.21,9.61,5,10,4.76
		c0.97-0.6,1.97-1.13,3.09-1.37c0.01,0,0.02-0.03,0.04-0.06c-0.72-0.17-1.47-0.03-2.17-0.25c2.14-0.87,4.26-1.02,6.41,0.25
		c-0.17-0.41-0.3-0.74-0.46-1.13c0.31,0.1,0.57,0.17,0.82,0.28c1.2,0.51,2.22,1.25,2.9,2.39c0.1,0.17,0.22,0.17,0.38,0.16
		c2.18-0.08,3.84,0.9,5.14,2.57C26.68,8.29,26.98,9.09,27.17,9.92z"/>
	<path class="st2" d="M18.5,21.27c-0.1,0.05-0.15-0.07-0.21-0.13c-0.12-0.11-0.23-0.23-0.34-0.34c-0.05-0.05-0.1-0.16-0.19-0.11
		c-0.09,0.05-0.03,0.14-0.01,0.22c0.07,0.23,0.14,0.46,0.2,0.69c0.22,0.9,0.35,1.81,0.31,2.73c-0.02,0.44-0.11,0.86-0.27,1.28
		c-0.09-0.31-0.18-0.62-0.28-0.93c-0.08-0.29-0.13-0.59-0.33-0.92c-0.03,0.44-0.21,0.76-0.2,1.13c-0.24,0.69-0.5,1.38-0.92,1.99
		c-0.04,0.06-0.09,0.16-0.18,0.13c-0.1-0.03-0.06-0.14-0.06-0.21c0.02-0.41-0.06-0.8-0.17-1.19c-0.02-0.07-0.03-0.18-0.12-0.19
		c-0.1,0-0.11,0.11-0.14,0.18c-0.42,0.93-0.99,1.77-1.68,2.52c-0.06,0.06-0.1,0.18-0.2,0.14c-0.1-0.04-0.05-0.16-0.05-0.24
		c0.07-0.79,0.11-1.58,0.06-2.37c-0.07-0.37-0.13-0.75-0.2-1.12c-0.02-0.1-0.01-0.26-0.18-0.28c-0.05-0.37-0.12-0.42-0.46-0.35
		c-0.53,0.11-1.06,0.23-1.61,0.12c-0.68-0.14-1.22-0.89-1.11-1.56c0.02-0.09-0.01-0.3,0.18-0.22c0.5,0.21,0.99,0.06,1.48-0.03
		c0.45-0.08,0.85-0.3,1.18-0.62c0.02-0.02,0.03-0.03,0.05-0.05c0.02-0.02,0.04-0.04,0.05-0.05c0.28-0.24,0.31-0.57,0.35-0.9
		c0.05-0.47-0.07-0.89-0.33-1.28c-0.63-0.96-2.27-1.58-3.38-1.27c-0.65,0.18-1.05,0.72-1.04,1.4c-0.05,0.24-0.08,0.48-0.02,0.72
		c0.05,0.56,0.27,1.06,0.65,1.45c0.24,0.25,0.32,0.44,0.22,0.78c-0.12,0.41-0.29,0.52-0.67,0.32c-0.35-0.18-0.58-0.48-0.8-0.8
		c-0.06-0.09-0.11-0.19-0.25-0.18c-0.15,0.02-0.2,0.11-0.23,0.24c-0.4,0.08-0.46,0.44-0.59,0.73c-0.25,0.46-0.34,0.96-0.37,1.47
		c-0.01,0.09,0.03,0.23-0.1,0.25c-0.13,0.02-0.14-0.12-0.18-0.2C6,23.41,5.94,22.55,6.03,21.67c0.01-0.08,0.02-0.16,0.03-0.29
		c-0.33,0.16-0.5,0.44-0.71,0.67c-0.13,0.13-0.2,0.43-0.37,0.37c-0.17-0.06-0.1-0.35-0.11-0.55c-0.02-0.49,0.06-0.98,0.16-1.46
		c0.33-1,0.96-1.8,1.75-2.49c-0.02-0.02-0.04-0.03-0.05-0.05c-0.41,0.07-0.82,0.15-1.23,0.22c0.83-1.34,2.02-2.13,3.62-2.45
		c-0.24-0.06-0.39-0.09-0.54-0.13c-0.05-0.02-0.13-0.03-0.14-0.09c-0.01-0.08,0.07-0.08,0.12-0.12c0.28-0.21,0.63-0.24,0.94-0.37
		c0.14,0,0.28,0.01,0.42-0.01c0.71-0.12,1.43-0.09,2.12,0.03c1.92,0.33,3.61,1.14,4.89,2.64c0.61,0.71,1.11,1.5,1.37,2.41
		c0.1,0.34,0.21,0.67,0.23,1.02C18.55,21.1,18.59,21.22,18.5,21.27z"/>
	<path class="st1" d="M9.51,14.93c-0.31,0.13-0.66,0.16-0.94,0.37c-0.05,0.03-0.13,0.04-0.12,0.12c0.01,0.07,0.08,0.08,0.14,0.1
		c0.15,0.04,0.3,0.08,0.54,0.13c-1.6,0.33-2.8,1.11-3.62,2.45c0.41-0.07,0.82-0.15,1.23-0.22c0.02,0.02,0.04,0.03,0.05,0.05
		c-0.79,0.69-1.42,1.49-1.75,2.49c-0.41,0.1-0.81,0.21-1.22,0.31c-1.28,0.3-2.47-0.01-3.62-0.54c-0.25-0.11-0.24-0.18-0.02-0.34
		c1.12-0.83,1.95-1.9,2.55-3.15c0.01-0.02,0.01-0.06,0.02-0.13c-0.56,0.24-1.11,0.46-1.67,0.62c-0.15,0.04-0.36,0.21-0.46,0.03
		c-0.11-0.18,0.14-0.28,0.25-0.39c1.37-1.39,2.38-3,2.94-4.87c0.04-0.13,0.06-0.27,0.1-0.47c-0.61,0.57-1.02,1.23-1.54,1.78
		c-0.03-0.02-0.05-0.03-0.08-0.05c0.12-0.37,0.25-0.73,0.35-1.1c0.28-1.02,0.72-1.97,1.33-2.82C4.88,7.98,6.09,7,7.5,6.27
		c0.46-0.24,0.96-0.4,1.4-0.69c0.58,0,1.16,0,1.74,0c0.03,0.12-0.07,0.14-0.13,0.19C9.6,6.63,8.65,7.48,7.99,8.57
		c-0.32,0.53-0.54,1.1-0.7,1.69c-0.03,0.1-0.08,0.23,0.04,0.3c0.1,0.06,0.18-0.04,0.26-0.1c0.69-0.51,1.39-1.03,2.08-1.54
		c0.05-0.04,0.12-0.07,0.18-0.1l0.01,0.01c-0.05,0.58-0.2,1.16-0.22,1.74c-0.01,0.52-0.12,1.05,0.09,1.56
		c0.06,0.11,0.07,0.23,0.03,0.35c-0.18,0.66-0.31,1.33-0.43,2C9.31,14.69,9.35,14.82,9.51,14.93z"/>
	<path class="st3" d="M11.23,20.49c-0.07,0.24-0.1,0.51,0.04,0.75c0.21,0.36,0.91,0.55,1.34,0.37c0.13-0.05,0.26-0.17,0.4-0.03
		c-0.33,0.32-0.73,0.53-1.18,0.62c-0.49,0.09-0.98,0.24-1.48,0.03c-0.19-0.08-0.17,0.13-0.18,0.22c-0.11,0.67,0.43,1.42,1.11,1.56
		c0.55,0.12,1.08,0,1.61-0.12c0.34-0.07,0.41-0.02,0.46,0.35c-1.02,0.64-2.27,0.77-3.31-0.03c-0.22-0.17-0.37-0.39-0.47-0.65
		c-0.03-0.07-0.02-0.14-0.15-0.15c-0.95-0.04-1.56-0.54-1.79-1.46c0.02-0.13,0.08-0.22,0.23-0.24c0.14-0.01,0.19,0.09,0.25,0.18
		c0.22,0.32,0.45,0.62,0.8,0.8c0.39,0.2,0.55,0.09,0.67-0.32c0.1-0.34,0.02-0.53-0.22-0.78c-0.38-0.39-0.6-0.89-0.65-1.45
		c0.43-0.02,0.87-0.05,0.91,0.56c0,0.06,0.05,0.14,0.14,0.14c0.11-0.01,0.15-0.09,0.19-0.17c0.19-0.38,0.05-0.77,0.02-1.15
		c-0.01-0.1-0.13-0.14-0.23-0.16c-0.34-0.09-0.67,0.04-1.01,0.07c0-0.68,0.4-1.22,1.04-1.4c1.11-0.31,2.75,0.31,3.38,1.27
		c0.25,0.39,0.38,0.81,0.33,1.28c-0.13,0.01-0.21,0.12-0.3,0.19c-0.25,0.2-0.54,0.29-0.84,0.22c-0.24-0.06-0.23-0.32-0.32-0.5
		c-0.07-0.14-0.18-0.27-0.37-0.27C11.46,20.24,11.28,20.33,11.23,20.49z"/>
	<path class="st4" d="M9.74,26.58l-0.05-0.06c0,0,0,0,0.01,0C9.71,26.54,9.72,26.56,9.74,26.58z"/>
	<path class="st0" d="M23.45,15.44c-0.55-1.1-1.5-1.75-2.56-2.27c-0.73-0.36-1.5-0.63-2.29-0.83c-0.06-0.02-0.12-0.03-0.15-0.09
		c-0.03-0.08,0.03-0.13,0.09-0.17c0.19-0.12,0.37-0.24,0.56-0.35c0.35-0.21,0.74-0.32,1.14-0.46c-0.97-0.44-1.92-0.94-3.04-0.63
		c-0.05,0.02-0.14,0.01-0.17-0.02c-0.07-0.07,0.01-0.13,0.05-0.18c0.06-0.08,0.12-0.16,0.19-0.23c0.3-0.36,0.71-0.59,1.07-0.87
		c0.07-0.05,0.19-0.09,0.16-0.19c-0.03-0.11-0.16-0.07-0.24-0.06c-0.81,0.07-1.6,0.25-2.34,0.6c-0.05,0.03-0.1,0.07-0.16,0.01
		c0.25-0.7,0.59-1.37,0.84-2.16c-1.1,0.52-2.04,1.13-2.88,2c0-0.82,0.38-1.48,0.49-2.31c-0.45,0.38-0.85,0.68-1.2,1.03
		c-1.2,1.2-2.15,2.61-3.26,3.88c0.06,0.11,0.07,0.23,0.03,0.35c-0.18,0.66-0.31,1.33-0.43,2c-0.04,0.2,0,0.33,0.16,0.43
		c0.14,0,0.28,0.01,0.42-0.01c0.71-0.12,1.43-0.09,2.12,0.03c1.92,0.33,3.61,1.14,4.89,2.64c0.61,0.71,1.11,1.5,1.37,2.41
		c0.1,0.34,0.21,0.67,0.23,1.02c0.01,0.08,0.05,0.2-0.05,0.25c-0.1,0.05-0.15-0.07-0.21-0.13c-0.12-0.11-0.23-0.23-0.34-0.34
		c-0.05-0.05-0.1-0.16-0.19-0.11c-0.09,0.05-0.03,0.14-0.01,0.22c0.07,0.23,0.14,0.46,0.2,0.69c0.22,0.9,0.35,1.81,0.31,2.73
		c0.82-0.56,1.7-1.01,2.48-1.63c0.31-0.25,0.63-0.49,0.95-0.73c0.07-0.1,0.11-0.21,0.14-0.33c0.15-0.66,0.38-1.3,0.62-1.94
		c0.33-0.86,0.69-1.7,0.95-2.59c0.11-0.39,0.15-0.81,0.34-1.18C23.51,15.85,23.54,15.61,23.45,15.44z M13.61,14.07
		c-0.42,0.19-0.86,0.28-1.32,0.14c-0.24-0.07-0.46-0.2-0.59-0.43c-0.6-0.64-0.26-2.23,0.66-2.66c0.1-0.05,0.19-0.05,0.29-0.04
		c0.29-0.23,0.63-0.17,0.93-0.07c0.63,0.21,1.03,0.74,1.06,1.36C14.67,13.07,14.25,13.77,13.61,14.07z M21.31,17.17
		c-0.65,1.03-1.9,1.1-2.64,0.16c-0.7-0.88-0.53-2.08,0.37-2.62c0.29-0.18,0.59-0.16,0.9-0.15c0.66-0.09,1.09,0.27,1.41,0.78
		C21.72,15.95,21.68,16.58,21.31,17.17z"/>
	<path class="st1" d="M22.22,12.03c-0.01-0.01-0.01-0.01-0.02-0.02c0.01,0,0.02,0.01,0.03,0.01C22.23,12.02,22.22,12.03,22.22,12.03
		z"/>
	<path class="st1" d="M9.86,8.83c0.01-0.01,0.01-0.01,0.02-0.02c0,0,0.01,0.01,0.01,0.01C9.89,8.83,9.88,8.83,9.86,8.83
		C9.87,8.84,9.86,8.83,9.86,8.83z"/>
	<path class="st5" d="M13.01,21.59c-0.14-0.15-0.28-0.03-0.4,0.02c-0.43,0.18-1.13-0.01-1.34-0.37c-0.14-0.24-0.11-0.51-0.04-0.75
		c0.05-0.16,0.22-0.26,0.41-0.26c0.19,0,0.29,0.13,0.37,0.27c0.09,0.18,0.08,0.44,0.32,0.5c0.31,0.07,0.59-0.02,0.84-0.22
		c0.09-0.07,0.16-0.18,0.3-0.19c-0.04,0.33-0.08,0.66-0.35,0.9c-0.02,0.02-0.04,0.04-0.05,0.05C13.05,21.56,13.03,21.58,13.01,21.59
		z"/>
	<path class="st5" d="M8.72,19.45c0.33-0.03,0.66-0.15,1.01-0.07c0.1,0.03,0.22,0.06,0.23,0.16c0.03,0.38,0.17,0.77-0.02,1.15
		c-0.04,0.08-0.08,0.17-0.19,0.17c-0.09,0-0.13-0.07-0.14-0.14c-0.04-0.61-0.48-0.59-0.91-0.56C8.64,19.92,8.67,19.68,8.72,19.45z"
		/>
	<path class="st0" d="M17.71,24.69c-0.18,0.07-0.35,0.14-0.53,0.21c-0.01-0.36,0.17-0.69,0.2-1.13
		C17.58,24.1,17.63,24.4,17.71,24.69z"/>
	<path class="st3" d="M13.06,21.55c0.02-0.02,0.04-0.04,0.05-0.05C13.1,21.51,13.08,21.53,13.06,21.55z"/>
	<path class="st5" d="M18.67,17.34c-0.7-0.88-0.53-2.08,0.37-2.62c0.29-0.18,0.59-0.16,0.9-0.15c0,0.09,0,0.18,0,0.27
		c-0.21,0.04-0.39,0.12-0.38,0.38c0.01,0.23,0.18,0.32,0.38,0.37c0.27,0.06,0.43-0.06,0.52-0.36c0.06-0.11,0.12-0.07,0.21-0.02
		c0.29,0.16,0.2,0.45,0.3,0.68c-0.03,0.19-0.04,0.38-0.1,0.55c-0.2,0.58-0.69,0.89-1.4,0.89C19.19,17.23,18.93,17.43,18.67,17.34z"
		/>
	<path class="st5" d="M11.69,13.77c-0.6-0.64-0.26-2.23,0.66-2.66c0.1-0.05,0.19-0.05,0.29-0.05c-0.11,0.19,0.01,0.31,0.13,0.43
		c-0.07,0.2-0.04,0.38,0.17,0.47c0.19,0.08,0.39,0.11,0.55-0.07c0.14-0.16,0.07-0.31-0.04-0.45c0.16-0.17,0.26-0.12,0.39,0.05
		c0.17,0.22,0.16,0.48,0.25,0.72c0,0.91-0.7,1.56-1.68,1.57C12.17,13.78,11.93,13.78,11.69,13.77z"/>
	<path class="st6" d="M19.94,14.84c0-0.09,0-0.18,0-0.27c0.66-0.09,1.09,0.27,1.41,0.78c0.37,0.6,0.33,1.23-0.04,1.82
		c-0.65,1.03-1.9,1.1-2.64,0.16c0.26,0.09,0.53-0.1,0.79,0c-0.02,0.19,0.07,0.27,0.25,0.3c0.73,0.1,1.22-0.2,1.46-0.89
		c0.18-0.51,0.13-0.7-0.21-0.85c-0.1-0.23-0.02-0.53-0.3-0.68c-0.1-0.05-0.15-0.1-0.21,0.02C20.38,14.95,20.18,14.87,19.94,14.84z"
		/>
	<path class="st6" d="M11.69,13.77c0.24,0,0.47,0,0.71,0.01c0.01,0.1,0.07,0.16,0.17,0.17c1.06,0.12,1.81-0.61,1.69-1.67
		c-0.01-0.12-0.07-0.16-0.18-0.08c-0.1-0.23-0.08-0.5-0.25-0.72c-0.13-0.17-0.24-0.22-0.39-0.05c-0.23-0.12-0.46-0.12-0.67,0.05
		c-0.12-0.12-0.23-0.24-0.13-0.43c0.29-0.23,0.63-0.17,0.93-0.07c0.63,0.21,1.03,0.74,1.06,1.36c0.04,0.7-0.38,1.41-1.03,1.7
		c-0.42,0.19-0.86,0.28-1.32,0.14C12.04,14.13,11.83,14.01,11.69,13.77z"/>
	<path class="st3" d="M20.96,15.89c0.34,0.16,0.38,0.35,0.21,0.85c-0.24,0.69-0.73,0.99-1.46,0.89c-0.18-0.02-0.27-0.11-0.25-0.3
		c0.71,0,1.21-0.31,1.4-0.89C20.92,16.27,20.93,16.07,20.96,15.89z"/>
	<path class="st7" d="M19.94,14.84c0.24,0.03,0.44,0.12,0.51,0.39c-0.09,0.3-0.25,0.42-0.52,0.36c-0.2-0.04-0.36-0.14-0.38-0.37
		C19.54,14.96,19.72,14.88,19.94,14.84z"/>
	<path class="st3" d="M14.09,12.21c0.11-0.09,0.17-0.04,0.18,0.08c0.12,1.05-0.63,1.79-1.69,1.67c-0.1-0.01-0.16-0.07-0.17-0.17
		C13.39,13.77,14.09,13.12,14.09,12.21z"/>
	<path class="st7" d="M12.77,11.5c0.21-0.17,0.44-0.17,0.67-0.05c0.11,0.14,0.18,0.3,0.04,0.45c-0.16,0.18-0.36,0.15-0.55,0.07
		C12.72,11.88,12.69,11.7,12.77,11.5z"/>
	<path class="st0" d="M9.92,26.81c-0.06-0.07-0.13-0.15-0.18-0.23L9.92,26.81z"/>
</g>
</svg>
