<?xml version="1.0" encoding="utf-8"?>
<!-- Generator: Adobe Illustrator 25.2.1, SVG Export Plug-In . SVG Version: 6.00 Build 0)  -->
<svg version="1.1" id="Capa_1" xmlns="http://www.w3.org/2000/svg" xmlns:xlink="http://www.w3.org/1999/xlink" x="0px" y="0px"
	 viewBox="0 0 569.87 612" style="enable-background:new 0 0 569.87 612;" xml:space="preserve">
<style type="text/css">
	.st0{fill:#59BEBE;}
</style>
<g>
	<path class="st0" d="M506.7,292.85c0,73.61,0,146.94,0,220.67c3.68,0,7.18-0.13,10.66,0.03c6.85,0.3,11.13,4.08,11.23,10.81
		c0.24,16.4,0.24,32.81-0.01,49.21c-0.11,6.98-4.91,11.29-12,11.76c-1.22,0.08-2.44,0.03-3.66,0.03
		c-152.02,0.04-304.04,0.09-456.05,0.13c-10.25,0-15.02-4.8-15.03-15.17c-0.01-14.24-0.02-28.48,0.01-42.72
		c0.02-9.58,4.27-13.89,13.79-14.06c2.82-0.05,5.65-0.01,8.71-0.01c0-73.75,0-147.17,0-220.28c-2.96,0.79-5.97,2.01-9.07,2.34
		c-5.9,0.63-10.29-2.06-13.73-6.89c-10.13-14.19-20.4-28.29-30.68-42.37c-6.39-8.75-5.17-17.36,3.39-24.02
		c40.02-31.18,80-62.42,120.02-93.59c33.72-26.27,67.49-52.47,101.22-78.71c12.71-9.89,25.41-19.78,38.06-29.73
		c7.66-6.02,15.17-6.35,22.88-0.39c29.97,23.16,59.88,46.4,89.79,69.65c24.99,19.43,49.96,38.89,74.93,58.35
		c32.13,25.03,64.27,50.05,96.37,75.11c7.57,5.91,9.01,14.68,3.61,22.17c-10.35,14.36-20.77,28.68-31.27,42.93
		C523.61,296.61,516.81,297.96,506.7,292.85z M156.8,513.33c0.04-0.9,0.1-1.56,0.1-2.21c0-34.72-0.21-69.45,0.09-104.16
		c0.14-16.36-0.27-32.95,2.25-49.01c6.29-40.12,28.26-70.13,63.64-89.86c27.61-15.4,57.34-19.21,88.24-13.15
		c30.91,6.07,56.2,21.63,75.61,46.49c18.48,23.66,27.08,50.66,27.02,80.61c-0.1,42.18-0.03,84.36-0.03,126.55c0,1.57,0,3.14,0,4.72
		c22.57,0,44.62,0,66.83,0c0.06-1.29,0.16-2.35,0.16-3.42c0.01-32.28,0.02-64.56,0.01-96.84c-0.02-45.44-0.03-90.87-0.16-136.31
		c0-1.48-0.74-3.49-1.84-4.35c-20.01-15.7-40.12-31.28-60.22-46.86c-31.98-24.78-63.96-49.56-95.95-74.33
		c-12.5-9.68-25.03-19.33-37.73-29.13c-7.78,6.06-15.45,12.04-23.13,18.02c-27.55,21.45-55.11,42.87-82.63,64.35
		c-28.26,22.06-56.46,44.21-84.74,66.25c-2.51,1.96-3.77,3.96-3.77,7.37c0.11,76.9,0.09,153.81,0.08,230.71c0,1.46,0,2.92,0,4.58
		C112.79,513.33,134.57,513.33,156.8,513.33z M387.68,513.37c0-2.19,0-3.95,0-5.71c0-43.12,0.06-86.23-0.06-129.35
		c-0.02-5.51-0.54-11.09-1.57-16.5c-10.62-55.62-61.63-89.13-116.32-81.39c-23.63,3.34-43.96,13.74-59.99,31.68
		c-17.04,19.07-27,41.19-27.08,67.09c-0.15,43.25-0.04,86.5-0.04,129.76c0,1.43,0,2.86,0,4.43
		C251.18,513.37,319.19,513.37,387.68,513.37z M57.18,264.46c0.76-0.49,1.22-0.73,1.63-1.05c15.45-12.09,30.87-24.21,46.34-36.28
		c56.64-44.2,113.3-88.39,169.94-132.58c6.12-4.78,13.66-4.91,19.8-0.14c10.36,8.05,20.65,16.2,31,24.27
		c31.17,24.28,62.33,48.56,93.53,72.81c23.61,18.35,47.28,36.62,70.9,54.97c7.74,6.02,15.4,12.15,23.27,18.37
		c6.48-8.92,12.75-17.54,19.04-26.21c-82.55-64.08-164.9-128.01-247.4-192.05c-82.35,64.05-164.57,127.99-246.91,192.03
		C44.76,247.41,50.93,255.89,57.18,264.46z M502.77,540.06c-145.16,0-289.91,0-434.62,0c0,6.69,0,13.11,0,19.26
		c145.07,0,289.83,0,434.62,0C502.77,552.76,502.77,546.53,502.77,540.06z"/>
	<path class="st0" d="M315.48,477.9c-4.1-1.2-8.47-1.85-12.24-3.71c-11.81-5.83-23.24-5.44-34.93,0.37
		c-9.51,4.72-19.13,4.1-28.19-1.46c-15.05-9.25-17.65-30.8-5.32-43.63c2.81-2.92,6.1-5.38,8.98-8.24
		c5.65-5.62,11.54-11.06,16.65-17.15c13.12-15.62,34.05-17.1,47.73-1.91c8.37,9.3,17.46,17.68,26.43,26.29
		c8.24,7.9,11.16,17.87,8.07,28.92c-2.99,10.67-10.5,17.03-21.33,19.36c-1.83,0.39-3.75,0.41-5.62,0.61
		C315.64,477.52,315.56,477.71,315.48,477.9z"/>
	<path class="st0" d="M333.15,353.54c-0.06,9.81-2.54,18.82-9.99,25.6c-12.76,11.61-28.12,6.67-31.57-10.28
		c-2.61-12.85,1.21-24.15,10.9-33.01c5.5-5.04,12.29-7.11,19.48-3.96c7.64,3.35,10.29,10.24,11.16,18
		C333.27,351.09,333.15,352.32,333.15,353.54z"/>
	<path class="st0" d="M237.07,353.15c0.07-7.14,1.8-13.85,7.46-18.8c6.13-5.36,15.87-4.85,22.72,0.8
		c10.03,8.29,14.73,23.89,11,36.32c-2.09,6.97-6.17,12.15-13.53,13.49c-7.66,1.4-14.12-1.62-19.07-7.42
		C239.72,370.6,237.17,362.35,237.07,353.15z"/>
	<path class="st0" d="M244.47,399.53c-0.02,10.76-8.66,17.53-19.13,14.68c-15.97-4.35-22.69-21.28-19.61-34.48
		c1.92-8.23,10.25-12.17,18.52-9.36C235.42,374.17,244.49,387.25,244.47,399.53z"/>
	<path class="st0" d="M365.72,386.34c-0.01,12.62-7.91,23.9-19.28,27.51c-10.56,3.36-19.59-2.96-19.82-13.97
		c-0.24-11.83,5.12-20.78,14.8-27.12c5.17-3.39,10.91-4.73,16.8-1.53C363.24,373.97,365.72,379.13,365.72,386.34z"/>
</g>
</svg>
