<?xml version="1.0" encoding="utf-8"?>
<!-- Generator: Adobe Illustrator 25.2.1, SVG Export Plug-In . SVG Version: 6.00 Build 0)  -->
<svg version="1.1" id="Capa_1" xmlns="http://www.w3.org/2000/svg" xmlns:xlink="http://www.w3.org/1999/xlink" x="0px" y="0px"
	 viewBox="0 0 569.87 612" style="enable-background:new 0 0 569.87 612;" xml:space="preserve">
<style type="text/css">
	.st0{fill:#59BEBE;}
</style>
<g>
	<path class="st0" d="M100.15,330.5c1.36-2.38,2.49-4.46,3.71-6.47c8.56-14.11,29.65-17.6,41.15-5.06
		c8.46,9.24,17.34,18.12,26.34,26.84c13.55,13.13,29.3,23.35,45.15,33.43c11.02,7,21.6,14.59,30.59,24.23
		c12.17,13.04,19.14,28.51,22.35,45.88c2.69,14.56,1.88,29.19,1.1,43.84c-0.65,12.25-1.26,24.49-1.93,36.74
		c-0.66,12.11-1.08,24.24-2.19,36.31c-0.7,7.65-5.78,12.06-13.34,12.11c-26.02,0.14-52.04,0.18-78.06-0.01
		c-9.84-0.07-14.69-6.31-13.99-16.26c1.06-15.01,2.06-30.02,2.59-45.05c0.26-7.46-2.64-14.37-8.28-19.22
		c-11.99-10.32-24.39-20.19-36.74-30.08c-8.83-7.07-18.03-13.68-26.77-20.85C69.7,428.71,55.71,404.99,46,378.47
		c-8.19-22.35-14.02-45.31-16.81-68.95c-1.53-12.93-2.6-25.96-3.07-38.97c-0.35-9.51,2.97-17.99,10.56-24.4
		c6.37-5.38,14.83-6.58,22.3-2.81C70,248.91,75.66,258.62,78.78,270c5.05,18.39,10.01,36.8,18.31,54.08
		C98.05,326.07,99,328.08,100.15,330.5z M245.27,555.09c0.65-14.37,1.4-28.46,1.89-42.55c0.6-17.03,1.54-34.07,1.31-51.1
		c-0.22-16.97-6.45-32.11-18.87-43.82c-7.29-6.88-15.59-12.88-24.07-18.28c-21.4-13.62-42.05-28.1-59.68-46.5
		c-5.35-5.58-10.72-11.16-15.95-16.86c-1.75-1.91-3.43-2.11-5.64-1.06c-3.77,1.8-4.98,5.72-1.88,10.11
		c7.65,10.85,15.38,21.7,23.82,31.94c8.05,9.76,17.11,18.68,25.56,28.1c3.9,4.34,3.93,9.7,0.57,13.83
		c-3.27,4.01-8.54,4.74-13.66,1.63c-4.66-2.82-9.24-5.78-13.74-8.85c-18.36-12.52-35.32-26.51-48.57-44.66
		c-18.8-25.74-29.53-54.93-37.62-85.36c-1.41-5.31-3.88-10.36-6.07-15.44c-0.37-0.86-1.84-1.24-2.81-1.84
		c-0.49,1.01-1.32,1.99-1.39,3.02c-0.23,3.32-0.3,6.66-0.21,9.99c0.72,25.35,5.13,50.13,12.24,74.41
		c6.25,21.36,14.67,41.77,28.32,59.65c11.15,14.6,25.83,25.28,40.24,36.27c14.91,11.37,30.79,21.56,43.7,35.37
		c8.58,9.18,13.43,20.15,13.3,32.8c-0.12,13.02-0.92,26.03-1.43,39.22C204.59,555.09,224.7,555.09,245.27,555.09z"/>
	<path class="st0" d="M477.6,331.25c4.29-10.71,8.55-20.26,11.94-30.11c3.44-10,5.94-20.31,8.99-30.45
		c2.6-8.63,6.42-16.62,13.3-22.75c14.64-13.04,31.48-6.21,37.8,10.42c1.48,3.9,2.48,8.3,2.37,12.43
		c-1.24,46.4-9.74,91.15-31.07,132.87c-11.11,21.73-27.79,38.42-47.04,52.96c-15.61,11.79-30.84,24.08-46.34,36.01
		c-12.36,9.52-15.25,22.28-13.62,36.98c1.25,11.23,1.97,22.52,2.89,33.79c0.89,10.83-6.3,14.8-14.11,14.87
		c-26.15,0.25-52.3,0.19-78.45,0.08c-7.66-0.03-12.76-5.38-13.17-13.18c-1.11-21.03-2.21-42.05-3.27-63.08
		c-0.57-11.31-1.61-22.64-1.41-33.94c0.39-21.44,6.02-41.37,19.17-58.77c8.5-11.24,19.25-19.97,31.15-27.12
		c28.06-16.87,53.44-36.88,74.97-61.63c10.37-11.91,25.02-11.31,34.53-5.01C471.5,319.13,475,324.04,477.6,331.25z M529.24,264.35
		c-0.54-0.14-1.08-0.28-1.63-0.42c-1.16,1.31-2.66,2.46-3.41,3.97c-1.58,3.17-3.02,6.46-4.08,9.84c-3.51,11.24-6.6,22.61-10.25,33.8
		c-15.8,48.54-47.63,83.75-91.19,109.12c-3.89,2.26-7.79,2.53-11.62-0.03c-3.67-2.45-4.78-6.3-3.73-10.18
		c0.75-2.78,2.67-5.45,4.65-7.64c9.36-10.41,19.32-20.31,28.29-31.04c7.05-8.43,13.14-17.69,19.3-26.83
		c2.52-3.75,1.58-7.68-1.31-9.62c-3.77-2.53-5.9-0.03-8.41,2.45c-12.04,11.9-23.58,24.44-36.58,35.19
		c-12.34,10.21-26.2,18.59-39.53,27.58c-10.16,6.86-20.45,13.45-27.78,23.67c-10.73,14.96-14.06,31.87-13.38,49.8
		c0.69,18.12,1.68,36.22,2.62,54.32c0.46,8.88,1.1,17.75,1.67,26.67c20.35,0,40.42,0,60.86,0c-0.47-5.84-1.17-11.39-1.3-16.95
		c-0.23-9.84-0.95-19.78,0.07-29.52c1.48-14.12,9.75-24.91,20.52-33.51c14.55-11.61,29.5-22.75,44.38-33.95
		c12.07-9.09,23.64-18.66,32.97-30.67c11.81-15.21,19.16-32.61,24.97-50.78c8.2-25.67,12.55-52.05,14.24-78.89
		C529.91,275.31,529.37,269.82,529.24,264.35z"/>
	<path class="st0" d="M523.12,128.94c-13.37,8.45-26.95,16.41-41.99,21.56c-6.59,2.26-12.14,0.03-15-5.87
		c-3.07-6.33-0.24-12.32,6.51-15.53c9.56-4.54,19.29-8.95,28.2-14.6c14.96-9.49,26.94-22.03,34.25-38.51
		c0.1-0.22,0.07-0.5,0.19-1.51c-1.55,1.14-2.7,1.99-3.85,2.84c-1.28,0.96-2.54,1.94-3.84,2.88c-15.84,11.5-33.86,17.95-52.65,22.55
		c-11.44,2.8-22.99,5.14-34.37,8.15c-18.77,4.97-29.81,17.94-35.77,35.82c-1.42,4.26-2.65,8.59-4.06,12.86
		c-2.21,6.71-7.36,9.95-13.28,8.43c-6.95-1.79-9.99-6.8-8.44-14.2c3.66-17.48,10.63-33.38,23.15-46.39
		C413.97,95.2,429,89.31,445.3,85.93c18.42-3.82,36.76-7.97,53.94-15.98c13.69-6.39,24.95-15.88,33.71-28.03
		c4.36-6.03,9.17-9.77,16.66-7.9c7.53,1.89,10.2,8.06,11.3,14.92c3.21,20.08-3.14,37.71-14.25,54.05c-0.97,1.43-2.05,2.79-3.12,4.24
		c5.98,5.56,6.62,12.51,4.67,19.82c-5.14,19.33-16.11,34.74-31.96,46.82c6.77,12.32,3.77,18.53-6.34,29.76
		c-17.35,19.28-39,30.98-65.06,33.52c-6.74,0.66-13.61,0.41-20.4,0.05c-6.05-0.32-10.96-6.06-10.82-11.83
		c0.15-6.18,5.02-10.92,11.78-11.15c4.13-0.14,8.27,0.16,12.4,0.17c16.49,0.04,30.82-5.97,43.71-15.85
		c3.55-2.72,6.85-5.77,11.14-9.42c-6.47,0.77-11.79,1.51-17.13,2.01c-5.95,0.56-11.92,1.16-17.9,1.27
		c-5.75,0.11-10.48-4.6-11.18-10.46c-0.68-5.69,2.78-10.86,8.74-11.92c6.38-1.14,12.99-1.09,19.32-2.43
		C497.04,162.85,513,149.56,523.12,128.94z"/>
	<path class="st0" d="M86.54,189.21c15.56,16.34,33.76,26.08,56.6,25.19c3.7-0.14,7.5-0.25,11.12,0.41
		c6.08,1.1,9.74,5.93,9.43,11.49c-0.31,5.61-4.93,10.5-10.86,10.95c-37.24,2.86-67.37-10.57-90.41-39.9
		c-5.73-7.29-6.97-15.07-1.22-23.44c-8.17-5.96-15.01-13.11-20.47-21.52c-5.22-8.05-9.48-16.51-11.65-25.98
		c-1.68-7.33-0.38-13.7,4.99-19.37c-6.7-8.55-11.85-17.92-14.85-28.36c-3.2-11.12-4.84-22.33-1.37-33.74
		c1.74-5.72,4.94-9.99,11.22-11.07c6.76-1.16,11.13,1.89,14.98,7.37c11.46,16.31,26.99,27.53,45.96,33.4
		c14.77,4.56,29.76,8.63,44.88,11.86c32.77,7,52.47,27.24,61.61,58.74c1.1,3.8,2.08,7.72,2.37,11.64
		c0.42,5.71-3.71,10.29-9.55,11.44c-4.83,0.95-10.06-2.16-11.85-7.36c-1.64-4.75-2.85-9.65-4.42-14.43
		c-6.93-21.04-21.67-32.88-43.14-37.42c-19.41-4.1-38.88-8.14-57.31-15.89C61.6,88.6,51.67,82.3,42.6,74.57
		c-0.29,0.18-0.59,0.37-0.88,0.55c3.01,5.06,5.65,10.39,9.08,15.14c12.9,17.83,30.83,28.97,50.73,37.39
		c4.42,1.87,8.89,3.56,10.43,8.93c1.35,4.71-0.39,8.35-3.51,11.54c-2.87,2.94-6.26,4.34-10.48,2.86
		c-15-5.29-28.84-12.81-41.94-21.75c-0.42-0.29-0.85-0.58-1.27-0.87c-0.33,0.23-0.65,0.45-0.98,0.68c3.06,4.75,5.67,9.87,9.27,14.17
		c9.79,11.68,21.86,20.24,36.89,23.79c5.64,1.33,11.53,1.67,17.33,2.2c4.64,0.42,9.05,1.01,11.71,5.52c2.37,4,2.6,8.06,0.21,12.09
		c-2.28,3.86-5.69,6.03-10.24,5.63c-9.66-0.84-19.3-1.87-28.95-2.83C88.86,189.51,87.7,189.35,86.54,189.21z"/>
	<path class="st0" d="M287.97,201.99c14.96-0.03,26.09,5.11,33.66,16.83c6.45,9.99,14.84,18.06,23.89,25.61
		c7.51,6.26,14.23,13.16,16.98,23.09c5.32,19.22-7.75,40.39-27.39,44.32c-8.98,1.8-17.57,0.74-25.54-3.42
		c-13.77-7.18-27.2-7.39-41.1-0.24c-12.75,6.56-25.63,6.34-37.77-1.89c-20.34-13.79-22.37-40.19-4.39-56.86
		c3.8-3.53,8.27-6.39,11.85-10.11c5.69-5.92,11.72-11.77,16.12-18.6C261.94,208.85,275.79,201.23,287.97,201.99z"/>
	<path class="st0" d="M352.22,151.69c-0.93,16.69-5.99,28.84-18.03,37.24c-13.13,9.16-27.78,5.36-35.24-8.84
		c-7.97-15.18-5-37.28,6.3-49.62c15.37-16.79,35.8-10.22,43.34,7.78C350.65,143.17,351.42,148.64,352.22,151.69z"/>
	<path class="st0" d="M283.07,161.39c-0.74,8.78-2.04,17.73-8.53,24.82c-7.52,8.21-17.58,9.92-27.56,4.85
		c-12.28-6.24-18.08-17.05-20.78-29.96c-1.87-8.93-0.66-17.47,3.64-25.48c9.9-18.46,31.7-19.84,44-2.9
		C279.98,141.19,282.43,150.8,283.07,161.39z"/>
	<path class="st0" d="M235,212.25c0,12.19-6.7,21.43-16.49,22.64c-9.27,1.14-17.07-2.23-23.45-8.6
		c-8.28-8.28-13.13-18.21-12.93-30.24c0.25-15.45,15.43-25.5,29.75-19.65C224.81,181.68,234.99,197.47,235,212.25z"/>
	<path class="st0" d="M342.3,210.07c0.87-11.14,6.13-22.74,17.72-30.83c14.63-10.21,32.04-2.79,35.01,14.76
		c2.49,14.71-10.84,35.93-25.17,40.04C354.34,238.5,342.29,229.2,342.3,210.07z"/>
</g>
</svg>
