<?xml version="1.0" encoding="utf-8"?>
<!-- Generator: Adobe Illustrator 25.2.1, SVG Export Plug-In . SVG Version: 6.00 Build 0)  -->
<svg version="1.1" id="Capa_1" xmlns="http://www.w3.org/2000/svg" xmlns:xlink="http://www.w3.org/1999/xlink" x="0px" y="0px"
	 viewBox="0 0 569.87 612" style="enable-background:new 0 0 569.87 612;" xml:space="preserve">
<style type="text/css">
	.st0{fill:#59BEBE;}
</style>
<g>
	<path class="st0" d="M184.22,140.91c0-7.28,0-14.14,0-20.99c-0.03-50.89,32.87-95.07,82.05-108.49
		c62.61-17.08,123.84,21.4,137.77,82.45c2.91,12.77,2.87,25.71,2.82,38.67c-0.01,2.59,0,5.18,0,8.32c1.56,0,2.93,0,4.31,0
		c17.93-0.02,35.86,0.33,53.77-0.2c14-0.41,18.23,6.1,19.37,18.16c1.24,13.13,2.99,26.21,4.46,39.32
		c1.39,12.34,2.66,24.69,4.08,37.03c1.7,14.78,3.53,29.54,5.23,44.31c1.43,12.47,2.73,24.95,4.11,37.43
		c1.12,10.16,2.27,20.31,3.43,30.47c1.18,10.41,2.39,20.82,3.59,31.22c1.18,10.28,2.37,20.56,3.55,30.85
		c1.15,10.02,2.31,20.04,3.45,30.06c1.43,12.6,2.83,25.2,4.28,37.79c1.15,10.02,2.34,20.04,3.52,30.06c0.5,4.24,1.6,8.5,1.42,12.71
		c-0.25,6.03-1.22,12.06-2.24,18.03c-1.97,11.57-3.69,23.21-6.43,34.6c-4.01,16.68-18.32,31.93-42.8,31.9
		c-19.48-0.02-38.97,0.01-58.45,0.01c-98.46,0-196.93,0-295.39-0.01c-9.8,0-19.36-1.07-27.82-6.73
		c-10.37-6.93-16.44-16.67-18.67-28.8c-2.54-13.83-5.18-27.66-7.11-41.58c-0.82-5.93-0.32-12.12,0.26-18.14
		c1.23-12.88,2.89-25.71,4.4-38.56c1.45-12.33,2.96-24.66,4.38-37c1.43-12.34,2.76-24.68,4.19-37.02
		c1.42-12.21,2.92-24.4,4.35-36.61c1.17-10.02,2.27-20.05,3.43-30.07c1.44-12.46,2.93-24.91,4.38-37.37
		c1.41-12.21,2.79-24.42,4.19-36.63c1.46-12.72,2.95-25.45,4.41-38.17c1.15-10.02,2.25-20.05,3.39-30.08
		c1.32-11.57,2.44-23.16,4.04-34.69c1.05-7.58,7.63-12.17,16.97-12.22c18.32-0.1,36.63-0.04,54.95-0.04
		C181.27,140.91,182.66,140.91,184.22,140.91z M129.08,163.7c-0.37,3.13-0.71,5.83-1.02,8.52c-1.15,10.16-2.27,20.32-3.44,30.47
		c-1.43,12.34-2.92,24.66-4.35,37c-1.16,10.02-2.27,20.04-3.42,30.06c-1.45,12.59-2.92,25.18-4.37,37.78
		c-1.18,10.28-2.34,20.56-3.51,30.84c-1.17,10.28-2.34,20.56-3.51,30.84c-1.39,12.21-2.76,24.42-4.19,36.62
		c-1.43,12.2-2.95,24.39-4.36,36.6c-1.42,12.33-2.7,24.67-4.14,37c-1.42,12.21-3.07,24.39-4.39,36.61
		c-0.66,6.08,0.19,6.78,6.19,6.78c73,0,145.99,0,218.99,0c61.44,0,122.87,0,184.31,0c4.86,0,5.49-0.45,5.04-4.49
		c-1.1-9.9-2.38-19.77-3.55-29.66c-1.16-9.89-2.28-19.79-3.39-29.69c-1.14-10.15-2.24-20.31-3.39-30.46
		c-1.18-10.41-2.44-20.81-3.62-31.22c-1.41-12.47-2.76-24.95-4.17-37.41c-1.44-12.72-2.94-25.44-4.4-38.16
		c-1.45-12.6-2.88-25.2-4.32-37.79c-1.42-12.46-2.83-24.93-4.26-37.39c-1.19-10.41-2.42-20.81-3.61-31.22
		c-1.16-10.15-2.25-20.31-3.42-30.46c-0.82-7.15-1.72-14.3-2.55-21.18c-18.73,0-37.11,0-55.71,0c0,6.57-0.15,12.79,0.05,19
		c0.15,4.63-1.41,8.33-5.6,10.18c-4.3,1.9-8.82,1.89-12.93-0.93c-3.53-2.42-4.03-6.18-4.09-10c-0.1-6.05-0.03-12.1-0.03-18.22
		c-59.06,0-117.58,0-176.02,0c-0.18,0.43-0.35,0.66-0.35,0.88c0,5.97,0.03,11.95,0.03,17.92c0,7.4-4.06,11.41-11.47,11.71
		c-6.8,0.28-11.66-4.05-11.3-11.16c0.32-6.42,0.07-12.87,0.07-19.37C165.78,163.7,147.51,163.7,129.08,163.7z M383,140.78
		c0-12.17,1.05-24.06-0.22-35.7c-2.59-23.87-14.82-42.75-33.75-57.13c-20.69-15.71-44.08-20.5-69.64-16.25
		c-32.52,5.4-61.51,31.96-69.53,63.89c-2.66,10.59-2.49,21.3-2.44,32.04c0.02,4.35,0,8.71,0,13.15
		C266.44,140.78,324.86,140.78,383,140.78z M499.8,545.54c-136.5,0-272.16,0-408.05,0c1.33,6.49,2.44,12.84,3.95,19.1
		c3.13,13.02,8.78,17.43,22.12,17.43c77.14,0.02,154.29,0.01,231.43,0.01c42.34,0,84.68,0,127.01-0.02c7.46,0,14.16-2.8,16.77-9.7
		C496.23,563.92,497.57,554.77,499.8,545.54z"/>
	<path class="st0" d="M297.8,330.97c15.66,0.43,29.55,7.33,39.03,21.17c9.77,14.26,22.07,25.69,35.48,36.22
		c14.69,11.54,22.1,26.68,20.62,45.33c-1.8,22.65-18.34,38.57-38.95,42.39c-12.38,2.29-23.71-1.34-35.21-5.06
		c-6.95-2.25-14.23-4.72-21.38-4.76c-7.55-0.05-15.24,2.2-22.64,4.28c-9.3,2.62-18.27,6.33-28.17,6.3
		c-22.53-0.07-41.8-15.42-46.81-37.43c-4.3-18.87,1.74-34.45,15.54-47.27c8.35-7.75,17.61-14.58,25.63-22.64
		c6.73-6.76,11.99-14.96,18.39-22.07C269.2,336.52,281.73,331.1,297.8,330.97z"/>
	<path class="st0" d="M373.67,271.92c-0.27,16-5.6,29.8-17.75,40.63c-14.34,12.79-33.68,10.21-44.1-5.9
		c-12.53-19.36-9.34-49.84,6.92-66.11c14.5-14.51,35.48-12.6,47.13,4.28C371.35,252.76,373.65,260.81,373.67,271.92z"/>
	<path class="st0" d="M287.14,276.27c-0.06,13.21-2.28,22.93-8.35,31.4c-11.62,16.23-30.37,17.51-45.55,3.26
		c-17.75-16.67-20.65-48.32-6.21-67.89c10.3-13.96,29.6-16.04,42.7-4.59C282.07,249.24,286.8,263.26,287.14,276.27z"/>
	<path class="st0" d="M432.36,323.68c0.36,21.06-16.37,42.08-35.48,45.92c-13.63,2.74-27-5.32-30.23-19.41
		c-3.3-14.38,1.11-27.05,9.65-38.53c5.36-7.2,12.04-12.79,20.6-15.91c15.97-5.81,30.64,2.15,34.29,18.73
		C431.86,317.49,431.99,320.61,432.36,323.68z"/>
	<path class="st0" d="M225.74,341.53c-0.09,14.64-7.57,25.72-20.04,28.21c-11.06,2.2-20.65-1.78-28.9-9.04
		c-10.82-9.53-16.7-21.71-17.31-36.01c-0.55-13.08,5.63-26.56,19.16-29.73c10.58-2.48,19.65,1.37,27.59,8.02
		c9.9,8.3,16.5,18.74,18.76,31.63C225.4,336.89,225.5,339.22,225.74,341.53z"/>
</g>
</svg>
