<?xml version="1.0" encoding="utf-8"?>
<!-- Generator: Adobe Illustrator 25.2.1, SVG Export Plug-In . SVG Version: 6.00 Build 0)  -->
<svg version="1.1" id="Capa_1" xmlns="http://www.w3.org/2000/svg" xmlns:xlink="http://www.w3.org/1999/xlink" x="0px" y="0px"
	 viewBox="0 0 569.87 612" style="enable-background:new 0 0 569.87 612;" xml:space="preserve">
<style type="text/css">
	.st0{fill:#59BEBE;}
</style>
<path class="st0" d="M258.27,437.82c-23.29-12.14-42.58-29.36-62.47-45.62c-18.33-14.98-36.31-30.46-53.56-46.65
	c-15.8-14.83-30.98-30.41-45.43-46.56c-24.41-27.28-44.59-57.41-57.31-92.06c-8.18-22.29-11.33-45.36-9.32-68.93
	C35.2,79.03,74.47,33.39,128.82,19.12c35.52-9.32,69.3-3.36,101.46,13.49c16.87,8.84,31.01,21.07,43.37,35.91
	c2.68-2.84,5.29-5.47,7.76-8.23c21.89-24.48,49.54-38.73,81.6-43.69c39.53-6.13,75.45,3.4,106.66,28.75
	c25.72,20.89,41.04,48.17,46.47,80.7c6.14,36.74-0.93,71.55-17.37,104.65c-13.17,26.52-30.84,49.92-50.26,72.11
	c-22.85,26.1-47.86,50.03-74.26,72.44c-22.13,18.79-45.11,36.59-67.9,54.59c-7.4,5.85-15.91,9.77-25.33,11.47
	c-1.13,0.2-2.58,1.09-3.07,2.07c-6.41,12.69-12.77,25.41-18.96,38.21c-5.22,10.78-8.99,21.98-8.38,34.19
	c1.09,21.71,16.32,41.26,39.44,44.13c13.12,1.63,24.64-2.07,35.7-8.44c14.18-8.16,38.3-28.65,46.88-39.78
	c-3.62-5.59-7.61-10.89-10.7-16.68c-8.28-15.48-5.77-30.89,1.22-46.04c5.09-11.04,12.58-20.44,20.98-29.08
	c18.47-19,38.6-36.1,59.93-51.82c0.7-0.51,1.34-1.09,2.17-1.77c-2.9-4.7-0.86-8.32,2.55-11.61c4.06-3.92,8.05-7.91,12.19-11.75
	c8.09-7.49,18.32-7.3,26.04,0.47c3.97,4,8.14,7.88,11.59,12.3c5.4,6.91,4.55,14.43-1.74,20.5c-2.8,2.7-5.61,5.39-8.59,7.89
	c-4.8,4.04-10.27,4.3-15.82,1.95c-3.31-1.4-6.38-3.35-10.27-5.42c-7.11,5.31-14.84,10.79-22.23,16.69
	c-15.59,12.43-30.87,25.23-44.16,40.19c-7.27,8.18-13.74,16.82-16.75,27.6c-2.61,9.35-1.4,18.07,4,26.13
	c7.48,11.14,17.55,19.58,29.07,26.14c8.76,4.99,18.34,5.55,27.18,0.38c7.83-4.58,15.62-9.6,22.36-15.63
	c21.01-18.81,38.17-41.03,54.21-63.17c-2.32-4.97-4.84-9.31-6.35-13.98c-0.86-2.66-0.64-6,0.09-8.77
	c2.17-8.24,14.17-18.14,21.48-18.31c4.22-0.1,7.91,1.22,10.9,4.13c4.4,4.29,8.81,8.59,12.95,13.12c6.91,7.56,6.6,16.91-0.57,24.13
	c-4.24,4.27-8.55,8.48-12.77,12.77c-2.54,2.58-5.39,3.68-9.12,3.27c-1.37-0.15-3.39,1.14-4.33,2.37
	c-13.73,17.92-27.81,35.58-44.04,51.29c-8.33,8.06-17.2,15.85-26.85,22.2c-23.61,15.53-44.4,14.06-66.6-3.4
	c-0.78-0.62-1.58-1.21-2.41-1.84c-6.35,5.98-12.51,12.01-18.91,17.77c-22.61,20.37-47.54,36.97-77.04,45.66
	c-17.25,5.09-34.86,5.7-52.74,3.7c-37.35-4.18-67.69-22.15-94.34-47.33c-32.81-31.01-54.02-69.35-69.07-111.41
	c-1.24-3.46-2.63-4.01-6.07-3.85c-17.36,0.8-32.16-5.33-43.96-18.01C10.54,395.79,5.95,376.07,13,354.5
	c7.06-21.58,22.52-34.83,44.81-39.18c31.35-6.13,62.58,16.99,67.21,48.37c3.87,26.22-9.95,48.84-29.45,59.66
	c-0.43,0.24-0.82,0.53-1.31,0.84c14.08,39.7,32.96,76.41,63.79,105.86c19.71,18.83,41.89,33.51,68.88,39.81
	c12.21,2.85,24.55,3.92,38.03,2.99c-9.77-5.16-17.14-11.77-22.8-20.12c-14.31-21.15-15.76-44.04-6.78-67.21
	c5.84-15.05,13.97-29.22,21.06-43.78C257.11,440.41,257.71,439.06,258.27,437.82z M498.45,152.4c-1.32-10.01-1.95-20.17-4.08-30
	c-10.45-48.24-50.56-81.78-99.12-86.37c-23.4-2.21-45.76,2.35-66.68,13.38c-18.3,9.65-32.89,23.55-45.42,39.78
	c-5.55,7.2-12.33,7.27-18.14,0.64c-7.09-8.08-14.07-16.42-22.15-23.43c-28.8-24.97-62.26-35.19-100.12-29.04
	c-29.97,4.87-53.87,20.09-71.35,44.77c-21.76,30.74-25.19,65.03-17.58,100.95c4.69,22.15,15.31,41.79,27.26,60.77
	c24.09,38.26,55.75,69.87,89.13,99.71c22.66,20.26,46.64,39.07,70.39,58.07c8.54,6.83,18.06,12.45,27.31,18.35
	c4.8,3.06,10,2.85,14.95,0.01c4.65-2.67,9.53-5.09,13.76-8.34c14.68-11.29,29.56-22.37,43.54-34.49
	c22.81-19.78,45.48-39.78,67.25-60.67c25.37-24.34,47.73-51.34,65.57-81.81C487.83,209.31,497.99,182.49,498.45,152.4z
	 M67.44,409.44c19.86,0.22,36.9-16.1,37.12-35.56c0.24-21.15-15.88-38.21-36.3-38.41c-20.34-0.2-36.61,16.11-36.81,36.9
	C31.26,393.19,46.82,409.22,67.44,409.44z"/>
<path class="st0" d="M321.34,336.38c-7.13-1.62-16.14-2.77-24.49-5.75c-15.17-5.41-29.91-5.46-44.99-0.03
	c-10.52,3.78-21.37,5.77-32.71,4.94c-18.73-1.36-37.25-17.1-40.75-35.51c-3.28-17.29-0.03-32.93,13.4-45.24
	c4.68-4.29,10.44-7.41,15.12-11.7c9.14-8.38,18.15-16.92,26.68-25.91c10.75-11.34,23.71-17.35,39.19-17.7
	c15.75-0.36,29.32,5.11,40.5,16.35c8.13,8.17,16.17,16.45,24.64,24.26c4.76,4.39,10.31,7.91,15.49,11.85
	c11.89,9.04,17.07,21.27,17.74,35.98c1.08,23.81-17.48,42.12-35.02,46.16C331.9,335.06,327.54,335.44,321.34,336.38z"/>
<path class="st0" d="M199.3,147.95c0.36-11.89,2.54-21.96,9.16-30.71c10.47-13.83,28.8-15.51,41.34-3.62
	c11.54,10.94,16.06,24.62,15.27,40.27c-0.58,11.47-4.02,21.8-12.36,30.05c-10.14,10.04-25.33,10.71-36.39,1.63
	c-9.44-7.75-14.34-18.01-16.14-29.89C199.72,152.74,199.49,149.75,199.3,147.95z"/>
<path class="st0" d="M348.57,145.43c-0.45,15.76-5.15,29.47-17.98,39.82c-14.77,11.91-28.26,7.41-39.19-5.46
	c-9.86-11.61-10.24-25.63-7.32-39.81c2.27-11,6.98-20.88,16.12-27.93c13.57-10.47,30.26-7.83,40.27,6.21
	C346.25,126.36,348.73,135.5,348.57,145.43z"/>
<path class="st0" d="M384.61,159.29c10.98,0.57,20.95,9.95,22.47,21.94c2.49,19.65-4.94,35.23-20.45,46.96
	c-9.8,7.41-21.27,7.64-29.92,1.12c-6.86-5.17-9.38-12.57-10.06-20.88c-1.49-18.29,11.03-39.72,27.55-46.45
	C377.5,160.63,381.14,160.16,384.61,159.29z"/>
<path class="st0" d="M140.39,188.45c-0.05-6.17,1.25-11.95,4.35-17.26c6.01-10.27,16.15-14.02,27.27-9.7
	c15.64,6.08,23.95,18.45,28.11,34.07c1.73,6.49,1.79,13.07,0.06,19.62c-4.22,16-18.9,23.02-33.84,15.78
	c-14.06-6.81-21.62-18.72-24.87-33.62C140.85,194.44,140.74,191.42,140.39,188.45z"/>
<path class="st0" d="M85.76,372.93c0,9.8-8.09,18.17-17.64,18.22c-9.66,0.06-17.78-8.36-17.81-18.46
	c-0.02-9.85,7.69-17.92,17.25-18.06C77.8,354.49,85.76,362.5,85.76,372.93z"/>
</svg>
