<?xml version="1.0" encoding="utf-8"?>
<!-- Generator: Adobe Illustrator 25.2.1, SVG Export Plug-In . SVG Version: 6.00 Build 0)  -->
<svg version="1.1" id="Capa_1" xmlns="http://www.w3.org/2000/svg" xmlns:xlink="http://www.w3.org/1999/xlink" x="0px" y="0px"
	 viewBox="0 0 612 792" style="enable-background:new 0 0 612 792;" xml:space="preserve">
<style type="text/css">
	.st0{fill:#D5923C;}
	.st1{fill:#E6A64D;}
	.st2{fill:#E7A74E;}
	.st3{fill:#B56D1D;}
	.st4{fill:#443F3D;}
	.st5{fill:#AC6721;}
	.st6{fill:#C07B2A;}
	.st7{fill:#B16C22;}
	.st8{fill:#BB7625;}
	.st9{fill:#A35E1E;}
	.st10{fill:#B57024;}
	.st11{fill:#503D29;}
	.st12{fill:#5D5856;}
	.st13{fill:#2F2419;}
	.st14{fill:#45321E;}
	.st15{fill:#F5F3F3;}
</style>
<path class="st0" d="M206.46,770.71c-2.57-0.27-4.89-1.36-7.17-2.44c-3.05-1.43-3.96-4.18-3.93-7.29c0.01-1.65,0.31-3.3,0.47-4.95
	c1.65-6.74,5.46-12.14,10.53-16.71c5.81-5.24,12.38-9.36,19.42-12.75c1.33-0.64,2.66-1.23,3.48-2.6c1.97-3.29,4.25-6.39,5.84-9.9
	c6.34-12.27,10.37-25.4,14.43-38.52c0.07-0.19,0.15-0.38,0.22-0.57c2.79-8.58,4.72-17.38,6.79-26.15
	c3.25-13.74,6.44-27.49,9.83-41.2c3.18-12.86,5.13-25.94,7.34-38.98c1.22-7.23,2.46-14.47,3.06-21.8c0.17-0.24,0.45-0.46,0.48-0.72
	c1.05-8.25,2.07-16.5,3.12-24.75c1.29-10.09,2.8-20.16,3.8-30.28c0.38-3.8,1.67-7.67,0.37-11.56c1.36-4.72,2.68-9.45,4.1-14.15
	c3.32-11,6.07-22.18,10.29-32.89c0.41-1.03,0.48-2.72,1.7-2.83c1.28-0.11,1.6,1.52,2.16,2.52c2.12,3.77,4.13,7.6,6.4,11.28
	c0.83,1.35,1.2,3.94,2.95,3.64c1.91-0.33,2-2.91,2.44-4.65c3.22-12.65,6.27-25.35,9.58-37.97c0.78-2.97,0.81-6.2,2.56-9.18
	c4.79,5.93,8.14,12.49,11.88,18.8c0.36,0.62-0.02,1.88,1.11,1.79c0.95-0.08,1.34-1.05,1.59-1.93c0.18-0.66,0.38-1.32,0.55-1.99
	c2.47-10.22,3.68-20.65,4.6-31.08c1.09-12.31,3.28-24.46,4.63-36.72c0.26-2.33,1.09-4.7,0.51-7.42c-2.98,2.32-5.07,5.03-7.3,7.61
	c-4.74,5.49-9.7,10.8-14.25,16.47c-3.48,4.34-6.35,9.27-11.06,12.54c-0.72,0.5-1.43,1.2-2.39,0.78c-1.05-0.46-0.75-1.5-0.76-2.34
	c-0.05-5.01-0.57-10-0.76-15c-0.12-3.2-0.24-6.51-0.65-10.5c-3.56,5-6.67,9.28-9.67,13.63c-1.61,2.33-3.97,4.26-4.77,7.03
	c-1.57,5.46-4.82,10.08-7.12,15.17c-0.84,1.87-1.99,3.62-3.15,5.32c-0.93,1.35-1.89,1.48-2.3-0.45c-0.38-1.82-0.84-3.64-1.11-5.48
	c-1-6.81-3.04-13.41-3.83-21.01c-4.04,6.23-7.62,11.74-11.2,17.25c-2.09,3.21-4.19,6.42-6.3,9.63c-0.42,0.64-0.84,1.58-1.74,1.29
	c-0.94-0.31-0.53-1.35-0.58-2.09c-0.07-1.18,0.05-2.37-0.09-3.54c-1.28-10.8-0.15-21.56,0.52-32.33c0.21-3.35,0.4-6.71,0.61-10.31
	c-1.75,0.68-2.8,1.68-3.84,2.72c-5.97,5.99-11.98,11.93-17.68,18.2c-1.01,1.11-2.01,3.5-3.78,2.48c-1.39-0.79-0.7-3.12-0.42-4.7
	c1.97-11.3,3.6-22.67,6.88-33.7c0.25-0.84,1.16-2.03,0.14-2.72c-1.04-0.71-2.03,0.31-2.87,0.94c-6.57,4.98-13.31,9.72-19.73,14.9
	c-2.48,1.99-4.59,4.58-7.77,5.62c2.37-4.01,5.73-7.22,8.63-10.8c1.04-1.28,2.05-2.59,2.76-4.47c-3.9,1.04-7.78,2.14-11.7,3.11
	c-1.85,0.45-4.39,2.15-5.46,0.55c-1.13-1.67,1.44-3.32,2.66-4.7c9.58-10.82,19.2-21.58,26.95-33.87
	c6.63-10.51,9.9-22.18,12.33-34.18c0.18-0.91,0.13-1.76-0.45-2.52c-3.37-4.47-6.24-9.26-9.5-14.01c0.28,2.13,0.57,4.26,0.83,6.39
	c0.13,1.07,0.23,2.14,0.3,3.22c0.05,0.78,0.15,1.71-0.78,2.02c-0.89,0.3-1.47-0.47-1.94-1.06c-3.5-4.34-5.74-9.36-7.74-14.5
	c-2.21-5.67-3.95-11.5-5.52-17.38c1.34-2.87,1.92-6.37,5.81-7.18c2.29,9.03,8.22,13.91,17.55,14.3c1.2,0.05,1.2,0.8,1.44,1.46
	c0.96,2.55,2.43,4.7,4.6,6.37c10.26,7.89,22.52,6.57,32.47,0.31c1.65,0.21,1.51,1.7,1.73,2.73c0.76,3.63,1.34,7.3,1.99,10.96
	c-1.09,0.36-1.26,1.44-1.73,2.26c-3.4,5.96-6.74,11.94-11,17.36c-1.54,1.95-2.47,1.59-3.82,0c-2.67-3.16-4.87-6.62-6.67-10.34
	c-0.36-0.74-0.71-1.94-1.67-1.8c-0.95,0.14-0.88,1.35-1.07,2.18c-0.7,3.18-0.71,6.41-0.64,9.65c0.04,1.79-0.67,2.14-2.09,1.09
	c-0.47-0.35-0.93-0.72-1.39-1.09c-2.65-4.09-6.77-6.82-9.39-10.92c-0.22,0.14-0.44,0.28-0.66,0.41c1.96,6.11,3.91,12.22,5.87,18.33
	c1.52,7.69,4.61,15.04,4.95,23c0.04,0.92,0.44,2.02,1.61,2.24c1.04,0.19,1.53-0.7,2.13-1.34c3.37-3.63,5.8-7.93,8.6-11.97
	c0.53-0.76,0.66-2.23,1.79-2.07c0.98,0.14,1.11,1.5,1.46,2.39c4.1,10.44,8.17,20.89,12.94,31.05c1.69,3.6,2.6,3.63,4.87,0.2
	c5.39-8.11,10.72-16.27,16.11-24.38c0.54-0.82,0.8-2.03,2.2-2.18c0.96,1.97,1.96,3.88,2.85,5.85c1.61,3.52,3.74,6.69,6.24,9.63
	c1.06,1.25,1.99,1.51,2.91-0.2c4.41-8.23,9.68-16,12.93-24.85c1.1-2.99,2.45-5.88,3.73-8.92c1.25,0.88,1.36,2.01,1.73,2.99
	c1.75,4.7,3.43,9.43,5.77,13.89c0.53,1.02,0.98,2.56,2.14,2.63c1.38,0.09,1.47-1.63,1.95-2.62c4.18-8.7,7.62-17.71,11.12-26.69
	c2.17-5.58,4.7-11.03,6.15-16.88c0.85,0.01,1.15,0.65,1.45,1.27c7.04,14.29,16.48,26.71,28.78,36.89
	c4.68,16.6,11.53,32.41,17.75,48.45c0.29,0.75,1.36,1.55,0.39,2.34c-0.98,0.79-1.86-0.12-2.62-0.68c-3.83-2.8-7.08-6.24-10.38-9.62
	c-0.53-0.54-0.89-1.33-1.81-1.38c-0.07-0.09-0.13-0.17-0.2-0.26c0,0.05-0.03,0.13,0,0.16c0.04,0.05,0.12,0.08,0.18,0.12
	c3.36,9.34,7.06,18.56,11.1,27.62c6.29,14.1,12.15,28.4,18.87,42.31c0.36,0.74,1.21,1.59,0.3,2.39c-0.84,0.74-1.73-0.02-2.42-0.43
	c-6.42-3.85-12.66-7.96-18.5-12.65c-0.41-0.33-0.67-0.98-1.55-0.81c3.4,6.57,6.84,13.05,10.12,19.61
	c19.07,38.09,40.15,75.14,58.39,113.66c9.11,19.23,17.3,38.83,22.43,59.55c3.81,15.36,5.23,31.01,4.59,46.83
	c-0.04,1.07-0.24,2.14-0.37,3.21c-0.09,4.39-0.48,8.75-1.33,13.07c-1.27,6.38-2.24,12.84-4.74,18.92c-0.91-1.01-0.62-2.25-0.55-3.39
	c0.27-4.83-0.1-9.67-0.86-14.37c-2.52-15.62-6.15-30.96-12.8-45.46c-3.15-6.87-5.93-13.94-9.75-20.45
	c-6-10.24-12.49-20.19-20.35-29.15c-6.81-7.77-14.34-14.77-22.87-20.66c-4.14-2.86-8.92-4.48-13.18-7.09
	c-6.51-18.13-12.87-36.3-18.54-54.72c-0.19-0.62-0.4-1.34-1.48-1.68c-2.87,7.53-4.81,15.43-8.62,23.53
	c-3.28-12.46-7.24-23.94-7.63-36.94c-3.47,8.26-6.73,15.73-9.76,23.29c-6.59,16.41-13.42,32.75-19.18,49.47
	c-6.3,18.27-13.47,36.3-16.4,55.58c-0.17,1.13,0.06,3.07-1.45,3.14c-1.39,0.07-1.54-1.79-1.95-2.95c-0.3-0.83-0.42-1.72-0.65-2.57
	c-0.89-3.25-1.79-6.49-2.68-9.74c-0.16,0.02-0.33,0.03-0.49,0.05c-2.27,11.88-4.53,23.76-6.8,35.64
	c-2.22,13.39-5.38,26.61-7.32,40.05c-0.12,0.8-0.3,1.84-1.58,1.71c-1.92-6.55-4.89-12.65-8-19.65c-0.26,1.99-0.31,3.05-0.54,4.08
	c-2.92,13.61-4.21,27.5-6.85,41.16c-1.32,6.83-1.3,13.85-2.85,20.65c-0.21,0.94-0.17,2.34-1.17,2.5c-1.21,0.19-1.5-1.3-2.04-2.16
	c-1.43-2.27-2.09-5.02-4.35-7.35c-2.29,10.1-4.5,19.82-6.7,29.53c-2.59,9.28-5.04,18.59-7.79,27.82
	c-3.34,11.2-7.74,21.77-18.94,27.61c-6.18,2.28-12.51,3.98-19.09,4.61c-1.07,0.1-2.15,0.06-3.22,0.08
	c0.51-9.19,0.46-18.54,7.65-25.75c0.35-0.35,0.64-0.79,0.4-1.31c-0.3-0.67-0.94-0.62-1.52-0.58c-1.21,0.08-2.25,0.68-3.26,1.27
	c-4.07,2.4-6.51,6.13-8.29,10.36c-2.21,5.29-2.12,10.9-2.21,16.49c-4.93,0.37-9.81,0.24-14.62-1.04c-0.44-4.34,0.03-8.7,0.72-12.9
	c0.9-5.57,2.32-11.2,6.92-15.23c0.56-0.49,1.35-1.08,0.88-1.97c-0.46-0.87-1.41-0.67-2.11-0.43c-1.1,0.37-2.25,0.79-3.18,1.47
	c-3.83,2.82-6.28,6.7-8,11.06C206.75,759.33,206.23,764.97,206.46,770.71z"/>
<path class="st1" d="M421.58,519.73c4.26,2.61,9.04,4.23,13.18,7.09c8.53,5.9,16.05,12.89,22.87,20.66
	c7.85,8.96,14.35,18.91,20.35,29.15c3.81,6.51,6.6,13.58,9.75,20.45c6.64,14.5,10.28,29.84,12.8,45.46
	c0.76,4.7,1.13,9.55,0.86,14.37c-0.06,1.14-0.35,2.38,0.55,3.39c-0.2,1.05-0.35,2.11-0.6,3.14c-1.78,7.52-4.48,14.71-7.71,21.72
	c-1.89,3.18-3.31,6.66-5.91,9.39c-5.68-10.05-12.18-19.49-21.11-27.84c0.47,5.71,1.89,10.51,2.73,15.41
	c0.23,1.33,0.76,3.15-1.01,3.94c-1.61,0.72-2.5-0.73-3.44-1.68c-7.42-7.57-14.82-15.16-22.24-22.73c-0.32-0.33-0.71-0.74-1.42-0.06
	c1.12,3.32,2.17,6.78,3.45,10.16c2.4,6.34,4.54,12.8,8.75,18.29c2.87,3.74,5.49,7.68,8.56,11.25c2.48,2.88,4.05,6.52,7.23,8.81
	c-0.36,1.16,0.63,1.79,1.11,2.58c3.26,5.3,6.04,10.81,7.77,16.82c1.09,3.79,0.21,5.76-3.49,7.18c-2.2,0.85-4.44,1.64-6.73,2.16
	c-23.49,5.38-47.05,10.45-70.77,14.7c-10.84,1.94-21.73,3.72-32.81,3.63c0.17-0.76,0.48-1.53,0.48-2.29
	c0.03-6.65,2.15-12.74,4.9-18.68c0.34-0.73,1.36-1.6,0.5-2.35c-0.92-0.8-1.78,0.08-2.55,0.72c-7.14,5.91-9.78,13.74-9.78,22.71
	c-4.58,0.15-9.15,0-13.68-0.73c-1.96-8.57,0.12-16.31,4.67-23.6c0.56-0.9,2.62-1.76,1.06-3.09c-1.22-1.03-2.25,0.6-3.32,1.18
	c-0.34,0.18-0.61,0.5-0.87,0.79c-5.86,6.63-9.19,14.32-9.81,23.17c-1.8-0.1-3.46-0.73-5.11-1.37c-3.58-1.39-4.5-2.91-4.38-6.72
	c0.19-5.89,2.73-10.85,6.34-15.26c10.89-13.33,25.68-19.13,42.2-21.06c13.52-1.58,27.13-1.07,40.71-0.48
	c3.09,0.13,6.16,0.43,9.24,0.65c0.07-0.2,0.14-0.39,0.21-0.59c-5.44-4.29-10.88-8.58-16.32-12.86c-0.35-1.09-1.23-1.77-2-2.5
	c-5.29-5.04-9.76-10.74-13.93-16.71c-7.45-10.66-13.54-22.08-19.23-33.74c-1.95-5.35-3.95-10.69-5.85-16.06
	c-6.96-19.69-11-39.75-7.68-60.76c1.75-11.1,4.68-21.78,11.57-30.89c9.52-12.59,21.9-19.77,38.08-19.35
	C413.85,517.42,417.65,518.86,421.58,519.73z"/>
<path class="st2" d="M214.61,344.13c3.19-1.04,5.3-3.62,7.77-5.62c6.42-5.18,13.16-9.92,19.73-14.9c0.83-0.63,1.83-1.65,2.87-0.94
	c1.01,0.69,0.11,1.87-0.14,2.72c-3.28,11.03-4.91,22.4-6.88,33.7c-0.28,1.58-0.96,3.91,0.42,4.7c1.78,1.02,2.77-1.37,3.78-2.48
	c5.69-6.26,11.71-12.21,17.68-18.2c1.04-1.04,2.09-2.04,3.84-2.72c-0.21,3.6-0.4,6.95-0.61,10.31c-0.68,10.77-1.81,21.53-0.52,32.33
	c0.14,1.17,0.02,2.36,0.09,3.54c0.05,0.74-0.36,1.78,0.58,2.09c0.89,0.29,1.32-0.65,1.74-1.29c2.11-3.2,4.21-6.41,6.3-9.63
	c3.58-5.51,7.16-11.02,11.2-17.25c0.79,7.6,2.83,14.19,3.83,21.01c0.27,1.84,0.73,3.65,1.11,5.48c0.41,1.94,1.37,1.8,2.3,0.45
	c1.17-1.7,2.31-3.45,3.15-5.32c2.3-5.09,5.55-9.71,7.12-15.17c0.8-2.77,3.16-4.7,4.77-7.03c3-4.35,6.11-8.62,9.67-13.63
	c0.41,4,0.53,7.3,0.65,10.5c0.19,5,0.71,9.99,0.76,15c0.01,0.84-0.29,1.88,0.76,2.34c0.96,0.42,1.67-0.28,2.39-0.78
	c4.71-3.27,7.57-8.2,11.06-12.54c4.55-5.67,9.51-10.97,14.25-16.47c2.23-2.58,4.32-5.28,7.3-7.61c0.58,2.73-0.25,5.09-0.51,7.42
	c-1.36,12.26-3.55,24.41-4.63,36.72c-0.92,10.43-2.13,20.86-4.6,31.08c-0.16,0.67-0.36,1.33-0.55,1.99
	c-0.25,0.89-0.64,1.85-1.59,1.93c-1.13,0.09-0.74-1.17-1.11-1.79c-3.74-6.31-7.08-12.87-11.88-18.8c-1.75,2.98-1.79,6.21-2.56,9.18
	c-3.31,12.63-6.36,25.32-9.58,37.97c-0.44,1.74-0.53,4.33-2.44,4.65c-1.75,0.3-2.11-2.29-2.95-3.64c-2.27-3.68-4.28-7.51-6.4-11.28
	c-0.57-1-0.89-2.63-2.16-2.52c-1.22,0.11-1.3,1.8-1.7,2.83c-4.22,10.72-6.97,21.89-10.29,32.89c-1.42,4.7-2.74,9.43-4.1,14.15
	c-0.7,2.56-1.37,5.12-2.1,7.66c-0.15,0.53-0.16,1.31-0.85,1.41c-0.92,0.14-1.04-0.72-1.25-1.34c-1.64-4.83-3.39-9.62-4.16-14.71
	c-0.59-3.91-1.4-7.78-2.26-12.49c-7.51,10.32-10.63,21.79-15.06,32.8c-6.12-13.69-10.45-27.84-14.46-42.77
	c-3.95,5.57-5.44,11.34-7.01,17.07c-0.51,2.79-0.96,5.6-1.56,8.38c-0.16,0.76,0.03,2.1-1.14,2.07c-1.07-0.03-1-1.29-1.24-2.1
	c-0.92-3.2-1.8-6.42-2.7-9.62c-0.05-0.59-0.04-1.19-0.16-1.76c-3.76-18.46-5.23-37.12-5.19-55.93c0-0.81,0.34-1.71-0.29-2.53
	c-1.15,0.76-1.74,1.9-2.44,2.94c-3.23,4.82-6.37,9.71-10.38,13.95c-0.64,0.68-1.22,1.95-2.25,1.6c-1.15-0.39-0.65-1.74-0.57-2.63
	c0.33-4.01,0.76-8.01,1.19-12c1.13-10.44,2.11-20.9,4.44-31.17c1.25-5.51,2.47-11.02,3.84-17.17c-3.74,2-6.92,3.71-10.11,5.42
	c-1.84,0.05-3.25,1.28-4.92,1.81c-1.59,0.5-3.14,1.11-4.75,1.53c-1.21,0.31-2.86,0.94-3.64-0.01c-1.01-1.22,0.6-2.27,1.28-3.23
	C202.33,358.88,208.12,351.23,214.61,344.13z"/>
<path class="st3" d="M401.7,287.92c-12.3-10.18-21.75-22.6-28.78-36.89c-0.31-0.62-0.61-1.26-1.45-1.27
	c-0.08-1.48-0.38-2.9-0.79-4.33c-2.42-8.42-3.32-16.9-1.26-25.57c0.37-1.58,1.55-3.35,0.18-5.08c0.7-0.97,1.08-2.03,1.35-3.21
	c1.49-6.51,3.75-12.77,6.12-19c3.21-8.42,6.8-16.69,9.27-25.38c1.09-3.85,1.46-7.91,3.31-11.54c0.03-10.9-2.97-20.79-9.56-29.59
	c-2.03-2.71-4.34-5.34-5.25-8.75l0.11-0.12c3.22,1.7,5.38,4.54,7.64,7.23c2.29,2.73,4.37,5.63,6.55,8.45
	c-0.89-7.62-1.15-15.16-3.29-22.68c6.7,1.31,12.83,3.27,18.38,6.77c5.53,3.5,9.76,8.51,14.52,13.03c0.46-13.83,0.02-27.3-7.45-40.04
	c2.29,0.38,3.56,1.27,4.9,2.02c2.48,1.4,4.41,3.64,7.12,4.67c1.26,2.51,3.27,4.42,5.16,6.41c9.2,9.71,18.73,19.13,26.23,30.31
	c11.49,17.15,16.93,36.03,15.79,56.67c-0.47,8.51-3.17,16.58-5.79,24.62c-0.76,2.34-1.58,4.66-2.43,6.97
	c-0.25,0.69-0.37,1.87-1.34,1.6c-0.93-0.26-0.82-1.44-0.86-2.31c-0.33-6.81-1.52-13.47-3.56-19.97c-0.14-0.45-0.13-0.98-0.84-1.31
	c-0.96,1.48-0.96,3.24-1.26,4.88c-2.43,13.44-8.38,25.34-15.94,36.52c-3.19,4.72-6.66,9.26-10.09,13.81
	c-0.77,1.01-1.62,2.77-3.12,2.1c-1.27-0.57-0.69-2.33-0.56-3.54c0.4-4,0.94-7.98,1.45-12.21c-1.39,0.34-2.23,1.34-3,2.17
	c-8.05,8.65-12.92,18.74-13.35,30.68c-0.18,5-0.49,10.01,0.48,15.01c0.48,2.45-0.28,2.92-2.53,1.87
	C405.72,289.97,403.72,288.92,401.7,287.92z"/>
<path class="st2" d="M423.33,96.65c-2.72-1.03-4.64-3.27-7.12-4.67c-1.34-0.75-2.6-1.64-4.9-2.02c7.47,12.75,7.91,26.21,7.45,40.04
	c-4.76-4.52-8.98-9.54-14.52-13.03c-5.55-3.51-11.68-5.46-18.38-6.77c2.14,7.52,2.4,15.06,3.29,22.68
	c-2.17-2.83-4.26-5.73-6.55-8.45c-2.26-2.69-4.42-5.53-7.64-7.23c-0.11-0.02-0.22-0.05-0.33-0.07c0.07,0.06,0.14,0.13,0.22,0.19
	c0.91,3.42,3.21,6.04,5.25,8.75c6.59,8.8,9.59,18.69,9.56,29.59c-2.19-0.95-1.89-3.31-2.74-5c-5.41-10.79-14.68-17.19-25.1-22.25
	c-7.18-3.49-14.67-6.19-22.4-8.18c-0.59-0.15-1.22-0.27-1.43-0.89c-0.27-0.8,0.34-1.32,0.9-1.68c1.81-1.18,3.65-2.31,5.5-3.43
	c3.43-2.08,7.3-3.13,11.13-4.51c-9.54-4.27-18.84-9.2-29.8-6.15c-0.51,0.14-1.33,0.11-1.67-0.2c-0.72-0.66,0.12-1.23,0.47-1.74
	c0.55-0.8,1.22-1.53,1.85-2.28c2.98-3.49,6.92-5.79,10.5-8.53c0.68-0.52,1.86-0.88,1.54-1.88c-0.33-1.04-1.56-0.65-2.36-0.58
	c-7.97,0.72-15.69,2.44-22.96,5.91c-0.52,0.25-0.98,0.73-1.58,0.09c2.49-6.88,5.8-13.45,8.25-21.14
	c-10.74,5.09-20.02,11.12-28.27,19.64c0-8,3.73-14.54,4.84-22.61c-4.38,3.74-8.32,6.67-11.76,10.1
	c-11.76,11.75-21.11,25.55-31.97,38.07c-2.14-5-1.06-10.19-0.93-15.32c0.14-5.77,1.64-11.37,2.14-17.1
	c0.06-0.05,0.13-0.11,0.19-0.16c-0.04-0.04-0.08-0.08-0.12-0.12c-0.05,0.06-0.11,0.13-0.16,0.19c-0.6,0.32-1.24,0.57-1.78,0.97
	c-6.81,5.02-13.6,10.05-20.39,15.09c-0.78,0.58-1.58,1.52-2.59,0.96c-1.2-0.67-0.65-1.94-0.4-2.92c1.49-5.84,3.69-11.41,6.81-16.58
	c6.49-10.77,15.78-19.03,24.81-27.52c0.52-0.49,1.51-0.64,1.24-1.84c-5.7,0-11.39,0-17.09,0c2.86-3.65,6.93-5.69,10.74-8.06
	c9.48-5.88,19.3-11.03,30.32-13.47c0.13-0.03,0.2-0.29,0.38-0.56c-7.05-1.62-14.36-0.34-21.3-2.41c20.98-8.52,41.74-9.97,62.78,2.44
	c-1.64-4.01-2.95-7.22-4.53-11.07c3.02,1.01,5.62,1.69,8.07,2.73c11.78,4.99,21.75,12.24,28.4,23.43c0.97,1.63,2.19,1.66,3.7,1.6
	c21.38-0.76,37.65,8.84,50.39,25.22C418.47,80.58,421.44,88.42,423.33,96.65z"/>
<path class="st1" d="M42.77,276.7c4.78-9.28,12.94-13.61,22.81-14.57c13.35-1.3,24.75,4.33,35.5,11.44
	c10.92,7.22,19.81,16.74,28.98,25.93c27.43,27.49,49.93,58.65,68.78,92.53c-0.36,0.91-0.68,1.83-1.08,2.73
	c-9.16,20.84-22.24,39.32-34.85,58.09c-11.6-11.28-22.82-22.91-33.89-35.38c2.67-0.04,4.51,0.95,6.45,1.48
	c4.52,1.24,8.87,3.16,13.66,3.28c0.09,0.03,0.18,0.07,0.28,0.1c-0.07-0.05-0.14-0.11-0.21-0.16c-0.26-1.4-1.56-1.96-2.39-2.88
	c-11.11-12.22-22.24-24.42-33.36-36.63c-0.25-0.28-0.44-0.62-0.54-1.29c7.8,2.25,15.5,4.78,24.13,6.65
	c-12.44-12.8-23.46-25.92-34.46-39.23c5.59,1.16,10.81,3.35,16.91,4.36c-9.43-13.49-19.62-25.28-35.24-30.94
	c-0.59-1.75-2.24-2.44-3.56-3.36c-8.03-5.53-15.51-11.68-22.09-18.91c-0.87-0.96-1.6-1.82-1.63-3.29
	c-0.19-8.23,5.01-15.39,12.82-17.42c0.89-0.23,1.96-0.18,2.17-1.47c-8.3-1.68-14.99,1.88-18.99,9.93c-0.46,0.92-0.57,2.37-1.81,2.46
	c-1.23,0.09-1.54-1.3-2.16-2.15C46.44,284.51,44.41,280.72,42.77,276.7z"/>
<path class="st4" d="M408.79,697.32c5.44,4.29,10.88,8.58,16.31,12.86c-0.07,0.2-0.14,0.39-0.21,0.59
	c-3.08-0.22-6.16-0.52-9.24-0.65c-13.58-0.59-27.19-1.1-40.71,0.48c-16.52,1.93-31.31,7.73-42.2,21.06
	c-3.61,4.42-6.14,9.37-6.34,15.26c-0.13,3.81,0.8,5.33,4.38,6.72c1.64,0.64,3.31,1.27,5.11,1.37c2.71,0.74,5.45,1.35,8.26,1.56
	c4.53,0.73,9.1,0.88,13.68,0.73c2.15-0.04,4.3-0.08,6.46-0.11c11.08,0.09,21.97-1.69,32.81-3.63c23.72-4.25,47.28-9.32,70.77-14.7
	c2.29-0.52,4.53-1.32,6.73-2.16c3.7-1.42,4.57-3.39,3.49-7.18c-1.72-6.01-4.5-11.52-7.77-16.82c-0.48-0.78-1.46-1.41-1.11-2.58
	c5.26-2.29,9.49-6.03,13.76-9.7c9.71,0.41,18.55,4.17,27.5,7.36c6.12,2.18,12.04,4.92,17.2,8.94c5.03,3.92,8.79,11.32,3.4,17.43
	c-1.62,1.84-3.33,3.59-5.35,5.05c-9.2,6.59-19.72,10.15-30.43,13.18c-17.49,4.95-35.31,8.46-53.27,11.17
	c-12.3,1.85-24.66,3.35-37.07,4.37c-12.91,1.06-25.82,1.85-38.77,2.43c-19.78,0.89-39.56,0.51-59.32,0.31
	c-13.52-0.13-27.04-1.36-40.54-2.35c-2.84-0.21-5.67-0.39-8.52-0.5c11.2-5.85,15.6-16.41,18.94-27.61
	c2.75-9.23,5.21-18.54,7.79-27.82c3.81-0.24,7.63-0.42,11.44-0.72c6.73-0.53,13.48-0.98,20.18-1.76c4.78-0.56,7.54-1.41,5.04-7.85
	c-1.98-5.1-3.85-10.27-4.88-15.68c13.49-0.04,26.98-0.08,40.47-0.12c0.95,0.2,1.94,0.3,2.85,0.62c11.58,4.02,23.38,7.26,35.48,9.25
	C399.63,696.84,404.13,698.15,408.79,697.32z"/>
<path class="st2" d="M231.77,214.74c-3.89,0.82-4.46,4.31-5.81,7.18c-2.4,4.5-3.31,9.37-3.67,14.39c-0.07,0.91,0.27,2.25-0.98,2.49
	c-1.31,0.24-1.36-1.2-1.73-2c-3.67-8-4.26-16.43-3.43-25.05c0.07-0.77,0.18-1.54,0.34-2.84c-3.28,1.61-4.87,4.34-6.95,6.55
	c-1.23,1.31-1.93,4.26-3.66,3.63c-1.62-0.59-0.95-3.46-1.04-5.36c-0.22-4.84,0.6-9.57,1.54-14.29c3.23-9.8,9.4-17.62,17.16-24.36
	c-0.17-0.17-0.35-0.34-0.52-0.51c-4,0.72-8.01,1.44-12.01,2.17c8.12-13.13,19.81-20.84,35.52-24.05c-2.32-0.57-3.8-0.9-5.27-1.31
	c-0.54-0.15-1.27-0.25-1.36-0.93c-0.1-0.74,0.71-0.81,1.15-1.14c2.75-2.06,6.18-2.4,9.24-3.64c1.38-0.02,2.78,0.13,4.12-0.1
	c6.96-1.19,13.99-0.9,20.81,0.26c18.81,3.2,35.33,11.14,47.9,25.88c5.93,6.96,10.85,14.7,13.45,23.63
	c0.96,3.29,2.02,6.57,2.26,10.02c0.06,0.83,0.45,1.98-0.45,2.44c-1,0.51-1.48-0.68-2.08-1.23c-1.16-1.06-2.22-2.23-3.37-3.3
	c-0.54-0.5-1.03-1.53-1.88-1.05c-0.84,0.47-0.3,1.4-0.08,2.13c0.66,2.25,1.42,4.48,1.98,6.76c2.18,8.8,3.43,17.71,3.03,26.8
	c-0.17,4.28-1.12,8.41-2.66,12.55c-0.9-3.04-1.81-6.09-2.71-9.13c-0.81-2.8-1.26-5.74-3.22-9.01c-0.26,4.29-2.08,7.46-1.94,11.03
	c-2.39,6.78-4.91,13.5-9.03,19.47c-0.43,0.62-0.87,1.57-1.75,1.32c-1-0.29-0.58-1.34-0.55-2.06c0.17-3.98-0.56-7.83-1.69-11.62
	c-0.21-0.72-0.25-1.77-1.19-1.81c-0.96-0.04-1.03,1.06-1.34,1.73c-4.13,9.12-9.66,17.32-16.42,24.69c-0.56,0.61-1.01,1.79-2.01,1.41
	c-1.01-0.39-0.53-1.56-0.46-2.37c0.67-7.74,1.04-15.48,0.56-23.25c-0.65-3.66-1.23-7.33-1.99-10.96c-0.21-1.03-0.07-2.51-1.73-2.73
	c-0.45-3.61-1.15-4.11-4.47-3.41c-5.2,1.09-10.39,2.27-15.76,1.13c-6.66-1.41-11.96-8.75-10.91-15.34c0.15-0.93-0.09-2.95,1.79-2.18
	c4.93,2.04,9.74,0.56,14.5-0.33c4.39-0.82,8.31-2.91,11.59-6.04c0.17-0.15,0.33-0.3,0.5-0.45c0.18-0.18,0.36-0.35,0.53-0.53
	c2.7-2.34,3.06-5.59,3.46-8.83c0.49-4.59-0.72-8.75-3.2-12.57c-6.13-9.44-22.26-15.48-33.12-12.43
	c-6.33,1.78-10.26,7.06-10.22,13.75c-0.49,2.34-0.77,4.68-0.21,7.06c0.5,5.47,2.68,10.36,6.4,14.22c2.33,2.41,3.15,4.28,2.14,7.62
	c-1.2,3.99-2.81,5.14-6.61,3.15c-3.41-1.78-5.69-4.73-7.8-7.83c-0.6-0.88-1.08-1.9-2.45-1.75
	C232.55,212.55,232,213.47,231.77,214.74z"/>
<path class="st3" d="M493.61,685.17c3.23-7.01,5.93-14.2,7.71-21.72c0.24-1.04,0.4-2.09,0.6-3.14c2.5-6.07,3.47-12.53,4.74-18.92
	c0.86-4.31,1.25-8.67,1.33-13.07c3.62-5.24,5.96-11.14,7.36-17.22c3.25-14.09,5.25-28.4,6.14-42.87
	c0.81-13.28,0.11-26.59,0.72-39.85c1.26-27.75,7.57-54.1,23.37-77.53c0.99-1.47,1.82-3.04,2.77-4.53c0.51-0.8,0.84-2.28,1.88-1.98
	c1.29,0.38,0.69,1.89,0.61,2.88c-0.37,4.7-0.84,9.4-1.28,14.1c-1.46,15.6-1.74,31.21-0.54,46.85c0.33,4.21,0.59,8.43,0.92,13.06
	c1.52-1.69,1.97-3.57,2.74-5.24c2.25-4.93,4.63-9.79,7.4-14.45c0.47-0.79,0.87-2.07,2.06-1.78c1.22,0.3,1,1.73,0.91,2.54
	c-0.44,4.15,0.16,8.25,0.23,12.38c0.14,8.27,0.64,16.53,0.55,24.79c-0.1,9.34-0.79,18.67-2.65,27.86c-0.13,0.63-0.45,1.31,0.27,2.23
	c2.87-3.84,5.68-7.59,8.49-11.33c0.69-0.92,1.27-2.34,2.68-1.84c1.49,0.53,0.87,2.07,0.74,3.12c-2.72,20.75-8.7,40.35-20.76,57.75
	c-1.05,1.52-2.34,2.89-3.93,4.83c4.34-1.37,7.85-3.23,11.43-4.93c1.96-0.93,3.9-1.87,5.88-2.76c0.72-0.33,1.58-0.53,2.23,0.07
	c0.8,0.75,0.06,1.45-0.3,2.09c-9.43,16.74-21.68,31.14-36.25,43.58c-8.85,7.55-18.28,14.31-28.21,20.38
	C500.34,682.44,497.15,684.18,493.61,685.17z"/>
<path class="st3" d="M250.28,145.65c-3.07,1.25-6.49,1.59-9.24,3.64c-0.44,0.33-1.25,0.39-1.15,1.14c0.09,0.68,0.82,0.78,1.36,0.93
	c1.46,0.4,2.94,0.74,5.27,1.31c-15.71,3.22-27.4,10.93-35.52,24.05c4-0.72,8.01-1.44,12.01-2.17c0.17,0.17,0.35,0.34,0.52,0.51
	c-7.76,6.74-13.93,14.56-17.16,24.36c-4,1.01-7.98,2.1-11.99,3.03c-12.51,2.89-24.18-0.1-35.49-5.28c-2.43-1.11-2.38-1.75-0.19-3.37
	c10.98-8.15,19.15-18.58,24.95-30.9c0.11-0.24,0.1-0.55,0.22-1.25c-5.51,2.4-10.85,4.52-16.37,6.08c-1.49,0.42-3.48,2.03-4.51,0.26
	c-1.05-1.79,1.36-2.76,2.44-3.86c13.4-13.63,23.31-29.36,28.82-47.74c0.38-1.28,0.58-2.61,1.03-4.63
	c-6.02,5.59-9.99,12.05-15.1,17.45c-0.26-0.17-0.53-0.34-0.79-0.51c1.15-3.59,2.4-7.14,3.42-10.77c2.78-9.96,7.09-19.26,13.04-27.63
	c9.04-12.71,20.85-22.35,34.73-29.5c4.54-2.34,9.44-3.96,13.76-6.76c5.7,0,11.4,0,17.09,0c0.27,1.2-0.72,1.35-1.24,1.84
	c-9.03,8.49-18.31,16.75-24.81,27.52c-3.12,5.17-5.32,10.74-6.81,16.58c-0.25,0.99-0.8,2.25,0.4,2.92c1.01,0.56,1.81-0.37,2.59-0.96
	c6.79-5.04,13.59-10.07,20.39-15.09c0.54-0.4,1.18-0.65,1.78-0.97l0.09,0.09c-0.5,5.73-2,11.33-2.14,17.1
	c-0.13,5.13-1.21,10.32,0.93,15.32c0.59,1.09,0.66,2.21,0.33,3.42c-1.73,6.45-3,13-4.23,19.56
	C248.34,143.33,248.67,144.63,250.28,145.65z"/>
<path class="st5" d="M276.75,546.86c-0.6,7.32-1.84,14.57-3.06,21.8c-2.21,13.03-4.16,26.12-7.34,38.98
	c-3.39,13.71-6.58,27.46-9.83,41.2c-2.08,8.77-4,17.57-6.79,26.15c-0.03-1.99-1.52-3.14-2.66-4.43
	c-12.18-13.84-20.64-29.6-24.65-47.66c-0.93-4.2-1.3-8.47-1.46-12.86c-2.05,2.55-3.2,5.6-5.35,7.96c-0.5,0.55-0.73,1.66-1.69,1.33
	c-0.88-0.29-1.14-1.31-1.4-2.15c-1.54-4.8-2.25-9.76-2.44-14.78c-0.36-9.65,1.51-18.96,4.36-28.12c0.14-0.45,0.21-0.93,0.52-2.32
	c-3.36,3.63-6.14,6.62-8.91,9.62c-0.3-0.22-0.59-0.45-0.89-0.67c-0.35-1.6,0.34-3.12,0.78-4.6c4.98-16.71,14.78-29.65,30.36-37.74
	c9.55-4.96,19.92-6.53,30.63-5.79C269.74,537.78,272.71,542.69,276.75,546.86z"/>
<path class="st6" d="M162.91,452.84c12.62-18.76,25.69-37.25,34.85-58.09c0.39-0.89,0.72-1.82,1.08-2.73
	c4.04-8.19,6.38-17.04,9.97-25.4c3.19-1.71,6.38-3.42,10.11-5.42c-1.37,6.15-2.59,11.66-3.84,17.17
	c-2.34,10.27-3.31,20.73-4.44,31.17c-0.43,4-0.86,8-1.19,12c-0.07,0.89-0.57,2.25,0.57,2.63c1.03,0.35,1.61-0.92,2.25-1.6
	c4-4.24,7.15-9.13,10.38-13.95c0.7-1.05,1.29-2.18,2.44-2.94c0.63,0.81,0.29,1.71,0.29,2.53c-0.04,18.81,1.43,37.47,5.19,55.93
	c0.12,0.57,0.11,1.17,0.16,1.76c-3.36,3.13-6.2,6.79-9.86,9.62c-9.13,7.05-18.4,13.83-29.5,17.6c-1.76,0.6-3.36,0.66-5.17,0.17
	c-7.25-1.95-14.07-5-21.01-7.76c-0.82-0.33-1.84-0.59-1.82-1.66c0.02-1.04,1.05-1.34,1.84-1.7c2-0.89,4.17-1.08,6.3-1.48
	c0.94-0.17,1.96-0.06,2.89-1.05c-5.95-4.25-11.5-8.92-16.48-14.21c-3.51-3.72-6.97-7.49-10.38-11.29c-0.6-0.67-1.79-1.44-1.11-2.46
	c0.54-0.81,1.67-0.12,2.47,0.09c4.01,1.04,8.08,1.66,12.19,2.1C161.74,453.95,163.3,454.9,162.91,452.84z"/>
<path class="st7" d="M249.52,675.55c-4.06,13.12-8.09,26.26-14.43,38.52c-3.25-0.23-6.46,0.33-9.69,0.58
	c-9.49,0.73-18.97,1.63-28.47,2.18c-9.79,0.57-19.57,1.61-29.41,1.33c0.74-0.74,1.65-1.26,1.76-2.55c0.27-3.15,1.3-6.15,2.43-9.06
	c1.68-4.31,3.57-8.57,8.11-10.79c0.75-0.36,1.34-0.91,1.04-1.86c-0.29-0.9-1.08-0.99-1.89-1.1c-5.15-0.66-10.24,1.93-12.95,6.43
	c-2.64,4.39-3.71,9.24-4.39,14.2c-0.24,1.76-0.6,3.82,1.72,4.77c-4.36,0.02-8.72,0.26-13.08-0.39c-2.67-0.4-4.26-1.66-4.66-4.35
	c0.89-5.23,1.79-10.38,4.5-15.16c4.8-8.49,12.21-13.5,21.13-16.47c12.1-4.02,24.6-5.96,37.31-6.87
	C222.25,674.01,235.88,674.37,249.52,675.55z"/>
<path class="st4" d="M167.53,718.17c9.83,0.28,19.61-0.76,29.41-1.33c9.5-0.55,18.98-1.46,28.47-2.18c3.23-0.25,6.43-0.81,9.69-0.58
	c-1.59,3.51-3.87,6.61-5.84,9.9c-0.82,1.37-2.14,1.96-3.48,2.6c-7.04,3.39-13.6,7.51-19.42,12.75c-5.07,4.57-8.88,9.97-10.53,16.71
	c-8.62-0.73-17.02-2.67-25.38-4.76c-13.26-3.32-26.28-7.38-38.03-14.62c-3.2-1.97-6.77-3.86-6.33-8.7c0.23-2.57,1.53-4.5,3.26-6.07
	c4.65-4.24,10.18-6.91,16.28-8.4c0.4,2.69,1.98,3.95,4.66,4.35c4.36,0.65,8.72,0.41,13.08,0.39
	C164.75,718.2,166.14,718.18,167.53,718.17z"/>
<path class="st6" d="M276.75,546.86c-4.04-4.17-7.01-9.08-9.81-14.1c-3.22-5.16-6.53-10.27-9.64-15.49
	c-8.92-14.95-16.01-30.64-19.09-47.93c-0.13-0.75-0.2-1.58-0.83-2.16c1.57-5.73,3.06-11.5,7.01-17.07
	c4.01,14.92,8.34,29.07,14.46,42.77c4.42-11,7.54-22.48,15.06-32.8c0.86,4.7,1.68,8.58,2.26,12.49c0.76,5.09,2.52,9.88,4.16,14.71
	c0.21,0.62,0.32,1.48,1.25,1.34c0.69-0.1,0.7-0.89,0.85-1.41c0.73-2.55,1.41-5.11,2.1-7.66c1.3,3.89,0.01,7.76-0.37,11.56
	c-1,10.12-2.51,20.19-3.8,30.28c-1.05,8.25-2.07,16.5-3.12,24.75C277.2,546.39,276.92,546.62,276.75,546.86z"/>
<path class="st0" d="M482.97,700.41c-4.28,3.68-8.51,7.42-13.76,9.7c-3.18-2.29-4.75-5.92-7.23-8.81
	c-3.07-3.56-5.69-7.51-8.56-11.25c-4.21-5.48-6.35-11.95-8.75-18.29c-1.28-3.38-2.33-6.84-3.45-10.16c0.71-0.69,1.1-0.27,1.42,0.06
	c7.42,7.57,14.81,15.17,22.24,22.73c0.93,0.95,1.83,2.4,3.44,1.68c1.77-0.8,1.24-2.61,1.01-3.94c-0.84-4.91-2.26-9.71-2.73-15.41
	c8.93,8.35,15.42,17.78,21.11,27.84C486.58,696.88,484.46,698.39,482.97,700.41z"/>
<path class="st8" d="M42.77,276.7c1.63,4.01,3.66,7.81,6.24,11.3c0.62,0.85,0.93,2.24,2.16,2.15c1.24-0.09,1.35-1.54,1.81-2.46
	c4-8.06,10.69-11.61,18.99-9.93c-0.21,1.29-1.28,1.24-2.17,1.47c-7.81,2.03-13.01,9.19-12.82,17.42c0.03,1.46,0.76,2.33,1.63,3.29
	c6.57,7.23,14.05,13.39,22.09,18.91c1.33,0.92,2.97,1.61,3.56,3.36c-9.27-2.34-18.47-4.99-26.67-10.02
	c-6.53-4-11.93-9.33-15.46-16.27C38.83,289.43,39.54,283.01,42.77,276.7z"/>
<path class="st7" d="M206.46,770.71c-0.22-5.74,0.29-11.39,2.42-16.78c1.72-4.35,4.16-8.24,8-11.06c0.92-0.68,2.07-1.1,3.18-1.47
	c0.71-0.24,1.66-0.44,2.11,0.43c0.47,0.89-0.32,1.48-0.88,1.97c-4.6,4.03-6.01,9.66-6.92,15.23c-0.68,4.2-1.16,8.57-0.72,12.9
	C211.17,771.98,208.8,771.42,206.46,770.71z"/>
<path class="st7" d="M228.27,772.98c0.09-5.58-0.01-11.2,2.21-16.49c1.77-4.23,4.21-7.97,8.29-10.36c1.01-0.59,2.05-1.19,3.26-1.27
	c0.58-0.04,1.22-0.09,1.52,0.58c0.24,0.52-0.05,0.97-0.4,1.31c-7.18,7.21-7.14,16.56-7.65,25.75
	C233.09,772.68,230.72,773.37,228.27,772.98z"/>
<path class="st9" d="M330.59,241.32c0.9,3.04,1.81,6.09,2.71,9.13c1.55-4.14,2.49-8.27,2.66-12.55c7.99-5.5,16.69-9.91,24.33-15.94
	c3.07-2.43,6.2-4.79,9.3-7.18c1.36,1.73,0.19,3.5-0.18,5.08c-2.06,8.67-1.17,17.15,1.26,25.57c0.41,1.43,0.72,2.85,0.79,4.33
	c-1.44,5.85-3.97,11.3-6.14,16.88c-3.5,8.98-6.94,17.99-11.12,26.69c-0.48,0.99-0.57,2.71-1.95,2.62c-1.16-0.07-1.61-1.61-2.14-2.63
	c-2.34-4.45-4.02-9.19-5.77-13.89c-0.37-0.99-0.48-2.12-1.73-2.99c-1.28,3.03-2.63,5.93-3.73,8.92
	c-3.25,8.84-8.53,16.61-12.93,24.85c-0.91,1.71-1.84,1.45-2.91,0.2c-2.49-2.94-4.63-6.11-6.24-9.63c-0.9-1.96-1.89-3.88-2.85-5.85
	c-1.41,0.15-1.66,1.36-2.2,2.18c-5.39,8.11-10.72,16.26-16.11,24.38c-2.27,3.42-3.19,3.39-4.87-0.2
	c-4.77-10.16-8.84-20.61-12.94-31.05c-0.35-0.88-0.48-2.25-1.46-2.39c-1.13-0.16-1.27,1.31-1.79,2.07c-2.8,4.04-5.23,8.34-8.6,11.97
	c-0.6,0.64-1.09,1.53-2.13,1.34c-1.17-0.22-1.57-1.31-1.61-2.24c-0.34-7.96-3.43-15.31-4.95-23c0.96,0.05,1.76-0.26,2.07-1.23
	c0.71-2.2,2.04-4.19,2.12-6.59c0.46,0.36,0.91,0.74,1.39,1.09c1.42,1.04,2.13,0.7,2.09-1.09c-0.07-3.23-0.06-6.46,0.64-9.65
	c0.18-0.83,0.12-2.04,1.07-2.18c0.96-0.14,1.31,1.06,1.67,1.8c1.8,3.72,3.99,7.18,6.67,10.34c1.34,1.59,2.28,1.95,3.82,0
	c4.27-5.42,7.6-11.41,11-17.36c0.47-0.82,0.64-1.9,1.73-2.26c0.49,7.77,0.11,15.51-0.56,23.25c-0.07,0.81-0.56,1.97,0.46,2.37
	c0.99,0.38,1.45-0.8,2.01-1.41c6.76-7.37,12.29-15.57,16.42-24.69c0.3-0.67,0.38-1.77,1.34-1.73c0.94,0.04,0.97,1.1,1.19,1.81
	c1.13,3.79,1.86,7.63,1.69,11.62c-0.03,0.72-0.45,1.77,0.55,2.06c0.88,0.26,1.33-0.7,1.75-1.32c4.12-5.97,6.64-12.69,9.03-19.47
	C327.15,242.67,328.87,242,330.59,241.32z"/>
<path class="st10" d="M421.58,519.73c-3.92-0.87-7.73-2.31-11.81-2.41c-16.18-0.42-28.57,6.76-38.08,19.35
	c-6.89,9.12-9.82,19.79-11.57,30.89c-3.32,21.01,0.72,41.06,7.68,60.76c1.9,5.37,3.89,10.71,5.85,16.06
	c-0.84-0.09-1.39-0.65-1.98-1.18c-5.76-5.18-11.59-10.28-17.27-15.55c-8.84-8.21-17.58-16.54-26.35-24.82
	c-0.59-0.56-1.26-0.93-2.09-0.97c2.27-11.88,4.53-23.76,6.8-35.64c0.16-0.02,0.33-0.03,0.49-0.05c0.89,3.25,1.79,6.49,2.68,9.74
	c0.23,0.85,0.35,1.74,0.65,2.57c0.42,1.16,0.57,3.02,1.95,2.95c1.51-0.07,1.27-2.01,1.45-3.14c2.93-19.28,10.1-37.31,16.4-55.58
	c5.76-16.73,12.59-33.06,19.18-49.47c3.03-7.56,6.29-15.03,9.76-23.29c0.39,13,4.35,24.48,7.63,36.94c3.82-8.1,5.75-16,8.62-23.53
	c1.08,0.33,1.29,1.06,1.48,1.68C408.7,483.42,415.07,501.6,421.58,519.73z"/>
<path class="st9" d="M325.93,601.85c0.83,0.04,1.5,0.41,2.09,0.97c8.78,8.28,17.51,16.61,26.35,24.82
	c5.68,5.27,11.51,10.37,17.27,15.55c0.59,0.53,1.14,1.09,1.98,1.18c5.69,11.66,11.78,23.08,19.23,33.74
	c4.17,5.97,8.64,11.67,13.93,16.71c0.77,0.73,1.65,1.41,2,2.5c-4.66,0.82-9.16-0.48-13.66-1.22c-12.1-1.99-23.9-5.23-35.48-9.25
	c-0.91-0.32-1.9-0.42-2.85-0.62c-0.51-0.66-1.26-0.89-2-1.16c-9.41-3.41-18.59-7.36-27.52-11.88c-5.59-2.83-11.21-5.63-16.81-8.44
	c-1.85-1.59,0.09-2.68,0.51-3.99c1.84-5.78,3.63-11.58,6.07-17.14c1.28,0.13,1.46-0.91,1.58-1.71
	C320.56,628.46,323.71,615.24,325.93,601.85z"/>
<path class="st11" d="M231.77,214.74c0.22-1.27,0.78-2.18,2.22-2.34c1.38-0.15,1.85,0.87,2.45,1.75c2.11,3.1,4.39,6.05,7.8,7.83
	c3.8,1.99,5.41,0.84,6.61-3.15c1.01-3.34,0.18-5.21-2.14-7.62c-3.72-3.86-5.9-8.74-6.4-14.22c4.24-0.23,8.48-0.48,8.92,5.52
	c0.04,0.62,0.52,1.38,1.36,1.34c1.03-0.05,1.46-0.92,1.85-1.71c1.83-3.71,0.46-7.51,0.2-11.26c-0.07-0.99-1.24-1.34-2.26-1.6
	c-3.37-0.84-6.58,0.35-9.86,0.65c-0.04-6.69,3.89-11.97,10.22-13.75c10.86-3.05,26.99,2.99,33.12,12.43
	c2.48,3.82,3.69,7.99,3.2,12.57c-1.31,0.08-2.03,1.17-2.92,1.86c-2.49,1.92-5.27,2.82-8.27,2.12c-2.32-0.55-2.21-3.14-3.14-4.87
	c-0.73-1.37-1.77-2.68-3.6-2.64c-1.82,0.04-3.51,0.94-3.99,2.55c-0.71,2.4-1.02,5.02,0.37,7.39c2.08,3.55,8.88,5.36,13.12,3.63
	c1.23-0.5,2.53-1.71,3.93-0.24c-3.28,3.13-7.2,5.23-11.59,6.04c-4.77,0.89-9.57,2.37-14.5,0.33c-1.88-0.78-1.64,1.25-1.79,2.18
	c-1.05,6.59,4.25,13.93,10.91,15.34c5.37,1.14,10.56-0.04,15.76-1.13c3.32-0.7,4.02-0.2,4.47,3.41c-9.96,6.26-22.21,7.58-32.47-0.31
	c-2.16-1.66-3.64-3.82-4.6-6.37c-0.25-0.65-0.24-1.41-1.44-1.46C239.99,228.65,234.07,223.76,231.77,214.74z"/>
<path class="st5" d="M317.04,643.62c-2.44,5.57-4.23,11.36-6.07,17.14c-0.42,1.32-2.35,2.4-0.51,4c1.32,7.37,3.46,14.52,5.87,21.6
	c1.03,5.41,2.9,10.58,4.88,15.68c2.5,6.44-0.26,7.3-5.04,7.85c-6.7,0.78-13.45,1.23-20.18,1.76c-3.81,0.3-7.62,0.49-11.44,0.72
	c2.2-9.71,4.41-19.42,6.7-29.53c2.26,2.34,2.91,5.08,4.35,7.35c0.54,0.86,0.83,2.35,2.04,2.16c1-0.16,0.95-1.56,1.17-2.5
	c1.54-6.8,1.53-13.82,2.85-20.65c2.64-13.66,3.93-27.55,6.85-41.16c0.22-1.03,0.28-2.09,0.54-4.08
	C312.15,630.96,315.11,637.06,317.04,643.62z"/>
<path class="st7" d="M261.47,270.17c-0.08,2.4-1.41,4.39-2.12,6.59c-0.31,0.97-1.11,1.28-2.07,1.23
	c-1.96-6.11-3.91-12.22-5.87-18.33c0.22-0.14,0.44-0.28,0.66-0.41C254.71,263.35,258.83,266.08,261.47,270.17z"/>
<path class="st12" d="M405.02,327.04c-0.06-0.04-0.14-0.07-0.18-0.12c-0.03-0.03,0-0.1,0-0.16c0.07,0.09,0.13,0.17,0.2,0.26
	C405.04,327.02,405.02,327.04,405.02,327.04z"/>
<path class="st8" d="M344.16,756.57c-2.81-0.21-5.55-0.82-8.26-1.56c0.62-8.84,3.95-16.54,9.81-23.17c0.26-0.29,0.54-0.61,0.87-0.79
	c1.06-0.58,2.1-2.21,3.32-1.18c1.56,1.33-0.5,2.19-1.06,3.09C344.27,740.27,342.19,748.01,344.16,756.57z"/>
<path class="st6" d="M364.29,757.19c-2.15,0.04-4.3,0.08-6.46,0.11c0-8.97,2.65-16.81,9.78-22.71c0.77-0.64,1.63-1.52,2.55-0.72
	c0.86,0.75-0.16,1.62-0.5,2.35c-2.75,5.94-4.87,12.02-4.9,18.68C364.77,755.67,364.46,756.43,364.29,757.19z"/>
<path class="st0" d="M369.6,214.78c-3.1,2.39-6.22,4.76-9.3,7.18c-7.64,6.04-16.34,10.44-24.33,15.94c0.4-9.09-0.85-18-3.03-26.8
	c-0.57-2.28-1.32-4.51-1.98-6.76c-0.22-0.73-0.75-1.66,0.08-2.13c0.86-0.49,1.35,0.55,1.88,1.05c1.15,1.07,2.21,2.25,3.37,3.3
	c0.6,0.55,1.08,1.74,2.08,1.23c0.9-0.46,0.51-1.62,0.45-2.44c-0.24-3.45-1.3-6.74-2.26-10.02c-2.6-8.93-7.52-16.67-13.45-23.63
	c-12.57-14.74-29.1-22.68-47.9-25.88c-6.82-1.16-13.85-1.45-20.81-0.26c-1.34,0.23-2.75,0.08-4.12,0.1
	c-1.61-1.02-1.93-2.32-1.57-4.26c1.23-6.56,2.5-13.11,4.23-19.56c0.33-1.21,0.26-2.33-0.33-3.42
	c10.86-12.52,20.22-26.32,31.97-38.07c3.44-3.44,7.38-6.37,11.76-10.1c-1.1,8.07-4.84,14.61-4.84,22.61
	c8.24-8.52,17.52-14.55,28.27-19.64c-2.44,7.69-5.76,14.26-8.25,21.14c0.59,0.64,1.06,0.16,1.58-0.09
	c7.27-3.47,14.99-5.19,22.96-5.91c0.8-0.07,2.03-0.46,2.36,0.58c0.32,1-0.86,1.36-1.54,1.88c-3.58,2.74-7.53,5.04-10.5,8.53
	c-0.64,0.75-1.3,1.48-1.85,2.28c-0.35,0.51-1.19,1.07-0.47,1.74c0.34,0.31,1.15,0.34,1.67,0.2c10.96-3.05,20.26,1.88,29.8,6.15
	c-3.83,1.39-7.69,2.43-11.13,4.51c-1.85,1.12-3.69,2.25-5.5,3.43c-0.57,0.37-1.17,0.88-0.9,1.68c0.21,0.62,0.84,0.74,1.43,0.89
	c7.73,2,15.23,4.69,22.4,8.18c10.42,5.06,19.69,11.46,25.1,22.25c0.84,1.68,0.55,4.05,2.74,5c-1.85,3.63-2.22,7.69-3.31,11.54
	c-2.47,8.7-6.06,16.97-9.27,25.38c-2.38,6.22-4.64,12.49-6.12,19C370.67,212.74,370.29,213.81,369.6,214.78z M271.67,134.38
	c1.29,2.3,3.44,3.51,5.81,4.23c4.46,1.35,8.79,0.5,12.92-1.37c6.33-2.88,10.43-9.78,10.07-16.68c-0.31-6.09-4.2-11.35-10.39-13.37
	c-3-0.98-6.25-1.62-9.14,0.66c-0.98-0.06-1.89,0-2.83,0.44C269.1,112.54,265.8,128.08,271.67,134.38z M352.43,142.16
	c-3.04-0.16-5.99-0.29-8.82,1.44c-8.78,5.33-10.49,17.07-3.61,25.68c7.21,9.21,19.48,8.54,25.86-1.6
	c3.63-5.77,4.04-11.94,0.36-17.86C363.12,144.81,358.92,141.28,352.43,142.16z"/>
<path class="st3" d="M374.84,117.31c-0.07-0.06-0.14-0.13-0.22-0.19c0.11,0.03,0.22,0.05,0.33,0.07
	C374.96,117.19,374.84,117.31,374.84,117.31z"/>
<path class="st3" d="M253.73,85.91c0.05-0.06,0.11-0.13,0.16-0.19c0.04,0.04,0.08,0.08,0.12,0.12c-0.06,0.05-0.13,0.1-0.19,0.16
	C253.82,86,253.73,85.91,253.73,85.91z"/>
<path class="st12" d="M149.2,422.16c0.07,0.05,0.14,0.11,0.21,0.16c-0.09-0.03-0.18-0.07-0.28-0.1
	C149.13,422.22,149.2,422.16,149.2,422.16z"/>
<path class="st13" d="M284.58,211c-1.4-1.46-2.7-0.26-3.93,0.24c-4.24,1.73-11.04-0.08-13.12-3.63c-1.39-2.38-1.08-5-0.37-7.39
	c0.48-1.61,2.16-2.51,3.99-2.55c1.83-0.04,2.88,1.27,3.6,2.64c0.92,1.73,0.81,4.33,3.14,4.87c2.99,0.7,5.78-0.2,8.27-2.12
	c0.9-0.69,1.61-1.78,2.92-1.86c-0.39,3.24-0.75,6.49-3.46,8.83c-0.18,0.18-0.36,0.35-0.53,0.53
	C284.92,210.7,284.75,210.85,284.58,211z"/>
<path class="st13" d="M242.52,189.94c3.28-0.3,6.49-1.5,9.86-0.65c1.02,0.26,2.2,0.6,2.26,1.6c0.25,3.75,1.62,7.55-0.2,11.26
	c-0.39,0.79-0.82,1.66-1.85,1.71c-0.84,0.04-1.31-0.72-1.36-1.34c-0.44-6-4.67-5.74-8.92-5.52
	C241.75,194.63,242.03,192.28,242.52,189.94z"/>
<path class="st0" d="M330.59,241.32c-1.72,0.67-3.44,1.35-5.17,2.03c-0.13-3.57,1.68-6.74,1.94-11.03
	C329.33,235.58,329.79,238.52,330.59,241.32z"/>
<path class="st11" d="M285.08,210.55c0.18-0.18,0.36-0.35,0.53-0.53C285.44,210.2,285.26,210.38,285.08,210.55z"/>
<path class="st9" d="M167.53,718.17c-1.39,0.02-2.78,0.03-4.16,0.05c-2.32-0.95-1.96-3.01-1.72-4.77c0.68-4.96,1.75-9.81,4.39-14.2
	c2.71-4.5,7.8-7.09,12.95-6.43c0.81,0.1,1.61,0.2,1.89,1.1c0.3,0.95-0.3,1.49-1.04,1.86c-4.54,2.22-6.42,6.48-8.11,10.79
	c-1.13,2.91-2.17,5.91-2.43,9.06C169.18,716.91,168.27,717.43,167.53,718.17z"/>
<path class="st13" d="M340,169.28c-6.88-8.61-5.17-20.35,3.61-25.68c2.83-1.72,5.78-1.6,8.82-1.44c0,0.87,0.01,1.74,0.01,2.61
	c-2.08,0.4-3.85,1.2-3.73,3.71c0.11,2.24,1.73,3.18,3.68,3.59c2.63,0.55,4.19-0.59,5.05-3.53c0.64-1.08,1.14-0.66,2.08-0.15
	c2.8,1.52,2.01,4.45,2.95,6.68c-0.32,1.82-0.42,3.71-1,5.44c-1.92,5.7-6.81,8.73-13.75,8.77C345.15,168.28,342.58,170.17,340,169.28
	z"/>
<path class="st13" d="M271.67,134.38c-5.86-6.3-2.56-21.84,6.45-26.09c0.94-0.44,1.86-0.51,2.83-0.44
	c-1.03,1.82,0.09,3.02,1.23,4.21c-0.72,2-0.43,3.72,1.65,4.64c1.87,0.83,3.84,1.05,5.38-0.68c1.38-1.56,0.68-3.06-0.42-4.46
	c1.52-1.64,2.58-1.14,3.85,0.49c1.65,2.11,1.52,4.72,2.48,7.01c-0.01,8.91-6.83,15.27-16.5,15.39
	C276.29,134.42,273.98,134.4,271.67,134.38z"/>
<path class="st14" d="M352.44,144.77c0-0.87-0.01-1.74-0.01-2.61c6.5-0.88,10.69,2.65,13.79,7.65c3.67,5.92,3.26,12.1-0.36,17.86
	c-6.37,10.14-18.64,10.81-25.86,1.6c2.57,0.89,5.14-1,7.72-0.01c-0.2,1.82,0.65,2.69,2.44,2.93c7.12,0.96,11.94-1.96,14.32-8.77
	c1.74-4.98,1.3-6.81-2.01-8.37c-0.95-2.23-0.15-5.15-2.95-6.68c-0.94-0.51-1.44-0.93-2.08,0.15
	C356.79,145.93,354.83,145.06,352.44,144.77z"/>
<path class="st14" d="M271.67,134.38c2.31,0.02,4.63,0.04,6.94,0.06c0.11,1.01,0.66,1.58,1.69,1.69
	c10.35,1.19,17.72-6.01,16.57-16.33c-0.13-1.17-0.7-1.6-1.75-0.75c-0.95-2.28-0.83-4.89-2.48-7.01c-1.27-1.64-2.33-2.13-3.85-0.49
	c-2.3-1.15-4.52-1.16-6.6,0.5c-1.14-1.19-2.26-2.38-1.23-4.21c2.89-2.28,6.14-1.64,9.14-0.66c6.18,2.02,10.08,7.28,10.39,13.37
	c0.35,6.91-3.75,13.8-10.07,16.68c-4.12,1.87-8.46,2.72-12.92,1.37C275.1,137.89,272.95,136.68,271.67,134.38z"/>
<path class="st11" d="M362.47,155.07c3.31,1.55,3.75,3.39,2.01,8.37c-2.38,6.81-7.2,9.73-14.32,8.77c-1.79-0.24-2.64-1.11-2.44-2.93
	c6.94-0.04,11.83-3.07,13.75-8.77C362.05,158.78,362.15,156.89,362.47,155.07z"/>
<path class="st15" d="M352.44,144.77c2.4,0.29,4.36,1.17,5,3.78c-0.86,2.94-2.42,4.08-5.05,3.53c-1.94-0.41-3.57-1.35-3.68-3.59
	C348.59,145.97,350.36,145.17,352.44,144.77z"/>
<path class="st11" d="M295.11,119.05c1.05-0.85,1.62-0.43,1.75,0.75c1.15,10.33-6.22,17.52-16.57,16.33
	c-1.02-0.12-1.58-0.68-1.69-1.69C288.28,134.32,295.1,127.96,295.11,119.05z"/>
<path class="st15" d="M282.18,112.05c2.09-1.66,4.3-1.65,6.6-0.5c1.1,1.4,1.81,2.9,0.42,4.46c-1.54,1.74-3.51,1.51-5.38,0.68
	C281.75,115.77,281.45,114.06,282.18,112.05z"/>
</svg>
