<?xml version="1.0" encoding="utf-8"?>
<!-- Generator: Adobe Illustrator 25.2.1, SVG Export Plug-In . SVG Version: 6.00 Build 0)  -->
<svg version="1.1" id="Capa_1" xmlns="http://www.w3.org/2000/svg" xmlns:xlink="http://www.w3.org/1999/xlink" x="0px" y="0px"
	 viewBox="0 0 612 609.17" style="enable-background:new 0 0 612 609.17;" xml:space="preserve">
<style type="text/css">
	.st0{clip-path:url(#SVGID_2_);fill:#E4ECEE;}
</style>
<g>
	<defs>

			<rect id="SVGID_1_" x="15.16" y="-2.3" transform="matrix(0.9638 -0.2665 0.2665 0.9638 -71.4552 92.4821)" width="579.67" height="623.6"/>
	</defs>
	<clipPath id="SVGID_2_">
		<use xlink:href="#SVGID_1_"  style="overflow:visible;"/>
	</clipPath>
	<path class="st0" d="M113.71,516.11c-0.22-25.12,8.69-44.53,24.49-60.89c8.54-8.84,17.51-17.3,26.64-25.55
		c23.77-21.45,42.33-46.99,59.19-73.97c9.84-15.77,21.46-30.14,37.23-40.44c34.7-22.65,78.67-17,108.42,14.23
		c7.6,7.98,14.84,16.62,20.61,25.97c20.27,32.83,46.02,60.65,75.08,85.75c16.73,14.46,30.4,31.01,35.5,53.63
		c12.6,56.02-39.79,116.03-100.13,101.61c-17.3-4.14-34.32-9.71-51.14-15.56c-26.96-9.37-53.48-9.18-80.46,0.1
		c-19.72,6.79-39.57,13.89-59.94,17.98C159.18,609.02,112.3,561.24,113.71,516.11"/>
	<path class="st0" d="M289.28,151.85c-1.35,10.18-2.29,29.09-6.59,47.2c-7.73,32.51-33.48,53.44-63.95,54.63
		c-37.53,1.46-67.56-17.35-78.85-50.21c-10.71-31.18-8.39-62.6,1.23-93.47c9.81-31.48,24.48-60.52,48.78-83.6
		c29-27.54,60.73-21.72,78.38,14.52C283.97,73.16,287.71,107.98,289.28,151.85"/>
	<path class="st0" d="M319.92,141.57c1.64-30.9,4.92-61.17,15.9-89.95c3.98-10.43,9.79-20.71,16.91-29.28
		c13.96-16.77,34.68-19.04,53.2-7.44c17.69,11.08,30.14,27.12,40.61,44.68c22.6,37.94,35.65,78.34,29.23,123.19
		c-6.98,48.73-49.33,78.81-95.98,67.68c-27.78-6.63-44.84-25.51-51.47-52.49C323.81,179.58,322.61,160.39,319.92,141.57"/>
	<path class="st0" d="M600.74,310.48c-0.5,27.06-4.44,48.29-14.09,68.43c-24.32,50.77-91.98,48.57-116.62,14.99
		c-14.75-20.1-16.21-42.66-12.94-66.14c4.51-32.32,14.87-62.9,29.68-91.82c4.83-9.44,11.45-18.38,18.84-26.02
		c20.89-21.57,46.73-19.57,64.64,4.38c14.33,19.16,21.73,41.31,26.14,64.48C598.7,290.85,599.76,303.13,600.74,310.48"/>
	<path class="st0" d="M12.68,313.84c1.05-30.61,7.58-64.76,28.28-94.76c16.79-24.33,41-27.29,63.07-7.66
		c5.91,5.26,11.51,11.41,15.48,18.2c21.57,36.85,36.09,76.21,38.17,119.25c1.71,35.35-16.9,62.07-47.66,70.32
		c-33.95,9.1-65.48-4.39-82.17-35.32C16.9,363.61,12.89,341.69,12.68,313.84"/>
</g>
</svg>
