<?xml version="1.0" encoding="utf-8"?>
<!-- Generator: Adobe Illustrator 25.2.1, SVG Export Plug-In . SVG Version: 6.00 Build 0)  -->
<svg version="1.1" id="Capa_1" xmlns="http://www.w3.org/2000/svg" xmlns:xlink="http://www.w3.org/1999/xlink" x="0px" y="0px"
	 viewBox="0 0 711 614" style="enable-background:new 0 0 711 614;" xml:space="preserve">
<style type="text/css">
	.st0{fill:#151919;}
	.st1{fill:#443F3D;}
	.st2{fill:#36474F;}
	.st3{fill:#233035;}
	.st4{fill:#313031;}
	.st5{fill:#ACC64F;}
	.st6{fill:#FFFFFF;}
	.st7{fill:#151819;}
	.st8{fill:#D5923C;}
	.st9{fill:#E6A64D;}
	.st10{fill:#E7A74E;}
	.st11{fill:#B56D1D;}
	.st12{fill:#AC6721;}
	.st13{fill:#C07B2A;}
	.st14{fill:#B16C22;}
	.st15{fill:#BB7625;}
	.st16{fill:#A35E1E;}
	.st17{fill:#B57024;}
	.st18{fill:#503D29;}
	.st19{fill:#5D5856;}
	.st20{fill:#2F2419;}
	.st21{fill:#45321E;}
	.st22{fill:#F5F3F3;}
</style>
<g>
	
		<image style="overflow:visible;opacity:0.24;enable-background:new    ;" width="1754" height="1996" xlink:href="2BB64D10.png"  transform="matrix(0.2393 0 0 0.2393 299.7562 118.7156)">
	</image>
	<g>
		<g>
			<path class="st0" d="M556.7,280.3c8.2,0.4,16.4,0.1,24.7,2h0c2.4,0.3,4.7,0.5,6.9,0.8c0.4,0,0.8,0.1,1.1,0.1c0,0,0,0,0,0
				c2.5,0.3,4.9,0.6,7.2,1c2.2,0.3,4.3,0.6,6.2,0.9c0.8,0.1,1.6,0.3,2.4,0.4c-1.9-0.9-3.9-1.7-5.9-2.3c-2.9-0.9-5.9-1.7-8.9-2.4
				c-1.3-0.3-1.4-0.7-0.8-1.8c0-0.1,0.1-0.1,0.1-0.2c2.2-3.6,3.8-7.5,4.9-11.5c-0.1,0-0.1,0-0.2,0c-1.7,0.1-3.6,0.2-5.4,0.4
				c-0.9,2.2-1.4,4.5-2.6,6.5c-1,1.5-1.6,3.6-3.2,4.5c-0.7,0.5-1.7,0.6-3,0.5c-1.1-0.2-2.2-0.3-3.3-0.5c-4.8-0.6-9.6-0.9-14.4,0
				c-1.8,0.3-3.6,0.2-5.3,1.1l0,0C557.2,279.9,556.9,280.1,556.7,280.3z M557.7,271.4c1.5,0,2.9-0.3,4.2-0.7
				c-0.5,0.1-1.1,0.2-1.6,0.2C559.5,271.1,558.6,271.2,557.7,271.4z"/>
			<path class="st1" d="M588.3,533.8c1,1.7,2.2,3.4,3,5.2c4.9,11.1,0.9,19.6-10.9,22c-10.5,2.1-21.2,2-31.9,0
				c-9.1-1.8-14.6-8-19.2-15.4c-1.2-2-2.5-2.8-5-2.7c-10.1,0.4-20.1-0.8-30.1-1.1c-1.5,0-1.6,0.4-1.7,1.6
				c-0.6,9.2-5.5,14.2-14.9,15.5c-5.7,0.8-11.4,1.3-17.1,0.9c-8.6-0.6-17.1-1.6-25.6-3.1c-1-0.2-2-0.4-3.2-0.1
				c1.2,2.5,2,4.9,1.9,7.8c-0.1,6.4-8.2,12.8-14.5,12.5c-5.4-0.3-10.7-1.1-16-1.7c-3.2-0.3-6.3-1-9.5-1.2
				c-12.1-0.9-24.1-0.6-36.2-0.4c1.1,1.5,2.8,1,4.2,1.2c9.1,1.2,18.1,2.4,27.2,3.4c7,0.7,13.9,1,20.9,1.6c13.2,1.1,26.5,1.6,39.8,2
				c14.8,0.5,29.7,0.2,44.5,0.4c6.3,0.1,12.6,0.1,18.9-0.1c11.3-0.4,22.7-0.8,34-1.5c10.6-0.6,21.2-1.4,31.7-2.4
				c15.3-1.4,30.5-3.3,45.6-6.1c9.1-1.7,18.1-3.7,26.9-6.5c4.5-1.5,9-3.2,12.6-6.4c3.6-3.1,3.3-6.3-0.5-9.2c-2.7-2.1-5.8-3.5-9-4.6
				c-10.9-4.1-22.3-5.9-33.8-7.7c-7.5-1.2-14.9-2.3-22.4-3.2C594.9,533.9,591.6,533.2,588.3,533.8z"/>
			<path class="st2" d="M562.5,538.9C562.5,538.9,562.5,538.9,562.5,538.9L562.5,538.9C562.5,538.8,562.5,538.9,562.5,538.9z
				 M485.1,268.6c1.3-0.6,2.5-1.3,3.5-2.1C487.5,267.3,486.3,268,485.1,268.6z M479.2,284.3c1.4-0.2,2.7-0.4,4.1-0.6c0,0,0,0,0,0
				c0,0,0,0-0.1,0c-0.2,0-0.6-0.1-1.3-0.1c0,0-0.1,0-0.2,0c-0.1,0-0.1,0-0.2,0l0,0C480.7,283.8,480,284.1,479.2,284.3z"/>
			<path class="st2" d="M458.5,304.6c5.9-3.1,12.2-6.3,18.8-9.3c-1.8,0.7-3.5,1.5-5.3,2.2c-4.3,1.9-8.6,4-12.8,6
				C458.5,304,458.3,304.3,458.5,304.6z M483.2,291.9c0.2,0,0.5,0.1,0.9,0.2c0.4-0.2,0.7-0.4,1-0.6c0.1,0,0.2-0.1,0.2-0.1
				c0,0,0,0-0.1,0c-0.1,0-0.2,0-0.2,0C484.6,291.5,484,291.7,483.2,291.9z"/>
			<path class="st2" d="M458.5,304.6c0.1,0.2,0.3,0.3,0.6,0.5c0.6,0.3,1.2,0.6,1.8,0.9c0.3-0.2,0.5-0.3,0.8-0.5
				c5.5-3.6,11.6-7.4,17.9-10.9c0.6-0.4,1.2-0.7,1.9-1.1c0.2-0.1,0.4-0.2,0.6-0.3c-0.9,0.4-1.9,0.8-2.8,1.2c-0.6,0.3-1.3,0.6-2,0.9
				C470.8,298.3,464.4,301.5,458.5,304.6z M453.8,310.8c0.8-0.5,1.6-1.1,2.4-1.6c0,0,0,0-0.1,0C454.2,308.1,453.8,309.1,453.8,310.8
				z M419.7,195.6c2.3,12.1,5.5,24,9.6,35.6c0.6,1.7,1.3,3.3,1.9,5c1.4-1.8,1.7-4.1,2.5-6.2c2.5-6.7,6-12.8,10.9-18
				c1.4-1.5,2.4-3.2,4.2-4.3c1.2-0.8,0.6-1.6-0.3-2.2c-2.3-1.4-4.2-3.2-6-5.2c-0.4-0.5-1.1-0.9-0.8-1.6c0.3-0.7,1-0.7,1.7-0.7
				c3,0.1,6.1-0.5,9.1,0.8c0.5,0.2,1.1,0.3,1.7-0.2c-1.7-3.1-4.2-5.7-6.6-8.2c-4.6-4.9-9.3-9.6-14.2-14.2c-4.8-4.5-10-8.6-16.7-10.2
				C416.5,176,417.9,185.8,419.7,195.6z"/>
			<path class="st2" d="M615.8,397.1c0.9-0.4,1.8-0.8,2.6-1.2C617.5,396.3,616.7,396.7,615.8,397.1z M586.3,263.7
				c0.4,0,0.9-0.1,1.3-0.1c0.7-0.1,1.2-0.1,1.7-0.3c-0.4,0-0.8,0.1-1.2,0.1C587.5,263.5,586.9,263.6,586.3,263.7z M577.1,278.7
				c1.1,0.1,2.2,0.3,3.3,0.5c1.3,0.2,2.2,0,3-0.5C581.2,278.7,579.1,278.7,577.1,278.7L577.1,278.7z M554.2,280.4
				c1.4,0,2.7,0,4.1,0.1c1.4,0,2.8,0.1,4.2,0.2c6.4,0.3,12.9,0.9,19,1.5c-8.3-1.9-16.5-1.6-24.7-2c0.2-0.2,0.5-0.4,0.7-0.5
				c-0.6,0.1-1,0.2-1.5,0.2c-0.1,0-0.2,0-0.2,0c0,0-0.1,0-0.2,0C554.8,280.2,554.4,280.4,554.2,280.4
				C554.2,280.4,554.2,280.4,554.2,280.4C554.2,280.4,554.2,280.4,554.2,280.4z"/>
			<path class="st2" d="M354.7,470.7c0.8,15.1,4.3,29.6,10.9,43.4c2.7,5.5,3.4,11.9,5,17.8c0.5,1.6,1.1,3.2,1.3,4.9
				c0.3,2.3,1.8,3,3.6,3.1c1.8,0.2,3.6,0.2,5.3,0c8.1-1.1,16,0.4,23.9,1.5c7.1,1,13.9,3.5,20,7.6c2.7,1.8,6.2,1.4,9.3,2
				c8.2,1.6,16.6,2.5,25,3.4c2.5,0.3,5.2,0,7.7,0.1c1.8,0,1.9-1.3,2-2.5c0.4-4.8-0.7-9.2-3.7-13.1c-0.5-0.6-0.9-1.3-1.5-2.3
				c3.9-0.1,5.6,2.6,7.1,4.9c2,3.2,3.1,6.9,2.2,10.8c-0.3,1.3,0.1,1.8,1.5,1.4c1.5-0.5,3-0.7,4.5-1c4-0.8,4.7-2,4.5-6.5
				c-0.3-4.5-2.3-8.3-5.2-11.6c-0.4-0.4-1.3-0.8-0.7-1.5c0.5-0.6,1.2-0.2,1.8,0.1c4.1,2.4,6.4,6,7,10.6c0.1,0.7-0.3,1.6,0.7,2.4
				c0.8-4.6,0-8.8-2.5-12.5c-3.9-5.8-9.7-8.4-16.5-9.2c-9.2-1.1-18.4,0.6-27.6,0.9c-4,0.2-8.1,0-12.1-0.2c2.1-1.1,4.5-1.6,6.8-2.2
				c4.8-1.2,9.6-2,14.2-3.8c7.6-2.9,13.3-8.2,17.8-14.9c4.9-7.2,7.4-15.3,8.6-23.8c1.7-12.4-0.1-24.2-5.8-35.5
				c-8.3-16.6-21.2-26.9-39.5-30.4c-8.8-1.7-17.5-1-26.1,1.8c-0.6,0.2-1.2,0.3-2,0.5c0.5-1.9,2.1-2.5,3.2-3.2c6.8-4,14-4.9,21.8-4.1
				c7.9,0.8,15.2,3.1,22.1,6.9c7.1,3.9,13,9.1,18.2,15.3c0.7,0.8,1.5,1.7,2.5,2.8c-0.1-5.1-1.8-9.4-2.6-13.9
				c-1.4-7.3-2.9-14.6-1.9-22.2c0.6,2.2,1.2,4.5,1.9,6.7c2.6,9,5.4,18,8.7,26.8c5.8,15.7,13.2,30.5,20.8,45.4
				c5.1,9.9,10.4,19.8,16,29.4c5.6,9.7,11.1,19.4,16.3,29.3c2.6,4.9,5.7,9.5,9.4,13.7c3.3,3.8,7.9,5.8,12.9,6.4
				c4.4,0.5,8.7,1.3,13.2,1.1c1.5-0.1,2.2-0.4,2.5-2.1c1.2-5.7-0.4-10.6-3.9-15.1c-0.2-0.3-0.5-0.6-0.8-0.9c-0.1-0.1,0-0.2,0-0.4
				c0,0,0,0,0-0.1l0,0c1.9,0.5,3.5,1.6,5,3c0.3,0.3,0.5,0.5,0.8,0.8c2.8,3.2,4.3,7.9,3.5,12.1c-0.3,1.7-0.2,2.3,1.7,1.9
				c1.9-0.4,3.8-0.5,5.7-0.8c3-0.5,3.8-1.5,3.9-4.5c0.2-5.2-1.2-9.8-4.6-13.8c-0.2-0.3-0.4-0.6-0.7-1c4.8,0.3,8.2,6,8.8,14.8
				c1.5-1.2,1.9-2.7,1.7-4.2c-0.7-6.3-3.8-11.2-9.6-14c-1.5-0.8-3.1-1.3-4.7-1.8c-6.4-1.9-10.5-6.2-13.1-12.3
				c-8.6-20.4-14.8-41.6-20.1-63.1c-2.6-10.5-4.4-21.2-5.8-31.9c-0.7-5.7-0.5-11.4-1.3-17c-0.1-0.7-0.2-1.5,0.3-2.2
				c1,0.7,0.5,1.7,0.7,2.5c2.5,11.4,4.9,22.7,7.3,34.1c0.4,1.9,0.8,3.8,1.4,5.6c0.6,1.9,1.3,1.9,2.6,0.5c5.1-5.5,9.8-11.5,14.2-17.6
				c8.5-11.8,16.6-24,21.5-37.8c3-8.5,4.7-17.2,5.4-26.3c0.5-7.2-0.3-14.3-0.2-21.4c0-3.9-0.7-7.7-0.9-11.6
				c1.6,3.6,2.8,7.5,3.3,11.4c0.1,0.8,0.2,1.7,0.4,2.5c20.5,23.2,28.8,49.4,28.8,49.4c2.6-1.3,5.1-2.8,7.5-4.6
				c17.8-8.4,24.5-51.5,24.5-51.5l0,0c0.8-3.8,1.6-7.7,2.2-11.5c1.5-9.7,3.9-19.2,7-28.5c0.5-1.5,0.7-2.1-1.4-1.9
				c-5.5,0.7-9-1.9-10.8-7.5c-1.7-5.3-1.2-10.1,3.1-14.1c1.4-1.3,3-2.3,5-2c2.5,0.4,4.2-0.9,5.4-2.8c2.4-3.7,5.2-7.2,5.4-11.9
				c0-0.5,0.2-1,0.8-1.1c0.7-0.1,1,0.4,1.3,0.9c1.4,2.1,1.2,4.4,0.5,6.7c-0.9,2.9-2.3,5.4-4.3,7.7c-0.7,0.8-2,1.7-1.2,2.8
				c1,1.4,2,3.1,4.4,2.5c7.1-1.7,12.3-10,10.5-16.9c-0.8-3.1-3.5-4.5-5.9-6c-11.2-6.9-26.6-2.3-34.2,8.8c-5,7.3-7.7,15.5-10.2,23.8
				c-3.6,11.7-6.4,23.6-11.7,34.7c-1.4,2.9-3,5.6-5.2,8.1c-5.1,5.7-11.9,4.5-17.4,0.6c-8-5.7-12.7-14.1-16.8-22.9
				c-1.3-2.8-2.6-5.5-3.9-8.3c-1-2.2-1.6-2.5-3.5-0.9c-3.3,2.7-6.9,4.7-10.6,6.6c-4.7,2.4-9.5,4.2-14.8,4.9c-0.2,0-0.4-0.1-0.9-0.3
				c14.2-7.7,27.7-16,38.2-29c0,0,0,0,0,0h0c-6.1-0.6-12.5-1.2-19-1.5c-1.4-0.1-2.8-0.1-4.2-0.2c-1.4,0-2.8-0.1-4.1-0.1c0,0,0,0,0,0
				c0,0,0,0,0.1,0c0.2,0,0.6-0.2,1.3-0.3c0,0,0.1,0,0.2,0c0.1,0,0.2,0,0.2,0c0.4-0.1,0.9-0.1,1.5-0.2l0,0c1.7-0.9,3.5-0.8,5.3-1.1
				c4.8-0.8,9.7-0.6,14.4,0h0.1c1.9,0,4,0,6.2,0c1.6-1,2.2-3,3.2-4.5c1.2-1.9,1.8-4.3,2.6-6.5c-8.3,0.6-17.8,1.5-27.2,2.9
				c-1.3,0.3-2.7,0.6-4.2,0.7c-0.5,0.1-1,0.2-1.5,0.2c-1.4,0.2-2.7,0.5-4,0.7c0,0,0,0,0,0s0,0,0.1,0c0.2-0.1,0.5-0.3,1.2-0.6
				c0,0,0.1,0,0.2-0.1c0.1,0,0.2-0.1,0.2-0.1c0.6-0.2,1.4-0.5,2.4-0.9c3-1.5,5.8-2.4,8.6-3.1c7-1.8,14.2-3.2,21.4-3.9
				c0.6-0.1,1.2-0.2,1.8-0.3c0.4,0,0.8-0.1,1.2-0.1c1.4-0.5,1.7-1.5,2-4.2c1.2-11.4-1.4-22.1-5.7-32.6c-1.3-3.2-2.9-6.3-4.8-9.2
				c-0.5-0.8-0.9-1.7-1-2.6v0c0,0,0,0,0,0l0,0c-0.1-0.5-0.1-1-0.1-1.5c0-0.4,0-0.8,0-1.2c0,0,0-0.1,0-0.1c0-1.8,0.1-3.6,0-5.4l0,0
				c0,0,0,0,0,0c0,0,0,0,0,0c0,0,0,0,0,0v0c0,0,0,0,0,0v0c0,0,0,0,0,0l0,0c0,0,0,0,0,0v0v0c-0.1-4.1-0.3-8.2-0.7-12.3
				c0,0,0-0.1,0-0.2c-0.1-1.5-0.3-3-0.4-4.6c-0.5-5.2-1.2-10.3-2.1-15.4c0,0,0,0,0-0.1c-1-5.5-2.2-11-3.7-16.4c0,0,0-0.1,0-0.1
				c-1.1-3.7-2.3-7.4-3.7-11.1c-0.1-0.3-0.2-0.6-0.4-1c0,0,0,0,0,0c-0.5-1.2-1.1-2.3-1.8-3.2c-1.1-1.3-2.5-2.1-4.5-1.4
				c-3.3,1.3-6.1,3.4-8.2,6.1c-6.3,7.8-11.7,16.3-16.6,25.1c-2.7,4.8-5.2,9.7-7.5,14.6c-1.1,2.4-2.6,3-5,2.7
				c-6.5-0.8-13-0.6-19.5-0.1c-9,0.7-17.7,2.8-26.2,5.7c-2.3,0.8-4.5,1.7-6.7,2.6c-1.1,0.5-1.9,0.2-2.8-0.7
				c-5.3-5.3-10.6-10.6-16.1-15.6c-7.9-7.2-15.7-14.6-25.1-19.8c-2.2-1.2-4.6-2-7-2.5c-2-0.4-3.5,0.7-4.1,2.7
				c-1.3,4.8-1,9.7-0.6,14.6c0.4,4.6,0.8,9.3,1.6,13.9c1.3,7.9,2.9,15.8,5,23.5c2.1,8.1,4.8,16,7.7,23.9c0.9,2.4-0.3,4.6-0.6,6.8
				c-1.1,7.5-1.2,15,0,22.5c1.2,7.4,3.3,14.4,7.2,20.8c0.5,0.8,0.9,1.2,1.5,1.5c2.2-0.7,4.6-1.4,7.4-2.1c9.9-3.1,19.7-3.8,26.7-3.8
				c3.7,0,6.6,0.2,8.3,0.3c0.1,0,0.2,0,0.2,0c0,0,0.1,0,0.2,0c0.7,0,1.1,0.1,1.3,0.1c0,0,0,0,0.1,0c0,0,0,0,0,0
				c-1.4,0.2-2.7,0.4-4.1,0.6c-1.4,0.4-2.8,0.6-4.1,0.7c-12,2.2-24,5.2-33.5,7.9c0.2,0.4,0.8,0.8,1.2,1.1c3.4,3.1,7.1,5.9,11.1,8.3
				c0.1,0,0.2,0.1,0.2,0.1c1,0.6,1.7,0.3,2.6-0.3c2-1.3,4.1-2.5,6.1-3.5c0.6-0.2,1.3-0.5,1.9-0.7c6.1-2.4,10.7-3.9,14-4.9
				c1.8-0.5,3.2-0.9,4.4-1.2c0.8-0.2,1.4-0.3,1.9-0.4c0.1,0,0.2,0,0.2,0c0,0,0.1,0,0.1,0c-0.1,0-0.2,0.1-0.2,0.1
				c-0.4,0.2-0.7,0.4-1,0.6c-0.7,0.4-1.4,0.7-2,1.1c-0.2,0.1-0.4,0.2-0.6,0.3c-0.6,0.4-1.2,0.7-1.9,1.1c-6.2,3.5-12.3,7.3-17.9,10.9
				c-0.3,0.2-0.5,0.3-0.8,0.5c3.5,1.8,7.1,3.3,10.8,4.6c4.3,1.5,8.7,2.8,13.1,4.2c0.3,0.1,0.5,0.4,0.6,0.8
				c-3.6-0.5-7.2,0.1-10.8-0.6c-6.4-1.4-12.7-2.8-18.5-5.8c-0.8,0.5-1.6,1.1-2.4,1.6v0.1c-0.1,5.9-0.9,11.7-3.8,17
				c-2.7,4.9-6.9,8.2-12,10.4c-7,3.1-13.9,6.4-20.5,10.3c-6.5,3.9-12.6,8.3-18.3,13.3c-9.8,8.5-17.9,18.4-24.5,29.6
				c-4.5,7.6-8.3,15.6-11.3,23.9c-3.4,9.2-5.7,18.7-7.3,28.4C354.7,452.7,354.2,461.7,354.7,470.7z M454.1,198.6
				c-0.6,0.4-1.2,0.4-1.7,0.2c-2.9-1.3-6-0.7-9.1-0.8c-0.6,0-1.4,0-1.7,0.7c-0.3,0.8,0.4,1.1,0.8,1.6c1.8,1.9,3.8,3.8,6,5.2
				c0.9,0.6,1.5,1.5,0.3,2.2c-1.8,1.1-2.8,2.8-4.2,4.3c-4.9,5.2-8.4,11.4-10.9,18c-0.8,2.1-1,4.4-2.5,6.2c-0.6-1.6-1.3-3.3-1.9-5
				c-4.1-11.6-7.3-23.5-9.6-35.6c-1.9-9.8-3.2-19.6-3-29.7c6.7,1.6,11.8,5.7,16.7,10.2c4.9,4.5,9.6,9.3,14.2,14.2
				C450,192.9,452.5,195.4,454.1,198.6z M534.1,255.7C534.1,255.7,534.1,255.7,534.1,255.7c0,0,0-0.1,0-0.1
				c-0.3-1.9-3.8-27.2,14.2-32c0,0,4.7-2.1,14.2,0c0.2,0,0.4,0.1,0.6,0.1c0.4,0.1,0.9,0.2,1.3,0.3c0,0,14.7,18.9-0.7,30.2
				C548.4,265.6,534.1,255.7,534.1,255.7z M494.6,289.5c0.9-0.9,1.9-0.8,2.8,0.1c1,1,1.9,2,2.9,2.9c2.9,2.8,7.8,3.6,11.7,1.8
				c3.8-1.7,6.7-5.8,6.5-9.6c-0.1-2.3-0.4-4.6-3.6-5.1c-2.2-0.3-3.9-1.8-5.6-3.2c-2.8-2.3-2.4-5.1,0.8-6.7c3.7-1.9,7.9-2.1,11.8-2.7
				c1.3,0.1,2.4,0.1,3.5,0.4c3.6,0.8,4.3,2.7,2.5,6c-1,1.8-2.1,3.5-3.6,4.8c-1.5,1.4-2.2,2.6-1.9,4.9c0.7,4.7,3.5,7.6,8.2,7.8
				c4.4,0.2,10.8-2.8,11.8-8.7c0.1-0.9,0.5-1.8,1.6-1.9c0.8-0.1,1.6,0,2.2,0.7c0.8,1,0.7,2.2,0.3,3.2c-1.3,3.8-3.7,6.9-7.2,8.8
				c-5.7,3.2-11.4,3-16.8-0.7c-1.1-0.8-1.7-1-2.4,0.5c-1.3,2.8-3.9,4.2-6.6,5.4c-6.9,3-15.5,0.4-19.4-5.8
				C493.4,291.1,493.8,290.3,494.6,289.5z M488.6,266.5c-1,0.8-2.2,1.5-3.5,2.1c-0.1,0-0.1,0.1-0.2,0.1c-4.6,2.2-10,3.1-14.7,2.1
				c-15.6-1.4-17.7-16.4-16.7-22.1c1-5.6,8.2-14.5,23.7-11.5c10.7,2,14.6,12.4,16,18.5c0.3,0.2,0.4,0.5,0.2,0.8
				c0.3,1.6,0.5,2.9,0.5,3.4c0,0,0,0.1,0,0.2c0,0.1,0,0.1,0,0.1c0,0.5-0.1,0.9-0.5,1.4c-1.3,1.8-2.9,3.4-4.8,4.8
				C488.6,266.5,488.6,266.5,488.6,266.5z"/>
			<path class="st2" d="M373.5,544.2c-8.9,0.2-17.7,0.2-26.4-1.9c-5-1.3-10.2-2.3-14.5-5.6c-2.4-1.8-3.9-4-4.9-6.7
				c-0.4-1.1-0.3-2.2,0.1-3.3c0.4-1.1,0.9-2.5,2-2.4c1.2,0.1,0.5,1.6,0.6,2.5c0.1,1.9,0.6,2.2,2.3,1.2c5.6-3.2,11.7-4.8,18.1-5.5
				c3.5-0.3,7-0.8,10.5-0.5c1.2,0.1,1.8-0.6,1.3-1.9c-1.9-5-3.7-10.1-5.6-15.1c-0.6-1.5-0.6-3.1-1.4-4.6c-0.8-1.6-1.7-2.2-3.4-2
				c-5.3,0.4-10.5,1.7-15.6,2.9c-8,2-15.4,5.2-22,10.1c-8,5.9-12.4,13.8-11.7,24c0.6,9.2,5.3,16.2,12.6,21.5
				c8.2,5.9,17.4,9.1,27.4,10.2c10.9,1.3,21.8,1.6,32.7,1.3c11.4-0.3,22.7,0.6,34,2.4c4.2,0.7,8.6,1.3,12.9,0.1
				c3.6-1,6.7-4.6,6.4-8.1c-0.2-2.1-1.5-4.1-2.8-5.8c-2.7-3.5-6.3-5.7-10.4-7.2c-8.2-3.2-16.8-4.6-25.6-5.1
				C384.5,544.4,379,544.5,373.5,544.2z"/>
			<path class="st3" d="M489.2,518.4c1.6-1,3.2-2,4.7-3.1c4-2.9,8.1-5.5,11.7-8.9c0.6-0.6,1-0.9,0.3-1.7c-1.2-1.7-1.8-3.7-2.9-5.5
				c-3.6-5.8-6.7-11.9-9.7-18c-3.9-7.9-8.6-15.5-11.9-23.7c-0.5-1.3-1.6-2.3-2.5-3.4c0.4,3.2,1.2,6.4,1.6,9.6
				c0.7,6.8,0.7,13.6-0.6,20.4c-1.8,9.5-5.3,18.2-11.1,25.9c-2.3,3.1-5.3,5.6-8.3,8c-0.5,0.4-1.4,0.5-1,1.3c0.3,0.7,1.2,0.4,1.8,0.3
				c8-0.8,15.2,1.2,21.8,5.7c3.4,2.3,5.9,5.5,7.5,9.2c0.5,1,0.9,2,2.4,2c9.4,0.3,18.7,1.5,28.1,1.4c0.9,0,2.1,0.5,2.7-0.5
				c0.6-1.1-0.3-1.9-0.9-2.8c-3.4-5.7-6.6-11.6-9.6-17.5c-0.6-1.2-1.4-1.9-3-1.9c-5-0.2-9.8,0.3-14.4,2.2c-2,0.8-4.2,1.2-6.4,1.7
				C489.4,518.9,489.3,518.6,489.2,518.4z"/>
			<path class="st3" d="M554.6,486.3c1.5-4.1,2.6-7.9,3.2-11.8c1.3-8.6,0.5-17.1-2.8-25.3c-0.7-1.7-1.4-2-2.4-0.5
				c-1.6,2.3-3.8,4.1-5.8,6.2c-0.7,0.7-1.3,1.4-1,2.5c2.4,9.4,5.1,18.7,8,28C553.9,485.6,554.1,485.8,554.6,486.3z"/>
			<path class="st2" d="M681.3,270c-1.5,4.8-4,8.4-7.8,11c-1.4,1-3,1.6-4.6,2c-0.9,0.2-2.2,0.2-1.9,1.6c0.2,1.2,1,1.9,2.4,1.8
				c6.5-0.6,11-4.2,12.3-10.6C682.1,274.1,683,272.1,681.3,270z"/>
			<path class="st4" d="M366.7,535.1c-5.7,0.5-11.4,1-17.2,1.5c-0.6,0-1.1,0.2-1.3,0.9c2.5,1.1,5.2,1.1,7.8,1.4
				c3.8,0.5,7.7,1,11.7,0.4C367.9,537.8,367.3,536.4,366.7,535.1z"/>
			<path class="st5" d="M470.2,270.8c4.7,1,10.1,0.2,14.7-2.1C481.3,270.3,476.5,271.3,470.2,270.8z M491.5,253.1L491.5,253.1
				C491.5,253.1,491.5,253.1,491.5,253.1L491.5,253.1z"/>
			<path class="st5" d="M542.5,246.9c0.4,0.7,0.8,1.5,1.4,2.2c1.9,2.6,4.2,4.5,7.7,3.7c1.3-0.3,2.5-1.2,3.4-2.4
				c-0.9,1.2-2.1,2-3.4,2.4c-3.5,0.9-5.9-1.1-7.7-3.7C543.4,248.3,543,247.6,542.5,246.9c-1.8-3.5-2.4-7.2-1.7-11.3
				c0.3-1.7,0.8-3.3,1.9-4.5c-1,1.2-1.5,2.8-1.9,4.5C540.1,239.6,540.7,243.4,542.5,246.9z M544.5,229.8c0.2-0.1,0.5-0.2,0.8-0.3
				c0.1,0,0.2,0,0.3-0.1c-0.1,0-0.2,0-0.3,0.1C545,229.6,544.8,229.6,544.5,229.8z M543.9,230.1c0.2-0.1,0.4-0.3,0.7-0.4
				C544.3,229.9,544.1,230,543.9,230.1z M545.6,229.4c0.3-0.1,0.5-0.1,0.8-0.2C546.1,229.3,545.8,229.3,545.6,229.4z M556.8,245.6
				c0-0.1,0-0.2,0-0.3v0C556.9,245.4,556.9,245.5,556.8,245.6z"/>
			<path class="st0" d="M494.2,292.4c3.9,6.2,12.5,8.8,19.4,5.8c2.7-1.2,5.3-2.6,6.6-5.4c0.7-1.5,1.3-1.3,2.4-0.5
				c5.4,3.7,11.2,3.9,16.8,0.7c3.5-1.9,5.8-5,7.2-8.8c0.3-1,0.4-2.2-0.3-3.2c-0.6-0.7-1.3-0.8-2.2-0.7c-1.1,0.2-1.4,1.1-1.6,1.9
				c-1,5.9-7.4,8.9-11.8,8.7c-4.7-0.2-7.5-3.1-8.2-7.8c-0.3-2.3,0.4-3.6,1.9-4.9c1.5-1.3,2.6-3,3.6-4.8c1.8-3.3,1.1-5.1-2.5-6
				c-1.1-0.2-2.2-0.2-3.5-0.4c-3.9,0.6-8,0.8-11.8,2.7c-3.2,1.6-3.5,4.4-0.8,6.7c1.7,1.4,3.4,2.9,5.6,3.2c3.2,0.5,3.4,2.8,3.6,5.1
				c0.2,3.8-2.7,8-6.5,9.6c-3.9,1.7-8.9,1-11.7-1.8c-1-1-1.9-1.9-2.9-2.9c-0.9-0.9-1.8-1.1-2.8-0.1
				C493.8,290.3,493.4,291.1,494.2,292.4z"/>
			<path class="st0" d="M491.5,253.1L491.5,253.1C491.5,253.1,491.5,253.1,491.5,253.1C491.5,253.1,491.5,253.1,491.5,253.1
				C491.5,253.1,491.5,253.1,491.5,253.1z"/>
			<path class="st0" d="M493.2,255.7c0.1,0.3,0.1,0.6,0.2,0.8C493.6,256.1,493.5,255.9,493.2,255.7z"/>
			<path class="st0" d="M491.5,253.1L491.5,253.1C491.5,253.1,491.5,253.1,491.5,253.1C491.5,253.1,491.5,253.1,491.5,253.1
				C491.5,253.1,491.5,253.1,491.5,253.1z"/>
			<path class="st0" d="M542.6,246.9c0.4,0.7,0.8,1.5,1.4,2.2c1.9,2.6,4.2,4.5,7.7,3.7c1-0.2,1.9-0.8,2.6-1.5
				c0.1-0.1,0.1-0.1,0.2-0.2c0.1-0.1,0.2-0.3,0.4-0.4c0.1-0.1,0.1-0.1,0.2-0.2c0.1-0.1,0.1-0.2,0.2-0.2s0.1-0.2,0.2-0.3
				c0.1-0.1,0.1-0.2,0.2-0.3c0.1-0.2,0.3-0.5,0.4-0.7c0,0,0,0,0,0c0.1-0.3,0.2-0.5,0.3-0.8c0,0,0,0,0,0c0.1-0.3,0.2-0.6,0.3-0.9
				c0.1-0.5,0.2-0.9,0.3-1.4c0-0.1,0-0.2,0-0.3c0-0.1,0-0.3,0-0.5c0-0.3,0-0.5,0-0.8c0-0.4,0-0.8,0-1.2v-0.2c0-0.1,0-0.2,0-0.3
				c0-1.8-0.3-3.5-0.8-5.1c-0.2-0.6-0.4-1.2-0.7-1.7c0,0,0,0,0,0c-0.1-0.2-0.2-0.4-0.3-0.6c-0.1-0.2-0.2-0.4-0.3-0.6l0,0
				c0,0,0,0,0,0c-0.1-0.2-0.3-0.4-0.4-0.6c-0.1-0.2-0.3-0.4-0.4-0.6c-0.2-0.2-0.3-0.4-0.5-0.6c-0.2-0.2-0.3-0.4-0.5-0.6
				c-0.2-0.2-0.4-0.4-0.5-0.6c-0.1-0.1-0.2-0.2-0.3-0.3c-0.1-0.1-0.2-0.2-0.3-0.2c-0.1-0.1-0.3-0.2-0.4-0.3l0,0
				c-0.4-0.3-0.9-0.6-1.3-0.8c-1.1-0.5-2.4-0.7-3.7-0.5c-0.3,0-0.5,0.1-0.8,0.2c0,0,0,0,0,0c-0.1,0-0.2,0-0.3,0.1
				c-0.3,0.1-0.5,0.2-0.8,0.3l0,0c-0.2,0.1-0.5,0.2-0.7,0.4c-0.1,0.1-0.2,0.1-0.3,0.2c-0.2,0.1-0.4,0.3-0.6,0.5
				c-0.1,0.1-0.2,0.1-0.2,0.2c-1,1.2-1.5,2.8-1.9,4.5C540.1,239.7,540.7,243.4,542.6,246.9z M548.6,232.5c0.1,0.1,0.2,0.2,0.3,0.3
				c0,0,0.1,0.1,0.1,0.1c0,0,0.1,0.1,0.1,0.2c0,0,0.1,0.1,0.1,0.1c0,0,0,0,0,0c0,0,0.1,0.1,0.1,0.1c0.1,0.1,0.1,0.2,0.2,0.4
				c0,0.1,0,0.1,0,0.2c0,0,0,0,0,0.1c0,0,0,0.1,0,0.1c0,0.1,0,0.1,0,0.2c0,0.1,0,0.2,0,0.3c0,0.1,0,0.2,0,0.3c0,0.1,0,0.1,0,0.2
				c0,0,0,0,0,0c0,0,0,0.1,0,0.1c0,0.1,0,0.1,0,0.2c0,0.1-0.1,0.3-0.2,0.4c0,0,0,0.1-0.1,0.1c0,0,0,0.1-0.1,0.1
				c0,0.1-0.1,0.1-0.2,0.2c0,0,0,0-0.1,0.1c0,0-0.1,0.1-0.2,0.1l0,0c-0.1,0.1-0.2,0.1-0.2,0.2c0,0,0,0,0,0c-0.1,0-0.2,0.1-0.3,0.1
				c0,0,0,0,0,0c-0.1,0-0.2,0.1-0.3,0.1c-0.1,0-0.2,0.1-0.3,0.1c-0.1,0-0.2,0-0.2,0.1h0c0,0,0,0,0,0c0,0,0,0,0,0h0
				c-0.2,0-0.4,0-0.6-0.1c-0.1,0-0.2,0-0.3-0.1c0,0-0.1,0-0.1,0c0,0-0.1,0-0.2-0.1c0,0,0,0,0,0c-0.1,0-0.2-0.1-0.3-0.1
				c-0.2-0.1-0.5-0.3-0.6-0.6c0,0,0-0.1-0.1-0.1c0,0,0-0.1-0.1-0.1c0,0,0-0.1,0-0.1c0,0,0,0,0,0c0-0.1-0.1-0.1-0.1-0.2
				c0-0.1,0-0.1-0.1-0.2c0-0.1,0-0.1,0-0.2c0-0.1,0-0.2,0-0.2c0-0.1,0-0.2,0-0.3c-0.1-1.4,0.8-2.6,2.2-2.6c0.1,0,0.2,0,0.3,0
				c0,0,0.1,0,0.1,0c0.1,0,0.2,0,0.2,0c0.1,0,0.1,0,0.2,0c0,0,0.1,0,0.1,0c0,0,0,0,0,0c0,0,0.1,0,0.1,0c0.1,0,0.2,0.1,0.2,0.1l0,0
				C548.3,232.3,548.5,232.4,548.6,232.5z"/>
			<path class="st6" d="M547.3,237.1C547.2,237.1,547.2,237.1,547.3,237.1C547.2,237.1,547.2,237.1,547.3,237.1
				C547.2,237.1,547.3,237.1,547.3,237.1z"/>
			<path class="st3" d="M419.7,195.6c2.3,12.1,5.5,24,9.6,35.6c0.6,1.7,1.3,3.3,1.9,5c1.4-1.8,1.7-4.1,2.5-6.2
				c2.5-6.7,6-12.8,10.9-18c1.4-1.5,2.4-3.2,4.2-4.3c1.2-0.8,0.6-1.6-0.3-2.2c-2.3-1.4-4.2-3.2-6-5.2c-0.4-0.5-1.1-0.9-0.8-1.6
				c0.3-0.7,1-0.7,1.7-0.7c3,0.1,6.1-0.5,9.1,0.8c0.5,0.2,1.1,0.3,1.7-0.2c-1.7-3.1-4.2-5.7-6.6-8.2c-4.6-4.9-9.3-9.6-14.2-14.2
				c-4.8-4.5-10-8.6-16.7-10.2C416.5,176,417.9,185.8,419.7,195.6z"/>
			<path class="st3" d="M579.7,215.1c-1.9-1.3-3.2-3.8-4.6-5.5c-4.4-5.6-13.9-7.9-20.2-11.4c-1.7-1-3.2-2.4-5.3-2.9
				c-1.4-0.4-1.1-1.4-0.4-2.2c1.7-2,3-4.4,4.2-6.7c0.3-0.5,0.8-1.1,0.3-1.8c-0.5-0.6-1.2-0.4-1.8-0.1c-2.9,1-6,1.4-8.4,3.5
				c-0.4,0.4-1,0.6-1.7,0.4c0.7-3.5,2.3-6.7,3.8-9.8c3-6,6-12,9.4-17.8c3.3-5.7,7.7-11.9,13.6-15.4c3.2,9.5,6.7,18.7,7.8,28.6
				c1.4,12.2,3.6,23.2,3.1,35.5C579.6,211.2,579.8,213.3,579.7,215.1z"/>
			<path class="st5" d="M472.6,265c3.2,2,6.1,1.4,8.3-1.7c1.6-2.4,2-5,2-7.8c-0.1-4-1.1-7.8-3.6-11c-3-3.9-8-3.8-10.8,0.3
				C464.2,250.7,466.4,261.1,472.6,265z M472.1,247.4c0-1.5,1-2.5,2.4-2.4c1.6,0,2.6,1,2.6,2.6c-0.1,1.6-0.9,2.6-2.4,2.5
				C473.1,250.1,472.1,249.1,472.1,247.4z"/>
			<g>
				<path class="st5" d="M470.7,270.8c6.4,0.5,11.1-0.4,14.7-2.1c0.1,0,0.1-0.1,0.2-0.1c1.2-0.6,2.4-1.3,3.5-2.1c0,0,0.1,0,0.1-0.1
					c1.9-1.4,3.5-3,4.8-4.8c0.3-0.5,0.5-1,0.5-1.4c0,0,0,0,0-0.1c0,0,0-0.1,0-0.2c0-0.5-0.2-1.8-0.5-3.4c0-0.3-0.1-0.5-0.2-0.8
					c-1.4-6.1-5.3-16.5-16-18.5c-15.4-2.9-22.7,5.9-23.7,11.5C453,254.3,455.1,269.4,470.7,270.8z"/>
				<path class="st0" d="M470.6,272L470.6,272c-5.9-0.5-10.4-2.9-13.6-7c-4.5-5.9-4.7-13.3-4.1-16.5c0.6-3.5,3.1-7.1,6.6-9.5
					c3.4-2.3,9.3-4.7,18.5-3c11.4,2.2,15.5,13.1,17,19.4c0.1,0.3,0.1,0.6,0.2,0.9c0.3,1.5,0.5,2.8,0.5,3.5c0,0.1,0,0.1,0,0.2l0,0.2
					c0,0.7-0.2,1.5-0.7,2.1c-1.3,1.9-3,3.6-5.1,5.1c0,0-0.1,0-0.1,0.1c-1.1,0.8-2.4,1.5-3.6,2.2c-0.1,0-0.2,0.1-0.3,0.1
					c-3.4,1.5-7.3,2.3-11.7,2.3C473,272.1,471.8,272.1,470.6,272z M493.2,260.2l0-0.1c-0.1-0.7-0.2-1.9-0.5-3.3
					c0-0.2-0.1-0.5-0.2-0.8c-1.3-5.8-5-15.7-15.1-17.6c-8.4-1.6-13.7,0.5-16.7,2.6c-3.5,2.4-5.2,5.7-5.6,8c-0.6,3.2,0,9.7,3.7,14.6
					c2.8,3.6,6.8,5.7,11.9,6.1l0,0c5.5,0.5,10.2-0.2,14.1-2l0.1,0c0,0,0,0,0.1,0l0,0c1.2-0.6,2.3-1.2,3.3-2l0.1-0.1
					c1.8-1.3,3.3-2.8,4.5-4.5c0.2-0.3,0.3-0.5,0.3-0.7C493.2,260.2,493.2,260.2,493.2,260.2z"/>
			</g>
			<path class="st5" d="M491.5,253.1L491.5,253.1C491.5,253.1,491.5,253.1,491.5,253.1C491.5,253.1,491.5,253.1,491.5,253.1
				C491.5,253.1,491.5,253.1,491.5,253.1z"/>
			<path class="st5" d="M542.5,246.9c0.4,0.7,0.8,1.5,1.4,2.2c1.9,2.6,4.2,4.5,7.7,3.7c1-0.2,1.9-0.8,2.7-1.6
				c0.1-0.1,0.1-0.1,0.2-0.2c0.1-0.1,0.2-0.3,0.4-0.4c0.1-0.1,0.1-0.1,0.2-0.2c0.1-0.1,0.1-0.2,0.2-0.2s0.1-0.2,0.2-0.3
				c0.1-0.1,0.1-0.2,0.2-0.3c0.1-0.2,0.3-0.5,0.4-0.7c0,0,0,0,0,0c0.1-0.3,0.2-0.5,0.3-0.8c0,0,0,0,0,0c0.1-0.3,0.2-0.6,0.3-0.9
				c0.1-0.5,0.2-0.9,0.3-1.4c0-0.1,0-0.2,0-0.3v0c0-0.1,0-0.3,0-0.5c0-0.3,0-0.5,0-0.8c0-0.4,0-0.8,0-1.2v-0.2c0-0.1,0-0.2,0-0.3
				c0-1.8-0.3-3.5-0.8-5.1c-0.2-0.6-0.4-1.2-0.7-1.7c0,0,0,0,0,0c-0.1-0.2-0.2-0.4-0.3-0.6c-0.1-0.2-0.2-0.4-0.3-0.6l0,0
				c0,0,0,0,0,0c-0.1-0.2-0.3-0.4-0.4-0.6c-0.1-0.2-0.3-0.4-0.4-0.6c-0.2-0.2-0.3-0.4-0.5-0.6c-0.2-0.2-0.3-0.4-0.5-0.6
				c-0.2-0.2-0.4-0.4-0.5-0.6c-0.1-0.1-0.2-0.2-0.3-0.3c-0.1-0.1-0.2-0.2-0.3-0.2c-0.1-0.1-0.3-0.2-0.4-0.3l0,0
				c-0.4-0.3-0.9-0.6-1.3-0.8c-1.1-0.5-2.4-0.7-3.7-0.5c-0.3,0-0.5,0.1-0.8,0.2c0,0,0,0,0,0c-0.1,0-0.2,0-0.3,0.1
				c-0.3,0.1-0.5,0.2-0.8,0.3l0,0c-0.2,0.1-0.5,0.2-0.7,0.4c-0.1,0.1-0.2,0.1-0.3,0.2c-0.2,0.1-0.4,0.3-0.6,0.5
				c-0.1,0.1-0.2,0.1-0.2,0.2c-1,1.2-1.5,2.8-1.9,4.5C540.1,239.6,540.7,243.4,542.5,246.9z M548.6,232.5c0.1,0.1,0.2,0.2,0.3,0.3
				c0,0,0.1,0.1,0.1,0.1c0,0,0.1,0.1,0.1,0.2c0,0,0.1,0.1,0.1,0.1c0,0,0,0,0,0c0,0,0.1,0.1,0.1,0.1c0.1,0.1,0.1,0.2,0.2,0.4
				c0,0.1,0,0.1,0,0.2c0,0,0,0,0,0.1c0,0,0,0.1,0,0.1c0,0.1,0,0.1,0,0.2c0,0.1,0,0.2,0,0.3c0,0.1,0,0.2,0,0.3c0,0.1,0,0.1,0,0.2
				c0,0,0,0,0,0c0,0,0,0.1,0,0.1c0,0.1,0,0.1,0,0.2c0,0.1-0.1,0.3-0.2,0.4c0,0,0,0.1-0.1,0.1c0,0,0,0.1-0.1,0.1
				c0,0.1-0.1,0.1-0.2,0.2c0,0,0,0-0.1,0.1c0,0-0.1,0.1-0.2,0.1l0,0c-0.1,0.1-0.2,0.1-0.2,0.2c0,0,0,0,0,0c-0.1,0-0.2,0.1-0.3,0.1
				c0,0,0,0,0,0c-0.1,0-0.2,0.1-0.3,0.1c-0.1,0-0.2,0.1-0.3,0.1c-0.1,0-0.2,0-0.2,0.1h0c0,0,0,0-0.1,0h0c-0.2,0-0.4,0-0.6-0.1
				c-0.1,0-0.2,0-0.3-0.1c0,0-0.1,0-0.1,0c0,0-0.1,0-0.2-0.1c0,0,0,0,0,0c-0.1,0-0.2-0.1-0.3-0.1c-0.2-0.1-0.5-0.3-0.6-0.6
				c0,0,0-0.1-0.1-0.1c0,0,0-0.1-0.1-0.1c0,0,0-0.1,0-0.1c0,0,0,0,0,0c0-0.1-0.1-0.1-0.1-0.2c0-0.1,0-0.1-0.1-0.2c0-0.1,0-0.1,0-0.2
				c0-0.1,0-0.2,0-0.2c0-0.1,0-0.2,0-0.3c-0.1-1.4,0.8-2.6,2.2-2.6c0.1,0,0.2,0,0.3,0c0,0,0.1,0,0.1,0c0.1,0,0.2,0,0.2,0
				c0.1,0,0.1,0,0.2,0c0,0,0.1,0,0.1,0c0,0,0,0,0,0c0,0,0.1,0,0.1,0c0.1,0,0.2,0.1,0.2,0.1l0,0C548.3,232.3,548.5,232.4,548.6,232.5
				z"/>
			<g>
				<path class="st5" d="M534.1,255.6C534.1,255.6,534.1,255.6,534.1,255.6c0,0.1,0,0.1,0,0.1s14.3,10,29.6-1.4s0.7-30.2,0.7-30.2
					c-0.5-0.1-0.9-0.2-1.3-0.3c-0.2,0-0.4-0.1-0.6-0.1c-9.4-2.1-14.2,0-14.2,0C530.3,228.3,533.8,253.7,534.1,255.6z"/>
				<path class="st0" d="M533.5,256.6l-0.5-0.4v-0.5v0c-0.2-1.5-4-28.2,15-33.3c0.8-0.3,5.7-2.1,14.8,0l0.1,0c0.2,0,0.3,0.1,0.5,0.1
					c0.4,0.1,0.9,0.2,1.3,0.3l0.4,0.1l0.2,0.3c0.3,0.4,7.8,10.1,6.4,20.2c-0.6,4.7-3.1,8.6-7.3,11.8c-5.8,4.3-11.4,5.6-16.3,5.6
					C539.7,260.9,533.5,256.7,533.5,256.6z M562.8,224.9c-0.2,0-0.3-0.1-0.5-0.1l-0.1,0c-8.8-2-13.4-0.1-13.4-0.1l-0.2,0.1
					c-16.2,4.3-13.9,26.8-13.4,30.3c2.4,1.5,14.6,8.1,27.8-1.6c3.7-2.7,5.8-6.1,6.4-10.2c1.1-8.1-4.5-16.4-5.7-18.1
					C563.4,225,563.2,224.9,562.8,224.9z"/>
			</g>
			<path class="st5" d="M542.5,246.9L542.5,246.9l12.1-12.6c0,0,0,0,0,0c-0.1-0.2-0.3-0.4-0.4-0.6c-0.1-0.2-0.3-0.4-0.4-0.6
				c-0.2-0.2-0.3-0.4-0.5-0.6c-0.2-0.2-0.3-0.4-0.5-0.6c-0.2-0.2-0.4-0.4-0.5-0.6c-0.1-0.1-0.2-0.2-0.3-0.3
				c-0.1-0.1-0.2-0.2-0.3-0.2c-0.1-0.1-0.3-0.2-0.4-0.3l0,0c-0.4-0.3-0.9-0.6-1.3-0.8c-1.1-0.5-2.4-0.7-3.7-0.5
				c-0.3,0-0.5,0.1-0.8,0.2c0,0,0,0,0,0c-0.1,0-0.2,0-0.3,0.1c-0.3,0.1-0.5,0.2-0.8,0.3l0,0c-0.2,0.1-0.5,0.2-0.7,0.4
				c-0.1,0.1-0.2,0.1-0.3,0.2c-0.2,0.1-0.4,0.3-0.6,0.5c-0.1,0.1-0.2,0.1-0.2,0.2c-1,1.2-1.5,2.8-1.9,4.5
				C540.1,239.6,540.7,243.4,542.5,246.9z M547.2,237.1c-0.2,0-0.4,0-0.6-0.1c-0.1,0-0.2,0-0.3-0.1c0,0-0.1,0-0.1,0
				c0,0-0.1,0-0.2-0.1c0,0,0,0,0,0c-0.1,0-0.2-0.1-0.3-0.1c-0.2-0.1-0.5-0.3-0.6-0.6c0,0,0-0.1-0.1-0.1c0,0,0-0.1-0.1-0.1
				c0,0,0-0.1,0-0.1c0,0,0,0,0,0c0-0.1-0.1-0.1-0.1-0.2c0-0.1,0-0.1-0.1-0.2c0-0.1,0-0.1,0-0.2c0-0.1,0-0.2,0-0.2c0-0.1,0-0.2,0-0.3
				c-0.1-1.4,0.8-2.6,2.2-2.6c0.1,0,0.2,0,0.3,0c0,0,0.1,0,0.1,0c0.1,0,0.2,0,0.2,0c0.1,0,0.1,0,0.2,0c0,0,0.1,0,0.1,0c0,0,0,0,0,0
				c0,0,0.1,0,0.1,0c0.1,0,0.2,0.1,0.2,0.1l0,0c0.2,0.1,0.3,0.2,0.4,0.3c0.1,0.1,0.2,0.2,0.3,0.3c0,0,0.1,0.1,0.1,0.1
				c0,0,0.1,0.1,0.1,0.2c0,0,0.1,0.1,0.1,0.1c0,0,0,0,0,0c0,0,0.1,0.1,0.1,0.1c0.1,0.1,0.1,0.2,0.2,0.4c0,0.1,0,0.1,0,0.2
				c0,0,0,0,0,0.1c0,0,0,0.1,0,0.1c0,0.1,0,0.1,0,0.2c0,0.1,0,0.2,0,0.3c0,0.1,0,0.2,0,0.3c0,0.1,0,0.1,0,0.2c0,0,0,0,0,0
				c0,0,0,0.1,0,0.1c0,0.1,0,0.1,0,0.2c0,0.1-0.1,0.3-0.2,0.4c0,0,0,0.1-0.1,0.1c0,0,0,0.1-0.1,0.1c0,0.1-0.1,0.1-0.2,0.2
				c0,0,0,0-0.1,0.1c0,0-0.1,0.1-0.2,0.1l0,0c-0.1,0.1-0.2,0.1-0.2,0.2c0,0,0,0,0,0c-0.1,0-0.2,0.1-0.3,0.1c0,0,0,0,0,0
				c-0.1,0-0.2,0.1-0.3,0.1c-0.1,0-0.2,0.1-0.3,0.1c-0.1,0-0.2,0-0.2,0.1h0C547.3,237.1,547.2,237.1,547.2,237.1L547.2,237.1
				L547.2,237.1z"/>
			<path class="st7" d="M472.6,265c3.2,2,6.1,1.4,8.3-1.7c1.6-2.4,2-5,2-7.8c-0.1-4-1.1-7.8-3.6-11c-3-3.9-8-3.8-10.8,0.3
				C464.2,250.7,466.4,261.1,472.6,265z M472.1,247.4c0-1.5,1-2.5,2.4-2.4c1.6,0,2.6,1,2.6,2.6c-0.1,1.6-0.9,2.6-2.4,2.5
				C473.1,250.1,472.1,249.1,472.1,247.4z"/>
			<path class="st6" d="M472.1,247.4c0,1.7,1,2.7,2.6,2.7c1.5,0,2.3-0.9,2.4-2.5c0-1.6-1.1-2.6-2.6-2.6
				C473.2,245,472.1,245.9,472.1,247.4z"/>
			<path class="st7" d="M542.5,246.9c0.4,0.7,0.8,1.5,1.4,2.2c1.9,2.6,4.2,4.5,7.7,3.7c1-0.2,1.9-0.8,2.7-1.6
				c0.1-0.1,0.1-0.1,0.2-0.2c0.1-0.1,0.2-0.3,0.4-0.4c0.1-0.1,0.1-0.1,0.2-0.2c0.1-0.1,0.1-0.2,0.2-0.2s0.1-0.2,0.2-0.3
				c0.1-0.1,0.1-0.2,0.2-0.3c0.1-0.2,0.3-0.5,0.4-0.7c0,0,0,0,0,0c0.1-0.3,0.2-0.5,0.3-0.8c0,0,0,0,0,0c0.1-0.3,0.2-0.6,0.3-0.9
				c0.1-0.5,0.2-0.9,0.3-1.4c0-0.1,0-0.2,0-0.3v0c0-0.1,0-0.3,0-0.5c0-0.3,0-0.5,0-0.8c0-0.4,0-0.8,0-1.2c0-0.1,0-0.1,0-0.2v-0.1
				c0-0.1,0-0.2,0-0.3c0-1.8-0.3-3.5-0.8-5.1c-0.2-0.6-0.4-1.2-0.7-1.7c0,0,0,0,0,0c-0.1-0.2-0.2-0.4-0.3-0.6
				c-0.1-0.2-0.2-0.4-0.3-0.6c0,0,0,0,0,0c-0.1-0.2-0.3-0.4-0.4-0.6c-0.1-0.2-0.3-0.4-0.4-0.6c-0.2-0.2-0.3-0.4-0.5-0.6
				c-0.2-0.2-0.3-0.4-0.5-0.5c-0.2-0.2-0.4-0.4-0.5-0.6c-0.1-0.1-0.2-0.2-0.3-0.3c-0.1-0.1-0.2-0.2-0.3-0.2
				c-0.1-0.1-0.3-0.2-0.4-0.3l0,0c-0.4-0.3-0.9-0.6-1.3-0.8c-1.1-0.5-2.4-0.7-3.7-0.5c-0.3,0-0.5,0.1-0.8,0.2c0,0,0,0,0,0
				c-0.1,0-0.2,0-0.3,0.1c-0.3,0.1-0.5,0.2-0.8,0.3l0,0c-0.2,0.1-0.5,0.2-0.7,0.4c-0.1,0.1-0.2,0.1-0.3,0.2
				c-0.2,0.1-0.4,0.3-0.6,0.5c-0.1,0.1-0.2,0.1-0.2,0.2c-1,1.2-1.5,2.8-1.9,4.5C540.1,239.6,540.7,243.4,542.5,246.9z M549.6,234.7
				c-0.1,1.4-0.9,2.4-2.3,2.5h0c0,0,0,0-0.1,0h0c-0.1,0-0.1,0-0.2,0c-1.7,0-2.5-1.1-2.5-2.6c0-1.5,1-2.5,2.6-2.7
				c0.4,0.1,0.8,0.2,1.2,0.4l0,0c0.2,0.1,0.3,0.2,0.4,0.3C549.3,233,549.7,233.6,549.6,234.7z"/>
			<path class="st6" d="M544.5,234.6c0,0.1,0,0.2,0,0.3c0,0.1,0,0.2,0,0.2c0,0.1,0,0.1,0,0.2c0,0.1,0,0.1,0.1,0.2
				c0,0.1,0.1,0.1,0.1,0.2c0,0,0,0,0,0c0,0,0,0.1,0,0.1c0,0,0,0.1,0.1,0.1c0,0,0,0.1,0.1,0.1c0.2,0.2,0.4,0.4,0.6,0.6
				c0.1,0,0.2,0.1,0.3,0.1c0,0,0,0,0,0c0,0,0.1,0,0.2,0.1c0,0,0.1,0,0.1,0c0.1,0,0.2,0.1,0.3,0.1c0.2,0,0.4,0.1,0.6,0.1h0
				c0,0,0,0,0.1,0h0c0.1,0,0.2,0,0.2-0.1c0.1,0,0.2-0.1,0.3-0.1c0.1,0,0.2-0.1,0.3-0.1c0,0,0,0,0,0c0.1,0,0.2-0.1,0.3-0.1
				c0,0,0,0,0,0c0.1,0,0.2-0.1,0.2-0.2c0,0,0,0,0,0c0.1,0,0.1-0.1,0.2-0.1c0,0,0,0,0.1-0.1c0.1-0.1,0.1-0.1,0.2-0.2
				c0,0,0.1-0.1,0.1-0.1c0,0,0-0.1,0.1-0.1c0.1-0.1,0.1-0.3,0.2-0.4c0-0.1,0-0.1,0-0.2c0,0,0-0.1,0-0.1c0,0,0,0,0,0
				c0-0.1,0-0.1,0-0.2c0-0.1,0-0.2,0-0.3s0-0.2,0-0.3c0-0.1,0-0.1,0-0.2c0,0,0-0.1,0-0.1c0,0,0,0,0-0.1c0-0.1,0-0.1,0-0.2
				c0-0.1-0.1-0.3-0.2-0.4c0,0,0-0.1-0.1-0.1v0c0,0,0-0.1-0.1-0.1c0-0.1-0.1-0.1-0.1-0.2c0,0-0.1-0.1-0.1-0.1
				c-0.1-0.1-0.2-0.2-0.3-0.3c-0.1-0.1-0.3-0.2-0.4-0.3l0,0c-0.1,0-0.2-0.1-0.2-0.1c0,0-0.1,0-0.1,0c0,0,0,0,0,0c0,0-0.1,0-0.1,0
				c-0.1,0-0.1,0-0.2,0s-0.1,0-0.2,0c0,0-0.1,0-0.1,0c-0.1,0-0.2,0-0.3,0C545.3,232,544.5,233.2,544.5,234.6z"/>
			<path class="st0" d="M479.2,284.3c1.4-0.2,2.7-0.4,4.1-0.6c0,0,0,0,0,0c0,0,0,0-0.1,0c-0.2,0-0.6-0.1-1.3-0.1c0,0-0.1,0-0.2,0
				c-0.1,0-0.1,0-0.2,0l0,0C480.7,283.8,480,284.1,479.2,284.3z"/>
			<path class="st0" d="M479.2,284.3c1.4-0.2,2.7-0.4,4.1-0.6c0,0,0,0,0,0c0,0,0,0-0.1,0c-0.2,0-0.6-0.1-1.3-0.1c0,0-0.1,0-0.2,0
				c-0.1,0-0.2,0-0.2,0C480.7,283.8,480,284.1,479.2,284.3z"/>
			<path class="st0" d="M475.1,285c1.4-0.2,2.8-0.3,4.1-0.7C477.9,284.5,476.5,284.7,475.1,285z M304.2,552.5
				c1.9,2.5,3.5,5.2,5.8,7.4c0.7,0.7,1.5,1.3,2.3,1.7c9.6,4.5,19.2,9.1,30,10.5c5,0.6,10.1,1.2,15.1,1.3c12.1-0.2,24.1-0.5,36.2,0.4
				c3.2,0.2,6.4,0.9,9.5,1.2c5.3,0.6,10.6,1.4,16,1.7c6.3,0.3,14.4-6,14.5-12.5c0-2.9-0.8-5.3-1.9-7.8c1.2-0.3,2.2-0.1,3.2,0.1
				c8.5,1.5,17,2.5,25.6,3.1c5.7,0.4,11.4-0.1,17.1-0.9c9.4-1.3,14.3-6.4,14.9-15.5c0.1-1.1,0.2-1.6,1.7-1.6
				c10,0.3,20.1,1.5,30.1,1.1c2.4-0.1,3.7,0.7,5,2.7c4.5,7.4,10.1,13.6,19.2,15.4c10.6,2,21.3,2.2,31.9,0
				c11.8-2.4,15.8-10.9,10.9-22c-0.8-1.8-2-3.5-3-5.2c-4-3.7-8.6-6-13.8-7.5c-4-1.2-6.7-4.1-8.4-7.9c-3.5-7.4-6.2-15.2-8.9-23
				c-0.6-1.7,0.3-3,0.9-4.3c3.6-8.1,5.3-16.5,5.1-25.4c-0.2-7.3-1.7-14.2-5.1-20.7c-1-2-1-3.2,0.5-5c6.4-7.6,11.9-15.8,17-24.4
				c1.5-2.5,3.4-3.7,5.9-4.5c5.5-1.7,11.3-2.7,16.9-3.9c10.1-2.2,20-4.6,28.7-10.7c9-6.3,15.1-14.8,19.3-24.7
				c4.6-10.8,6.8-22.2,9.1-33.5c2.6-12.7,5-25.5,8.7-37.9c0.3-0.9,0.7-1.8,0.9-2.7c1-3.8,3-5.9,7.3-6.5c12.6-2.1,17-13.2,14.3-24
				c-2.6-10.3-11.5-17.9-22-19c-14.8-1.6-25.3,5-32.7,17.3c-5.2,8.7-7.9,18.5-10.8,28.1c-2.5,8.3-4.9,16.7-8.2,24.7
				c-1.5,3.7-3.2,7.2-6.1,10.1c-2.3,2.3-3.7,2.5-6.7,1.3c-3.6-1.5-6.5-3.9-8.9-6.9c-6.5-7.9-10.5-17.3-14.8-26.5
				c-0.4-0.8-0.2-1.3,0.5-1.9c3.2-2.8,6.1-5.8,8.7-9.2c0,0,0,0,0,0c0.3-0.4,0.6-0.9,1-1.3c0.1-0.1,0.1-0.2,0.2-0.3
				c0.3-0.3,0.6-0.5,0.9-0.5l0,0c0.2-0.1,0.5-0.1,0.7-0.1c-2.2-0.3-4.5-0.5-6.9-0.8c0,0,0,0,0,0c-10.5,13-24,21.2-38.2,29
				c0.5,0.2,0.7,0.3,0.9,0.3c5.2-0.7,10.1-2.5,14.8-4.9c3.7-1.9,7.4-3.9,10.6-6.6c1.9-1.5,2.4-1.3,3.5,0.9c1.2,2.8,2.6,5.5,3.9,8.3
				c4.1,8.7,8.7,17.1,16.8,22.9c5.5,3.9,12.3,5.1,17.4-0.6c2.2-2.4,3.8-5.2,5.2-8.1c5.3-11.1,8.1-23,11.7-34.7
				c2.5-8.3,5.2-16.5,10.2-23.8c7.6-11.1,23-15.7,34.2-8.8c2.4,1.5,5.1,2.9,5.9,6c1.8,6.9-3.5,15.2-10.5,16.9
				c-2.4,0.6-3.4-1.1-4.4-2.5c-0.8-1.1,0.6-2,1.2-2.8c2-2.3,3.4-4.9,4.3-7.7c0.7-2.3,0.9-4.6-0.5-6.7c-0.3-0.5-0.7-1-1.3-0.9
				c-0.5,0.1-0.8,0.6-0.8,1.1c-0.3,4.7-3.1,8.2-5.4,11.9c-1.2,1.9-2.9,3.2-5.4,2.8c-2-0.3-3.6,0.6-5,2c-4.3,4-4.8,8.9-3.1,14.1
				c1.8,5.5,5.3,8.1,10.8,7.5c2.1-0.3,1.9,0.4,1.4,1.9c-3.1,9.3-5.5,18.8-7,28.5c-0.6,3.9-1.4,7.7-2.2,11.5l0,0
				c0,0-6.7,43.1-24.5,51.5c-2.3,1.8-4.9,3.4-7.5,4.6c-0.9,0.4-1.7,0.8-2.6,1.2c-0.1,0-0.1,0-0.2,0.1c-17.8,7.6-31.2,6.2-31.2,6.2
				c10.5-17.8,5.5-55,5.2-56.8c0,0,0,0,0,0c0,0,0,0,0,0c-0.2-0.8-0.3-1.6-0.4-2.5c-0.5-3.9-1.7-7.7-3.3-11.4
				c0.2,3.9,0.9,7.8,0.9,11.6c0,7.1,0.8,14.2,0.2,21.4c-0.7,9.1-2.3,17.8-5.4,26.3c-4.9,13.9-13,26-21.5,37.8
				c-4.4,6.1-9.1,12.1-14.2,17.6c-1.3,1.4-2,1.4-2.6-0.5c-0.6-1.8-1-3.7-1.4-5.6c-2.5-11.4-4.9-22.7-7.3-34.1
				c-0.2-0.8,0.4-1.9-0.7-2.5c-0.5,0.8-0.4,1.5-0.3,2.2c0.8,5.6,0.6,11.3,1.3,17c1.4,10.7,3.2,21.4,5.8,31.9
				c5.3,21.5,11.5,42.7,20.1,63.1c2.5,6,6.7,10.4,13.1,12.3c1.6,0.5,3.2,1,4.7,1.8c5.8,2.9,8.9,7.7,9.6,14c0.2,1.5-0.3,3-1.7,4.2
				c-0.7-8.8-4.1-14.4-8.8-14.8c0.3,0.4,0.5,0.8,0.7,1c3.4,4,4.8,8.7,4.6,13.8c-0.1,3-1,4-3.9,4.5c-1.9,0.3-3.8,0.4-5.7,0.8
				c-1.9,0.4-2-0.2-1.7-1.9c0.9-4.3-0.6-8.9-3.5-12.1c-0.2-0.3-0.5-0.5-0.8-0.8c-1.4-1.4-3.1-2.5-5-3l0,0c0,0,0,0,0,0.1
				c0,0.1-0.1,0.3,0,0.4c0.2,0.3,0.5,0.6,0.8,0.9c3.6,4.4,5.1,9.3,3.9,15.1c-0.3,1.7-1,2-2.5,2.1c-4.5,0.2-8.8-0.6-13.2-1.1
				c-5-0.6-9.5-2.6-12.9-6.4c-3.7-4.2-6.8-8.8-9.4-13.7c-5.2-9.9-10.7-19.6-16.3-29.3c-5.6-9.6-10.9-19.5-16-29.4
				c-7.6-14.8-15-29.7-20.8-45.4c-3.3-8.8-6.1-17.8-8.7-26.8c-0.6-2.2-1.2-4.5-1.9-6.7c-1,7.6,0.6,14.9,1.9,22.2
				c0.8,4.5,2.5,8.8,2.6,13.9c-1-1.2-1.8-2-2.5-2.8c-5.1-6.2-11.1-11.4-18.2-15.3c-6.9-3.8-14.2-6.2-22.1-6.9
				c-7.8-0.7-15.1,0.2-21.8,4.1c-1.2,0.7-2.7,1.3-3.2,3.2c0.9-0.2,1.5-0.4,2-0.5c8.5-2.8,17.3-3.5,26.1-1.8
				c18.2,3.5,31.2,13.8,39.5,30.4c5.6,11.3,7.5,23.1,5.8,35.5c-1.2,8.5-3.7,16.6-8.6,23.8c-4.5,6.7-10.2,12-17.8,14.9
				c-4.6,1.8-9.4,2.6-14.2,3.8c-2.3,0.6-4.6,1-6.8,2.2c4.1,0.2,8.1,0.3,12.1,0.2c9.2-0.3,18.3-2,27.6-0.9c6.8,0.8,12.6,3.4,16.5,9.2
				c2.5,3.7,3.3,7.8,2.5,12.5c-1-0.8-0.6-1.7-0.7-2.4c-0.6-4.7-2.9-8.2-7-10.6c-0.6-0.3-1.3-0.7-1.8-0.1c-0.6,0.7,0.3,1.1,0.7,1.5
				c2.9,3.4,4.9,7.1,5.2,11.6c0.3,4.5-0.4,5.7-4.5,6.5c-1.5,0.3-3,0.6-4.5,1c-1.4,0.4-1.9,0-1.5-1.4c0.9-3.9-0.1-7.6-2.2-10.8
				c-1.5-2.3-3.2-5-7.1-4.9c0.6,1,1,1.7,1.5,2.3c3,3.9,4.1,8.3,3.7,13.1c-0.1,1.1-0.2,2.5-2,2.5c-2.6-0.1-5.2,0.2-7.7-0.1
				c-8.4-0.9-16.7-1.8-25-3.4c-3.1-0.6-6.6-0.2-9.3-2c-6.1-4.2-13-6.6-20-7.6c-7.9-1.1-15.8-2.6-23.9-1.5c-1.8,0.2-3.6,0.2-5.3,0
				c-1.9-0.2-3.4-0.8-3.6-3.1c-0.2-1.7-0.8-3.3-1.3-4.9c-1.7-5.9-2.4-12.3-5-17.8c-6.6-13.8-10-28.2-10.9-43.4
				c-0.5-9,0.1-18,1.5-26.9c1.6-9.7,3.9-19.2,7.3-28.4c3-8.3,6.8-16.3,11.3-23.9c6.6-11.1,14.7-21.1,24.5-29.6
				c5.7-5,11.8-9.4,18.3-13.3c6.5-4,13.4-7.2,20.5-10.3c5-2.2,9.3-5.5,12-10.4c2.9-5.3,3.7-11.1,3.8-17v-0.1c0-1.7,0.4-2.6,2.3-1.6
				c0,0,0,0,0.1,0c5.8,3,12.1,4.4,18.5,5.8c3.6,0.8,7.2,0.1,10.8,0.6c-0.2-0.4-0.4-0.7-0.6-0.8c-4.4-1.4-8.8-2.7-13.1-4.2
				c-3.7-1.3-7.3-2.8-10.8-4.6c-0.6-0.3-1.2-0.6-1.8-0.9c-0.3-0.2-0.5-0.3-0.6-0.5c-0.2-0.3-0.1-0.6,0.6-1c4.3-2,8.5-4.1,12.8-6
				c1.8-0.8,3.5-1.5,5.3-2.2c0.6-0.3,1.3-0.6,2-0.9c0.9-0.4,1.9-0.8,2.8-1.2c0.7-0.4,1.4-0.8,2-1.1c-0.4-0.1-0.7-0.2-0.9-0.2
				c-1.1,0.3-2.6,0.6-4.4,1.2c-3,1.2-6.7,2.9-11.4,5.2c-0.6,0.3-1.2,0.6-1.8,0.9c-2.6,1.3-5.5,2.8-8.7,4.4c-0.6,0.3-1.2,0.6-1.9,1
				c-1.1,0.7-2.1,1.4-3.1,2.1c-0.9,0.6-1.7,1.2-2.5,1.8c-0.2,0.2-0.5,0.3-0.7,0.5c-1.7,1.3-3.2,2.5-4.5,3.6c-0.5,0.5-1,0.9-1.5,1.4
				c2-1.3,4-2.6,6.2-3.8c-0.1,1.5-0.3,2.9-0.5,4.3c-0.5,3.6-1.3,7.1-2.9,10.3c-2.4,4.9-6.5,7.6-11.3,9.7
				c-12.5,5.4-24.3,11.9-34.8,20.6c-16.3,13.5-28.4,30.2-36.9,49.5c-6.9,15.6-11.1,32-12.4,49.1c-0.9,12.4-0.2,24.6,2.2,36.8
				c0.4,2.2-0.1,2.7-2.3,3c-11.2,1.5-22.1,4.1-32.2,9.6c-8.6,4.7-15.6,11-18.5,20.7C296.2,534.2,297.8,543.8,304.2,552.5z
				 M668.8,283c1.6-0.4,3.2-1,4.6-2c3.8-2.6,6.3-6.3,7.8-11c1.7,2.1,0.8,4.1,0.4,5.9c-1.4,6.4-5.9,10-12.3,10.6
				c-1.4,0.1-2.2-0.6-2.4-1.8C666.7,283.2,667.9,283.2,668.8,283z M554.6,486.3c-0.4-0.5-0.6-0.7-0.7-0.9c-2.9-9.3-5.6-18.6-8-28
				c-0.3-1.1,0.3-1.8,1-2.5c1.9-2,4.1-3.8,5.8-6.2c1-1.5,1.7-1.2,2.4,0.5c3.3,8.2,4,16.6,2.8,25.3
				C557.2,478.4,556.1,482.2,554.6,486.3z M483.1,525.3c-6.6-4.5-13.8-6.5-21.8-5.7c-0.6,0.1-1.5,0.3-1.8-0.3c-0.4-0.8,0.6-1,1-1.3
				c3-2.5,6-4.9,8.3-8c5.8-7.7,9.3-16.4,11.1-25.9c1.3-6.8,1.3-13.5,0.6-20.4c-0.4-3.2-1.2-6.3-1.6-9.6c1,1.1,2,2.1,2.5,3.4
				c3.4,8.2,8,15.8,11.9,23.7c3,6.1,6.1,12.2,9.7,18c1.1,1.8,1.7,3.8,2.9,5.5c0.6,0.8,0.3,1.1-0.3,1.7c-3.6,3.4-7.7,6-11.7,8.9
				c-1.5,1.1-3.1,2.1-4.7,3.1l0.3,0.7c2.1-0.5,4.4-0.9,6.4-1.7c4.7-1.9,9.5-2.4,14.4-2.2c1.6,0.1,2.3,0.7,3,2c3,6,6.2,11.8,9.6,17.5
				c0.5,0.9,1.5,1.8,0.9,2.8c-0.6,1-1.8,0.5-2.7,0.5c-9.4,0.1-18.7-1.1-28.1-1.4c-1.5,0-1.9-1-2.4-2
				C489,530.8,486.5,527.6,483.1,525.3z M367.8,539.3c-4,0.6-7.9,0-11.7-0.4c-2.6-0.3-5.3-0.3-7.8-1.4c-3.9-0.5-7.6-1.9-11.1-3.6
				c-0.5-0.3-1.4-0.4-1.4-1.2s0.8-0.9,1.4-1.1c8.5-3.7,17.4-4.6,26.5-4.7c0.7,0,1.2,0.1,1.4,1c0.5,2.4,1,4.8,1.5,7.3
				C367.3,536.4,367.9,537.8,367.8,539.3z M314.6,511.4c6.6-4.9,14-8.1,22-10.1c5.1-1.3,10.3-2.5,15.6-2.9c1.6-0.1,2.5,0.5,3.4,2
				c0.8,1.5,0.8,3.1,1.4,4.6c2,5,3.8,10,5.6,15.1c0.5,1.3-0.1,2-1.3,1.9c-3.5-0.3-7,0.2-10.5,0.5c-6.4,0.6-12.5,2.2-18.1,5.5
				c-1.8,1-2.2,0.7-2.3-1.2c0-0.9,0.6-2.3-0.6-2.5c-1.1-0.1-1.6,1.3-2,2.4c-0.4,1.1-0.5,2.2-0.1,3.3c1,2.7,2.5,4.9,4.9,6.7
				c4.3,3.3,9.5,4.3,14.5,5.6c8.7,2.2,17.5,2.1,26.4,1.9c5.5,0.2,11.1,0.1,16.6,0.4c8.8,0.5,17.4,1.9,25.6,5.1
				c4,1.6,7.7,3.8,10.4,7.2c1.3,1.7,2.6,3.7,2.8,5.8c0.4,3.5-2.8,7.2-6.4,8.1c-4.3,1.2-8.7,0.5-12.9-0.1c-11.3-1.8-22.5-2.7-34-2.4
				c-10.9,0.3-21.8,0-32.7-1.3c-10-1.2-19.2-4.4-27.4-10.2c-7.3-5.3-12-12.3-12.6-21.5C302.2,525.2,306.6,517.3,314.6,511.4z"/>
			<path class="st0" d="M425.5,238.1c0.6,1.5,0.3,2.9,0.1,4.3c-2.9,16.8-1,32.9,7.7,47.8c0.2,0.3,0.3,0.6,0.4,0.8
				c-3.3,1.4-5.8,2.6-7.5,3.8c-3,1.6-4.2,3-4.5,4.2l0,0c0.2-0.1,5.6-1.9,14-4.4c6.2,6.7,12.6,10.1,13,10.3h0l0,0l0,0
				c0.4,0.3,0.6,0.5,0.8,0.7c0,0,1.7,0.6,0,2.9c0.8-0.6,1.6-1.2,2.5-1.8c1-0.7,2-1.4,3.1-2.1c0.6-0.3,1.3-0.7,1.9-1
				c3.2-1.7,6.1-3.1,8.7-4.4c0.6-0.3,1.2-0.6,1.8-0.9c4.7-2.3,8.5-4,11.4-5.2c-3.3,1-7.9,2.5-14,4.9c-0.6,0.2-1.2,0.5-1.9,0.7
				c-2.1,1.1-4.1,2.3-6.1,3.5c-0.9,0.6-1.6,0.9-2.6,0.3c-0.1,0-0.2-0.1-0.2-0.1c-4-2.4-7.7-5.2-11.1-8.3c-0.4-0.3-0.9-0.7-1.2-1.1
				c9.5-2.7,21.5-5.7,33.5-7.9c1.4-0.2,2.8-0.5,4.1-0.7c0.8-0.2,1.5-0.5,2.2-0.8c0,0,0,0,0,0c-1.7-0.1-4.6-0.3-8.3-0.3
				c-7,0-16.8,0.8-26.7,3.8c-2.8,0.7-5.2,1.4-7.4,2.1c-0.5-0.3-1-0.8-1.5-1.5c-3.9-6.5-6-13.4-7.2-20.8c-1.2-7.5-1.1-15,0-22.5
				c0.3-2.2,1.5-4.4,0.6-6.8c-2.9-7.8-5.5-15.8-7.7-23.9c-2-7.8-3.6-15.6-5-23.5c-0.8-4.6-1.2-9.2-1.6-13.9
				c-0.4-4.9-0.7-9.8,0.6-14.6c0.5-2,2.1-3.1,4.1-2.7c2.5,0.5,4.8,1.3,7,2.5c9.5,5.2,17.3,12.5,25.1,19.7
				c5.5,5.1,10.8,10.4,16.1,15.6c0.9,0.9,1.6,1.1,2.8,0.7c2.2-0.9,4.5-1.8,6.7-2.6c8.5-2.9,17.2-5,26.2-5.7c6.5-0.5,13-0.7,19.5,0.1
				c2.3,0.3,3.9-0.3,5-2.7c2.3-5,4.8-9.8,7.5-14.6c4.9-8.8,10.3-17.3,16.6-25.1c2.2-2.7,4.9-4.8,8.2-6.1c1.9-0.7,3.4,0.1,4.5,1.4
				c0.8,0.9,1.4,2.1,1.8,3.2c0,0,0,0,0,0c0.1,0.3,0.3,0.6,0.4,1c1.4,3.7,2.6,7.4,3.7,11.1c0,0,0,0.1,0,0.1
				c1.5,5.4,2.8,10.9,3.7,16.4c0,0,0,0,0,0.1c0.9,5.1,1.6,10.2,2.1,15.4c0.2,1.5,0.3,3,0.4,4.6c0,0,0,0.1,0,0.2
				c0.3,4.1,0.6,8.2,0.7,12.3c0,0,0,0,0,0l0,0l0,0c0,0,0,0,0,0l0,0c0,0,0,0,0,0v0c0,0,0,0,0,0c0,0,0,0,0,0s0,0,0,0c0,0,0,0,0,0
				c0,0,0,0,0,0l0,0c0,1.8,0,3.6,0,5.4c0,0,0,0,0,0.1c0,0.4,0,0.8,0,1.2c0,0.5,0,1,0.1,1.5l0,0c0,0,0,0,0,0c0,0,0,0,0,0
				c0.1,0.9,0.5,1.8,1,2.6c1.9,2.9,3.5,5.9,4.8,9.2c4.3,10.4,6.9,21.1,5.7,32.6c-0.3,2.7-0.6,3.8-2,4.2c-0.4,0.1-1,0.2-1.7,0.3
				c-0.4,0-0.9,0.1-1.3,0.1c-7.2,0.7-14.3,2.1-21.4,3.9c-2.8,0.7-5.7,1.6-8.6,3.1c-1,0.3-1.8,0.6-2.4,0.9c-0.1,0-0.2,0.1-0.2,0.1
				c0,0-0.1,0-0.2,0.1c-0.7,0.3-1,0.5-1.2,0.6c0,0,0,0-0.1,0c0,0,0,0,0,0c1.3-0.3,2.7-0.5,4-0.7c0.5-0.1,1-0.2,1.5-0.2
				c0.9-0.1,1.8-0.3,2.7-0.4c0.5-0.1,1.1-0.2,1.6-0.2c9.4-1.4,18.9-2.3,27.2-2.9c1.9-0.1,3.7-0.2,5.4-0.4c0.1,0,0.2,0,0.2,0
				c2.1-0.1,4.2-0.2,6-0.3c8.7-0.4,14.4-0.4,14.7-0.4c0,0-0.6-0.6-2-1.2c-0.9-0.4-2.1-0.9-3.7-1.2c-1.7-0.4-3.8-0.8-6.4-1
				c0,0,0,0,0,0c-0.6,0-1.2-0.1-1.9-0.1c-1.5-0.1-3.2-0.1-5.1-0.1c-0.4-0.2-0.4-0.7-0.3-1.4c2.5-15.6-1.8-29.8-9-43.4
				c-1.2-2.3-1.9-4.5-1.9-7.2c-0.1-21.6-2.7-42.9-9.9-63.4c-1-2.9-2.2-5.7-3.9-8.3c-3-4.4-6.8-5.6-11.7-3.5c-4.9,2-8.3,5.8-11.4,9.8
				c-8.6,11-15.5,22.9-21.7,35.4c-0.9,1.8-1.8,2.5-4,2.4c-16.9-0.8-33.4,1.6-49.2,7.9c-1.4,0.6-1.9-0.3-2.6-1
				c-6.7-6.8-13.6-13.5-20.9-19.8c-5.3-4.6-10.7-9.1-16.7-12.8c-2.1-1.3-4.4-2.4-6.7-3.3c-8.9-3.1-14.6,0.6-15.2,10.1
				c-0.5,7.7,0,15.3,1.1,22.9C415,204.9,419.2,221.8,425.5,238.1z"/>
			<path class="st0" d="M586.3,263.7c0.4,0,0.9-0.1,1.3-0.1c0.7-0.1,1.2-0.1,1.7-0.3c-0.4,0-0.8,0.1-1.2,0.1
				C587.5,263.5,586.9,263.6,586.3,263.7z"/>
			<path class="st0" d="M554.2,280.4c1.4,0,2.7,0,4.1,0.1c1.4,0,2.8,0.1,4.2,0.2c6.4,0.3,12.9,0.9,19,1.5h0c2.4,0.3,4.7,0.5,6.9,0.8
				c0.4,0,0.8,0.1,1.1,0.1c0,0,0,0,0,0c2.5,0.3,4.9,0.6,7.2,1c2.2,0.3,4.3,0.6,6.2,0.9c0.8,0.1,1.6,0.3,2.4,0.4h0
				c7.2,1.2,11.8,2.1,12,2.1c-0.1-0.1-1.1-1.7-5-3.6c-1.9-0.9-4.5-1.9-8-2.8c-1.7-0.4-3.5-0.9-5.7-1.2c-2.3-0.4-4.8-0.8-7.6-1.1
				c-0.4,0-0.8,0-1.2,0c-2.3-0.1-4.5-0.1-6.5-0.1c-2.2,0-4.3,0-6.2,0h-0.1c-10.6,0-16.5,0.6-19.7,1l0,0c-0.6,0.1-1,0.2-1.5,0.2
				c-0.1,0-0.2,0-0.2,0c0,0-0.1,0-0.2,0c-0.7,0.1-1.1,0.3-1.3,0.3C554.3,280.4,554.3,280.4,554.2,280.4
				C554.2,280.4,554.2,280.4,554.2,280.4z"/>
			<path class="st0" d="M435.4,324c0.1-0.1,3.2-2.4,8.1-6l0,0c1.1-0.8,2.4-1.7,3.7-2.6c0.4-0.3,0.8-0.6,1.2-0.9
				c1.2-0.9,2.5-1.8,3.9-2.7c0.5-0.3,1-0.7,1.5-1c0.8-0.5,1.6-1.1,2.4-1.6c1.5-1,3.1-2.1,4.8-3.2c0.3-0.2,0.5-0.3,0.8-0.5
				c5.5-3.6,11.6-7.4,17.9-10.9c0.6-0.4,1.2-0.7,1.9-1.1c0.2-0.1,0.4-0.2,0.6-0.3c0.7-0.4,1.4-0.8,2-1.1c0.4-0.2,0.7-0.4,1-0.6
				c0.1,0,0.2-0.1,0.2-0.1c0,0,0,0-0.1,0c-0.1,0-0.2,0-0.2,0c-0.5,0.1-1.1,0.2-1.9,0.4c-1.1,0.3-2.6,0.6-4.4,1.2
				c-3,1.2-6.7,2.9-11.4,5.2c-0.6,0.3-1.2,0.6-1.8,0.9c-2.6,1.3-5.5,2.8-8.7,4.4c-0.6,0.3-1.2,0.6-1.9,1c-1.1,0.7-2.1,1.4-3.1,2.1
				c-0.9,0.6-1.7,1.2-2.5,1.8c-0.2,0.2-0.5,0.3-0.7,0.5c-1.7,1.3-3.2,2.5-4.5,3.6c-0.5,0.5-1,0.9-1.5,1.4c-1.9,1.8-3.3,3.3-4.4,4.7
				C435.6,322,435.4,323.9,435.4,324z"/>
			<path class="st3" d="M584.4,403.4c0,0,13.4,1.4,31.2-6.2c0.1,0,0.1,0,0.2-0.1c0.9-0.4,1.8-0.8,2.6-1.2c0,0-8.2-26.2-28.8-49.4
				c0,0,0,0,0,0c0,0,0,0,0,0C589.9,348.3,594.9,385.6,584.4,403.4z"/>
		</g>
	</g>
</g>
<g>
	
		<image style="overflow:visible;opacity:0.24;enable-background:new    ;" width="1917" height="2650" xlink:href="2BB64D11.png"  transform="matrix(0.2394 0 0 0.2394 6.5635 -6.215)">
	</image>
	<g>
		<g>
			<path class="st8" d="M138.4,612.1c-2.1-0.2-3.9-1.1-5.8-2c-2.4-1.2-3.2-3.4-3.2-5.8c0-1.3,0.2-2.7,0.4-4
				c1.3-5.4,4.4-9.8,8.5-13.4c4.7-4.2,9.9-7.5,15.6-10.2c1.1-0.5,2.1-1,2.8-2.1c1.6-2.6,3.4-5.1,4.7-8c5.1-9.8,8.3-20.4,11.6-30.9
				c0.1-0.2,0.1-0.3,0.2-0.5c2.2-6.9,3.8-14,5.4-21c2.6-11,5.2-22.1,7.9-33.1c2.6-10.3,4.1-20.8,5.9-31.3c1-5.8,2-11.6,2.5-17.5
				c0.1-0.2,0.4-0.4,0.4-0.6c0.9-6.6,1.7-13.2,2.5-19.9c1-8.1,2.2-16.2,3.1-24.3c0.3-3,1.3-6.2,0.3-9.3c1.1-3.8,2.1-7.6,3.3-11.4
				c2.7-8.8,4.9-17.8,8.3-26.4c0.3-0.8,0.4-2.2,1.4-2.3c1-0.1,1.3,1.2,1.7,2c1.7,3,3.3,6.1,5.1,9.1c0.7,1.1,1,3.2,2.4,2.9
				c1.5-0.3,1.6-2.3,2-3.7c2.6-10.2,5-20.4,7.7-30.5c0.6-2.4,0.6-5,2.1-7.4c3.9,4.8,6.5,10,9.5,15.1c0.3,0.5,0,1.5,0.9,1.4
				c0.8-0.1,1.1-0.8,1.3-1.5c0.1-0.5,0.3-1.1,0.4-1.6c2-8.2,3-16.6,3.7-25c0.9-9.9,2.6-19.6,3.7-29.5c0.2-1.9,0.9-3.8,0.4-6
				c-2.4,1.9-4.1,4-5.9,6.1c-3.8,4.4-7.8,8.7-11.4,13.2c-2.8,3.5-5.1,7.4-8.9,10.1c-0.6,0.4-1.1,1-1.9,0.6c-0.9-0.4-0.6-1.2-0.6-1.9
				c0-4-0.5-8-0.6-12c-0.1-2.6-0.2-5.2-0.5-8.4c-2.9,4-5.4,7.5-7.8,11c-1.3,1.9-3.2,3.4-3.8,5.6c-1.3,4.4-3.9,8.1-5.7,12.2
				c-0.7,1.5-1.6,2.9-2.5,4.3c-0.8,1.1-1.5,1.2-1.9-0.4c-0.3-1.5-0.7-2.9-0.9-4.4c-0.8-5.5-2.4-10.8-3.1-16.9c-3.2,5-6.1,9.4-9,13.9
				c-1.7,2.6-3.4,5.2-5.1,7.7c-0.3,0.5-0.7,1.3-1.4,1c-0.8-0.2-0.4-1.1-0.5-1.7c-0.1-1,0-1.9-0.1-2.8c-1-8.7-0.1-17.3,0.4-26
				c0.2-2.7,0.3-5.4,0.5-8.3c-1.4,0.5-2.2,1.4-3.1,2.2c-4.8,4.8-9.6,9.6-14.2,14.6c-0.8,0.9-1.6,2.8-3,2c-1.1-0.6-0.6-2.5-0.3-3.8
				c1.6-9.1,2.9-18.2,5.5-27.1c0.2-0.7,0.9-1.6,0.1-2.2c-0.8-0.6-1.6,0.2-2.3,0.8c-5.3,4-10.7,7.8-15.9,12c-2,1.6-3.7,3.7-6.2,4.5
				c1.9-3.2,4.6-5.8,6.9-8.7c0.8-1,1.6-2.1,2.2-3.6c-3.1,0.8-6.2,1.7-9.4,2.5c-1.5,0.4-3.5,1.7-4.4,0.4c-0.9-1.3,1.2-2.7,2.1-3.8
				c7.7-8.7,15.4-17.3,21.6-27.2c5.3-8.5,7.9-17.8,9.9-27.5c0.1-0.7,0.1-1.4-0.4-2c-2.7-3.6-5-7.4-7.6-11.2c0.2,1.7,0.5,3.4,0.7,5.1
				c0.1,0.9,0.2,1.7,0.2,2.6c0,0.6,0.1,1.4-0.6,1.6c-0.7,0.2-1.2-0.4-1.6-0.9c-2.8-3.5-4.6-7.5-6.2-11.6c-1.8-4.6-3.2-9.2-4.4-14
				c1.1-2.3,1.5-5.1,4.7-5.8c1.8,7.2,6.6,11.2,14.1,11.5c1,0,1,0.6,1.2,1.2c0.8,2,2,3.8,3.7,5.1c8.2,6.3,18.1,5.3,26.1,0.2
				c1.3,0.2,1.2,1.4,1.4,2.2c0.6,2.9,1.1,5.9,1.6,8.8c-0.9,0.3-1,1.1-1.4,1.8c-2.7,4.8-5.4,9.6-8.8,13.9c-1.2,1.6-2,1.3-3.1,0
				c-2.1-2.5-3.9-5.3-5.4-8.3c-0.3-0.6-0.6-1.6-1.3-1.5c-0.8,0.1-0.7,1.1-0.9,1.8c-0.6,2.6-0.6,5.1-0.5,7.8c0,1.4-0.5,1.7-1.7,0.9
				c-0.4-0.3-0.7-0.6-1.1-0.9c-2.1-3.3-5.4-5.5-7.6-8.8c-0.2,0.1-0.4,0.2-0.5,0.3c1.6,4.9,3.1,9.8,4.7,14.7c1.2,6.2,3.7,12.1,4,18.5
				c0,0.7,0.4,1.6,1.3,1.8c0.8,0.1,1.2-0.6,1.7-1.1c2.7-2.9,4.7-6.4,6.9-9.6c0.4-0.6,0.5-1.8,1.4-1.7c0.8,0.1,0.9,1.2,1.2,1.9
				c3.3,8.4,6.6,16.8,10.4,24.9c1.4,2.9,2.1,2.9,3.9,0.2c4.3-6.5,8.6-13.1,12.9-19.6c0.4-0.7,0.6-1.6,1.8-1.8
				c0.8,1.6,1.6,3.1,2.3,4.7c1.3,2.8,3,5.4,5,7.7c0.9,1,1.6,1.2,2.3-0.2c3.5-6.6,7.8-12.9,10.4-20c0.9-2.4,2-4.7,3-7.2
				c1,0.7,1.1,1.6,1.4,2.4c1.4,3.8,2.8,7.6,4.6,11.1c0.4,0.8,0.8,2,1.7,2.1c1.1,0.1,1.2-1.3,1.6-2.1c3.4-7,6.1-14.2,8.9-21.4
				c1.7-4.5,3.8-8.9,4.9-13.6c0.7,0,0.9,0.5,1.2,1c5.6,11.5,13.2,21.5,23.1,29.6c3.8,13.3,9.3,26,14.3,38.9c0.2,0.6,1.1,1.2,0.3,1.9
				s-1.5-0.1-2.1-0.5c-3.1-2.2-5.7-5-8.3-7.7c-0.4-0.4-0.7-1.1-1.5-1.1c0-0.1-0.1-0.1-0.2-0.2c0,0,0,0.1,0,0.1c0,0,0.1,0.1,0.1,0.1
				c2.7,7.5,5.7,14.9,8.9,22.2c5,11.3,9.8,22.8,15.2,34c0.3,0.6,1,1.3,0.2,1.9c-0.7,0.6-1.4,0-2-0.4c-5.1-3.1-10.2-6.4-14.9-10.2
				c-0.3-0.3-0.5-0.8-1.2-0.6c2.7,5.3,5.5,10.5,8.1,15.8c15.3,30.6,32.2,60.4,46.9,91.3c7.3,15.4,13.9,31.2,18,47.8
				c3.1,12.3,4.2,24.9,3.7,37.6c0,0.9-0.2,1.7-0.3,2.6c-0.1,3.5-0.4,7-1.1,10.5c-1,5.1-1.8,10.3-3.8,15.2c-0.7-0.8-0.5-1.8-0.4-2.7
				c0.2-3.9-0.1-7.8-0.7-11.5c-2-12.5-4.9-24.9-10.3-36.5c-2.5-5.5-4.8-11.2-7.8-16.4c-4.8-8.2-10-16.2-16.3-23.4
				c-5.5-6.2-11.5-11.9-18.4-16.6c-3.3-2.3-7.2-3.6-10.6-5.7c-5.2-14.6-10.3-29.2-14.9-44c-0.1-0.5-0.3-1.1-1.2-1.4
				c-2.3,6-3.9,12.4-6.9,18.9c-2.6-10-5.8-19.2-6.1-29.7c-2.8,6.6-5.4,12.6-7.8,18.7c-5.3,13.2-10.8,26.3-15.4,39.7
				c-5.1,14.7-10.8,29.2-13.2,44.6c-0.1,0.9,0,2.5-1.2,2.5c-1.1,0-1.2-1.4-1.6-2.4c-0.2-0.7-0.3-1.4-0.5-2.1
				c-0.7-2.6-1.4-5.2-2.1-7.8c-0.1,0-0.3,0-0.4,0c-1.8,9.5-3.6,19.1-5.5,28.6c-1.8,10.8-4.3,21.4-5.9,32.2c-0.1,0.6-0.2,1.5-1.3,1.4
				c-1.5-5.3-3.9-10.2-6.4-15.8c-0.2,1.6-0.2,2.5-0.4,3.3c-2.4,10.9-3.4,22.1-5.5,33.1c-1.1,5.5-1.1,11.1-2.3,16.6
				c-0.2,0.8-0.1,1.9-0.9,2c-1,0.2-1.2-1-1.6-1.7c-1.1-1.8-1.7-4-3.5-5.9c-1.8,8.1-3.6,15.9-5.4,23.7c-2.1,7.5-4.1,14.9-6.3,22.3
				c-2.7,9-6.2,17.5-15.2,22.2c-5,1.8-10.1,3.2-15.3,3.7c-0.9,0.1-1.7,0-2.6,0.1c0.4-7.4,0.4-14.9,6.1-20.7c0.3-0.3,0.5-0.6,0.3-1.1
				c-0.2-0.5-0.8-0.5-1.2-0.5c-1,0.1-1.8,0.5-2.6,1c-3.3,1.9-5.2,4.9-6.6,8.3c-1.8,4.2-1.7,8.8-1.8,13.2c-4,0.3-7.9,0.2-11.8-0.8
				c-0.4-3.5,0-7,0.6-10.4c0.7-4.5,1.9-9,5.6-12.2c0.4-0.4,1.1-0.9,0.7-1.6c-0.4-0.7-1.1-0.5-1.7-0.3c-0.9,0.3-1.8,0.6-2.6,1.2
				c-3.1,2.3-5,5.4-6.4,8.9C138.6,603,138.2,607.5,138.4,612.1z"/>
			<path class="st9" d="M311.1,410.5c3.4,2.1,7.3,3.4,10.6,5.7c6.9,4.7,12.9,10.4,18.4,16.6c6.3,7.2,11.5,15.2,16.3,23.4
				c3.1,5.2,5.3,10.9,7.8,16.4c5.3,11.7,8.3,24,10.3,36.5c0.6,3.8,0.9,7.7,0.7,11.5c0,0.9-0.3,1.9,0.4,2.7c-0.2,0.8-0.3,1.7-0.5,2.5
				c-1.4,6-3.6,11.8-6.2,17.5c-1.5,2.6-2.7,5.3-4.8,7.5c-4.6-8.1-9.8-15.7-17-22.4c0.4,4.6,1.5,8.4,2.2,12.4
				c0.2,1.1,0.6,2.5-0.8,3.2c-1.3,0.6-2-0.6-2.8-1.3c-6-6.1-11.9-12.2-17.9-18.3c-0.3-0.3-0.6-0.6-1.1,0c0.9,2.7,1.7,5.5,2.8,8.2
				c1.9,5.1,3.6,10.3,7,14.7c2.3,3,4.4,6.2,6.9,9c2,2.3,3.2,5.2,5.8,7.1c-0.3,0.9,0.5,1.4,0.9,2.1c2.6,4.3,4.9,8.7,6.2,13.5
				c0.9,3,0.2,4.6-2.8,5.8c-1.8,0.7-3.6,1.3-5.4,1.7c-18.9,4.3-37.8,8.4-56.8,11.8c-8.7,1.6-17.5,3-26.4,2.9
				c0.1-0.6,0.4-1.2,0.4-1.8c0-5.3,1.7-10.2,3.9-15c0.3-0.6,1.1-1.3,0.4-1.9c-0.7-0.6-1.4,0.1-2,0.6c-5.7,4.7-7.9,11-7.9,18.2
				c-3.7,0.1-7.4,0-11-0.6c-1.6-6.9,0.1-13.1,3.8-19c0.5-0.7,2.1-1.4,0.9-2.5c-1-0.8-1.8,0.5-2.7,0.9c-0.3,0.2-0.5,0.4-0.7,0.6
				c-4.7,5.3-7.4,11.5-7.9,18.6c-1.4-0.1-2.8-0.6-4.1-1.1c-2.9-1.1-3.6-2.3-3.5-5.4c0.2-4.7,2.2-8.7,5.1-12.3
				c8.7-10.7,20.6-15.4,33.9-16.9c10.9-1.3,21.8-0.9,32.7-0.4c2.5,0.1,5,0.3,7.4,0.5c0.1-0.2,0.1-0.3,0.2-0.5
				c-4.4-3.4-8.7-6.9-13.1-10.3c-0.3-0.9-1-1.4-1.6-2c-4.2-4-7.8-8.6-11.2-13.4c-6-8.6-10.9-17.7-15.4-27.1
				c-1.6-4.3-3.2-8.6-4.7-12.9c-5.6-15.8-8.8-31.9-6.2-48.8c1.4-8.9,3.8-17.5,9.3-24.8c7.6-10.1,17.6-15.9,30.6-15.5
				C304.9,408.7,308,409.9,311.1,410.5z"/>
			<path class="st10" d="M144.9,269.5c2.6-0.8,4.3-2.9,6.2-4.5c5.2-4.2,10.6-8,15.9-12c0.7-0.5,1.5-1.3,2.3-0.8
				c0.8,0.5,0.1,1.5-0.1,2.2c-2.6,8.9-3.9,18-5.5,27.1c-0.2,1.3-0.8,3.1,0.3,3.8c1.4,0.8,2.2-1.1,3-2c4.6-5,9.4-9.8,14.2-14.6
				c0.8-0.8,1.7-1.6,3.1-2.2c-0.2,2.9-0.3,5.6-0.5,8.3c-0.6,8.6-1.4,17.3-0.4,26c0.1,0.9,0,1.9,0.1,2.8c0,0.6-0.3,1.4,0.5,1.7
				c0.7,0.2,1.1-0.5,1.4-1c1.7-2.6,3.4-5.1,5.1-7.7c2.9-4.4,5.8-8.9,9-13.9c0.6,6.1,2.3,11.4,3.1,16.9c0.2,1.5,0.6,2.9,0.9,4.4
				c0.3,1.6,1.1,1.5,1.9,0.4c0.9-1.4,1.9-2.8,2.5-4.3c1.9-4.1,4.5-7.8,5.7-12.2c0.6-2.2,2.5-3.8,3.8-5.6c2.4-3.5,4.9-6.9,7.8-11
				c0.3,3.2,0.4,5.9,0.5,8.4c0.1,4,0.6,8,0.6,12c0,0.7-0.2,1.5,0.6,1.9c0.8,0.3,1.3-0.2,1.9-0.6c3.8-2.6,6.1-6.6,8.9-10.1
				c3.6-4.6,7.6-8.8,11.4-13.2c1.8-2.1,3.5-4.2,5.9-6.1c0.5,2.2-0.2,4.1-0.4,6c-1.1,9.9-2.9,19.6-3.7,29.5c-0.7,8.4-1.7,16.8-3.7,25
				c-0.1,0.5-0.3,1.1-0.4,1.6c-0.2,0.7-0.5,1.5-1.3,1.5c-0.9,0.1-0.6-0.9-0.9-1.4c-3-5.1-5.7-10.3-9.5-15.1c-1.4,2.4-1.4,5-2.1,7.4
				c-2.7,10.1-5.1,20.3-7.7,30.5c-0.4,1.4-0.4,3.5-2,3.7c-1.4,0.2-1.7-1.8-2.4-2.9c-1.8-3-3.4-6-5.1-9.1c-0.4-0.8-0.7-2.1-1.7-2
				c-1,0.1-1,1.5-1.4,2.3c-3.4,8.6-5.6,17.6-8.3,26.4c-1.1,3.8-2.2,7.6-3.3,11.4c-0.6,2-1.1,4.1-1.7,6.1c-0.1,0.4-0.1,1-0.7,1.1
				c-0.7,0.1-0.8-0.6-1-1.1c-1.3-3.9-2.7-7.7-3.3-11.8c-0.5-3.1-1.1-6.2-1.8-10c-6,8.3-8.5,17.5-12.1,26.3
				c-4.9-11-8.4-22.4-11.6-34.4c-3.2,4.5-4.4,9.1-5.6,13.7c-0.4,2.2-0.8,4.5-1.2,6.7c-0.1,0.6,0,1.7-0.9,1.7c-0.9,0-0.8-1-1-1.7
				c-0.7-2.6-1.4-5.1-2.2-7.7c0-0.5,0-1-0.1-1.4c-3-14.8-4.2-29.8-4.2-44.9c0-0.6,0.3-1.4-0.2-2c-0.9,0.6-1.4,1.5-2,2.4
				c-2.6,3.9-5.1,7.8-8.3,11.2c-0.5,0.5-1,1.6-1.8,1.3c-0.9-0.3-0.5-1.4-0.5-2.1c0.3-3.2,0.6-6.4,1-9.6c0.9-8.4,1.7-16.8,3.6-25
				c1-4.4,2-8.9,3.1-13.8c-3,1.6-5.6,3-8.1,4.4c-1.5,0-2.6,1-3.9,1.5c-1.3,0.4-2.5,0.9-3.8,1.2c-1,0.2-2.3,0.8-2.9,0
				c-0.8-1,0.5-1.8,1-2.6C135,281.4,139.7,275.2,144.9,269.5z"/>
			<path class="st11" d="M295.2,224.4c-9.9-8.2-17.5-18.1-23.1-29.6c-0.2-0.5-0.5-1-1.2-1c-0.1-1.2-0.3-2.3-0.6-3.5
				c-2-6.8-2.7-13.6-1-20.5c0.3-1.3,1.2-2.7,0.1-4.1c0.6-0.8,0.9-1.6,1.1-2.6c1.2-5.2,3-10.3,4.9-15.3c2.6-6.8,5.5-13.4,7.5-20.4
				c0.9-3.1,1.2-6.4,2.7-9.3c0-8.8-2.4-16.7-7.7-23.8c-1.6-2.2-3.5-4.3-4.2-7l0.1-0.1c2.6,1.4,4.3,3.6,6.1,5.8
				c1.8,2.2,3.5,4.5,5.3,6.8c-0.7-6.1-0.9-12.2-2.6-18.2c5.4,1.1,10.3,2.6,14.8,5.4c4.5,2.8,7.8,6.8,11.7,10.5
				c0.4-11.1,0-21.9-6-32.2c1.8,0.3,2.9,1,3.9,1.6c2,1.1,3.5,2.9,5.7,3.8c1,2,2.6,3.6,4.1,5.1c7.4,7.8,15,15.4,21.1,24.3
				c9.2,13.8,13.6,28.9,12.7,45.5c-0.4,6.8-2.5,13.3-4.6,19.8c-0.6,1.9-1.3,3.7-2,5.6c-0.2,0.6-0.3,1.5-1.1,1.3
				c-0.8-0.2-0.6-1.2-0.7-1.9c-0.3-5.5-1.2-10.8-2.9-16c-0.1-0.4-0.1-0.8-0.7-1.1c-0.8,1.2-0.8,2.6-1,3.9
				c-2,10.8-6.7,20.4-12.8,29.3c-2.6,3.8-5.4,7.4-8.1,11.1c-0.6,0.8-1.3,2.2-2.5,1.7c-1-0.5-0.5-1.9-0.5-2.8
				c0.3-3.2,0.8-6.4,1.2-9.8c-1.1,0.3-1.8,1.1-2.4,1.7c-6.5,6.9-10.4,15-10.7,24.6c-0.1,4-0.4,8,0.4,12c0.4,2-0.2,2.4-2,1.5
				C298.4,226,296.8,225.2,295.2,224.4z"/>
			<path class="st10" d="M312.5,70.7c-2.2-0.8-3.7-2.6-5.7-3.8c-1.1-0.6-2.1-1.3-3.9-1.6c6,10.2,6.4,21.1,6,32.2
				c-3.8-3.6-7.2-7.7-11.7-10.5c-4.5-2.8-9.4-4.4-14.8-5.4c1.7,6,1.9,12.1,2.6,18.2c-1.8-2.3-3.4-4.6-5.3-6.8
				c-1.8-2.2-3.5-4.4-6.1-5.8c-0.1,0-0.2,0-0.3-0.1c0.1,0.1,0.1,0.1,0.2,0.1c0.7,2.8,2.6,4.9,4.2,7c5.3,7.1,7.7,15,7.7,23.8
				c-1.8-0.8-1.5-2.7-2.2-4c-4.4-8.7-11.8-13.8-20.2-17.9c-5.8-2.8-11.8-5-18-6.6c-0.5-0.1-1-0.2-1.1-0.7c-0.2-0.6,0.3-1.1,0.7-1.4
				c1.5-0.9,2.9-1.9,4.4-2.8c2.8-1.7,5.9-2.5,8.9-3.6c-7.7-3.4-15.1-7.4-23.9-4.9c-0.4,0.1-1.1,0.1-1.3-0.2c-0.6-0.5,0.1-1,0.4-1.4
				c0.4-0.6,1-1.2,1.5-1.8c2.4-2.8,5.6-4.6,8.4-6.9c0.5-0.4,1.5-0.7,1.2-1.5c-0.3-0.8-1.2-0.5-1.9-0.5c-6.4,0.6-12.6,2-18.4,4.8
				c-0.4,0.2-0.8,0.6-1.3,0.1c2-5.5,4.7-10.8,6.6-17c-8.6,4.1-16.1,8.9-22.7,15.8c0-6.4,3-11.7,3.9-18.2c-3.5,3-6.7,5.4-9.4,8.1
				c-9.4,9.4-16.9,20.5-25.7,30.6c-1.7-4-0.9-8.2-0.7-12.3c0.1-4.6,1.3-9.1,1.7-13.7c0.1,0,0.1-0.1,0.1-0.1c0,0-0.1-0.1-0.1-0.1
				c0,0.1-0.1,0.1-0.1,0.1c-0.5,0.3-1,0.5-1.4,0.8c-5.5,4-10.9,8.1-16.4,12.1c-0.6,0.5-1.3,1.2-2.1,0.8c-1-0.5-0.5-1.6-0.3-2.4
				c1.2-4.7,3-9.2,5.5-13.3c5.2-8.6,12.7-15.3,19.9-22.1c0.4-0.4,1.2-0.5,1-1.5c-4.6,0-9.1,0-13.7,0c2.3-2.9,5.6-4.6,8.6-6.5
				c7.6-4.7,15.5-8.9,24.4-10.8c0.1,0,0.2-0.2,0.3-0.4c-5.7-1.3-11.5-0.3-17.1-1.9c16.9-6.8,33.5-8,50.4,2c-1.3-3.2-2.4-5.8-3.6-8.9
				c2.4,0.8,4.5,1.4,6.5,2.2c9.5,4,17.5,9.8,22.8,18.8c0.8,1.3,1.8,1.3,3,1.3c17.2-0.6,30.2,7.1,40.5,20.3
				C308.6,57.8,311,64.1,312.5,70.7z"/>
			<path class="st9" d="M6.9,215.4c3.8-7.5,10.4-10.9,18.3-11.7c10.7-1,19.9,3.5,28.5,9.2c8.8,5.8,15.9,13.4,23.3,20.8
				c22,22.1,40.1,47.1,55.2,74.3c-0.3,0.7-0.6,1.5-0.9,2.2c-7.4,16.7-17.9,31.6-28,46.7c-9.3-9.1-18.3-18.4-27.2-28.4
				c2.2,0,3.6,0.8,5.2,1.2c3.6,1,7.1,2.5,11,2.6c0.1,0,0.2,0,0.2,0.1c-0.1,0-0.1-0.1-0.2-0.1c-0.2-1.1-1.2-1.6-1.9-2.3
				c-8.9-9.8-17.9-19.6-26.8-29.4c-0.2-0.2-0.3-0.5-0.4-1c6.3,1.8,12.4,3.8,19.4,5.3c-10-10.3-18.8-20.8-27.7-31.5
				c4.5,0.9,8.7,2.7,13.6,3.5c-7.6-10.8-15.8-20.3-28.3-24.9c-0.5-1.4-1.8-2-2.9-2.7c-6.5-4.4-12.5-9.4-17.7-15.2
				c-0.7-0.8-1.3-1.5-1.3-2.6c-0.2-6.6,4-12.4,10.3-14c0.7-0.2,1.6-0.1,1.7-1.2c-6.7-1.4-12,1.5-15.2,8c-0.4,0.7-0.5,1.9-1.5,2
				c-1,0.1-1.2-1-1.7-1.7C9.8,221.6,8.2,218.6,6.9,215.4z"/>
			<path class="st1" d="M300.9,553.2c4.4,3.4,8.7,6.9,13.1,10.3c-0.1,0.2-0.1,0.3-0.2,0.5c-2.5-0.2-5-0.4-7.4-0.5
				c-10.9-0.5-21.8-0.9-32.7,0.4c-13.3,1.5-25.1,6.2-33.9,16.9c-2.9,3.5-4.9,7.5-5.1,12.3c-0.1,3.1,0.6,4.3,3.5,5.4
				c1.3,0.5,2.7,1,4.1,1.1c2.2,0.6,4.4,1.1,6.6,1.2c3.6,0.6,7.3,0.7,11,0.6c1.7,0,3.5-0.1,5.2-0.1c8.9,0.1,17.6-1.4,26.4-2.9
				c19-3.4,38-7.5,56.8-11.8c1.8-0.4,3.6-1.1,5.4-1.7c3-1.1,3.7-2.7,2.8-5.8c-1.4-4.8-3.6-9.2-6.2-13.5c-0.4-0.6-1.2-1.1-0.9-2.1
				c4.2-1.8,7.6-4.8,11-7.8c7.8,0.3,14.9,3.3,22.1,5.9c4.9,1.8,9.7,4,13.8,7.2c4,3.2,7.1,9.1,2.7,14c-1.3,1.5-2.7,2.9-4.3,4
				c-7.4,5.3-15.8,8.2-24.4,10.6c-14,4-28.4,6.8-42.8,9c-9.9,1.5-19.8,2.7-29.8,3.5c-10.4,0.8-20.7,1.5-31.1,2
				c-15.9,0.7-31.8,0.4-47.6,0.2c-10.9-0.1-21.7-1.1-32.6-1.9c-2.3-0.2-4.6-0.3-6.8-0.4c9-4.7,12.5-13.2,15.2-22.2
				c2.2-7.4,4.2-14.9,6.3-22.3c3.1-0.2,6.1-0.3,9.2-0.6c5.4-0.4,10.8-0.8,16.2-1.4c3.8-0.5,6.1-1.1,4.1-6.3
				c-1.6-4.1-3.1-8.2-3.9-12.6c10.8,0,21.7-0.1,32.5-0.1c0.8,0.2,1.5,0.2,2.3,0.5c9.3,3.2,18.8,5.8,28.5,7.4
				C293.5,552.8,297.1,553.8,300.9,553.2z"/>
			<path class="st10" d="M158.7,165.6c-3.1,0.6-3.6,3.5-4.7,5.8c-1.9,3.6-2.7,7.5-2.9,11.6c-0.1,0.7,0.2,1.8-0.8,2
				c-1.1,0.2-1.1-1-1.4-1.6c-2.9-6.4-3.4-13.2-2.8-20.1c0.1-0.6,0.1-1.2,0.3-2.3c-2.6,1.3-3.9,3.5-5.6,5.3c-1,1.1-1.6,3.4-2.9,2.9
				c-1.3-0.5-0.8-2.8-0.8-4.3c-0.2-3.9,0.5-7.7,1.2-11.5c2.6-7.9,7.6-14.1,13.8-19.6c-0.1-0.1-0.3-0.3-0.4-0.4
				c-3.2,0.6-6.4,1.2-9.6,1.7c6.5-10.5,15.9-16.7,28.5-19.3c-1.9-0.5-3.1-0.7-4.2-1.1c-0.4-0.1-1-0.2-1.1-0.8
				c-0.1-0.6,0.6-0.6,0.9-0.9c2.2-1.6,5-1.9,7.4-2.9c1.1,0,2.2,0.1,3.3-0.1c5.6-1,11.2-0.7,16.7,0.2c15.1,2.6,28.4,8.9,38.5,20.8
				c4.8,5.6,8.7,11.8,10.8,19c0.8,2.6,1.6,5.3,1.8,8.1c0,0.7,0.4,1.6-0.4,2c-0.8,0.4-1.2-0.6-1.7-1c-0.9-0.9-1.8-1.8-2.7-2.6
				c-0.4-0.4-0.8-1.2-1.5-0.8c-0.7,0.4-0.2,1.1-0.1,1.7c0.5,1.8,1.1,3.6,1.6,5.4c1.8,7.1,2.8,14.2,2.4,21.5
				c-0.1,3.4-0.9,6.8-2.1,10.1c-0.7-2.5-1.5-4.9-2.2-7.3c-0.6-2.2-1-4.6-2.6-7.2c-0.2,3.5-1.7,6-1.6,8.9c-1.9,5.4-3.9,10.8-7.2,15.6
				c-0.3,0.5-0.7,1.3-1.4,1.1c-0.8-0.2-0.5-1.1-0.4-1.6c0.1-3.2-0.4-6.3-1.4-9.3c-0.2-0.6-0.2-1.4-0.9-1.5c-0.8,0-0.8,0.9-1.1,1.4
				c-3.3,7.3-7.8,13.9-13.2,19.8c-0.4,0.5-0.8,1.4-1.6,1.1c-0.8-0.3-0.4-1.2-0.4-1.9c0.5-6.2,0.8-12.4,0.4-18.7
				c-0.5-2.9-1-5.9-1.6-8.8c-0.2-0.8-0.1-2-1.4-2.2c-0.4-2.9-0.9-3.3-3.6-2.7c-4.2,0.9-8.3,1.8-12.6,0.9c-5.4-1.1-9.6-7-8.8-12.3
				c0.1-0.7-0.1-2.4,1.4-1.8c4,1.6,7.8,0.4,11.6-0.3c3.5-0.7,6.7-2.3,9.3-4.9c0.1-0.1,0.3-0.2,0.4-0.4c0.1-0.1,0.3-0.3,0.4-0.4
				c2.2-1.9,2.5-4.5,2.8-7.1c0.4-3.7-0.6-7-2.6-10.1c-4.9-7.6-17.9-12.4-26.6-10c-5.1,1.4-8.2,5.7-8.2,11c-0.4,1.9-0.6,3.8-0.2,5.7
				c0.4,4.4,2.1,8.3,5.1,11.4c1.9,1.9,2.5,3.4,1.7,6.1c-1,3.2-2.3,4.1-5.3,2.5c-2.7-1.4-4.6-3.8-6.3-6.3c-0.5-0.7-0.9-1.5-2-1.4
				C159.3,163.8,158.9,164.6,158.7,165.6z"/>
			<path class="st11" d="M369,543.4c2.6-5.6,4.8-11.4,6.2-17.5c0.2-0.8,0.3-1.7,0.5-2.5c2-4.9,2.8-10.1,3.8-15.2
				c0.7-3.5,1-7,1.1-10.5c2.9-4.2,4.8-9,5.9-13.8c2.6-11.3,4.2-22.8,4.9-34.4c0.6-10.7,0.1-21.4,0.6-32c1-22.3,6.1-43.5,18.8-62.3
				c0.8-1.2,1.5-2.4,2.2-3.6c0.4-0.6,0.7-1.8,1.5-1.6c1,0.3,0.5,1.5,0.5,2.3c-0.3,3.8-0.7,7.5-1,11.3c-1.2,12.5-1.4,25.1-0.4,37.6
				c0.3,3.4,0.5,6.8,0.7,10.5c1.2-1.4,1.6-2.9,2.2-4.2c1.8-4,3.7-7.9,5.9-11.6c0.4-0.6,0.7-1.7,1.6-1.4c1,0.2,0.8,1.4,0.7,2
				c-0.4,3.3,0.1,6.6,0.2,9.9c0.1,6.6,0.5,13.3,0.4,19.9c-0.1,7.5-0.6,15-2.1,22.4c-0.1,0.5-0.4,1,0.2,1.8c2.3-3.1,4.6-6.1,6.8-9.1
				c0.6-0.7,1-1.9,2.1-1.5c1.2,0.4,0.7,1.7,0.6,2.5c-2.2,16.7-7,32.4-16.7,46.4c-0.9,1.2-1.9,2.3-3.1,3.9c3.5-1.1,6.3-2.6,9.2-4
				c1.6-0.7,3.1-1.5,4.7-2.2c0.6-0.3,1.3-0.4,1.8,0.1c0.6,0.6,0,1.2-0.2,1.7c-7.6,13.4-17.4,25-29.1,35
				c-7.1,6.1-14.7,11.5-22.7,16.4C374.4,541.2,371.8,542.6,369,543.4z"/>
			<path class="st11" d="M173.6,110.1c-2.5,1-5.2,1.3-7.4,2.9c-0.4,0.3-1,0.3-0.9,0.9c0.1,0.5,0.7,0.6,1.1,0.8
				c1.2,0.3,2.4,0.6,4.2,1.1c-12.6,2.6-22,8.8-28.5,19.3c3.2-0.6,6.4-1.2,9.6-1.7c0.1,0.1,0.3,0.3,0.4,0.4
				c-6.2,5.4-11.2,11.7-13.8,19.6c-3.2,0.8-6.4,1.7-9.6,2.4c-10.1,2.3-19.4-0.1-28.5-4.2c-1.9-0.9-1.9-1.4-0.2-2.7
				c8.8-6.6,15.4-14.9,20-24.8c0.1-0.2,0.1-0.4,0.2-1c-4.4,1.9-8.7,3.6-13.1,4.9c-1.2,0.3-2.8,1.6-3.6,0.2c-0.8-1.4,1.1-2.2,2-3.1
				c10.8-10.9,18.7-23.6,23.1-38.4c0.3-1,0.5-2.1,0.8-3.7c-4.8,4.5-8,9.7-12.1,14c-0.2-0.1-0.4-0.3-0.6-0.4c0.9-2.9,1.9-5.7,2.7-8.6
				c2.2-8,5.7-15.5,10.5-22.2c7.3-10.2,16.8-17.9,27.9-23.7c3.6-1.9,7.6-3.2,11.1-5.4c4.6,0,9.1,0,13.7,0c0.2,1-0.6,1.1-1,1.5
				c-7.2,6.8-14.7,13.4-19.9,22.1c-2.5,4.1-4.3,8.6-5.5,13.3c-0.2,0.8-0.6,1.8,0.3,2.4c0.8,0.4,1.4-0.3,2.1-0.8
				c5.5-4.1,10.9-8.1,16.4-12.1c0.4-0.3,0.9-0.5,1.4-0.8l0.1,0.1c-0.4,4.6-1.6,9.1-1.7,13.7c-0.1,4.1-1,8.3,0.7,12.3
				c0.5,0.9,0.5,1.8,0.3,2.8c-1.4,5.2-2.4,10.4-3.4,15.7C172,108.2,172.3,109.3,173.6,110.1z"/>
			<path class="st12" d="M194.8,432.3c-0.5,5.9-1.5,11.7-2.5,17.5c-1.8,10.5-3.3,21-5.9,31.3c-2.7,11-5.3,22-7.9,33.1
				c-1.7,7-3.2,14.1-5.4,21c0-1.6-1.2-2.5-2.1-3.6c-9.8-11.1-16.6-23.8-19.8-38.3c-0.8-3.4-1.1-6.8-1.2-10.3c-1.6,2-2.6,4.5-4.3,6.4
				c-0.4,0.4-0.6,1.3-1.4,1.1c-0.7-0.2-0.9-1.1-1.1-1.7c-1.2-3.9-1.8-7.8-2-11.9c-0.3-7.8,1.2-15.2,3.5-22.6
				c0.1-0.4,0.2-0.7,0.4-1.9c-2.7,2.9-4.9,5.3-7.2,7.7c-0.2-0.2-0.5-0.4-0.7-0.5c-0.3-1.3,0.3-2.5,0.6-3.7
				c4-13.4,11.9-23.8,24.4-30.3c7.7-4,16-5.2,24.6-4.6C189.2,425,191.6,429,194.8,432.3z"/>
			<path class="st13" d="M103.4,356.8c10.1-15.1,20.6-29.9,28-46.7c0.3-0.7,0.6-1.5,0.9-2.2c3.2-6.6,5.1-13.7,8-20.4
				c2.6-1.4,5.1-2.7,8.1-4.4c-1.1,4.9-2.1,9.4-3.1,13.8c-1.9,8.2-2.7,16.6-3.6,25c-0.4,3.2-0.7,6.4-1,9.6c-0.1,0.7-0.5,1.8,0.5,2.1
				c0.8,0.3,1.3-0.7,1.8-1.3c3.2-3.4,5.7-7.3,8.3-11.2c0.6-0.8,1-1.8,2-2.4c0.5,0.6,0.2,1.4,0.2,2c0,15.1,1.1,30.1,4.2,44.9
				c0.1,0.5,0.1,0.9,0.1,1.4c-2.7,2.5-5,5.5-7.9,7.7c-7.3,5.7-14.8,11.1-23.7,14.1c-1.4,0.5-2.7,0.5-4.1,0.1
				c-5.8-1.6-11.3-4-16.9-6.2c-0.7-0.3-1.5-0.5-1.5-1.3c0-0.8,0.8-1.1,1.5-1.4c1.6-0.7,3.4-0.9,5.1-1.2c0.8-0.1,1.6,0,2.3-0.8
				c-4.8-3.4-9.2-7.2-13.2-11.4c-2.8-3-5.6-6-8.3-9.1c-0.5-0.5-1.4-1.2-0.9-2c0.4-0.6,1.3-0.1,2,0.1c3.2,0.8,6.5,1.3,9.8,1.7
				C102.4,357.7,103.7,358.5,103.4,356.8z"/>
			<path class="st14" d="M172.9,535.7c-3.3,10.5-6.5,21.1-11.6,30.9c-2.6-0.2-5.2,0.3-7.8,0.5c-7.6,0.6-15.2,1.3-22.9,1.8
				c-7.9,0.5-15.7,1.3-23.6,1.1c0.6-0.6,1.3-1,1.4-2c0.2-2.5,1-4.9,1.9-7.3c1.4-3.5,2.9-6.9,6.5-8.7c0.6-0.3,1.1-0.7,0.8-1.5
				c-0.2-0.7-0.9-0.8-1.5-0.9c-4.1-0.5-8.2,1.5-10.4,5.2c-2.1,3.5-3,7.4-3.5,11.4c-0.2,1.4-0.5,3.1,1.4,3.8c-3.5,0-7,0.2-10.5-0.3
				c-2.2-0.3-3.4-1.3-3.7-3.5c0.7-4.2,1.4-8.3,3.6-12.2c3.9-6.8,9.8-10.8,17-13.2c9.7-3.2,19.8-4.8,30-5.5
				C151,534.5,162,534.8,172.9,535.7z"/>
			<path class="st1" d="M107.1,569.9c7.9,0.2,15.8-0.6,23.6-1.1c7.6-0.4,15.2-1.2,22.9-1.8c2.6-0.2,5.2-0.7,7.8-0.5
				c-1.3,2.8-3.1,5.3-4.7,8c-0.7,1.1-1.7,1.6-2.8,2.1c-5.6,2.7-10.9,6-15.6,10.2c-4.1,3.7-7.1,8-8.5,13.4
				c-6.9-0.6-13.7-2.1-20.4-3.8c-10.7-2.7-21.1-5.9-30.5-11.7c-2.6-1.6-5.4-3.1-5.1-7c0.2-2.1,1.2-3.6,2.6-4.9
				c3.7-3.4,8.2-5.5,13.1-6.8c0.3,2.2,1.6,3.2,3.7,3.5c3.5,0.5,7,0.3,10.5,0.3C104.9,570,106,569.9,107.1,569.9z"/>
			<path class="st13" d="M194.8,432.3c-3.2-3.3-5.6-7.3-7.9-11.3c-2.6-4.1-5.2-8.2-7.7-12.4c-7.2-12-12.9-24.6-15.3-38.5
				c-0.1-0.6-0.2-1.3-0.7-1.7c1.3-4.6,2.5-9.2,5.6-13.7c3.2,12,6.7,23.4,11.6,34.4c3.6-8.8,6.1-18.1,12.1-26.3
				c0.7,3.8,1.4,6.9,1.8,10c0.6,4.1,2,7.9,3.3,11.8c0.2,0.5,0.3,1.2,1,1.1c0.6-0.1,0.6-0.7,0.7-1.1c0.6-2,1.1-4.1,1.7-6.1
				c1.1,3.1,0,6.2-0.3,9.3c-0.8,8.1-2,16.2-3.1,24.3c-0.8,6.6-1.7,13.2-2.5,19.9C195.2,432,194.9,432.1,194.8,432.3z"/>
			<path class="st8" d="M360.5,555.7c-3.4,3-6.8,6-11,7.8c-2.6-1.8-3.8-4.8-5.8-7.1c-2.5-2.9-4.6-6-6.9-9c-3.4-4.4-5.1-9.6-7-14.7
				c-1-2.7-1.9-5.5-2.8-8.2c0.6-0.5,0.9-0.2,1.1,0c6,6.1,11.9,12.2,17.9,18.3c0.8,0.8,1.5,1.9,2.8,1.3c1.4-0.6,1-2.1,0.8-3.2
				c-0.7-3.9-1.8-7.8-2.2-12.4c7.2,6.7,12.4,14.3,17,22.4C363.4,552.8,361.6,554,360.5,555.7z"/>
			<path class="st15" d="M6.9,215.4c1.3,3.2,2.9,6.3,5,9.1c0.5,0.7,0.8,1.8,1.7,1.7c1-0.1,1.1-1.2,1.5-2c3.2-6.5,8.6-9.3,15.2-8
				c-0.2,1-1,1-1.7,1.2c-6.3,1.6-10.5,7.4-10.3,14c0,1.2,0.6,1.9,1.3,2.6c5.3,5.8,11.3,10.8,17.7,15.2c1.1,0.7,2.4,1.3,2.9,2.7
				c-7.4-1.9-14.8-4-21.4-8c-5.2-3.2-9.6-7.5-12.4-13.1C3.7,225.6,4.3,220.4,6.9,215.4z"/>
			<path class="st14" d="M138.4,612.1c-0.2-4.6,0.2-9.2,1.9-13.5c1.4-3.5,3.3-6.6,6.4-8.9c0.7-0.5,1.7-0.9,2.6-1.2
				c0.6-0.2,1.3-0.3,1.7,0.3c0.4,0.7-0.3,1.2-0.7,1.6c-3.7,3.2-4.8,7.8-5.6,12.2c-0.6,3.4-0.9,6.9-0.6,10.4
				C142.1,613.2,140.2,612.7,138.4,612.1z"/>
			<path class="st14" d="M155.9,614c0.1-4.5,0-9,1.8-13.2c1.4-3.4,3.4-6.4,6.6-8.3c0.8-0.5,1.6-1,2.6-1c0.5,0,1-0.1,1.2,0.5
				c0.2,0.4,0,0.8-0.3,1.1c-5.8,5.8-5.7,13.3-6.1,20.7C159.8,613.7,157.8,614.3,155.9,614z"/>
			<path class="st16" d="M238.1,186.9c0.7,2.5,1.5,4.9,2.2,7.3c1.2-3.3,2-6.6,2.1-10.1c6.4-4.4,13.4-8,19.5-12.8
				c2.5-1.9,5-3.9,7.5-5.8c1.1,1.4,0.1,2.8-0.1,4.1c-1.6,7-0.9,13.8,1,20.5c0.3,1.1,0.6,2.3,0.6,3.5c-1.2,4.7-3.2,9.1-4.9,13.6
				c-2.8,7.2-5.6,14.5-8.9,21.4c-0.4,0.8-0.5,2.2-1.6,2.1c-0.9-0.1-1.3-1.3-1.7-2.1c-1.9-3.6-3.2-7.4-4.6-11.1
				c-0.3-0.8-0.4-1.7-1.4-2.4c-1,2.4-2.1,4.8-3,7.2c-2.6,7.1-6.9,13.3-10.4,20c-0.7,1.4-1.5,1.2-2.3,0.2c-2-2.4-3.7-4.9-5-7.7
				c-0.7-1.6-1.5-3.1-2.3-4.7c-1.1,0.1-1.3,1.1-1.8,1.8c-4.3,6.5-8.6,13.1-12.9,19.6c-1.8,2.8-2.6,2.7-3.9-0.2
				c-3.8-8.2-7.1-16.5-10.4-24.9c-0.3-0.7-0.4-1.8-1.2-1.9c-0.9-0.1-1,1-1.4,1.7c-2.2,3.2-4.2,6.7-6.9,9.6c-0.5,0.5-0.9,1.2-1.7,1.1
				c-0.9-0.2-1.3-1-1.3-1.8c-0.3-6.4-2.8-12.3-4-18.5c0.8,0,1.4-0.2,1.7-1c0.6-1.8,1.6-3.4,1.7-5.3c0.4,0.3,0.7,0.6,1.1,0.9
				c1.1,0.8,1.7,0.6,1.7-0.9c-0.1-2.6-0.1-5.2,0.5-7.8c0.1-0.7,0.1-1.6,0.9-1.8s1.1,0.9,1.3,1.5c1.4,3,3.2,5.8,5.4,8.3
				c1.1,1.3,1.8,1.6,3.1,0c3.4-4.4,6.1-9.2,8.8-13.9c0.4-0.7,0.5-1.5,1.4-1.8c0.4,6.2,0.1,12.5-0.4,18.7c-0.1,0.6-0.4,1.6,0.4,1.9
				c0.8,0.3,1.2-0.6,1.6-1.1c5.4-5.9,9.9-12.5,13.2-19.8c0.2-0.5,0.3-1.4,1.1-1.4c0.8,0,0.8,0.9,0.9,1.5c0.9,3,1.5,6.1,1.4,9.3
				c0,0.6-0.4,1.4,0.4,1.6c0.7,0.2,1.1-0.6,1.4-1.1c3.3-4.8,5.3-10.2,7.2-15.6C235.3,188,236.7,187.5,238.1,186.9z"/>
			<path class="st17" d="M311.1,410.5c-3.1-0.7-6.2-1.9-9.5-1.9c-13-0.3-23,5.4-30.6,15.5c-5.5,7.3-7.9,15.9-9.3,24.8
				c-2.7,16.9,0.6,33,6.2,48.8c1.5,4.3,3.1,8.6,4.7,12.9c-0.7-0.1-1.1-0.5-1.6-1c-4.6-4.2-9.3-8.3-13.9-12.5
				c-7.1-6.6-14.1-13.3-21.2-19.9c-0.5-0.5-1-0.8-1.7-0.8c1.8-9.5,3.6-19.1,5.5-28.6c0.1,0,0.3,0,0.4,0c0.7,2.6,1.4,5.2,2.1,7.8
				c0.2,0.7,0.3,1.4,0.5,2.1c0.3,0.9,0.5,2.4,1.6,2.4c1.2-0.1,1-1.6,1.2-2.5c2.4-15.5,8.1-30,13.2-44.6
				c4.6-13.4,10.1-26.5,15.4-39.7c2.4-6.1,5-12.1,7.8-18.7c0.3,10.4,3.5,19.7,6.1,29.7c3.1-6.5,4.6-12.9,6.9-18.9
				c0.9,0.3,1,0.9,1.2,1.4C300.8,381.4,305.9,396,311.1,410.5z"/>
			<path class="st16" d="M234.3,476.5c0.7,0,1.2,0.3,1.7,0.8c7,6.7,14.1,13.3,21.2,19.9c4.6,4.2,9.2,8.3,13.9,12.5
				c0.5,0.4,0.9,0.9,1.6,1c4.6,9.4,9.5,18.5,15.4,27.1c3.4,4.8,6.9,9.4,11.2,13.4c0.6,0.6,1.3,1.1,1.6,2c-3.7,0.7-7.4-0.4-11-1
				c-9.7-1.6-19.2-4.2-28.5-7.4c-0.7-0.2-1.5-0.3-2.3-0.5c-0.4-0.5-1-0.7-1.6-0.9c-7.6-2.7-14.9-5.9-22.1-9.5
				c-4.5-2.3-9-4.5-13.5-6.8c-1.5-1.3,0.1-2.2,0.4-3.2c1.5-4.6,2.9-9.3,4.9-13.8c1,0.1,1.2-0.7,1.3-1.4
				C230,497.9,232.5,487.3,234.3,476.5z"/>
			<path class="st18" d="M158.7,165.6c0.2-1,0.6-1.8,1.8-1.9c1.1-0.1,1.5,0.7,2,1.4c1.7,2.5,3.5,4.9,6.3,6.3
				c3.1,1.6,4.4,0.7,5.3-2.5c0.8-2.7,0.1-4.2-1.7-6.1c-3-3.1-4.7-7-5.1-11.4c3.4-0.2,6.8-0.4,7.2,4.4c0,0.5,0.4,1.1,1.1,1.1
				c0.8,0,1.2-0.7,1.5-1.4c1.5-3,0.4-6,0.2-9.1c-0.1-0.8-1-1.1-1.8-1.3c-2.7-0.7-5.3,0.3-7.9,0.5c0-5.4,3.1-9.6,8.2-11
				c8.7-2.4,21.7,2.4,26.6,10c2,3.1,3,6.4,2.6,10.1c-1.1,0.1-1.6,0.9-2.4,1.5c-2,1.5-4.2,2.3-6.6,1.7c-1.9-0.4-1.8-2.5-2.5-3.9
				c-0.6-1.1-1.4-2.1-2.9-2.1c-1.5,0-2.8,0.8-3.2,2.1c-0.6,1.9-0.8,4,0.3,5.9c1.7,2.9,7.1,4.3,10.5,2.9c1-0.4,2-1.4,3.2-0.2
				c-2.6,2.5-5.8,4.2-9.3,4.9c-3.8,0.7-7.7,1.9-11.6,0.3c-1.5-0.6-1.3,1-1.4,1.8c-0.8,5.3,3.4,11.2,8.8,12.3c4.3,0.9,8.5,0,12.6-0.9
				c2.7-0.6,3.2-0.2,3.6,2.7c-8,5-17.8,6.1-26.1-0.2c-1.7-1.3-2.9-3.1-3.7-5.1c-0.2-0.5-0.2-1.1-1.2-1.2
				C165.3,176.8,160.5,172.8,158.7,165.6z"/>
			<path class="st12" d="M227.2,510c-2,4.5-3.4,9.1-4.9,13.8c-0.3,1.1-1.9,1.9-0.4,3.2c1.1,5.9,2.8,11.7,4.7,17.3
				c0.8,4.3,2.3,8.5,3.9,12.6c2,5.2-0.2,5.9-4.1,6.3c-5.4,0.6-10.8,1-16.2,1.4c-3.1,0.2-6.1,0.4-9.2,0.6c1.8-7.8,3.5-15.6,5.4-23.7
				c1.8,1.9,2.3,4.1,3.5,5.9c0.4,0.7,0.7,1.9,1.6,1.7c0.8-0.1,0.8-1.3,0.9-2c1.2-5.5,1.2-11.1,2.3-16.6c2.1-11,3.2-22.1,5.5-33.1
				c0.2-0.8,0.2-1.7,0.4-3.3C223.2,499.9,225.6,504.8,227.2,510z"/>
			<path class="st14" d="M182.6,210.1c-0.1,1.9-1.1,3.5-1.7,5.3c-0.2,0.8-0.9,1-1.7,1c-1.6-4.9-3.1-9.8-4.7-14.7
				c0.2-0.1,0.4-0.2,0.5-0.3C177.1,204.6,180.4,206.8,182.6,210.1z"/>
			<path class="st19" d="M297.8,255.8c0,0-0.1,0-0.1-0.1c0,0,0-0.1,0-0.1C297.7,255.6,297.8,255.7,297.8,255.8
				C297.9,255.8,297.8,255.8,297.8,255.8z"/>
			<path class="st15" d="M249,600.8c-2.3-0.2-4.5-0.7-6.6-1.2c0.5-7.1,3.2-13.3,7.9-18.6c0.2-0.2,0.4-0.5,0.7-0.6
				c0.9-0.5,1.7-1.8,2.7-0.9c1.2,1.1-0.4,1.8-0.9,2.5C249,587.7,247.4,593.9,249,600.8z"/>
			<path class="st13" d="M265.1,601.3c-1.7,0-3.5,0.1-5.2,0.1c0-7.2,2.1-13.5,7.9-18.2c0.6-0.5,1.3-1.2,2-0.6
				c0.7,0.6-0.1,1.3-0.4,1.9c-2.2,4.8-3.9,9.7-3.9,15C265.5,600,265.3,600.7,265.1,601.3z"/>
			<path class="st8" d="M269.4,165.6c-2.5,1.9-5,3.8-7.5,5.8c-6.1,4.9-13.1,8.4-19.5,12.8c0.3-7.3-0.7-14.5-2.4-21.5
				c-0.5-1.8-1.1-3.6-1.6-5.4c-0.2-0.6-0.6-1.3,0.1-1.7c0.7-0.4,1.1,0.4,1.5,0.8c0.9,0.9,1.8,1.8,2.7,2.6c0.5,0.4,0.9,1.4,1.7,1
				c0.7-0.4,0.4-1.3,0.4-2c-0.2-2.8-1-5.4-1.8-8.1c-2.1-7.2-6-13.4-10.8-19c-10.1-11.8-23.4-18.2-38.5-20.8
				c-5.5-0.9-11.1-1.2-16.7-0.2c-1.1,0.2-2.2,0.1-3.3,0.1c-1.3-0.8-1.6-1.9-1.3-3.4c1-5.3,2-10.5,3.4-15.7c0.3-1,0.2-1.9-0.3-2.8
				c8.7-10.1,16.2-21.1,25.7-30.6c2.8-2.8,5.9-5.1,9.4-8.1c-0.9,6.5-3.9,11.7-3.9,18.2c6.6-6.8,14.1-11.7,22.7-15.8
				c-2,6.2-4.6,11.5-6.6,17c0.5,0.5,0.9,0.1,1.3-0.1c5.8-2.8,12-4.2,18.4-4.8c0.6-0.1,1.6-0.4,1.9,0.5c0.3,0.8-0.7,1.1-1.2,1.5
				c-2.9,2.2-6,4.1-8.4,6.9c-0.5,0.6-1,1.2-1.5,1.8c-0.3,0.4-1,0.9-0.4,1.4c0.3,0.2,0.9,0.3,1.3,0.2c8.8-2.4,16.3,1.5,23.9,4.9
				c-3.1,1.1-6.2,1.9-8.9,3.6c-1.5,0.9-3,1.8-4.4,2.8c-0.5,0.3-0.9,0.7-0.7,1.4c0.2,0.5,0.7,0.6,1.1,0.7c6.2,1.6,12.2,3.8,18,6.6
				c8.4,4.1,15.8,9.2,20.2,17.9c0.7,1.4,0.4,3.2,2.2,4c-1.5,2.9-1.8,6.2-2.7,9.3c-2,7-4.9,13.6-7.5,20.4c-1.9,5-3.7,10-4.9,15.3
				C270.2,164,270,164.8,269.4,165.6z M190.7,101c1,1.9,2.8,2.8,4.7,3.4c3.6,1.1,7.1,0.4,10.4-1.1c5.1-2.3,8.4-7.9,8.1-13.4
				c-0.2-4.9-3.4-9.1-8.3-10.7c-2.4-0.8-5-1.3-7.3,0.5c-0.8-0.1-1.5,0-2.3,0.4C188.7,83.5,186,96,190.7,101z M255.6,107.3
				c-2.4-0.1-4.8-0.2-7.1,1.1c-7,4.3-8.4,13.7-2.9,20.6c5.8,7.4,15.6,6.9,20.8-1.3c2.9-4.6,3.2-9.6,0.3-14.4
				C264.2,109.4,260.8,106.6,255.6,107.3z"/>
			<path class="st11" d="M273.6,87.3c-0.1-0.1-0.1-0.1-0.2-0.1C273.5,87.2,273.6,87.2,273.6,87.3C273.7,87.2,273.6,87.3,273.6,87.3z
				"/>
			<path class="st11" d="M176.3,62.1c0-0.1,0.1-0.1,0.1-0.1c0,0,0.1,0.1,0.1,0.1C176.5,62.1,176.5,62.1,176.3,62.1
				C176.4,62.2,176.3,62.1,176.3,62.1z"/>
			<path class="st19" d="M92.4,332.2c0.1,0,0.1,0.1,0.2,0.1C92.5,332.3,92.4,332.3,92.4,332.2L92.4,332.2z"/>
			<path class="st20" d="M201.1,162.6c-1.1-1.2-2.2-0.2-3.2,0.2c-3.4,1.4-8.9-0.1-10.5-2.9c-1.1-1.9-0.9-4-0.3-5.9
				c0.4-1.3,1.7-2,3.2-2.1c1.5,0,2.3,1,2.9,2.1c0.7,1.4,0.6,3.5,2.5,3.9c2.4,0.6,4.6-0.2,6.6-1.7c0.7-0.6,1.3-1.4,2.4-1.5
				c-0.3,2.6-0.6,5.2-2.8,7.1c-0.1,0.1-0.3,0.3-0.4,0.4C201.4,162.3,201.2,162.5,201.1,162.6z"/>
			<path class="st20" d="M167.3,145.7c2.6-0.2,5.2-1.2,7.9-0.5c0.8,0.2,1.8,0.5,1.8,1.3c0.2,3,1.3,6.1-0.2,9.1
				c-0.3,0.6-0.7,1.3-1.5,1.4c-0.7,0-1.1-0.6-1.1-1.1c-0.4-4.8-3.8-4.6-7.2-4.4C166.7,149.4,166.9,147.5,167.3,145.7z"/>
			<path class="st8" d="M238.1,186.9c-1.4,0.5-2.8,1.1-4.1,1.6c-0.1-2.9,1.4-5.4,1.6-8.9C237,182.3,237.4,184.7,238.1,186.9z"/>
			<path class="st18" d="M201.5,162.2c0.1-0.1,0.3-0.3,0.4-0.4C201.8,161.9,201.6,162.1,201.5,162.2z"/>
			<path class="st16" d="M107.1,569.9c-1.1,0-2.2,0-3.3,0c-1.9-0.8-1.6-2.4-1.4-3.8c0.5-4,1.4-7.9,3.5-11.4
				c2.2-3.6,6.3-5.7,10.4-5.2c0.6,0.1,1.3,0.2,1.5,0.9c0.2,0.8-0.2,1.2-0.8,1.5c-3.6,1.8-5.2,5.2-6.5,8.7c-0.9,2.3-1.7,4.8-1.9,7.3
				C108.4,568.9,107.7,569.3,107.1,569.9z"/>
			<path class="st20" d="M245.6,129.1c-5.5-6.9-4.2-16.3,2.9-20.6c2.3-1.4,4.6-1.3,7.1-1.1c0,0.7,0,1.4,0,2.1c-1.7,0.3-3.1,1-3,3
				c0.1,1.8,1.4,2.6,3,2.9c2.1,0.4,3.4-0.5,4.1-2.8c0.5-0.9,0.9-0.5,1.7-0.1c2.2,1.2,1.6,3.6,2.4,5.4c-0.3,1.5-0.3,3-0.8,4.4
				c-1.5,4.6-5.5,7-11,7C249.8,128.3,247.7,129.8,245.6,129.1z"/>
			<path class="st20" d="M190.7,101c-4.7-5.1-2.1-17.5,5.2-20.9c0.8-0.4,1.5-0.4,2.3-0.4c-0.8,1.5,0.1,2.4,1,3.4
				c-0.6,1.6-0.4,3,1.3,3.7c1.5,0.7,3.1,0.8,4.3-0.6c1.1-1.2,0.6-2.5-0.3-3.6c1.2-1.3,2.1-0.9,3.1,0.4c1.3,1.7,1.2,3.8,2,5.6
				c0,7.2-5.5,12.3-13.3,12.4C194.4,101.1,192.6,101.1,190.7,101z"/>
			<path class="st21" d="M255.6,109.4c0-0.7,0-1.4,0-2.1c5.2-0.7,8.6,2.1,11.1,6.1c3,4.8,2.6,9.7-0.3,14.4c-5.1,8.1-15,8.7-20.8,1.3
				c2.1,0.7,4.1-0.8,6.2,0c-0.2,1.5,0.5,2.2,2,2.4c5.7,0.8,9.6-1.6,11.5-7c1.4-4,1-5.5-1.6-6.7c-0.8-1.8-0.1-4.1-2.4-5.4
				c-0.8-0.4-1.2-0.8-1.7,0.1C259.1,110.3,257.5,109.6,255.6,109.4z"/>
			<path class="st21" d="M190.7,101c1.9,0,3.7,0,5.6,0.1c0.1,0.8,0.5,1.3,1.4,1.4c8.3,0.9,14.2-4.8,13.3-13.1
				c-0.1-0.9-0.6-1.3-1.4-0.6c-0.8-1.8-0.7-3.9-2-5.6c-1-1.3-1.9-1.7-3.1-0.4c-1.9-0.9-3.6-0.9-5.3,0.4c-0.9-1-1.8-1.9-1-3.4
				c2.3-1.8,4.9-1.3,7.3-0.5c5,1.6,8.1,5.9,8.3,10.7c0.3,5.6-3,11.1-8.1,13.4c-3.3,1.5-6.8,2.2-10.4,1.1
				C193.5,103.9,191.8,102.9,190.7,101z"/>
			<path class="st18" d="M263.7,117.6c2.7,1.2,3,2.7,1.6,6.7c-1.9,5.5-5.8,7.8-11.5,7c-1.4-0.2-2.1-0.9-2-2.4c5.6,0,9.5-2.5,11-7
				C263.3,120.6,263.4,119.1,263.7,117.6z"/>
			<path class="st22" d="M255.6,109.4c1.9,0.2,3.5,0.9,4,3c-0.7,2.4-1.9,3.3-4.1,2.8c-1.6-0.3-2.9-1.1-3-2.9
				C252.5,110.3,253.9,109.7,255.6,109.4z"/>
			<path class="st18" d="M209.6,88.7c0.8-0.7,1.3-0.3,1.4,0.6c0.9,8.3-5,14.1-13.3,13.1c-0.8-0.1-1.3-0.5-1.4-1.4
				C204.1,101,209.6,95.9,209.6,88.7z"/>
			<path class="st22" d="M199.2,83.1c1.7-1.3,3.5-1.3,5.3-0.4c0.9,1.1,1.4,2.3,0.3,3.6c-1.2,1.4-2.8,1.2-4.3,0.6
				C198.8,86.1,198.6,84.7,199.2,83.1z"/>
		</g>
	</g>
</g>
</svg>
