<?xml version="1.0" encoding="utf-8"?>
<!-- Generator: Adobe Illustrator 25.2.1, SVG Export Plug-In . SVG Version: 6.00 Build 0)  -->
<svg version="1.1" id="Capa_1" xmlns="http://www.w3.org/2000/svg" xmlns:xlink="http://www.w3.org/1999/xlink" x="0px" y="0px"
	 viewBox="0 0 792 298.21" style="enable-background:new 0 0 792 298.21;" xml:space="preserve">
<style type="text/css">
	.st0{fill:#000000;}
</style>
<g>
	<path class="st0" d="M257.55,37.59v15.56h39.35v29.87h-39.35v17.89h44.72v31.66h-84.43V5.93h84.43v31.66H257.55z"/>
	<path class="st0" d="M427.84,36.33c-5.36-9.54-13.03-16.99-22.98-22.36c-9.96-5.36-21.56-8.05-34.8-8.05h-52.77v126.64h52.77
		c13.24,0,24.84-2.77,34.8-8.31c9.95-5.55,17.62-13.15,22.98-22.8c5.37-9.66,8.06-20.5,8.06-32.56
		C435.9,56.72,433.21,45.87,427.84,36.33z M372.71,41.06c0.2-1.45,0.5-2.88,0.97-4.29c0.41-1.2,1-2.41,1.77-3.41
		c1.49-1.97,3.83-2.34,5.99-1.12c2.07,1.17,3.56,2.93,4.83,4.87c2.72,4.11,4.39,8.56,3.97,13.57c-0.01,0.08-0.01,0.16-0.02,0.25
		c-0.54,5.57-5.18,9.2-10.53,8.17c-3.19-0.61-5.22-2.66-6.11-5.69c-0.61-2.07-0.84-4.24-1.25-6.35
		C372.36,45.05,372.43,43.04,372.71,41.06z M351.9,44.39c0.95-3.62,2.46-6.99,5.1-9.73c3.15-3.28,6.77-2.78,8.97,1.24
		c0.82,1.49,1.39,3.07,1.81,4.75c0.6,2.31,0.9,4.85,1.13,7.73c-0.09,1.16-0.11,3.3-0.5,5.38c-0.71,3.72-3.53,6.24-6.97,6.53
		c-1.61,0.13-3.12-0.07-4.44-0.57c-2.17-0.82-3.87-2.44-4.76-4.72C350.86,51.51,350.97,47.94,351.9,44.39z M340.45,76.04
		c-1.34-2.24-1.9-4.71-2.08-7.87c-0.04-3.47,0.54-7.38,2.73-10.88c1.77-2.85,4.51-3.3,7.11-1.19c0.7,0.56,1.37,1.23,1.84,1.99
		c2.64,4.06,4.48,8.45,4.94,13.32c0.37,4.01-1.6,7.13-5.04,8.22C346.15,80.82,342.5,79.46,340.45,76.04z M383.84,98.25
		c-1.99-0.39-3.95-0.93-5.89-1.51c-0.89-0.26-1.76-0.43-2.64-0.51c-2.1-0.23-4.17,0.06-6.24,0.84c-0.08,0.04-0.16,0.06-0.25,0.09
		c-2.21,0.88-4.43,1.77-6.71,2.35c-5.62,1.4-11.19-3.78-11.26-8.91c-0.15-2.85,0.76-5.09,2.48-7.03c0.92-1.05,1.89-2.06,2.88-3.04
		c0.27-0.26,0.53-0.53,0.78-0.81c2.22-2.37,3.97-5.07,5.56-7.88c1.03-1.84,2.28-3.54,4.02-4.79c3.82-2.74,8.83-2.32,12.37,1.06
		c0.9,0.86,1.76,1.81,2.48,2.84c2.46,3.62,5.52,6.64,8.94,9.34c0.95,0.75,1.81,1.54,2.52,2.45c0.79,0.99,1.42,2.13,1.79,3.46
		C396.39,92.5,390.75,99.56,383.84,98.25z M403.81,72.61c-1.68,3.95-5.69,5.29-9.04,4.62c-1.65-0.32-3.13-1.11-4.11-2.32
		c-1.77-2.21-2.06-4.75-1.81-7.44c0.35-3.69,1.37-7.2,2.9-10.57c0.3-0.67,0.69-1.31,1.12-1.91c0.28-0.4,0.57-0.77,0.89-1.13
		c2.27-2.55,5.2-2.45,7.36,0.16c1.73,2.1,2.67,4.58,3.29,7.18c0.33,1.37,0.5,2.74,0.65,3.57C405.14,67.85,404.8,70.28,403.81,72.61z
		"/>
	<path class="st0" d="M591.15,36.33c-5.36-9.54-13.03-16.99-22.98-22.36c-9.96-5.36-21.56-8.05-34.8-8.05h-52.77v126.64h52.77
		c13.24,0,24.84-2.77,34.8-8.31c9.95-5.55,17.62-13.15,22.98-22.8c5.37-9.66,8.06-20.5,8.06-32.56
		C599.21,56.72,596.52,45.87,591.15,36.33z M536.03,41.06c0.2-1.45,0.5-2.88,0.97-4.29c0.41-1.2,1-2.41,1.77-3.41
		c1.49-1.97,3.83-2.34,5.99-1.12c2.07,1.17,3.56,2.93,4.83,4.87c2.72,4.11,4.39,8.56,3.97,13.57c-0.01,0.08-0.01,0.16-0.02,0.25
		c-0.54,5.57-5.18,9.2-10.53,8.17c-3.19-0.61-5.22-2.66-6.11-5.69c-0.61-2.07-0.84-4.24-1.25-6.35
		C535.68,45.05,535.75,43.04,536.03,41.06z M515.22,44.39c0.95-3.62,2.46-6.99,5.1-9.73c3.15-3.28,6.77-2.78,8.97,1.24
		c0.82,1.49,1.39,3.07,1.81,4.75c0.6,2.31,0.9,4.85,1.13,7.73c-0.09,1.16-0.11,3.3-0.5,5.38c-0.71,3.72-3.53,6.24-6.97,6.53
		c-1.61,0.13-3.12-0.07-4.44-0.57c-2.17-0.82-3.86-2.44-4.76-4.72C514.18,51.51,514.28,47.94,515.22,44.39z M503.76,76.04
		c-1.34-2.24-1.9-4.71-2.08-7.87c-0.04-3.47,0.54-7.38,2.73-10.88c1.77-2.85,4.51-3.3,7.11-1.19c0.7,0.56,1.37,1.23,1.84,1.99
		c2.64,4.06,4.48,8.45,4.94,13.32c0.37,4.01-1.6,7.13-5.04,8.22C509.46,80.82,505.82,79.46,503.76,76.04z M547.16,98.25
		c-1.99-0.39-3.95-0.93-5.89-1.51c-0.89-0.26-1.76-0.43-2.64-0.51c-2.1-0.23-4.17,0.06-6.24,0.84c-0.08,0.04-0.16,0.06-0.25,0.09
		c-2.21,0.88-4.43,1.77-6.71,2.35c-5.62,1.4-11.19-3.78-11.26-8.91c-0.15-2.85,0.76-5.09,2.48-7.03c0.92-1.05,1.89-2.06,2.88-3.04
		c0.27-0.26,0.53-0.53,0.78-0.81c2.22-2.37,3.97-5.07,5.56-7.88c1.03-1.84,2.28-3.54,4.02-4.79c3.82-2.74,8.83-2.32,12.37,1.06
		c0.9,0.86,1.76,1.81,2.48,2.84c2.46,3.62,5.52,6.64,8.94,9.34c0.95,0.75,1.81,1.54,2.52,2.45c0.79,0.99,1.42,2.13,1.79,3.46
		C559.71,92.5,554.07,99.56,547.16,98.25z M567.12,72.61c-1.68,3.95-5.69,5.29-9.04,4.62c-1.65-0.32-3.13-1.11-4.11-2.32
		c-1.77-2.21-2.06-4.75-1.81-7.44c0.35-3.69,1.37-7.2,2.9-10.57c0.3-0.67,0.69-1.31,1.12-1.91c0.28-0.4,0.57-0.77,0.89-1.13
		c2.27-2.55,5.2-2.45,7.36,0.16c1.73,2.1,2.67,4.58,3.29,7.18c0.33,1.37,0.5,2.74,0.65,3.57C568.45,67.85,568.12,70.28,567.12,72.61
		z"/>
	<path class="st0" d="M653.22,37.59v15.56h39.35v29.87h-39.35v17.89h44.72v31.66h-84.43V5.93h84.43v31.66H653.22z"/>
	<path class="st0" d="M179.39,164.92v71.37c0,5.84,1.28,10.46,3.85,13.86c2.56,3.4,6.71,5.1,12.43,5.1s9.96-1.7,12.7-5.1
		c2.74-3.4,4.11-8.02,4.11-13.86v-71.37h39.53v71.37c0,12.05-2.5,22.33-7.51,30.86c-5.01,8.53-11.87,14.94-20.57,19.23
		c-8.71,4.29-18.42,6.44-29.16,6.44c-10.73,0-20.24-2.15-28.53-6.44c-8.29-4.29-14.76-10.67-19.41-19.14
		c-4.65-8.47-6.98-18.78-6.98-30.94v-71.37H179.39z"/>
	<path class="st0" d="M308.89,196.58v15.56h39.35v29.87h-39.35v17.89h44.72v31.66h-84.43V164.92h84.43v31.66H308.89z"/>
	<path class="st0" d="M408.35,261.51h38.28v30.05h-77.99V164.92h39.71V261.51z"/>
	<path class="st0" d="M498.85,261.51h38.28v30.05h-77.99V164.92h39.71V261.51z"/>
	<path class="st0" d="M632.83,164.92h-45.78l-46.33,126.65h41.69l6.26-19.14h42.21l6.26,19.14h41.86L632.83,164.92z M610.69,210.2
		c0.05-2.91,0.88-5.5,3.23-7.41c2.53-2.04,5.83-1.59,7.78,1.02c2.59,3.46,2.17,9.17-0.9,12.21c-2.62,2.59-6.2,2.38-8.36-0.43
		c0,0,0,0,0-0.01c-0.14-0.15-0.26-0.32-0.36-0.49c-0.91-1.42-1.35-3-1.39-4.71V210.2z M596.69,204.94c1.79-3.04,5.34-3.72,8.14-1.59
		c2.48,1.89,3.74,5.38,3.43,8.58c-0.01,0.01-0.01,0.02-0.01,0.04c-0.12,1.2-0.47,2.37-1.06,3.4c-0.04,0.05-0.06,0.11-0.09,0.15
		c-2.02,3.29-5.85,3.82-8.7,1.12c-1.9-1.81-2.74-4.09-2.86-6.08C595.42,208.18,595.77,206.49,596.69,204.94z M585.77,226.36
		c-0.99-1.38-1.46-2.95-1.76-4.71c0.33-1.23,0.49-2.53,1.02-3.68c1.79-3.83,6.34-4.52,9.29-1.42c2.23,2.34,2.92,5.16,2.07,8.26
		c-0.63,2.28-2.03,3.96-4.47,4.39C589.26,229.68,587.27,228.45,585.77,226.36z M628.06,243.31c-1.56,3.15-5.34,4.89-9.24,4.15
		c-1.53-0.29-3.02-0.78-4.5-1.31c-2.48-0.9-4.82-0.72-7.24,0.32c-1.81,0.77-3.72,1.48-5.66,1.79c-4.95,0.78-9.04-2.78-9.24-8.69
		c-0.05-1.4,0.62-3.47,2.21-5.16c2.9-3.07,5.49-6.36,7.89-9.82c0.79-1.14,1.73-2.07,2.76-2.76c2.43-1.67,5.39-2.03,8.31-0.98
		c0.32,0.12,0.62,0.23,0.91,0.39v0.01c1.46,0.69,2.65,1.76,3.65,3.05c2.46,3.16,5.23,6.03,8.14,8.76
		C628.98,235.78,629.77,239.91,628.06,243.31z M631.96,227.04c-2.45,1.53-5.36,1.05-7.19-1.17c-1.05-1.28-1.61-2.85-1.69-5.27
		c-0.01-1.99,0.78-4.24,2.77-5.97c2.57-2.23,6.01-1.88,8.12,0.77C636.69,218.83,635.67,224.72,631.96,227.04z"/>
	<path class="st0" d="M700,282.17c-9.84-7.09-15.18-17.5-16.01-31.21h42.21c0.59,7.28,3.81,10.91,9.66,10.91
		c2.15,0,3.96-0.51,5.46-1.52c1.49-1.01,2.24-2.59,2.24-4.74c0-2.98-1.61-5.39-4.83-7.24c-3.22-1.85-8.23-3.96-15.03-6.35
		c-8.11-2.86-14.82-5.66-20.12-8.41c-5.31-2.74-9.87-6.74-13.68-11.98c-3.82-5.25-5.67-11.98-5.55-20.21
		c0-8.23,2.12-15.23,6.35-21.02c4.23-5.78,10.02-10.17,17.35-13.15c7.33-2.98,15.59-4.47,24.77-4.47c15.5,0,27.81,3.58,36.94,10.73
		c9.12,7.15,13.92,17.23,14.4,30.23h-42.75c-0.12-3.58-1.01-6.14-2.68-7.69c-1.67-1.55-3.7-2.33-6.08-2.33
		c-1.67,0-3.04,0.57-4.11,1.7c-1.07,1.13-1.61,2.71-1.61,4.74c0,2.86,1.58,5.22,4.74,7.07c3.16,1.85,8.2,4.09,15.11,6.71
		c7.99,2.98,14.58,5.84,19.77,8.59c5.19,2.74,9.69,6.56,13.5,11.45c3.81,4.89,5.72,11.03,5.72,18.42c0,7.75-1.91,14.7-5.72,20.84
		c-3.82,6.14-9.36,10.94-16.63,14.4c-7.28,3.46-15.92,5.19-25.94,5.19C722.32,292.82,709.83,289.27,700,282.17z"/>
	<path class="st0" d="M177.78,84.09c8.82-2.85,15.59-7.58,20.29-14.13c4.73-6.55,7.06-14.08,7.06-22.53c0-7.87-1.8-14.93-5.46-21.19
		c-3.63-6.26-9.09-11.23-16.34-14.86c-7.28-3.63-16.05-5.46-26.31-5.46H98v126.64h39.71V87.14h0.17l23.8,45.43h43.65L177.78,84.09z
		 M150.64,19.62c2.9-2.17,6.55-1.53,8.62,1.46c2.75,3.95,2.05,10.3-1.51,13.57c-3.19,2.95-7.45,2.34-9.67-1.39
		c-0.97-1.63-1.39-3.41-1.36-5.31C146.86,24.63,147.89,21.69,150.64,19.62z M131.35,21.32c2.12-3.31,6.09-3.95,9.13-1.44
		c3.7,3.04,4.7,9.4,2.14,13.47c-2.39,3.75-6.75,4.24-9.87,1.07c-2.05-2.09-2.9-4.68-2.95-6.89C129.79,24.88,130.25,23,131.35,21.32z
		 M118.29,44.75c-1.05-1.58-1.51-3.36-1.78-5.31c0.41-1.36,0.66-2.83,1.29-4.07c2.14-4.19,7.26-4.77,10.43-1.22
		c2.39,2.7,3.02,5.87,1.95,9.31c-0.78,2.51-2.41,4.31-5.16,4.7C122.04,48.58,119.87,47.14,118.29,44.75z M164.74,65.36
		c-1.88,3.43-6.14,5.24-10.45,4.24c-1.71-0.39-3.36-0.97-4.97-1.63c-2.73-1.12-5.33-1-8.09,0.05c-2.05,0.8-4.21,1.51-6.38,1.78
		c-5.55,0.66-9.96-3.48-9.94-10.08c0-1.56,0.83-3.82,2.68-5.65c3.34-3.31,6.36-6.87,9.18-10.62c0.29-0.39,0.61-0.76,0.93-1.1
		c1.51-1.61,3.29-2.68,5.21-3.14c1.51-0.37,3.12-0.39,4.73,0c0.54,0.12,1.1,0.29,1.63,0.51c2.07,0.83,3.68,2.27,4.94,4.04
		c2.63,3.61,5.58,6.92,8.72,10.08c0.39,0.41,0.76,0.83,1.07,1.29C166.23,58.18,166.52,62.12,164.74,65.36z M169.76,47.38
		c-1.63,0.95-3.43,1.1-5.02,0.56c-1.12-0.37-2.14-1.1-2.95-2.14c-1-1.32-1.56-2.85-1.66-5.09c-0.02-0.27-0.02-0.56-0.02-0.85
		c0.07-2.22,1.05-4.7,3.34-6.53c2.95-2.39,6.77-1.88,9.01,1.17C175.36,38.42,174,44.95,169.76,47.38z"/>
	<path class="st0" d="M110.92,240.21c-2.02-1.21-4.27-1.49-6.58-1.38c-0.67,0.03-0.92,0.4-0.71,1.07c0.61,1.96,1.22,3.92,1.8,5.89
		c0.28,0.96,0.93,1.39,1.94,1.45c-1.36-0.46-1.52-1.67-1.84-2.79c-0.48-1.67-0.98-3.33-1.51-5.11c2.37-0.21,4.66,0,6.61,1.24
		c0.85,0.54,1.23,1.82,1.74,2.63C112.65,242.22,112.19,240.96,110.92,240.21z M112.28,164.92c0.56,1.21,0.47,2.36-0.52,3.77
		c-1.7,2.41-1.47,4.14,0.3,6.08c3.61,3.94,4.9,8.58,4.39,13.82c-0.02,0.25,0,0.5,0,0.74h0.37c0.06-0.94,0.19-1.88,0.16-2.82
		c-0.03-0.89,0.3-1.44,1.06-1.91c1.47-0.91,3.02-1.52,4.64-1.93v-17.75H112.28z M27.38,262.59c3.89-0.21,6.89,1.54,9.31,4.58
		C35.23,263.48,31.42,260.88,27.38,262.59z M42.58,265.73c0.65-0.81,1.52-1.4,2.63-1.36h0.02v-8.89c-0.46-0.07-0.95-0.07-1.46,0.03
		c-0.97,0.17-1.92,0.45-2.86,0.73c-1.74,0.52-3.46,1.09-5.2,1.61c-1.91,0.57-3.7,0.3-5.42-0.71c-2.25-1.32-4.07-3.06-5.51-5.22
		c-0.03-0.04-0.06-0.08-0.09-0.12c-0.01-0.01-0.02,0-0.04-0.01c0.03,0.58,1.34,2.88,2.41,4.09c1.07,1.21,2.31,2.19,3.77,2.93
		c-1.91-0.17-3.73,0.09-5.4,1.03c-1.68,0.95-2.88,2.29-3.32,4.28c0.42-0.5,0.78-0.99,1.2-1.41c2.87-2.81,6.57-3.26,10.15-1.24
		c2.99,1.69,4.71,4.31,5.37,7.63c0.32,1.64,0.53,3.3,0.79,4.96c0.13,0.82,0.32,1.63,0.81,2.37c0.64-0.3,1.27-0.6,1.9-0.89
		c0.97-0.44,1.92-0.9,2.9-1.32v-4.62c-0.39,0.41-0.69,0.9-0.95,1.44c-0.38,0.78-0.7,1.59-1.08,2.37c-0.11,0.22-0.28,0.43-0.49,0.56
		c-0.48,0.31-0.99,0.57-1.54,0.88c-0.16-1.15-0.31-2.24-0.46-3.32c-0.07-0.49-0.14-0.98-0.26-1.45c-0.14-0.55-0.14-1.04,0.21-1.54
		C41.33,267.62,41.88,266.61,42.58,265.73z M45.13,279.57c-1.77,0.8-3.56,1.57-5.34,2.34c-2.32,1.01-4.2-0.24-4.85-2.02
		c-0.11-0.29-0.23-0.58-0.38-0.86c-0.64-1.21-1.85-1.54-3.02-0.81c-0.6,0.37-1.05,0.89-1.22,1.59c-0.16,0.65-0.01,1.05,0.58,1.37
		c2.69,1.48,5.41,2.94,8.37,3.81c1.98,0.58,3.98,0.8,5.97,0.45v-5.92C45.2,279.54,45.17,279.55,45.13,279.57z M27.38,262.59
		c3.89-0.21,6.89,1.54,9.31,4.58C35.23,263.48,31.42,260.88,27.38,262.59z M119.04,191.86c-1.56,0.75-2.84,1.84-3.11,3.77
		c-0.1,0.67-0.55,1.28-0.82,1.92c-0.47,1.11-1.06,2.18-1.37,3.34c-0.35,1.3-0.48,2.67-0.65,4.01c-0.52,4.05-1.27,8.04-3.18,11.72
		c-0.21,0.41-0.17,1-0.11,1.5c0.38,2.95,0.77,5.9,1.21,8.84c0.41,2.76,0.6,5.57,1.83,8.16c1.08,2.29,1.61,4.69,1.56,7.25
		c-0.12,5.91-5.22,9.59-10.83,7.83c-0.61-0.19-1.4-0.17-2,0.04c-1.44,0.5-2.84,1.14-4.22,1.8c-1.02,0.49-1.54,0.08-1.7-0.86
		c-0.24-1.37-0.44-2.76-0.49-4.14c-0.02-0.55,0.27-1.21,0.63-1.66c0.79-0.99,1.7-1.89,2.6-2.78c0.86-0.85,1.16-1.75,0.75-2.96
		c-0.59-1.74-1.69-3-3.18-4.04c-2.73-1.9-5.17-4.02-5.82-7.58c-0.32-1.73-2.06-2.76-3.92-2.56c-0.91,0.1-1.83,0.24-2.71,0.49
		c-1.73,0.49-4.06-0.96-3.98-3.21c0.06-1.78-0.31-3.57-0.38-5.35c-0.04-1.04-0.03-2.13,0.28-3.1c0.19-0.58,0.98-1.31,1.54-1.34
		c0.78-0.05,1.79,0.28,1.98,1.34c0.2,1.09,0.35,2.19,0.42,3.3c0.07,1.02,0.02,2.04,0.02,3.07c0.16,0.02,0.31,0.05,0.47,0.07
		c0.21-1.07,0.42-2.13,0.63-3.2c0.11,0.08,0.33,0.26,0.77,0.6c-0.13-0.74-0.17-1.22-0.31-1.67c-0.37-1.17,0.27-2.07,1.54-2.09
		c0.16,0,0.32-0.05,0.46-0.12c0.21-0.1,0.4-0.25,0.41-0.26c0.21-1.78,0.18-3.55,0.66-5.18c0.65-2.21,1.7-4.3,2.57-6.44
		c0.14-0.33,0.18-0.73,0.39-1c2.26-3.07,4.47-6.17,6.83-9.15c1.38-1.74,2.14-3.44,1.02-5.57c-0.1-0.19-0.13-0.42-0.18-0.63
		c-1.55-5.69-0.39-10.66,3.9-14.81c1.35-1.31,2.71-2.62,4.01-3.99c0.28-0.3,0.58-0.9,0.46-1.21c-0.14-0.36-0.28-0.72-0.43-1.08
		h-0.49c0.14,0.34,0.27,0.67,0.41,1c0.1,0.25-0.01,0.68-0.18,0.91c-0.66,0.86-1.38,1.67-2.12,2.55c-0.75-1.71-1.33-3.12-1.95-4.46
		H82.98v45.61H45.23v-45.61H5.52v126.64h39.71v-1.65c-0.76,0.09-1.54,0.12-2.34,0.1c-3.37-0.09-6.51-1.14-9.59-2.42
		c-0.58-0.24-1.17-0.47-1.75-0.7c-1.7-0.85-3.39-1.69-5.09-2.54c-0.04-0.05-0.08-0.1-0.13-0.13c-0.79-0.46-1.6-0.91-2.38-1.39
		c-2.38-1.46-4.66-3.05-6.74-4.93c-3.19-2.89-5.75-6.22-7.06-10.39c-0.72-2.27-1.07-4.6-0.87-6.98c0.37-4.32,2.3-7.91,5.27-10.99
		c1.28-1.33,2.65-2.59,3.93-3.92c1.46-1.51,2.41-3.3,2.71-5.4c0.2-1.39,0.1-2.77-0.03-4.15c-0.18-1.92-0.25-3.83,0.18-5.73
		c0.17-0.74,0.4-1.47,0.61-2.2c0.43-0.86,0.86-1.72,1.29-2.58c0.4-0.58,0.79-1.18,1.22-1.74c1.14-1.5,2.3-2.99,3.54-4.6
		c0.23,0.77,0.45,1.43,0.62,2.1c0.16,0.65,0.29,1.32,0.41,1.98c0.04,0.2,0.1,0.32,0.34,0.33c1.9,0.1,3.51,0.85,4.84,2.2
		c0.46,0.47,1.02,0.77,1.68,0.8c1.02,0.05,1.63,0.52,1.8,1.57c0.08,0.48,0.26,0.95,0.37,1.43c0.14,0.61-0.04,1.18-0.23,1.75
		c-0.37,1.09-1.04,1.88-2.15,2.3c-0.87,0.33-1.63,0.86-2.17,1.65c-0.68,1-0.76,2.11-0.39,3.2c0.34,1.03,0.82,2.02,1.28,3
		c0.69,1.46,1.33,2.93,1.59,4.54c0.21,1.24,0.23,2.48-0.02,3.71c-0.06,0.29-0.03,0.42,0.3,0.52c1.01,0.29,2.04,0.34,3.08,0.29
		c1.66-0.09,3.32-0.25,4.97-0.18c0.3,0.01,0.6,0.03,0.89,0.07v-7.78c-0.97,1.41-1.88,2.87-2.9,4.23c-0.49,0.66-1.18,1.2-1.84,1.7
		c-0.85,0.65-1.86,0.73-2.95,0.54c0.43-3.39-0.8-6.33-2.42-9.11c0.43,0.22,0.86,0.44,1.3,0.65c1.28,0.6,2.47,0.31,3.49-0.52
		c1.3-1.06,2.53-2.22,3.76-3.36c1.34-1.24,2.61-2.56,4.22-3.47c1-0.56,2.04-1.03,3.22-1.05c0.81-0.01,1.57,0.17,2.21,0.69
		c0.76,0.61,1.08,1.38,0.81,2.34c-0.26,0.95-0.89,1.53-1.87,1.69c-0.17,0.03-0.34,0.05-0.5,0.04c-1.57-0.03-2.84,0.64-3.79,1.81
		c-0.86,1.06-1.61,2.2-2.39,3.32h37.4v49.37h39.71V190.4C121.44,190.78,120.21,191.29,119.04,191.86z M85.74,230.94
		c-1.39,0.64-2.55-0.05-3.65-0.76c-0.23-0.15-0.38-0.73-0.29-1.01c0.54-1.64,1.17-3.24,3.38-3.07c0.34,0.03,0.69-0.13,1.03-0.16
		c2.05-0.17,3.25,0.81,3.59,3.05C88.48,229.62,87.12,230.3,85.74,230.94z M27.38,262.59c3.89-0.21,6.89,1.54,9.31,4.58
		C35.23,263.48,31.42,260.88,27.38,262.59z M27.38,262.59c3.89-0.21,6.89,1.54,9.31,4.58C35.23,263.48,31.42,260.88,27.38,262.59z"
		/>
</g>
</svg>
