<?xml version="1.0" encoding="utf-8"?>
<!-- Generator: Adobe Illustrator 25.2.1, SVG Export Plug-In . SVG Version: 6.00 Build 0)  -->
<svg version="1.1" id="Capa_1" xmlns="http://www.w3.org/2000/svg" xmlns:xlink="http://www.w3.org/1999/xlink" x="0px" y="0px"
	 viewBox="0 0 100 100" style="enable-background:new 0 0 100 100;" xml:space="preserve">
<style type="text/css">
	.st0{fill:#FFFFFF;}
</style>
<path class="st0" d="M50,99.97C22.6,100.01,0.26,77.74,0,50.49c-0.26-27.57,22-50.36,49.75-50.46C77.51-0.08,100.02,22.39,100,50
	C99.98,77.57,77.58,99.96,50,99.97z M75.37,31.46c-2.27-0.04-4.39-0.46-6.32-1.48c-4.07-2.17-6.81-5.45-7.92-9.98
	c-0.17-0.7-0.48-0.87-1.15-0.86c-1.97,0.04-3.94,0.01-5.91,0.02c-1.06,0-1.07,0-1.07,1.05C53,33.93,53,47.66,53,61.39
	c0,3.74-2.51,7.17-6.11,8.29c-4.26,1.32-7.87-0.44-10-3.31c-2.19-2.96-2.26-6.3-0.41-9.47c1.86-3.19,4.78-4.66,8.5-4.42
	c0.62,0.04,1.24,0.17,1.93,0.27c0-0.29,0-0.5,0-0.7c0.01-2.95,0.02-5.91,0.02-8.86c0-1.13,0-1.13-1.13-1.26
	c-10.24-1.19-20.59,6.78-21.17,18.37c-0.3,6,1.67,11.18,6.21,15.27c4.56,4.11,9.89,5.9,15.95,5.1c9.92-1.31,17-9.53,16.99-19.53
	c-0.01-6.73,0-13.46,0-20.2c0-0.29,0-0.59,0-1.06c3.64,2.46,7.39,3.96,11.59,4.46C75.37,40.04,75.37,35.79,75.37,31.46z"/>
</svg>
