<?xml version="1.0" encoding="utf-8"?>
<!-- Generator: Adobe Illustrator 25.2.1, SVG Export Plug-In . SVG Version: 6.00 Build 0)  -->
<svg version="1.1" id="Capa_1" xmlns="http://www.w3.org/2000/svg" xmlns:xlink="http://www.w3.org/1999/xlink" x="0px" y="0px"
	 viewBox="0 0 488.17 612" style="enable-background:new 0 0 488.17 612;" xml:space="preserve">
<style type="text/css">
	.st0{clip-path:url(#SVGID_2_);fill:#E4ECEE;}
	.st1{clip-path:url(#SVGID_2_);}
	.st2{fill:#E4ECEE;}
	.st3{font-family:'Poppins-Regular';}
	.st4{font-size:52.7262px;}
</style>
<g>
	<defs>
		<rect id="SVGID_1_" x="26.4" y="9.47" width="437.04" height="582.13"/>
	</defs>
	<clipPath id="SVGID_2_">
		<use xlink:href="#SVGID_1_"  style="overflow:visible;"/>
	</clipPath>
	<path class="st0" d="M119.89,412.77l79.23-203.13l79.22,203.13H119.89z M244.92,9.47L26.4,520.83h51.68l37.06-85.96
		c0,0,24.53-8.11,48.69,15.96l0.09,0.09c0,0,0.03-0.03,0.07-0.06c1.14-0.85,16.58-12.51,35.14-12.51c18.52,0,34.3,8.51,36.99,12.16
		c0.13,0.16,0.23,0.29,0.29,0.42c0,0,0.09-0.2,0.33-0.52c2-2.76,12.82-15.53,41.61-15.53l31.63,85.96h153.46L244.92,9.47z"/>
	<g class="st1">
		<text transform="matrix(1 0 0 1 26.3965 591.2256)" class="st2 st3 st4">Antonio de Anda</text>
	</g>
</g>
</svg>
