<?xml version="1.0" encoding="utf-8"?>
<!-- Generator: Adobe Illustrator 25.2.1, SVG Export Plug-In . SVG Version: 6.00 Build 0)  -->
<svg version="1.1" id="Capa_1" xmlns="http://www.w3.org/2000/svg" xmlns:xlink="http://www.w3.org/1999/xlink" x="0px" y="0px"
	 viewBox="0 0 361.02 612" style="enable-background:new 0 0 361.02 612;" xml:space="preserve">
<style type="text/css">
	.st0{clip-path:url(#SVGID_2_);fill:#E4ECEE;}
</style>
<g>
	<defs>
		<rect id="SVGID_1_" x="6.02" y="3.95" width="348.58" height="597.85"/>
	</defs>
	<clipPath id="SVGID_2_">
		<use xlink:href="#SVGID_1_"  style="overflow:visible;"/>
	</clipPath>
	<path class="st0" d="M49.99,536.09c1.04,4.26,2.33,8.34,2.98,12.51c0.84,5.38,1.26,10.82,1.65,16.24c0.11,1.4-0.48,2.89-0.98,4.27
		c-0.42,1.2-1.15,2.29-1.75,3.44c-2.26,4.37-8.02,6.78-12.8,5.37c-5.41-1.59-8.64-5.39-9.18-10.98c-0.16-1.65-0.18-3.36,0.09-4.98
		c0.22-1.35,1.27-2.23,2.75-2.32c1.81-0.12,2.62,1.21,2.63,3.28c0.02,2.07,0.08,4.35,0.91,6.19c1.66,3.7,6.51,4.56,9.49,2.08
		c1.83-1.51,3.22-4.01,3.19-6.64c-0.08-9.22-1.57-18.23-4.21-27.06c-0.33-1.06-0.79-1.26-1.89-1.23c-4.15,0.13-8.3,0.08-12.46,0.07
		c-1.24,0-2.48,0-3.7-0.14c-1.18-0.14-2.04-0.77-2.16-2.07c-0.12-1.27,0.53-2.19,1.68-2.47c1.77-0.42,3.59-0.82,5.39-0.86
		c8.97-0.22,17.92-0.28,26.89-0.46c2.22-0.05,4.44-0.33,6.66-0.48c0.44-0.03,0.88-0.04,1.34-0.03c1.97,0.06,3.24,1.09,3.3,2.69
		c0.07,1.62-1.13,2.85-3.22,2.96c-4.94,0.26-9.88,0.42-14.83,0.61C51.14,536.12,50.52,536.09,49.99,536.09"/>
	<path class="st0" d="M228.94,568.36c3.97-1.33,7.64-2.61,10.18-6.03c2.3-3.12,3.6-6.68,5.07-10.2c1.33-3.15,1.38-6.38,0.15-9.42
		c-2.65-6.56-4.78-9.08-11.44-8.35c-0.05,0.01-0.11,0.01-0.15,0.01c-1.61-0.24-2.19,0.56-2.26,2.07c-0.14,3.12-0.43,6.22-0.56,9.34
		c-0.24,6.29-0.41,12.58-0.63,18.86C229.26,565.82,229.08,566.99,228.94,568.36 M234.46,528.73c7.41-0.88,12.11,4.1,15,11.25
		c1.83,4.53,2.04,9.2,0.18,13.9c-2.04,5.18-3.96,10.43-8.22,14.27c-1.52,1.37-3.26,2.6-5.12,3.42c-3.24,1.45-6.63,2.56-9.98,3.77
		c-1.15,0.41-2.49-0.2-2.89-1.42c-0.29-0.86-0.41-1.84-0.36-2.76c0.36-7.27,0.76-14.53,1.17-21.81c0.27-4.94,0.51-9.88,0.87-14.82
		c0.26-3.52,2.25-5.45,5.78-5.79C232.07,528.64,233.27,528.73,234.46,528.73"/>
	<path class="st0" d="M117.29,560.55c-4.28,0.76-6.56,6.57-4.19,9.61c0.63,0.81,1.53,1.18,2.28,0.38c0.81-0.86,1.83-1.92,1.96-2.98
		C117.61,565.3,117.34,562.99,117.29,560.55 M119.13,575.04c-0.53,0.27-0.79,0.4-1.04,0.54c-3.79,2.07-7.97,0.83-10-2.98
		c-2.15-4.05-1.26-10.49,1.96-13.76c1.73-1.74,3.74-2.92,6.36-2.54c0.26,0.04,0.67-0.15,0.85-0.37c0.82-1.03,1.82-1.51,3.13-1.11
		c1.37,0.42,1.9,1.49,2.1,2.79c0.36,2.36,0.79,4.69,1.03,7.05c0.65,6.41,1.37,12.81,1.78,19.23c0.26,4.02-0.87,7.85-2.77,11.42
		c-4.21,7.94-16.21,8.81-21.3,1.41c-2.2-3.19-1.94-6.87-0.86-10.44c0.37-1.24,1.45-1.87,2.83-1.64c1.29,0.21,1.81,1.17,1.92,2.33
		c0.16,1.62,0.11,3.27,0.32,4.88c0.31,2.42,3.64,4.75,6.05,4.35c3.65-0.6,6.07-2.49,7.19-6.18
		C120.15,585.12,119.52,580.23,119.13,575.04"/>
	<path class="st0" d="M307.7,555.72c-1.88,1.64-3.58,3.25-4.18,5.67c-0.14,0.56-0.18,1.18-0.08,1.75c0.2,1.28,1.14,1.9,2.75,1.86
		c1.28-0.03,2.49-0.19,2.76-1.83C309.35,560.61,308.99,558.2,307.7,555.72 M312.86,568.67c-1.96,0.64-3.76,1.54-5.65,1.8
		c-6.35,0.92-10.75-4.33-8.88-10.47c1.03-3.4,3.35-5.79,6.44-7.44c0.26-0.14,0.56-0.29,0.83-0.29c1.11,0.01,1.79-0.43,2.47-1.38
		c1.01-1.4,3.16-1.23,4.24,0.21c0.46,0.61,0.74,1.39,1.03,2.12c0.91,2.29,1.65,4.66,2.68,6.9c3.46,7.58,3.92,15.39,1.73,23.34
		c-1.31,4.75-4.18,8.55-8.06,11.48c-3.4,2.58-7.15,2.95-11.04,1.01c-4.09-2.04-6.25-5.41-6.56-9.9c-0.2-2.89,2.19-4.47,4.7-3.18
		c0.34,0.18,0.66,0.92,0.58,1.31c-0.4,1.79,0.85,4.64,2.76,6.01c2.14,1.53,4.22,1.78,6.01,0.22c1.74-1.52,3.43-3.24,4.58-5.2
		C313.83,579.96,313.69,574.2,312.86,568.67"/>
	<path class="st0" d="M160.82,550.75c5.07-0.02,9.27-1.78,13.23-4.22c0.44-0.27,0.88-0.95,0.88-1.44c-0.02-2.1-0.01-4.25-0.38-6.33
		c-0.35-2-1.94-3-3.97-2.73c-1.6,0.21-3.26,0.51-4.74,1.14c-1.29,0.55-2.98,1.39-3.43,2.53
		C161.05,543.15,161.03,546.91,160.82,550.75 M161.08,556.63c0.27,3.44,0.55,6.83,0.81,10.22c0.2,2.47,0.45,4.94,0.57,7.41
		c0.11,2.08-0.68,3.39-1.96,3.55c-1.31,0.15-2.02-0.78-2.42-3.14c-1.36-8.13-2.2-16.31-2.22-24.53c0-3.79,0.74-7.58,1.34-11.34
		c0.35-2.2,1.78-3.78,3.66-5.02c2.7-1.79,5.7-2.7,8.87-3.17c5.35-0.79,9.72,2.56,10.66,8.34c0.36,2.23,0.34,4.56,0.23,6.82
		c-0.13,2.75-1.76,4.64-4.07,6c-4.5,2.63-9.26,4.49-14.56,4.69C161.76,556.47,161.53,556.54,161.08,556.63"/>
	<path class="st0" d="M132.09,560.71c1.19,0.07,2.41,0.17,3.63,0.21c0.81,0.03,1.63,0.02,1.73-1.13c0.12-1.19-0.6-2.61-1.44-2.8
		C133.88,556.53,131.92,558.29,132.09,560.71 M131.91,566.08c0.95,2.21,1.62,4.26,2.68,6.09c0.73,1.23,2.2,1.55,3.57,0.93
		c1.4-0.63,2.72-1.43,4.06-2.16c1.13-0.6,2.38-0.81,3.32,0.11c0.6,0.57,0.86,1.58,1.04,2.43c0.08,0.43-0.24,1.14-0.61,1.44
		c-3.04,2.47-6.26,4.6-10.48,3.82c-2.8-0.51-4.93-2-6.21-4.59c-2.45-4.96-3.23-10.19-2.25-15.61c0.91-4.97,6.7-8.03,11.41-6.19
		c2.73,1.06,4.88,5.62,4.23,8.93c-0.62,3.16-3.05,5.04-6.57,5.04C134.88,566.31,133.65,566.19,131.91,566.08"/>
	<path class="st0" d="M64.79,566.94c0.02,3.09,0.51,3.8,3.4,4.96c0.19,0.07,0.37,0.16,0.55,0.24c2.56,1.19,5.28,0.02,5.76-2.78
		c0.29-1.75,0.09-3.63-0.16-5.41c-0.47-3.33-0.81-3.5-4.13-3.05C66.33,561.42,64.76,563.17,64.79,566.94 M80.51,567.5
		c0.08,6.21-4.34,11.32-10.24,10.84c-5.63-0.46-9.54-2.56-10.5-9.42c-0.25-1.73-0.25-3.59,0.11-5.29c1.04-5.06,4.22-7.59,10.15-8.38
		c1.07-0.15,2.18-0.2,3.26-0.14c2.61,0.14,4.63,1.43,5.47,3.87c0.93,2.74,1.43,5.61,2.12,8.43
		C80.76,567.44,80.63,567.46,80.51,567.5"/>
	<path class="st0" d="M325.45,555.21c1.31-0.59,2.4-1.18,3.56-1.57c2.53-0.86,4.55-0.26,6.26,1.77c1.76,2.09,2.58,4.58,2.79,7.24
		c0.19,2.46,0.19,4.95,0.25,7.43c0.01,0.39-0.06,0.79-0.14,1.18c-0.29,1.49-1.37,2.43-2.76,2.41c-1.36-0.02-2.55-1-2.67-2.49
		c-0.2-2.33-0.13-4.66-0.34-6.98c-0.12-1.37-0.47-2.72-0.86-4.04c-0.37-1.28-1.37-1.36-2.1-0.48c-0.77,0.91-1.53,2.04-1.69,3.16
		c-0.29,1.89-0.12,3.85-0.12,5.78c-0.01,0.55,0.08,1.09,0.03,1.63c-0.15,1.48-1.15,2.6-2.49,2.75c-1.46,0.17-2.61-0.51-3.05-1.84
		c-0.48-1.44-0.74-2.98-0.94-4.49c-0.54-3.87-0.99-7.76-1.47-11.64c-0.21-1.69,0.57-3.06,1.95-3.4c1.46-0.37,2.67,0.39,3.29,2.05
		C325.12,554.17,325.28,554.68,325.45,555.21"/>
	<path class="st0" d="M275.56,559.02c1.56,0.23,3.05,0.32,4.48,0.67c3.79,0.96,6.33,4.05,6.69,8c0.34,3.69-1.4,6.88-4.6,8.44
		c-3.5,1.69-7.28,1.12-10.15-1.64c-0.57-0.54-1.05-1.2-1.4-1.89c-0.57-1.12-0.33-2.22,0.76-2.85c1.02-0.58,2.07-0.49,3.16,0.22
		c1.04,0.67,2.23,1.26,3.43,1.48c1.43,0.27,2.78-0.77,3.12-1.99c0.43-1.53-0.19-3.47-1.53-4.17c-0.85-0.45-1.85-0.67-2.81-0.86
		c-1.74-0.36-3.54-0.48-5.25-0.96c-3.38-0.95-4.1-3.9-1.52-6.3c1.02-0.95,2.39-1.52,3.6-2.26c0.29-0.17,0.63-0.28,0.89-0.49
		c2.7-2.2,5.71-2.26,8.83-1.17c1.65,0.58,2.38,2.12,1.89,3.55c-0.46,1.37-1.84,1.81-3.62,1.28c-0.99-0.29-2.01-0.53-3.03-0.62
		C277.28,557.34,276.18,557.7,275.56,559.02"/>
	<path class="st0" d="M179.19,563.65c-1.71,0.29-2.62,1.02-2.97,2.25c-0.37,1.27-0.63,2.59-0.8,3.9c-0.06,0.49,0.21,1.45,0.43,1.48
		c0.56,0.07,1.33-0.08,1.74-0.45c0.52-0.46,0.95-1.2,1.06-1.88C178.93,567.26,179.01,565.53,179.19,563.65 M182.34,573.78
		c-1.96,2.15-4.39,3.57-7.63,2.87c-2.83-0.61-4.52-2.54-4.56-5.43c-0.04-2.76,0.51-5.42,1.81-7.88c1.6-2.98,3.65-3.95,7.08-3.43
		c0.28,0.04,0.64-0.13,0.91-0.28c2.07-1.26,3.97-0.49,4.47,1.88c0.37,1.79,0.57,3.61,1,5.38c0.54,2.18,1.79,3.78,4.14,4.15
		c0.72,0.12,1.47-0.03,2.2-0.13c1.62-0.22,2.82,0.35,3.29,1.61c0.53,1.39-0.05,2.83-1.53,3.62c-1.86,1-3.86,1.04-5.77,0.33
		C185.95,575.78,184.25,574.74,182.34,573.78"/>
	<path class="st0" d="M259.1,559c-0.15-0.2-0.29-0.4-0.44-0.59c-0.74,0.61-1.47,1.23-2.21,1.84c0.11,0.14,0.21,0.28,0.33,0.42
		C257.55,560.11,258.33,559.56,259.1,559 M254.49,565.7c-0.78,2.88-0.16,3.88,2.61,3.92c1.51,0.01,3.02-0.34,4.54-0.54
		c0.54-0.07,1.06-0.25,1.6-0.27c1.26-0.03,2.22,0.52,2.64,1.75c0.41,1.2,0.04,2.24-0.92,3.06c-3.01,2.57-11.43,2.27-14.26-0.51
		c-1.38-1.36-2.04-3.07-2.06-4.96c-0.05-4.9,1.51-9.27,5.04-12.75c2.09-2.06,4.62-3.06,7.58-1.79c3.2,1.37,4.35,5.01,2.44,7.9
		c-1.83,2.78-4.52,4.04-7.79,4.18C255.44,565.72,254.96,565.7,254.49,565.7"/>
	<path class="st0" d="M202.56,562.9c-1.66,0.22-3.32,0.46-4.98,0.66c-1.93,0.23-2.88-0.25-3.22-1.57c-0.31-1.26,0.35-2.49,2.08-2.94
		c2.66-0.66,5.4-1.17,8.13-1.43c1.95-0.19,3.21,1.08,3.64,3.02c0.81,3.55-0.79,6.35-2.8,9.02c-0.35,0.47-0.73,0.91-1.35,1.66
		c0.91-0.08,1.45-0.17,2-0.2c2.08-0.09,4.16-0.28,6.23-0.22c1.93,0.05,3.08,1.34,3.02,2.97c-0.07,1.56-1.24,2.49-3.17,2.68
		c-3.48,0.35-6.96,0.79-10.45,1.13c-1.02,0.09-2.09,0.12-3.08-0.11c-2.94-0.65-3.93-3.19-2.18-5.64c1.28-1.81,2.81-3.45,4.16-5.23
		c0.82-1.07,1.53-2.25,2.28-3.39C202.77,563.18,202.67,563.03,202.56,562.9"/>
	<path class="st0" d="M89.28,559.59c1.55-0.94,3-1.86,4.5-2.72c2.4-1.34,5-1.6,7.63-1.03c1.06,0.22,2.12,0.85,2.97,1.55
		c1.09,0.88,1.2,2.43,0.52,3.52c-0.69,1.11-1.99,1.49-3.41,1.02c-5.39-1.82-9.63,1.28-9.5,6.97c0.05,1.94,0.22,3.86,0.21,5.8
		c0,2.02-1,3.27-2.58,3.44c-1.61,0.17-3.01-0.94-3.36-2.92c-0.93-5.21-1.78-10.44-2.61-15.67c-0.25-1.63,0.58-2.88,1.95-3.26
		c1.35-0.36,2.54,0.38,3.18,1.99C88.95,558.72,89.12,559.17,89.28,559.59"/>
	<path class="st0" d="M295.39,571.22c0,0.89,0.08,1.79-0.02,2.66c-0.16,1.39-0.98,2.26-2.38,2.45c-1.33,0.18-2.46-0.64-2.92-2.03
		c-0.07-0.23-0.13-0.47-0.15-0.72c-0.41-4.75-0.83-9.48-1.22-14.22c-0.05-0.59-0.04-1.19,0.02-1.78c0.15-1.65,1.07-2.65,2.42-2.72
		c1.39-0.06,2.39,0.79,2.64,2.47c0.38,2.49,0.64,5.01,0.95,7.51c0.25,2.12,0.49,4.23,0.75,6.35L295.39,571.22z"/>
	<path class="st0" d="M290.49,546.93c1.16,0.02,2.16,1.05,2.13,2.21c-0.03,1.19-1.04,2.13-2.24,2.07c-1.15-0.05-2.04-0.98-2.04-2.13
		C288.32,547.91,289.31,546.91,290.49,546.93"/>
	<path class="st0" d="M24.72,496.2c-0.33-16.97-0.65-33.93-1.02-50.9c-0.56-25.95-1.22-51.91-1.75-77.86
		c-0.51-24.65-0.83-49.29-1.34-73.94c-0.53-26.3-1.24-52.59-1.75-78.9c-0.57-29.43-1.02-58.87-1.46-88.29
		c-0.35-23.33-0.54-46.66-0.94-69.98c-0.21-12.12-0.69-24.25-1.13-36.37c-0.12-3.12-0.51-6.22-0.78-9.54
		c0.54,0.03,1.06,0.07,1.59,0.12c2.33,0.18,4.55,0.38,6.77,0.47c0.23,0.01,0.47,0.02,0.71,0.02c9.8,0.32,19.61,0.6,29.42,0.81
		c10.83,0.23,21.65,0.44,32.48,0.65c2.68,0.05,5.37,0.11,8.05,0.15c4.23,0.08,8.45,0.17,12.68,0.24c10.96,0.2,21.91,0.29,32.87,0.53
		c6.86,0.14,13.73,0.28,20.6,0.44c2.67,0.06,5.35,0.12,8.01,0.18c4.65,0.11,9.31,0.2,13.97,0.32c3.17,0.06,6.34,0.14,9.5,0.21
		c2.17,0.04,4.33,0.08,6.48,0.13c8.68,0.19,17.37,0.35,26.04,0.51c1.85,0.03,3.69,0.07,5.55,0.11c2.26,0.04,4.52,0.08,6.78,0.14
		c9.35,0.18,18.69,0.38,28.04,0.56c1.69,0.04,3.39,0.07,5.08,0.11c4.53,0.09,9.04,0.19,13.56,0.27c5.16,0.09,10.3,0.19,15.45,0.28
		c2.85,0.04,5.71,0.09,8.57,0.15c6.64,0.12,13.28,0.22,19.91,0.34c0.38,0.01,0.76,0.01,1.14,0.02c2.77,0.05,5.55,0.16,8.33,0.22
		c1.17,0.02,2.35,0,3.59,0v0.79c-0.04,2.56-0.06,5.12-0.08,7.67c0,0.44,0,0.87,0,1.32c-0.14,7.1-0.31,14.21-0.34,21.31
		c-0.08,18.2-0.13,36.41-0.07,54.6c0.05,18.2,0.25,36.39,0.36,54.6c0.12,21.72,0.19,43.45,0.31,65.17
		c0.07,13.16,0.19,26.31,0.31,39.47c0.09,12.92,0.21,25.84,0.31,38.75c0.09,14.08,0.18,28.18,0.27,42.27
		c0.11,15.46,0.23,30.92,0.32,46.37c0.11,18.25,0.19,36.5,0.28,54.75c0.07,13.16,0.16,26.3,0.25,39.46L24.72,496.2z M354.59,490.94
		c-0.09-18.66-0.21-37.32-0.32-55.98c-0.08-16.76-0.16-33.52-0.24-50.28c-0.07-14.96-0.16-29.91-0.21-44.87
		c-0.08-18.81-0.15-37.61-0.23-56.41c-0.07-19.85-0.14-39.69-0.23-59.55c-0.08-17.8-0.22-35.61-0.31-53.41
		c-0.08-15.76-0.11-31.53-0.19-47.29c-0.06-13.24-0.12-26.5-0.27-39.75c-0.18-14.42-0.41-28.86-0.75-43.29
		c-0.17-7.36-0.59-14.69-1-22.05c-0.15-2.43-0.31-5.03-3.21-6.16c-0.85-0.32-1.02-0.77-0.92-1.48c0.21-1.4-0.75-2.04-1.89-2.26
		c-1.32-0.25-2.66-0.41-4-0.47c-0.28-0.01-0.57-0.02-0.85-0.02c-4.47-0.08-8.96-0.15-13.44-0.19c-2.76-0.03-5.52-0.07-8.27-0.11
		c-12.23-0.18-24.48-0.4-36.72-0.55c-3.68-0.05-7.36-0.09-11.04-0.14c-2.39-0.03-4.77-0.06-7.16-0.08
		c-10.97-0.14-21.94-0.26-32.92-0.38c-2-0.03-4.02-0.05-6.03-0.07c-5.83-0.07-11.66-0.14-17.5-0.2
		c-13.72-0.15-27.45-0.27-41.17-0.42c-1.72-0.02-3.44-0.03-5.17-0.05c-2.89-0.03-5.78-0.06-8.67-0.09
		c-14.07-0.16-28.14-0.39-42.22-0.58c-5.06-0.07-10.11-0.15-15.17-0.22c-2.52-0.03-5.03-0.06-7.54-0.11
		C80.59,4.39,74.23,4.3,67.87,4.22C56.42,4.1,44.98,3.96,33.52,3.95c-3.68,0-7.38-0.03-11.07,0.14c-1.93,0.07-3.85,0.21-5.77,0.43
		c-1.35,0.15-2.7,0.34-4.04,0.58c-0.32,0.06-0.67-0.02-1.01-0.07C7.87,4.49,7.13,4.88,6.78,8.23c-0.37,3.68-0.72,7.38-0.74,11.07
		C5.99,29.79,6.01,40.28,6.18,50.76c0.18,11.29,0.57,22.59,0.87,33.88c0.28,10.15,0.6,20.29,0.87,30.44
		c0.33,11.24,0.62,22.48,0.93,33.72c0.2,7.68,0.39,15.37,0.57,23.05c0.21,9.59,0.41,19.17,0.59,28.75
		c0.21,10.96,0.4,21.91,0.59,32.88c0.21,11.67,0.4,23.34,0.61,35.02c0.18,9.78,0.39,19.56,0.6,29.32c0.19,9.2,0.39,18.41,0.6,27.61
		c0.18,8.21,0.41,16.41,0.58,24.62c0.22,11.01,0.41,22.02,0.6,33.02c0.11,6.22,0.19,12.44,0.29,18.65
		c0.2,11.25,0.4,22.49,0.61,33.73c0.19,10.4,0.39,20.79,0.58,31.17c0.24,14.32,0.46,28.65,0.75,42.96c0,0.42,0.48,1.14,0.82,1.19
		c2.33,0.35,4.66,0.75,7.01,0.77c0.44,0.01,0.88,0.01,1.34,0.02c12.63,0.13,25.27,0.26,37.9,0.21c27.06-0.11,54.12-0.31,81.17-0.48
		c18.58-0.12,37.16-0.23,55.76-0.4c16.75-0.14,33.5-0.33,50.25-0.51c13.24-0.14,26.47-0.29,39.7-0.46
		c8.73-0.11,17.45-0.28,26.18-0.39c8.48-0.12,16.97-0.18,25.45-0.32c1.23-0.01,2.45-0.03,3.68-0.06c1.24-0.02,2.46-0.69,3.72-0.74
		c1.83-0.07,3.66,0.16,5.63,0.26c0.06-0.67,0.17-1.23,0.17-1.78C354.6,501.57,354.62,496.26,354.59,490.94"/>
	<path class="st0" d="M101.85,395.84c-0.01,2.34-0.04,4.69-0.09,7.04c-0.11,5.88-0.28,11.77-0.4,17.65
		c-0.05,2.48-0.08,4.98-0.14,7.47c-0.03,1.65-0.07,3.32-0.12,4.98c-0.02,0.83-0.04,1.65-0.07,2.49c-0.05,1.65-0.11,3.32-0.19,4.97
		c-0.11,2.29-0.19,4.58-0.31,6.86c-0.28,5.73-0.74,11.43-2.13,17.01c-0.13,0.56-0.28,1.12-0.44,1.67c-0.15,0.56-0.32,1.11-0.49,1.66
		c-0.09,0.29-0.2,0.59-0.31,0.88c-0.21,0.59-0.44,1.17-0.68,1.75c-0.17,0.38-0.34,0.77-0.51,1.14c-0.22,0.48-0.45,0.97-0.68,1.44
		c-0.27,0.57-0.56,1.13-0.83,1.68c-0.31,0.6-1.18,1.09-1.88,1.25c-4.73,1.08-9.46,2.16-14.23,3.02c-0.63,0.12-1.29,0.17-1.96,0.17
		c-0.23,0-0.46,0-0.68-0.02h-0.01c-0.47-0.02-0.93-0.08-1.38-0.17c-0.22-0.04-0.44-0.09-0.65-0.16c-3.29-0.91-6.61-1.32-9.99-1.32
		c-1.55,0.01-2.8-0.48-3.86-1.59c-1.96-2.03-3.92-4.07-5.89-6.08c-0.66-0.67-1.33-1.34-1.99-2.01c-0.35-0.34-0.61-0.71-0.82-1.08
		c-0.05-0.09-0.09-0.19-0.15-0.28c-0.08-0.2-0.17-0.4-0.23-0.6c-0.09-0.31-0.17-0.61-0.23-0.93c-0.04-0.2-0.07-0.41-0.09-0.63
		c-0.06-0.42-0.09-0.84-0.13-1.27c-0.59-7.7-1.16-15.4-1.58-23.1c-0.09-1.72-0.18-3.42-0.26-5.14c-0.2-4.29-0.34-8.58-0.4-12.87
		c-0.03-1.89-0.12-3.8-0.23-5.69c-0.04-0.63-0.08-1.26-0.13-1.89c-0.09-1.26-0.2-2.53-0.32-3.79c-0.59-6.33-1.43-12.64-2-18.96
		c-0.09-0.98-0.17-1.95-0.25-2.93c-0.07-0.98-0.15-1.96-0.22-2.94c-0.07-0.97-0.15-1.95-0.21-2.93c-0.07-0.97-0.16-1.95-0.23-2.93
		c-0.39-4.77-0.81-9.53-1.22-14.29c-0.2-2.38-0.4-4.77-0.59-7.15c-0.18-2.39-0.35-4.78-0.48-7.16c-0.07-1.17-0.15-2.33-0.21-3.48
		c-0.05-1.17-0.12-2.34-0.17-3.49c-0.11-2.33-0.2-4.65-0.28-6.98c-0.17-4.65-0.29-9.31-0.45-13.97c-0.24-7.73-0.37-15.46-0.53-23.19
		c-0.02-1.08,0.07-2.19,0.26-3.25c0.34-1.84,0.87-3.54,2.96-4.26c0.85-0.29,1.69-0.91,2.32-1.58c0.84-0.92,1.62-1.01,2.75-0.58
		c2.42,0.93,4.93,1.47,7.56,0.93c0.46-0.09,0.96-0.02,1.49-0.02v3.12c-0.03,11.06-0.49,22.13,0.04,33.16
		c0.54,10.97,2.16,21.89,3.16,32.85c0.51,5.47,0.59,10.99,1.08,16.47c1.04,11.46,1.56,22.93,1.46,34.45c-0.05,6,0.22,12,0.27,17.99
		c0.06,6.5,1.16,12.8,3.27,18.96c1.24,3.62,3.53,6.57,6.03,9.26c2.7,2.92,6.47,3.24,10.08,2.13c1.05-0.33,1.83-0.89,2.42-1.63
		c0.77-0.98,1.18-2.25,1.35-3.57c0.03-0.33,0.06-0.66,0.08-1c0.15-3.6,0-7.22-0.14-10.83c-0.04-1.19-0.12-2.38-0.2-3.57
		c-0.08-1.19-0.18-2.37-0.25-3.56c-0.04-0.8-0.07-1.59-0.09-2.38c-0.18-9.66-0.36-19.33-0.34-29c0-0.32,0-0.62,0.01-0.93
		c0.01-0.62,0.02-1.23,0.05-1.85c0.02-0.61,0.05-1.23,0.08-1.84c0.03-0.62,0.07-1.24,0.11-1.85c0.08-1.23,0.16-2.46,0.22-3.69
		c0.14-2.46,0.21-4.92,0.07-7.36c-0.85-15.6-0.14-31.24-1.79-46.8c-0.83-7.83-1.15-15.72-1.57-23.59c-0.38-7.13-0.85-14.26-0.8-21.4
		c0.05-6.68-0.46-13.29-1.4-19.85c-0.27-1.88-0.58-3.77-0.92-5.64c-0.34-1.87-0.71-3.75-1.11-5.61c-0.05-0.27-0.12-0.54-0.16-0.8
		c-0.11-0.54-0.2-1.07-0.29-1.61c-0.59-3.48-0.89-7.04-1.14-10.57c-0.26-3.81-0.41-7.63-0.41-11.45c0-1.03,0.01-2.07,0.03-3.1
		c0.16-6.94-0.18-13.83-0.66-20.72c-0.01-0.2-0.02-0.4-0.04-0.6c-0.05-0.84-0.12-1.67-0.18-2.52c-0.01-0.07-0.02-0.15-0.02-0.23
		c-0.07-0.94-0.15-1.86-0.22-2.8c-0.97-12.31-1.56-24.64-1.26-36.99c0.11-4.57,0.03-9.13-0.16-13.68c-0.06-1.27-0.13-2.54-0.19-3.81
		c-0.06-1.26-0.14-2.53-0.22-3.8c-0.07-1.26-0.16-2.54-0.24-3.8c-0.04-0.64-0.09-1.27-0.14-1.9c-0.08-1.26-0.18-2.54-0.27-3.8
		c-0.08-1.26-0.19-2.54-0.27-3.8c-0.2-2.77-0.4-5.54-0.59-8.3c-0.58-8.3-1.12-16.62-1.6-24.92c-0.2-3.44-0.37-6.89-0.53-10.35
		c-0.11-2.3-0.21-4.6-0.33-6.9c-0.05-1.15-0.11-2.3-0.17-3.45c-0.12-2.29-0.25-4.6-0.4-6.89c-0.18-2.63-0.41-5.26-0.65-7.88
		c-0.24-2.63-0.52-5.26-0.79-7.88c-0.17-1.75-0.34-3.49-0.51-5.25c-0.05-0.63-0.11-1.16-0.17-1.61c-0.07-0.52-0.17-0.92-0.31-1.23
		c-0.03-0.08-0.07-0.17-0.12-0.24c-0.03-0.04-0.05-0.07-0.07-0.12c-0.03-0.03-0.05-0.06-0.08-0.09c-0.54-0.59-1.55-0.6-3.65-0.55
		c-8.11,0.2-16.22,0.42-24.33,0.65c-1.16,0.04-2.33,0.18-3.63,0.32c-0.19,0.01-0.38,0.03-0.58,0.04c-0.11-1.6-0.21-3.19-0.32-4.78
		V48.2c-0.11-1.59-0.21-3.18-0.32-4.77c-0.11-1.6-0.21-3.19-0.32-4.8c-0.11-1.61-0.22-3.23-0.33-4.86c3.94-0.11,7.86-0.2,11.79-0.29
		c7.86-0.19,15.71-0.39,23.58-0.59c3.93-0.09,7.85-0.19,11.79-0.28h0.01c0.07,0.75,0.14,1.48,0.2,2.21
		c0.04,0.37,0.07,0.73,0.11,1.08c0.09,1.08,0.2,2.15,0.31,3.2c0.03,0.35,0.07,0.71,0.11,1.05c0.04,0.35,0.08,0.71,0.13,1.05
		c0.28,2.37,0.58,4.75,0.86,7.11c0.6,4.75,1.2,9.49,1.76,14.24c0.27,2.37,0.55,4.75,0.8,7.13c0.37,3.5,0.49,7.04,0.61,10.57
		c0.05,1.18,0.08,2.36,0.15,3.54c0.18,4.08,0.28,8.18,0.46,12.26c0.06,1.36,0.12,2.72,0.2,4.07c0.07,1.36,0.17,2.73,0.26,4.08
		c0.09,1.36,0.2,2.72,0.31,4.07c0.11,1.36,0.21,2.72,0.32,4.07c0.11,1.36,0.21,2.73,0.31,4.08c0.08,1.15,0.17,2.29,0.24,3.44
		c0.16,2.3,0.31,4.6,0.46,6.89c0.22,3.45,0.46,6.89,0.72,10.35c0.18,2.29,0.36,4.59,0.57,6.88c0.28,3.21,0.63,6.42,1,9.64
		c0.38,3.21,0.76,6.41,1.12,9.62c0.24,2.15,0.47,4.29,0.67,6.43c0.41,4.44,0.61,8.9,0.84,13.36c0.07,1.48,0.16,2.97,0.25,4.45
		c0.05,0.8,0.11,1.59,0.16,2.39c0.38,5.58,0.82,11.16,1.16,16.73c0.31,5.23,0.52,10.47,0.78,15.7c0.09,1.75,0.18,3.49,0.28,5.23
		c0.05,0.78,0.09,1.56,0.15,2.34c0.16,2.34,0.33,4.67,0.49,7.01c0.24,3.12,0.47,6.23,0.68,9.34c0.34,5.02,0.67,10.04,1,15.06
		c0.33,5.02,0.65,10.04,0.96,15.06c0.19,3.26,0.39,6.53,0.59,9.8c0.58,9.79,1.14,19.58,1.72,29.37c0.01,0.23,0.02,0.45,0.02,0.67
		c0.01,0.22,0.02,0.45,0.02,0.67c0.12,15.43,0.26,30.86,0.37,46.29v0.01c0.04,6.17,0.08,12.34,0.12,18.51
		c0.02,3.08,0.03,6.17,0.04,9.25C101.88,392.58,101.87,394.2,101.85,395.84 M110.02,317.51c-0.07-7.23-0.6-14.46-1.03-21.68
		c-0.71-11.72-1.52-23.44-2.27-35.16c-0.41-6.23-0.81-12.47-1.23-18.69c-0.53-7.77-1.11-15.52-1.59-23.28
		c-0.44-7.03-0.73-14.06-1.16-21.08c-0.39-6.53-0.88-13.05-1.34-19.58c-0.25-3.56-0.25-7.16-0.82-10.66
		c-1.85-11.32-2.49-22.75-3.35-34.16c-0.48-6.47-0.73-12.96-1.16-19.44c-0.34-5.23-0.88-10.46-1.17-15.7
		c-0.39-6.98-0.85-13.97-0.83-20.94c0.03-7.84-1.53-15.47-2.33-23.21c-0.8-7.83-1.89-15.64-2.89-23.45c-0.14-1.02-0.37-2.07-0.79-3
		c-0.01-0.01-0.01-0.02-0.02-0.03c-0.87-1.94-2.66-2.59-4.66-1.87c-0.32,0.13-0.76,0.35-0.96,0.23c-1.72-1.04-3.53-0.59-5.36-0.54
		c-5.84,0.16-11.69,0.17-17.53,0.29c-8.82,0.21-17.64,0.41-26.46,0.77c-1.88,0.07-3.84,0.54-5.61,1.21
		c-2.07,0.79-2.57,2.54-1.77,4.64c0.18,0.49,0.28,1.05,0.29,1.58c0.06,2.73-0.04,5.46,0.16,8.18c0.34,4.67,0.73,9.35,1.24,14v0.01
		c0.04,0.46,0.11,0.93,0.16,1.38c0.31,2.75,2.25,3.85,4.93,3.16c0.57-0.15,1.17-0.19,1.76-0.21c5.2-0.23,10.39-0.45,15.58-0.65
		c1.08-0.04,2.18-0.03,3.26,0.07c1.46,0.15,2.89,0.49,4.36,0.62c1.15,0.09,2.3,0.03,3.59,0.02c0.14,0,0.28,0,0.43,0
		c0.04,0.22,0.12,0.45,0.14,0.69c0.58,5.82,1.28,11.62,1.69,17.45c0.61,8.75,0.31,17.51,1.15,26.28c1.21,12.52,1.83,25.1,2.62,37.66
		c0.47,7.62,0.98,15.24,1.17,22.86c0.31,11.95-0.38,23.89,0.72,35.83c0.44,4.83,0.63,9.68,0.91,14.53c0.28,4.69,0.6,9.39,0.75,14.09
		c0.21,7.19,0.11,14.39,0.47,21.55c0.25,4.68,0.8,9.4,1.76,13.99c2.03,9.75,3.4,19.51,3.19,29.49c-0.11,4.56-0.11,9.14,0.19,13.68
		c0.85,13.16,2.08,26.28,2.78,39.45c0.71,13.3,1.06,26.64,1.35,39.96c0.11,5.09-0.59,10.2-0.59,15.3c0,10.06,0.2,20.12,0.4,30.19
		c0.06,3.22,0.45,6.43,0.58,9.64c0.14,3.17,0.17,6.34,0.17,9.51c0,0.4-0.53,1.18-0.75,1.15c-0.89-0.09-2.06-0.16-2.6-0.73
		c-1.36-1.48-2.72-3.09-3.55-4.9c-1.25-2.74-2.22-5.59-2.8-8.51c-0.33-1.63-0.53-3.28-0.59-4.96c-0.32-8.27-0.56-16.55-0.58-24.83
		c-0.03-9.57-0.22-19.12-1.06-28.67c-0.83-9.38-1.32-18.79-2.24-28.15c-1.45-14.75-3.19-29.47-2.9-44.34
		c0.13-6.07-0.46-12.17-0.72-18.25c-0.02-0.39,0.08-0.78,0.17-1.16c0.38-1.51,0.08-2.76-0.83-3.53c-0.45-0.38-1.06-0.64-1.83-0.75
		c-5.48-0.76-10.99-1.36-16.49-1.99c-0.46-0.06-1.05-0.02-1.45,0.21c-2.41,1.44-4.85,2.86-7.14,4.49c-0.77,0.56-1.22,1.67-1.64,2.61
		c-1.33,2.93-1.95,6-1.89,9.24c0.17,9.51,0.24,19.03,0.44,28.54c0.09,4.7,0.35,9.41,0.57,14.11c0.2,4.1,0.39,8.22,0.71,12.31
		c0.51,6.47,1.15,12.92,1.66,19.41c0.47,5.97,0.54,12,1.34,17.93c1.67,12.44,2.78,24.9,2.85,37.47c0.03,5.55,0.34,11.09,0.68,16.64
		c0.35,5.68,0.94,11.35,1.36,17.03c0.06,0.84,0.15,1.65,0.27,2.45c0.57,3.5,1.87,6.66,4.72,9.25c2.57,2.34,4.85,4.96,7.29,7.42
		c2.64,2.67,5.82,3.93,9.6,4.05c2.5,0.07,5.03,0.44,7.46,1.06c3.09,0.8,6.15,1.04,9.26,0.41c4.85-0.98,9.68-2.08,14.53-3.06
		c2.44-0.48,4.56-1.58,5.98-3.57c1.49-2.08,2.98-4.26,3.88-6.62c2.38-6.18,3.8-12.65,4.2-19.26c0.48-8.05,0.68-16.12,0.96-24.2
		c0.33-9.81,0.88-19.62,0.86-29.43C110.55,373.42,110.32,345.46,110.02,317.51"/>
	<path class="st0" d="M263.88,356.77c1,28.86,0.75,57.72,0.76,86.57c0,2.16-0.42,4.36-0.98,6.44c-1.06,3.97-2.24,7.91-3.62,11.79
		c-0.71,1.97-1.89,3.79-2.97,5.61c-0.89,1.53-2.37,2.18-4.12,2.29c-2.28,0.15-4.49,0.16-6.63-1.04c-2.41-1.37-5.04-1.22-7.66-0.51
		c-1.72,0.47-3.4,0.78-5.24,0.23c-2.04-0.61-3.12-1.89-3.42-3.85c-1.15-7.34-2.32-14.67-3.32-22.03c-0.41-3.03-0.51-6.11-0.62-9.19
		c-0.19-5.25-0.13-10.5-0.46-15.76c-0.23-3.69-0.95-7.37-1.4-11.05c-1.36-11.06-2.7-22.13-4.02-33.21
		c-0.21-1.86-0.26-3.75-0.29-5.64c-0.13-10.3-0.48-20.62-0.26-30.91c0.15-6.53,1.2-13.03,1.77-19.54c0.75-8.7,0.05-17.32-1.37-25.92
		c-1.13-6.8-1.69-13.67-1.15-20.59c0.17-2.14,1.44-3.43,3.03-4.48c0.4-0.26,1.33-0.19,1.71,0.12c1.46,1.11,2.96,2.24,4.1,3.63
		c0.72,0.88,1.08,2.24,1.18,3.42c0.8,10.27,1.59,20.56,2.21,30.84c0.83,13.81,1.68,27.62,2.23,41.43
		c0.38,9.31,0.06,18.65,0.38,27.96c0.29,8.96,0.83,17.92,1.59,26.86c0.52,6.01,1.74,11.96,2.4,17.97c0.41,3.68,0.02,7.46,0.6,11.11
		c0.55,3.38,1.71,6.73,2.99,9.91c0.64,1.61,2.02,3.06,3.38,4.24c2.42,2.09,5.61,1.67,7.61-0.84c1.77-2.21,2.55-4.85,2.62-7.61
		c0.14-4.45,0.04-8.91,0.04-13.38v-8.03h-0.01c0-2.83,0.04-5.65-0.01-8.47c-0.17-7.76,0.24-15.46,1.02-23.17
		c0.36-3.69,0.38-7.43,0.35-11.15c-0.11-13.24-0.15-26.48-0.52-39.71c-0.18-6.54-1.06-13.04-1.53-19.57
		c-0.6-8.56-1.08-17.11-1.68-25.67c-0.61-8.68-1.35-17.38-1.98-26.07c-0.14-1.93-0.03-3.86-0.16-5.79
		c-0.22-3.61-0.47-7.22-0.82-10.81c-0.34-3.35-0.79-6.69-1.22-10.03c-0.28-2.21-1.55-3.48-3.37-3.49c-1.77-0.01-3.14,1.28-3.47,3.43
		c-0.36,2.2-0.68,4.4-0.94,6.62c-0.32,2.77-1.58,4.85-4.1,6.13c-1.51,0.76-2.95,1.63-4.47,2.35c-2.61,1.23-4.65,0.67-6.6-1.39
		c-1.65-1.74-2.7-3.73-3.37-6.01c-1.08-3.69-2.66-7.3-3.35-11.06c-0.76-4.17-0.74-8.47-1.06-12.71c-0.17-2.33-0.35-4.64-0.48-6.97
		c-0.32-5.78-0.47-11.58-0.95-17.34c-0.62-7.54-1.57-15.05-2.24-22.59c-0.4-4.48-0.67-8.99-0.81-13.48
		c-0.08-3.02,0.25-6.04,0.26-9.06c0.04-12.6-0.04-25.2,0.05-37.79c0.03-4.95,0.45-9.89,0.56-14.85c0.05-2.32-0.01-4.67-0.37-6.96
		c-0.85-5.54-0.94-10.85,1.69-16.08c2.19-4.36,3.8-9.01,5.7-13.51c0.31-0.72,0.69-1.46,1.23-2.02c3.38-3.48,6.76-6.96,10.26-10.32
		c0.67-0.65,1.81-0.91,2.79-1.17c0.97-0.25,1.77,0.07,2.44,0.96c1.07,1.42,2.52,1.77,3.93,1.16c1.45-0.62,2.33-2.17,1.96-3.93
		c-0.59-2.81-1.61-5.56-1.94-8.39c-0.33-2.81-0.08-5.7,0.03-8.56c0.05-1.42,1.09-1.84,2.41-1.83c3.57,0.03,5.68,1.46,6.48,5.02
		c0.71,3.07,1.12,6.24,1.36,9.4c0.39,5.03,0.46,10.09,0.81,15.13c0.21,3.1,0.6,6.21,1.04,9.29c0.83,5.77,1,11.58,0.49,17.36
		c-0.66,7.49-0.62,14.93,0.31,22.4c1.14,9.2,1.98,18.43,3.18,27.62c1.04,8.01,2.56,15.95,3.59,23.97
		c0.87,6.87,1.66,13.79,1.95,20.71c1.05,24.92,1.58,49.86,1.25,74.8c-0.28,21.86-0.96,43.72-1.19,65.58
		C263.32,329.31,263.4,343.05,263.88,356.77 M271.33,249.13c0.28-24.65-0.19-49.29-1.26-73.91c-0.32-7.31-1.14-14.63-2.04-21.9
		c-1-7.96-2.54-15.85-3.56-23.81c-1.31-10.07-2.48-20.18-3.44-30.28c-0.44-4.78-0.61-9.63-0.25-14.4
		c0.55-7.09,0.63-14.15-0.04-21.22c-0.57-5.86-1.09-11.74-1.63-17.6c-0.51-5.58-0.65-11.2-1.6-16.7c-1.05-6.19-4.4-11.3-11.68-11.56
		c-1.58-0.05-3.14,0.09-4.72,0.15l0.04-0.04c-2.64,0.91-4.63,2.54-5.41,5.26c-0.52,1.79-0.97,3.67-0.99,5.52
		c-0.04,3.1,0.28,6.2,0.46,9.49c-3.82-0.02-6.7,2.22-9.35,4.82c-2.37,2.33-4.59,4.8-6.87,7.22c-2.47,2.63-4.33,5.66-5.71,8.99
		c-2,4.8-3.97,9.6-5.9,14.43c-0.34,0.81-0.66,1.71-0.67,2.57c-0.02,3.61,0.04,7.21,0.15,10.82c0.07,3.1,0.37,6.21,0.38,9.31
		c0,2.68-0.39,5.35-0.41,8.02c-0.16,17.76-0.24,35.5-0.39,53.25c-0.04,5.42,0.43,10.76,1.39,16.11c0.85,4.76,1.24,9.63,1.58,14.46
		c0.34,5.04,0.36,10.09,0.56,15.15c0.08,2.12,0.25,4.24,0.42,6.37c0.19,2.37,0.45,4.73,0.63,7.09c0.35,4.55,0.21,9.17,1.08,13.61
		c0.97,4.93,2.85,9.66,4.3,14.49c1.08,3.62,3.8,6.09,6.23,8.75c0.56,0.61,1.49,1,2.33,1.24c3.55,1.01,7.06,1.02,10.4-0.79
		c2.77-1.51,5.48-3.1,8.25-4.68c0.04,0.23,0.16,0.6,0.17,0.98c0.25,5.39,0.43,10.79,0.74,16.18c0.34,5.83,0.78,11.66,1.19,17.49
		c0.16,2.22,0.39,4.44,0.54,6.66c0.47,7.17,0.87,14.35,1.38,21.51c0.47,6.53,1.37,13.03,1.54,19.57
		c0.36,13.92,0.51,27.86,0.43,41.78c-0.04,6.63-1.05,13.25-1.18,19.88c-0.2,10.65-0.01,21.32,0,31.97c0,3.13,0,6.25-0.07,9.37
		c-0.01,0.73-0.28,1.46-0.49,2.5c-0.35-0.54-0.53-0.73-0.61-0.94c-1.39-3.73-2.8-7.45-2.69-11.5c0.16-5.93-0.38-11.79-1.4-17.61
		c-2-11.31-2.69-22.73-2.78-34.2c-0.09-11.96,0.08-23.89-0.82-35.83c-0.77-10.18-0.93-20.4-1.56-30.59
		c-0.68-11.39-1.56-22.75-2.41-34.12c-0.17-2.27-0.45-4.69-2.13-6.37c-2.26-2.26-4.72-4.37-7.26-6.3c-1.76-1.35-3.92-1.42-5.95-0.46
		c-4.21,1.98-7.31,4.95-7.86,9.84c-0.88,7.7-0.13,15.37,1.08,22.95c1.27,7.86,2.01,15.73,1.34,23.68
		c-0.55,6.62-1.63,13.23-1.76,19.84c-0.22,10.9,0.11,21.81,0.28,32.71c0.03,2.52,0.31,5.03,0.59,7.54
		c1.24,10.74,2.53,21.46,3.81,32.19c0.4,3.35,1.08,6.66,1.26,10.02c0.4,7.42,0.4,14.86,0.87,22.28c0.29,4.48,1.14,8.94,1.8,13.39
		c0.53,3.47,1.2,6.93,1.71,10.4c0.91,6.14,3.5,8.75,7.97,10.2c2.8,0.92,5.54,1.01,8.31,0.16c1.84-0.57,3.52-0.42,5.28,0.48
		c1.27,0.66,2.81,0.96,4.26,1.13c7.02,0.79,12.29-1.8,15.43-8.29c0.71-1.46,1.39-2.96,1.89-4.5c1.23-3.76,2.49-7.53,3.46-11.37
		c0.71-2.76,1.34-5.64,1.33-8.47c-0.03-25.74-0.21-51.48-0.37-77.2c-0.01-2.54-0.19-5.05-0.27-7.59c-0.23-7.03-0.63-14.07-0.63-21.1
		c0-13.04,0.17-26.08,0.38-39.12C270.65,282.05,271.14,265.59,271.33,249.13"/>
	<path class="st0" d="M327.4,264.27c-0.02,1-0.61,1.12-1.37,1.14c-1.58,0.04-3.27-0.26-4.74,0.18c-6.07,1.86-12.27,1.24-18.44,1.35
		c-3.46,0.06-5.02,1.46-4.89,4.9c0.23,5.98,0.71,11.97,1.03,17.94c0.29,5.39,0.64,10.78,0.71,16.18c0.05,3.7-0.47,7.41-0.52,11.11
		c-0.04,4.45,0.25,8.93,0.23,13.38c-0.08,12.31,1.19,24.53,2.58,36.74c0.57,4.98,0.74,9.99,0.92,14.99
		c0.41,11.15,0.96,22.29,0.99,33.44c0.02,7.07-0.86,14.13-1.21,21.22c-0.19,3.9-0.2,7.83-0.11,11.74c0.05,2.43,1.6,3.81,3.97,3.99
		c1.79,0.14,3.57,0.2,5.34,0.38c3.27,0.32,6.2-1.16,9.3-1.69c1.26-0.22,2.5-0.55,3.74-0.83c0.14,0.24,0.25,0.37,0.26,0.49
		c0.26,5.49,0.59,10.98,0.77,16.48c0.09,2.77-0.03,2.68-2.73,2.8c-4.25,0.17-8.49,0.55-12.75,0.69c-1.77,0.05-3.56-0.38-5.33-0.37
		c-3.17,0.01-6.34,0.12-9.48,0.35c-2.5,0.17-5,0.58-7.73,0.92c0-0.58,0.02-1.11,0-1.63c-0.23-6.4-0.47-12.78-0.71-19.17
		c-0.02-0.6-0.03-1.19-0.03-1.79c-0.01-11.84,0.12-23.69-0.05-35.53c-0.17-12.4-0.68-24.79-0.95-37.17
		c-0.17-8.53-0.04-17.06-0.26-25.59c-0.32-11.64-0.96-23.28-1.23-34.92c-0.17-7.19,0.11-14.38,0.16-21.57
		c0.06-7.74,0.11-15.47,0.14-23.21c0.11-23.85,0.31-47.7,0.26-71.55c-0.01-10.26-0.36-20.52-0.87-30.77
		c-0.23-4.62-1.27-9.21-1.87-13.83c-0.8-6.19-1.67-12.38-2.24-18.59c-0.85-9.33-1.41-18.67-2.2-28c-0.35-4.05-1.07-8.07-1.44-12.11
		c-0.93-10.11-1.75-20.23-2-30.41c-0.29-11.63-1.29-23.25-1.97-34.88c-0.04-0.59-0.01-1.17-0.01-1.86c2.16,0,4.28-0.19,6.37,0.04
		c3.56,0.42,7.11,0.33,10.46-0.74c5.85-1.85,11.63-1.4,17.48-0.37c1.07,0.19,2.14,0.52,3.22,0.58c4.52,0.25,6.44,3.53,8.28,6.95
		c2.47,4.6,2.69,9.55,2.44,14.6c-0.04,0.82-0.29,1.07-1.12,1.15c-1.77,0.17-3.52,0.6-5.28,0.72c-2.26,0.14-4.58,0.38-6.79,0.03
		c-3.81-0.59-7.58-0.58-11.36-0.11c-0.25,0.02-0.52,0.06-0.77,0.09c-0.15,0.02-0.29,0.05-0.43,0.08c-0.27,0.05-0.53,0.13-0.76,0.22
		c-0.23,0.09-0.45,0.2-0.64,0.32c-1.33,0.83-1.77,2.35-1.51,4.33c0.41,2.99,0.54,6.01,0.67,9.02c0.39,8.22,0.77,16.44,1.06,24.66
		c0.22,6.14,0.25,12.29,0.47,18.43c0.2,5.49,0.56,10.99,0.83,16.47c0.12,2.47,0.31,4.96,0.28,7.43c-0.09,9.08,0.19,18.12,1.29,27.15
		c0.52,4.18,0.36,8.42,0.71,12.62c0.6,7.3,1.54,14.59,1.99,21.9c0.37,5.93,0.48,11.88,0.28,17.82c-0.28,8.57-0.98,17.12-1.48,25.68
		c-0.03,0.59-0.01,1.2,0.06,1.78c0.33,2.32,1.65,3.46,3.96,3.67c2.21,0.21,4.39,0.72,6.6,0.81c2.9,0.12,5.81-0.07,8.71-0.11
		c2.13-0.02,4.24,0,6.39,0c0.02,0.03,0.12,0.11,0.12,0.19c-0.08,3.14,0.75,6.04,1.89,8.93C327.48,256.99,327.48,260.64,327.4,264.27
		 M332.21,249.25c-0.49-1.2-0.56-2.59-0.75-3.89c-0.24-1.61-0.24-3.27-0.65-4.83c-0.55-2-1.83-3.49-4.09-3.49
		c-3.06,0-6.16-0.03-9.2,0.34c-4.06,0.51-8.04,0.69-12.02-0.78c0-0.36-0.03-0.8,0-1.23c0.46-6.83,0.93-13.65,1.39-20.47
		c0.47-6.88,0.66-13.76-0.14-20.64c-0.72-6.2-1.44-12.41-1.93-18.63c-0.43-5.54-0.47-11.09-0.8-16.64
		c-0.34-5.58-0.91-11.16-1.19-16.73c-0.31-6.28-0.38-12.58-0.61-18.86c-0.07-1.94-0.46-3.85-0.51-5.78
		c-0.24-11.69-0.21-23.39-1.2-35.06c-0.61-7.35-0.53-14.76-0.75-22.14c-0.02-0.42,0.04-0.86,0.07-1.51c0.68,0,1.18-0.03,1.66,0.01
		c2.56,0.21,5.13,0.73,7.67,0.62c5.03-0.23,10.05-0.71,15.06-1.25c2.39-0.25,3.76-2.03,3.81-4.58c0.07-2.67,0.03-5.36,0.03-8.03
		c0-8.04-3.01-14.82-8.56-20.54c-1.61-1.66-3.56-2.69-5.83-3.05c-3.9-0.62-7.81-1.26-11.74-1.78c-4.47-0.6-8.88-0.24-13.23,1.05
		c-2.96,0.88-6.01,1.09-9.11,0.76c-3.1-0.33-6.23-0.43-9.35-0.47c-2.8-0.04-4.16,1.53-3.99,4.33c0.03,0.49-0.02,0.99-0.02,1.48
		c0,3.86-0.13,7.73,0.02,11.59c0.39,10.29,0.84,20.6,1.39,30.89c0.44,8.26,0.94,16.52,1.6,24.77c0.84,10.46,1.79,20.92,2.84,31.37
		c0.96,9.5,2.04,19.01,3.19,28.49c0.59,4.82,1.78,9.59,2.07,14.41c0.55,8.95,0.85,17.93,0.87,26.9c0.05,23.89-0.05,47.79-0.19,71.68
		c-0.07,12.84-0.49,25.68-0.44,38.53c0.03,8.26,0.77,16.52,0.98,24.8c0.26,10.9,0.33,21.81,0.46,32.72
		c0.04,3.62-0.07,7.24,0.06,10.85c0.64,16.3,1.35,32.61,1.06,48.92c-0.01,1.14,0.05,2.28,0.06,3.42c0.07,5,0.17,10.01,0.19,15.01
		c0,3.27-0.24,6.55-0.16,9.81c0.16,6.29,0.47,12.58,0.73,18.86c0.03,0.75-0.06,1.51,0.06,2.23c0.75,4.77,2.1,6.95,7.51,6.14
		c2.99-0.44,6-0.84,9-1.08c2.41-0.19,4.84-0.13,7.25-0.14c4.69-0.03,9.39-0.02,14.08-0.06c2.53-0.02,5.04-0.26,7.55-0.12
		c3.66,0.22,5.35-1.23,5.83-4.89c1.08-8.29-0.57-16.53-0.33-24.81c0.01-0.28-0.07-0.58-0.14-0.87c-0.64-3.21-2.3-4.36-5.54-3.74
		c-2.53,0.48-5.03,1.12-7.56,1.57c-2.75,0.51-5.36,1.92-8.3,1.09c-0.72-0.2-1.01-0.41-0.99-1.14c0.07-2.28,0.01-4.57,0.17-6.84
		c0.39-5.48,1.16-10.97,1.25-16.45c0.34-19.44-0.31-38.86-2.12-58.22c-0.71-7.59-1.82-15.15-1.89-22.8
		c-0.12-10.99-0.88-21.95-0.14-32.96c0.31-4.47-0.09-9-0.34-13.5c-0.31-5.68-0.74-11.37-1.2-17.04c-0.22-2.73-0.32-2.64,2.46-2.74
		c3.75-0.14,7.49-0.36,11.23-0.65c2.21-0.17,4.4-0.49,6.59-0.85c2.08-0.35,4.19-0.69,6.21-1.29c1.57-0.47,2.6-1.76,2.67-3.44
		C334.62,261.54,334.71,255.26,332.21,249.25"/>
	<path class="st0" d="M213.89,39.56c-0.19,0.35-0.4,0.68-0.64,1.03c-0.87,1.23-1.76,2.41-2.7,3.53c-0.31,0.37-0.63,0.74-0.96,1.09
		c-0.17,0.18-0.34,0.36-0.49,0.54c-0.17,0.17-0.35,0.35-0.52,0.52c-1.04,1.04-2.16,2.01-3.4,2.89c-1.04,0.74-1.99,1.54-2.86,2.39
		c-0.17,0.17-0.35,0.34-0.52,0.51c-0.33,0.35-0.64,0.71-0.96,1.06c-0.31,0.37-0.59,0.74-0.87,1.12c-2.53,3.39-3.99,7.36-4.58,11.68
		c-0.04,0.24-0.06,0.47-0.09,0.72c-0.06,0.49-0.11,0.98-0.15,1.47c-0.01,0.24-0.03,0.49-0.04,0.74c-0.45,8.57-0.39,17.15-0.59,25.72
		c-0.06,2.62-0.38,5.24-0.33,7.85c0.19,8.82,0.99,17.65,0.67,26.45c-0.8,22.74-0.68,45.5-0.69,68.25c0,5.6-0.01,11.21-0.03,16.82
		c-0.04,5.76-0.07,11.51-0.12,17.27c-0.15,19.19-0.31,38.37-0.23,57.55c0.01,1.75,0.04,3.48,0.11,5.23
		c0.21,6.4,0.73,12.8,1.18,19.19c0.08,1.17,0.17,2.33,0.24,3.49c0.13,2,0.26,4,0.41,6c0.43,6.01,0.92,12.02,1.4,18.02
		c0.19,2.15,0.36,4.29,0.56,6.44c0.56,6.45,1.16,12.88,1.65,19.33c0.21,2.65,0.39,5.3,0.56,7.96c0.12,1.77,0.23,3.54,0.34,5.3
		c0.12,1.77,0.22,3.54,0.33,5.3c0.06,0.88,0.12,1.77,0.17,2.65c0.19,2.87,0.38,5.74,0.57,8.61c0.38,5.74,0.76,11.47,1.13,17.21
		c0.19,2.86,0.38,5.74,0.55,8.61c0.57,8.9,1.13,17.81,1.58,26.71c0.11,1.94,0.16,3.86,0.21,5.8c0.04,1.93,0.07,3.86,0.14,5.8
		c0.03,1.28,0.07,2.58,0.14,3.86c0.03,0.67-0.06,1.28-0.23,1.87c0,0.01,0,0.01,0,0.01c-0.03,0.13-0.07,0.25-0.12,0.38
		c-0.22,0.62-0.52,1.22-0.83,1.81c-0.12,0.23-0.24,0.46-0.37,0.69c-0.12,0.23-0.24,0.47-0.36,0.72c-0.12,0.23-0.22,0.47-0.32,0.72
		c-0.12,0.26-0.78,0.44-1.16,0.41c-2.9-0.25-5.83-0.42-8.7-0.89c-1.03-0.18-1.87-0.59-2.49-1.21c-0.18-0.18-0.34-0.38-0.47-0.58
		c-0.28-0.42-0.49-0.89-0.61-1.42c-0.13-0.49-0.17-1.03-0.15-1.59c0.05-0.86,0.11-1.71,0.18-2.56c0.11-1.32,0.24-2.62,0.37-3.94
		c0.11-1.24,0.22-2.48,0.28-3.73c0.07-1.32,0.15-2.63,0.22-3.95c0.21-4.07,0.41-8.16,0.42-12.24c0.03-9.37,0-18.74-0.34-28.1
		c-0.04-0.98-0.09-1.97-0.18-2.95c-0.05-0.65-0.11-1.31-0.17-1.96c-0.36-3.59-0.87-7.19-1.23-10.78c-0.11-1.16-0.22-2.33-0.34-3.49
		c-0.06-0.78-0.14-1.56-0.19-2.34c-0.08-1.17-0.16-2.34-0.18-3.5c-0.24-9.66-0.34-19.32-0.55-28.99c-0.16-7.55-0.17-15.1-0.44-22.64
		c-0.09-2.52-0.22-5.02-0.38-7.54c-0.13-1.85-0.24-3.7-0.35-5.57c-0.22-3.7-0.42-7.42-0.6-11.14c-0.44-9.28-0.77-18.57-1-27.86
		c-0.12-4.64-0.2-9.29-0.29-13.93c-0.03-1.55-0.07-3.09-0.12-4.64c-0.01-0.47-0.02-0.95-0.05-1.42c-0.08-2.12-0.22-4.22-0.29-6.34
		c-0.04-0.98-0.06-1.96-0.05-2.95c0.03-6.38,0.09-12.75,0.15-19.12v-0.13c0.05-4.24,0.09-8.48,0.13-12.72
		c0.06-7.59,0.11-15.17,0.09-22.75c-0.04-13.38-0.27-26.76-0.87-40.13c-0.36-8.18-1.13-16.36-2.04-24.49
		c-0.14-1.17-0.27-2.34-0.41-3.49c-0.36-3-0.71-5.98-1.04-8.97c-0.41-3.74-0.81-7.48-1.17-11.22c-0.07-0.75-0.15-1.51-0.21-2.25
		c-0.42-4.49-0.79-8.99-1.08-13.5c-0.2-3.27-0.44-6.55-0.69-9.82c-0.77-9.82-1.69-19.63-2.48-29.45c-0.18-2.24-0.34-4.49-0.47-6.75
		c-0.14-2.24-0.26-4.49-0.39-6.75c-0.04-0.79-0.08-1.58-0.13-2.37s-0.08-1.59-0.12-2.38c-0.06-1.59-0.12-3.17-0.13-4.76
		c-0.02-0.88,0.05-1.62,0.22-2.23c0.17-0.65,0.43-1.16,0.83-1.54c0.81-0.8,2.13-1.03,4.09-0.86c1.86,0.17,3.73,0.34,5.73,0.52
		c-0.02,0.44-0.05,0.88-0.07,1.32c-0.09,1.32-0.18,2.57-0.2,3.82c-0.02,1.03,0.01,2.08,0.17,3.1c0.02,0.16,0.05,0.29,0.07,0.44
		c0.03,0.18,0.08,0.36,0.13,0.54c0.09,0.34,0.21,0.66,0.35,0.97c0.13,0.29,0.28,0.58,0.45,0.84c0.18,0.26,0.37,0.51,0.57,0.72
		c1.66,1.76,4.33,2.07,6.87,0.47c0.66-0.42,1.37-0.89,1.83-1.51c1.49-2.02,3.44-3.29,5.79-4.15c1.28-0.46,2.49-1.24,3.62-2.04
		c2.54-1.82,5.47-2.45,8.45-3.02c0.63-0.13,1.14-0.07,1.54,0.13c0.08,0.04,0.15,0.08,0.22,0.14c0.05,0.03,0.08,0.07,0.13,0.11
		c0.31,0.28,0.51,0.72,0.6,1.26C214.97,33.69,215.44,36.64,213.89,39.56 M221.82,29.15c-1.31-5.3-4.83-8.71-11.04-7.53
		c-2.53,0.48-4.99,1.27-7.47,1.93c-0.42,0.12-0.85,0.33-1.27,0.31c-3.14-0.12-5.65,1.26-7.93,3.22c-0.78,0.67-1.51,1.41-2.54,2.38
		c0-2.05,0.05-3.73-0.01-5.41c-0.13-3.18-2.3-4.88-5.45-4.64c-2.24,0.18-4.55,0.25-6.79-0.02c-6.49-0.8-11.58,2.02-13.25,7.69
		c-0.41,1.4-0.62,2.93-0.6,4.39c0.03,3.57,0.21,7.13,0.42,10.69c0.29,5.04,0.64,10.07,1.03,15.11c1.02,12.99,2.1,25.98,3.13,38.97
		c0.48,6.17,0.76,12.37,1.38,18.52c0.77,7.54,1.99,15.04,2.66,22.58c0.81,9.18,1.34,18.38,1.86,27.58
		c0.26,4.45,0.27,8.91,0.37,13.37c0.15,7.24,0.35,14.47,0.4,21.71c0.06,10.01,0.02,20.03,0,30.05c0,3.22-0.11,6.44-0.14,9.66
		c-0.06,5.95-0.26,11.89-0.13,17.84c0.26,12.39,0.72,24.77,1.07,37.14c0.09,3.07,0.02,6.16,0.2,9.23c0.57,9.99,1.34,19.97,1.8,29.96
		c0.33,7.47,0.34,14.97,0.41,22.45c0.06,6.49-0.16,13,0.07,19.48c0.24,6.93,0.64,13.87,1.36,20.77c0.95,9.13,2,18.22,1.83,27.42
		c-0.14,6.84-0.13,13.67-0.38,20.5c-0.22,6.24-0.57,12.47-1.13,18.68c-0.74,8.15,3.95,12.96,9.88,14.29
		c4.14,0.93,8.34,1.18,12.57,0.95c2.47-0.14,4.19-1.33,5.16-3.62c0.44-1.05,0.8-2.16,1.39-3.12c1.46-2.37,1.99-4.94,1.92-7.67
		c-0.2-6.68-0.32-13.38-0.62-20.06c-0.29-6.44-0.75-12.87-1.21-19.29c-0.62-8.76-1.38-17.49-1.96-26.25
		c-0.44-6.62-0.62-13.27-1.08-19.89c-0.64-9.2-1.45-18.39-2.18-27.58c-0.76-9.48-1.53-18.97-2.25-28.46
		c-0.99-13.15-2.1-26.29-2.01-39.5c0.18-25.63,0.26-51.26,0.4-76.89c0.13-22.11,0.26-44.23,0.41-66.34c0.01-2.13,0.18-4.25,0.2-6.39
		c0.05-5.79,0.16-11.6,0.06-17.39c-0.11-5.64-0.56-11.28-0.63-16.92c-0.06-4.56,0.19-9.11,0.31-13.67
		c0.16-5.64,0.07-11.31,0.54-16.92c0.45-5.39,2.34-10.34,7.13-13.46c3.77-2.47,6.53-5.74,9.18-9.35
		C222.68,40.49,223.27,35,221.82,29.15"/>
	<path class="st0" d="M166.76,457.26c-0.17,2.06-0.74,4.09-1.22,6.11c-1.31,5.52-4.29,9.75-9.6,12.04
		c-2.81,1.21-5.63,2.46-8.56,3.32c-3.55,1.02-6.97,0.01-10.15-1.66c-1.61-0.84-3.08-1.98-4.68-2.86c-1.45-0.81-2.36-1.98-2.63-3.59
		c-0.4-2.34-0.67-4.69-1.07-7.04c-0.95-5.71-2.06-11.4-2.9-17.13c-2.07-13.95-3.27-27.94-2.38-42.07c0.46-7.33,0.66-14.65,1-21.98
		c0.51-10.79,1.54-21.55,1.17-32.37c-0.39-10.95-0.6-21.89-1.23-32.83c-0.87-15.09-1.74-30.16-2.14-45.29
		c-0.26-10.08-1.57-20.16-2.4-30.23c-0.23-2.77-0.46-5.53-0.67-8.29c-0.57-7.5-1.08-15.02-1.69-22.52
		c-0.51-6.18-1.21-12.34-1.67-18.51c-1.18-16.06-2.29-32.13-3.42-48.19c-0.08-1.19-0.06-2.39-0.08-3.57
		c-0.12-7.34-0.31-14.67-0.31-22.01c-0.01-7.49,0.38-14.98,0.22-22.46c-0.24-11.24-1.15-22.47-0.77-33.72
		c0.09-2.73,0.4-5.43,0.6-8.15c0.03-0.45,0.2-0.94,0.07-1.33c-1.29-3.89,0.21-7.65,0.59-11.44c0.25-2.48,1.06-4.93,1.73-7.36
		c1.16-4.26,4.42-6.51,8.23-7.95c3.72-1.4,7.6-1.78,11.51-0.62c1.09,0.32,2.21,0.59,3.34,0.73c4.15,0.53,7.44,2.88,10.81,5.04
		c1.83,1.16,2.41,3.16,2.56,5.15c0.36,4.95,0.56,9.89,0.71,12.5c-0.39,12.8,1.49,23.06,2.58,33.4c1.13,10.69,3.76,21.06,5.37,31.63
		c0.91,5.96,1.24,12.02,1.65,18.05c0.98,14.64,1.89,29.28,2.78,43.92c1.03,16.99,1.14,33.98,0.54,50.99
		c-0.45,12.63-0.83,25.26-1.21,37.9c-0.19,6.49-0.58,12.99-0.43,19.47c0.27,13.24,0.84,26.46,1.32,39.69
		c0.27,7.43,0.55,14.86,0.93,22.28c0.52,9.95,1.17,19.89,1.73,29.84c0.25,4.5,0.55,9.01,0.62,13.52
		c0.25,15.71,0.59,31.43,0.56,47.14C168.12,443.63,167.33,450.45,166.76,457.26 M175.77,410.64c-0.12-3.81-0.31-10.3-0.53-16.79
		c-0.17-5.1-0.31-10.22-0.58-15.31c-0.68-12.57-1.53-25.13-2.13-37.71c-0.66-13.77-1.01-27.54-1.72-41.31
		c-0.8-15.72,0.06-31.43,0.38-47.13c0.23-11.25,1.05-22.49,1.26-33.74c0.35-17.45-0.11-34.89-1.34-52.32
		c-0.86-12.11-1.44-24.25-2.36-36.35c-0.54-7.01-1.27-14.02-2.29-20.97c-0.85-5.77-2.38-11.44-3.35-17.21
		c-0.74-4.34-0.93-8.77-1.61-13.11c-1.36-8.54-2.36-17.08-2.35-25.73c0-5.35-0.16-10.7-0.47-16.04c-0.12-1.96-0.45-3.78-1.07-5.44
		c-1.19-3.32-3.45-5.99-7.08-7.79c-0.36-0.18-0.69-0.39-1.03-0.6c-6.86-4.27-14.41-6.05-22.39-5.54c-8.86,0.57-18.2,5.7-20.44,16.45
		c-1.15,5.53-2.04,11.11-2.63,16.71c-0.6,5.62-0.66,11.28-0.97,16.92c-0.07,1.31-0.26,2.62-0.23,3.92c0.02,0.75,0.11,1.48,0.34,2.22
		c0.16,0.52,0.4,1.03,0.73,1.54c0.07,0.11,0.04,0.28,0.05,0.43c0.28,5.89,0.74,11.78,0.81,17.66c0.07,6.35-0.32,12.69-0.29,19.04
		c0.03,9.96,0.24,19.92,0.4,29.88c0.01,1.39,0.06,2.78,0.15,4.16c0.54,8.57,1.08,17.12,1.64,25.68c0.32,4.89,0.54,9.8,1,14.69
		c1.08,11.64,2.37,23.27,3.42,34.91c0.45,5.03,0.41,10.1,0.82,15.13c0.83,10.52,1.99,21.02,2.67,31.55
		c0.64,9.88,0.81,19.8,1.24,29.7c0.22,5.25,0.51,10.49,0.84,15.73c0.26,4.21,0.82,8.4,0.97,12.6c0.27,8.82,0.52,17.64,0.48,26.46
		c-0.02,6.68-0.48,13.36-0.78,20.04c-0.47,10.94-0.95,21.87-1.47,32.82c-0.64,13.31,0.37,26.55,2.24,39.72
		c1.18,8.36,2.67,16.68,4,25.02c0.01,0.02,0.01,0.04,0.01,0.06c0.76,4.68,2.86,8.4,7.28,10.56c0.98,0.47,1.86,1.13,2.79,1.71
		c5.63,3.55,11.62,4.83,18.16,3.03c4.97-1.38,9.82-3.28,13.78-6.46c4.52-3.62,7.78-8.44,8.85-14.4c0.38-2.09,1.05-4.16,1.22-6.27
		c0.61-7.55,1.26-15.1,1.52-22.67C175.97,428.5,175.77,420.91,175.77,410.64"/>
	<path class="st0" d="M52.38,267.29c-3.75,0.66-7.23,1.27-10.84,1.92c-0.04,0-0.07,0.01-0.11,0.02c-0.15-1.22-0.38-2.68-0.47-4.14
		c-0.18-2.77-0.38-5.55-0.41-8.31c-0.16-13.09-0.11-26.19-0.45-39.27c-0.23-8.71-1.03-17.42-1.57-26.12
		c-0.12-1.83-0.22-3.65-0.27-5.49c-0.47-15.7-0.68-31.43-1.52-47.12c-0.49-9.48-1.96-18.91-2.99-28.38
		c-0.86-7.88-1.86-15.75-2.56-23.65c-0.33-3.62-0.05-7.3-0.05-11.25h11.94c0.77,5.3,1.78,10.77,2.3,16.26
		c1.12,11.64,2.02,23.3,2.93,34.96c0.61,7.85,0.79,15.75,1.64,23.58c1.02,9.43,1.12,18.89,1.37,28.35
		c0.16,5.99,0.27,11.99,0.29,17.99c0.05,12.74,0.05,25.48,0.01,38.23c-0.01,4.17-0.4,8.34-0.27,12.48
		c0.19,6.24,0.67,12.47,1.03,18.7C52.41,266.57,52.38,267.11,52.38,267.29 M59.4,265.15c-0.69-7.85-0.91-15.69-0.83-23.59
		c0.23-25.39-0.02-50.77-0.08-76.16c0-0.44-0.05-0.89-0.08-1.34c-0.47-5.98-0.97-11.96-1.4-17.93c-0.24-3.41-0.33-6.84-0.59-10.24
		c-0.63-8.5-1.31-17-2.02-25.49c-0.64-7.7-1.29-15.42-2.1-23.1c-0.52-4.77-1.84-9.42-1.65-14.29c0.17-4.15-1.73-5.73-5.85-5.48
		c-5.04,0.32-10.08,0.58-15.11,0.84c-2.69,0.14-4.72,1.76-4.9,4.44c-0.35,4.75-0.87,9.52-0.58,14.25c0.49,8.2,1.37,16.4,2.43,24.54
		c1.51,11.56,2.86,23.13,3.27,34.77c0.47,13.32,0.67,26.66,1,39.99c0.03,1.09,0.07,2.18,0.15,3.26c0.55,7.71,1.31,15.42,1.59,23.14
		c0.27,7.22,0.06,14.47,0.06,21.71c0.04,0,0.08,0,0.12,0c0.28,10.06,0.47,20.11,0.89,30.17c0.12,2.94,0.68,5.9,1.38,8.77
		c0.64,2.7,2.42,3.86,5.19,3.63c1.6-0.13,3.21-0.58,4.75-1.08c2.34-0.77,4.64-1.33,7.14-0.87c1.05,0.19,2.18,0.15,3.26,0.06
		c2.54-0.18,4.01-1.68,4.07-4.22C59.54,269.01,59.57,267.08,59.4,265.15"/>
	<path class="st0" d="M326.73,219.32c-0.05,1.72,0,3.43,0,5.17c-0.67-0.05-1.33-0.11-1.96-0.16c-1.59-0.14-3.12-0.26-4.69-0.4
		c-0.32-0.03-0.63-0.05-0.95-0.07v-1.67c0.01-5.5,0.13-11.01,0.02-16.51c-0.15-8.22-0.62-16.44-0.62-24.65
		c-0.01-5.29,0.72-10.58,0.87-15.87c0.25-8.37,0.53-16.75-0.97-25.06c-1.71-9.49-3.53-18.99-4.99-28.52
		c-1.83-11.91-2.64-23.93-2.42-36c0.01-0.54,0.05-1.07,0.07-1.67c2.79,0.24,5.47,0.47,8.24,0.72c0.05,0.28,0.14,0.57,0.13,0.84
		c-0.17,7.45,0.8,14.82,1.48,22.22c0.76,8.21,2.28,16.28,3.2,24.44c1.07,9.64,1.64,19.36,2.12,29.04
		c0.63,13.01,1.23,26.03,1.36,39.05C327.72,199.9,327.04,209.61,326.73,219.32 M333.76,166.4c-0.29-7.78-0.28-15.58-0.99-23.31
		c-1-11.04-1.86-22.09-3.57-33.09c-1.74-11.26-3.25-22.67-2.96-34.17c0.04-1.47-0.12-2.99-0.41-4.43c-0.53-2.48-1.88-3.5-4.4-3.58
		c-0.79-0.02-1.59,0.06-2.38-0.02c-3.48-0.35-6.98-0.65-10.45-1.14c-2.07-0.29-3.73,0.73-3.99,2.93c-0.21,1.9-0.34,3.82-0.35,5.73
		c-0.03,8.87-0.03,17.76,1.22,26.56c1.25,8.83,2.16,17.73,3.96,26.44c2.64,12.76,4.13,25.51,3.03,38.53
		c-0.38,4.59-0.76,9.2-0.72,13.8c0.08,9.22,0.52,18.43,0.69,27.64c0.12,6.35,0.03,12.69,0.08,19.04c0.03,3.2,2,4.98,5.04,4.07
		c3.58-1.06,6.97-0.34,10.42,0.24c3.58,0.59,5.32-0.69,5.4-4.3c0.06-2.87,0.04-5.76,0.14-8.63c0.28-9.31,0.62-18.62,1.03-30.75
		C334.37,182.64,334.06,174.51,333.76,166.4"/>
	<path class="st0" d="M326.87,415.93c0.51,5.62,0.62,11.28,0.97,16.92c0.08,1.25-0.27,1.64-1.57,1.51
		c-3.58-0.38-3.65-0.35-3.56-3.86c0.07-2.38,0.25-4.75,0.51-7.11c1.16-10.83,0.48-21.68,0.38-32.53c-0.01-0.85-0.09-1.68-0.12-2.53
		c-0.27-16.86-0.45-33.72-0.87-50.56c-0.17-6.68-0.85-13.36-1.32-20.03c-0.43-6.14-0.69-12.28-1.41-18.38
		c-0.56-4.85-1.69-9.63-2.59-14.49h6.49c0.26,2.76,0.6,5.5,0.76,8.25c0.61,10.04,1.18,20.08,1.71,30.13
		c0.28,5.34,0.41,10.69,0.67,16.04c0.37,7.73,1,15.44,1.12,23.17c0.07,5.43-0.71,10.87-0.82,16.32
		C326.95,391.16,325.76,403.52,326.87,415.93 M333.46,418.77c-1.16-13.29-0.05-26.55,0.38-39.83c0.2-5.94,0.74-11.87,1.13-17.8
		l-0.34-0.02c0-2.28,0.11-4.57-0.02-6.83c-0.38-7.14-0.84-14.25-1.25-21.38c-0.2-3.52-0.29-7.03-0.49-10.55
		c-0.53-9.06-1.04-18.11-1.64-27.16c-0.26-4.09-0.62-8.19-1.12-12.27c-0.37-3.04-2.97-5.05-6.06-4.93
		c-3.22,0.12-6.44,0.27-9.65,0.43c-2.06,0.11-2.32,0.28-2.5,2.3c-0.36,3.8-0.22,7.57,0.75,11.28c0.22,0.86,0.38,1.75,0.44,2.63
		c0.29,4.04,0.52,8.08,0.81,12.11c0.59,8.21,1.41,16.4,1.77,24.62c0.49,11.24,0.71,22.49,0.93,33.74
		c0.22,11.3,0.37,22.61,0.44,33.91c0.05,9.26,0.35,18.53-0.85,27.78c-0.37,2.86,0.01,5.83,0.18,8.75c0.11,1.82,0.82,3.5,2.73,4.06
		c3.22,0.95,6.54,1.73,9.95,1.38c3.92-0.41,5.4-2.01,5.28-5.9C334.12,429.66,333.93,424.2,333.46,418.77"/>
	<path class="st0" d="M239.42,178.71c-0.21,7.78,0.04,15.57-0.07,23.35c-0.08,6.07-1.36,12-2.82,17.87
		c-0.18,0.73-0.92,1.87-1.38,1.86c-2.1-0.01-3.41-0.95-3.47-2.36c-0.15-3.26-0.09-6.54-0.23-9.8c-0.05-1.09-0.43-2.18-0.67-3.26
		c-0.14-0.66-0.45-1.34-0.45-2c0-13.53,0.02-27.07,0.05-40.62c0-0.24,0.03-0.49,0.04-0.74h0.23v-18c0-5.65,0.04-11.3-0.02-16.96
		c-0.09-7.99-0.23-15.97-0.41-23.94c-0.03-1.67-0.34-3.35-0.53-5.02c-0.98-8.85-0.62-17.72-0.32-26.59
		c0.06-2.02,0.28-4.05,0.56-6.06c0.4-3.01,3.72-4.84,6.62-3.86c1.51,0.52,2.09,1.26,2.1,2.98c0.04,10.7,0.44,21.42,0.31,32.12
		c-0.09,7.02-1.04,14.02-1.36,21.05c-0.25,5.98-0.59,12.01-0.13,17.97C238.55,150.7,239.81,164.66,239.42,178.71 M246.53,160.67
		c0-0.64-0.02-1.29-0.08-1.93c-0.55-6.02-1.17-12.04-1.64-18.06c-0.67-8.31-0.67-16.6,0.21-24.93c0.87-8.27,1.02-16.61,1.25-20.83
		c-0.21-13.07-0.37-22.05-0.52-31.02c-0.05-3.56-1.66-6.02-5.05-7.27c-0.74-0.27-1.46-0.59-2.21-0.86c-6.59-2.42-15.1,3.12-15.5,9.2
		c-0.23,3.5-0.85,7-0.84,10.5c0,9.25-0.19,18.49,0.72,27.76c0.89,9.15,0.65,18.42,0.65,27.64c-0.01,13.23-0.37,26.47-0.36,39.7
		c0.01,16.06,0.26,32.12,0.4,48.18c0.02,3.3,1.39,5.86,3.94,7.95c6.29,5.12,13.39,3.06,15.81-4.62c0.09-0.28,0.19-0.57,0.26-0.85
		c1.57-7.11,3.02-14.24,2.98-21.59C246.48,186.65,246.53,173.66,246.53,160.67"/>
	<path class="st0" d="M149.9,395.07c-0.24,5.15-0.41,10.29-0.66,15.45c-0.48,9.75-1,19.5-1.52,29.25c-0.03,0.58-0.19,1.14-0.28,1.72
		c-0.14,0-0.27,0.01-0.4,0.01c-0.24-1.75-0.62-3.49-0.69-5.24c-0.45-10.2-0.88-20.39-1.23-30.57c-0.42-12.2-1.61-24.32-2.74-36.46
		c-0.68-7.24-1.39-14.48-2.45-21.69c-0.82-5.57-0.39-11.38-0.06-17.05c0.35-5.78,1.11-11.54,1.96-17.27
		c1.54-10.4,0.84-20.77-0.08-31.14c-0.33-3.69-0.34-7.42-0.55-11.14c-0.57-10.44-1.09-20.88-1.76-31.31
		c-0.68-10.74-1.27-21.48-2.34-32.17c-1.12-11.34-2.74-22.62-4.14-33.91c-1.68-13.62-3.53-27.23-4.98-40.87
		c-0.55-5.25-0.06-10.61-0.26-15.9c-0.23-6.48-0.84-12.96-1-19.44c-0.12-4.95,0.17-9.9,0.39-14.85c0.14-2.92,0.52-5.82,0.69-8.74
		c0.04-0.71-0.07-1.64-0.52-2.1c-1.18-1.25-1.07-2.69-0.94-4.17c0.37-4.04,0.73-8.09,1.21-12.12c0.36-3,1.25-4.04,4.21-5.26
		c0.37,1.82,0.88,3.56,1.03,5.33c0.32,3.84,0.6,7.71,0.6,11.57c0,4.68,0.54,9.28,1.18,13.9c1.08,7.9,1.82,15.84,2.82,23.75
		c0.93,7.33,2.05,14.62,2.98,21.94c0.66,5.1,0.85,10.28,1.76,15.35c1.47,8.21,1.38,16.47,1.42,24.74
		c0.11,15.52,0.31,31.04,0.41,46.56c0.02,3.32-0.35,6.64-0.25,9.96c0.11,3.65,0.56,7.3,0.81,10.96c0.37,5.34,0.68,10.68,1.06,16.02
		c0.29,4.1,0.68,8.2,0.96,12.29c0.38,5.79,0.64,11.58,1.07,17.37c0.61,8.16,1.38,16.29,1.97,24.45c0.35,4.75,0.61,9.5,0.72,14.26
		c0.36,16.06,0.85,32.12,0.85,48.18C151.17,376.16,150.33,385.61,149.9,395.07 M158.45,347.5c-0.21-9.96-0.35-19.92-0.61-29.89
		c-0.14-4.85-0.39-9.7-0.74-14.56c-0.59-8.3-1.35-16.6-1.96-24.9c-0.36-4.88-0.53-9.8-0.86-14.69c-0.44-6.73-0.93-13.44-1.46-20.16
		c-0.41-5.09-1.07-10.17-1.35-15.25c-0.2-3.7,0.09-7.43,0.11-11.15c0.02-10.56,0-21.12,0-31.68c0.04,0,0.09-0.01,0.14-0.01
		c-0.2-6.04-0.49-12.09-0.57-18.13c-0.09-8.87,0.01-17.72-1.53-26.53c-1.17-6.68-1.63-13.47-2.47-20.2
		c-0.66-5.21-1.48-10.4-2.12-15.61c-1.03-8.36-2-16.72-2.92-25.09c-0.45-4.19-0.8-8.38-1.08-12.57c-0.31-4.25-0.39-8.53-0.73-12.77
		c-0.26-3.22-0.96-6.38-2.94-9.08c-1.87-2.57-4.74-3.76-7.39-2.76c-5.12,1.94-9.07,5.14-9.61,10.99
		c-0.56,6.25-0.84,12.54-1.07,18.82c-0.15,3.81,0.09,7.63,0.07,11.44c-0.03,4.8-0.32,9.61-0.19,14.4
		c0.19,7.53,0.83,15.05,0.91,22.58c0.09,9.14,0.52,18.24,1.78,27.28c0.72,5.15,1.65,10.27,2.35,15.43
		c1.33,9.76,2.56,19.54,3.81,29.32c0.53,4.08,1.15,8.16,1.46,12.25c0.67,8.69,1.17,17.4,1.75,26.1c0.33,4.84,0.73,9.68,1,14.53
		c0.45,8.01,0.83,16.03,1.24,24.05c0.24,4.55,0.38,9.1,0.77,13.65c0.74,8.75,1.45,17.48,0.39,26.26c-0.66,5.5-1.12,11.04-1.87,16.55
		c-1.08,7.95-1.32,15.89-0.25,23.84c0.33,2.45,0.99,4.87,1.22,7.33c1.05,11.1,2.08,22.21,2.98,33.32
		c0.53,6.56,1.06,13.15,1.12,19.72c0.06,8.87,0.25,17.73,0.94,26.58c0.39,4.94,1.65,9.66,3.3,14.28c0.73,2.02,2.12,3.6,4.45,3.62
		c2.47,0.03,4.42-1.19,5.52-3.4c1.65-3.29,2.9-6.78,3.17-10.47c0.52-7.06,0.91-14.13,1.25-21.22c0.37-7.78,0.64-15.56,0.96-23.33
		c0.46-11.29,1.02-22.58,1.35-33.87C158.89,357.52,158.55,352.51,158.45,347.5"/>
</g>
</svg>
