<?xml version="1.0" encoding="utf-8"?>
<!-- Generator: Adobe Illustrator 25.2.1, SVG Export Plug-In . SVG Version: 6.00 Build 0)  -->
<svg version="1.1" id="Capa_1" xmlns="http://www.w3.org/2000/svg" xmlns:xlink="http://www.w3.org/1999/xlink" x="0px" y="0px"
	 viewBox="0 0 1021.28 612" style="enable-background:new 0 0 1021.28 612;" xml:space="preserve">
<style type="text/css">
	.st0{clip-path:url(#SVGID_2_);fill:#E4ECEE;}
	.st1{fill:#E4ECEE;}
	.st2{clip-path:url(#SVGID_4_);fill:#E4ECEE;}
	.st3{clip-path:url(#SVGID_6_);fill:#E4ECEE;}
</style>
<g>
	<defs>
		<rect id="SVGID_1_" x="33.93" y="110.43" width="965.39" height="391.15"/>
	</defs>
	<clipPath id="SVGID_2_">
		<use xlink:href="#SVGID_1_"  style="overflow:visible;"/>
	</clipPath>
	<path class="st0" d="M828.77,123.12c-4.57-3-1.91-15.27,7.37-12.21l163.18,96.35v198.16l-165.09,96.15l-163.45-96.56
		c0,0,1.01-190.58,1.03-191c0.2-7.16,0.95-9.76,7.57-12.14l125.26,76.85c0,0,3.62,1.71,3.82,3.51v35.22l26.39,15.14l22.71-11.05
		l-0.41-33.75L701.67,198.6c0,0-2.8-10.29,6.95-12.27l162.84,93.28v49.92l-36.82,19.85l-40.03-22.71l-0.28-37.23
		c0,0-3.34-9.34-14.12-8.79l-0.41,58.92l54.01,31.57l55.78-32.74l-0.34-65.12l-155.88-93.28c0,0-2.93-10.36,7.16-13.09l163.04,97.78
		l-0.61,81.42l-69.35,40.92l-67.92-39.68l-0.41-75.7c0,0-4.43-7.77-16.57-10.43l0.21,97.58l86.12,50.53l86.65-53.19l-0.93-104.74
		l-155.68-91.44c0,0-4.3-10.64,7.36-12.07l162.64,94.72l-0.21,121.92l-99.83,60.76l-100.65-58.72l-0.2-114.35
		c0,0-4.57-7.57-16.16-9.61v136.25l115.42,67.78l118.93-70.23l1.01-141.15l-155.99-92.88c0,0-4.5-10.44,7.57-12.07l162.23,96.76
		l0.81,157.16L834.15,463.8l-130.23-77.4l-0.21-152.61c0,0-3.68-6.68-17.39-10.84l-1.43,173.68l149.62,88.06l150.49-87.24
		l0.17-181.51L828.77,123.12z"/>
</g>
<polygon class="st1" points="152.63,207.02 120.63,207.02 120.63,289.36 113.8,289.36 113.8,207.02 79.73,207.02 81.79,201.34 
	154.69,201.34 "/>
<path class="st1" d="M196.51,211.54l-18.84,41.67h37.8L196.51,211.54z M233.28,291.93l-15.23-33.04h-42.96l-15.35,33.16l-5.94-2.7
	l40.64-87.63l3.36-1.67l41.54,89.3L233.28,291.93z"/>
<polygon class="st1" points="249.79,289.36 249.79,201.34 256.64,201.34 256.64,283.66 297.67,283.66 300.12,289.36 "/>
<polygon class="st1" points="310.32,289.36 310.32,201.34 317.16,201.34 317.16,283.66 358.19,283.66 360.64,289.36 "/>
<polygon class="st1" points="370.96,289.36 370.96,201.34 418.96,201.34 416.51,207.02 377.81,207.02 377.81,242.25 414.96,242.25 
	414.96,247.92 377.81,247.92 377.81,283.66 418.06,283.66 420,289.36 "/>
<g>
	<defs>
		<rect id="SVGID_3_" x="33.93" y="110.43" width="965.39" height="391.15"/>
	</defs>
	<clipPath id="SVGID_4_">
		<use xlink:href="#SVGID_3_"  style="overflow:visible;"/>
	</clipPath>
	<path class="st2" d="M472.9,211.86c-3.7-3.24-9.6-4.84-17.68-4.84h-14.32v34.46h14.58c7.82,0,13.61-1.55,17.35-4.64
		c3.74-3.11,5.62-7.32,5.62-12.65C478.46,219.19,476.6,215.08,472.9,211.86 M492.65,291.41l-30.06-44.26h-21.68v42.2h-6.84v-88.02
		h22.58c5.42,0,9.97,0.62,13.69,1.88c3.69,1.25,6.67,2.92,8.96,5.03c2.28,2.09,3.95,4.53,4.96,7.27c1.04,2.76,1.55,5.61,1.55,8.52
		c0,10.16-5.59,17.29-16.77,21.44l29.17,42.44L492.65,291.41z"/>
</g>
<polygon class="st1" points="33.93,320.23 33.93,407.66 40.79,407.66 40.79,317.64 "/>
<polygon class="st1" points="136,407.92 67.74,331.51 67.74,407.67 60.87,407.67 60.87,316.87 65.79,319.32 133.67,395.49 
	133.67,319.32 140.54,319.32 140.54,410.26 "/>
<polygon class="st1" points="222.53,325.03 190.4,325.03 190.4,407.66 183.55,407.66 183.55,325.03 149.34,325.03 151.42,319.32 
	224.6,319.32 "/>
<polygon class="st1" points="233.8,407.67 233.8,319.32 281.98,319.32 279.52,325.03 240.66,325.03 240.66,360.39 277.97,360.39 
	277.97,366.09 240.66,366.09 240.66,401.97 281.08,401.97 283.02,407.67 "/>
<g>
	<defs>
		<rect id="SVGID_5_" x="33.93" y="110.43" width="965.39" height="391.15"/>
	</defs>
	<clipPath id="SVGID_6_">
		<use xlink:href="#SVGID_5_"  style="overflow:visible;"/>
	</clipPath>
	<path class="st3" d="M357.05,406.96c-5.23,1.25-10.44,1.89-15.62,1.89c-6.9,0-13.27-1.16-19.09-3.44
		c-5.83-2.29-10.91-5.45-15.23-9.52c-4.32-4.06-7.68-8.87-10.09-14.45c-2.42-5.57-3.64-11.63-3.64-18.2
		c0-6.48,1.18-12.45,3.57-17.94c2.38-5.48,5.68-10.23,9.92-14.25c4.23-4.02,9.23-7.17,15.03-9.45c5.78-2.29,12.08-3.43,18.91-3.43
		c2.5,0,4.9,0.08,7.19,0.24c2.29,0.18,4.64,0.49,7.05,0.92c2.42,0.43,4.94,1.08,7.51,1.94c2.6,0.87,5.45,1.98,8.56,3.37l-2.46,6.48
		c-4.93-2.51-9.75-4.23-14.45-5.18c-4.7-0.96-9.52-1.43-14.44-1.43c-5.61,0-10.79,0.98-15.53,2.92c-4.76,1.94-8.86,4.66-12.31,8.15
		c-3.46,3.5-6.16,7.62-8.1,12.37c-1.95,4.76-2.91,9.93-2.91,15.56c0,4.9,0.81,9.73,2.45,14.43c1.63,4.7,4.15,8.87,7.51,12.5
		c3.37,3.62,7.6,6.53,12.7,8.73c5.09,2.21,11.14,3.31,18.14,3.31c5.19,0,9.63-0.47,13.33-1.43c3.72-0.95,7.35-2.29,10.89-4.01
		v-26.43l6.87-3.11v33.8C367.51,403.82,362.27,405.7,357.05,406.96"/>
	<path class="st3" d="M429.26,329.89c-3.71-3.24-9.63-4.86-17.75-4.86h-14.38v34.59h14.63c7.86,0,13.68-1.56,17.42-4.66
		c3.75-3.12,5.63-7.33,5.63-12.69C434.82,337.25,432.97,333.13,429.26,329.89 M449.08,409.74l-30.17-44.43h-21.77v42.36h-6.87
		v-88.35h22.67c5.44,0,10.02,0.62,13.73,1.87c3.72,1.27,6.71,2.94,9,5.06c2.29,2.12,3.95,4.55,4.99,7.31
		c1.03,2.78,1.55,5.62,1.55,8.55c0,10.2-5.61,17.37-16.84,21.5l29.28,42.61L449.08,409.74z"/>
</g>
<path class="st1" d="M497.38,329.55l-18.9,41.84h37.95L497.38,329.55z M534.31,410.26l-15.29-33.16h-43.14l-15.4,33.29l-5.97-2.72
	l40.81-87.95l3.37-1.69l41.69,89.64L534.31,410.26z"/>
<polygon class="st1" points="550.89,407.67 550.89,319.32 557.75,319.32 557.75,401.97 598.95,401.97 601.4,407.67 "/>
</svg>
